<?xml version="1.0" encoding="iso-8859-1" standalone="no"?> 
<?xml-stylesheet href="gsocPreprint.css" type="text/css"?> 
<svg xmlns="http://www.w3.org/2000/svg" xmlns:xlink="http://www.w3.org/1999/xlink" width="569.45486pt" height="311.63617pt" viewBox="-0.2 -0.2 569.45486 311.63617 "> 
<g transform="translate(0, 311.43617 ) scale(1,-1) translate(0,0.2 )"> 
<g>
 <g stroke="rgb(0.0%,0.0%,0.0%)">
 <g fill="rgb(0.0%,0.0%,0.0%)">
 <g stroke-width="0.4pt">
 <g>
 <g>
 <g stroke="rgb(100.0%,100.0%,100.0%)">
 <g fill="rgb(100.0%,100.0%,100.0%)">
 <g fill="rgb(100.0%,100.0%,100.0%)">
 <path d=" M  0.0 0.0 M  0.0 0.0 L  0.0 311.23618 L  569.05487 311.23618 L  569.05487 0.0 Z M  569.05487 311.23618  " />
 </g>
 </g>
 </g>
 </g>
 <g>
 <g stroke="rgb(100.0%,100.0%,100.0%)">
 <g fill="rgb(100.0%,100.0%,100.0%)">
 <g fill="rgb(100.0%,100.0%,100.0%)">
 <path d=" M  56.90549 31.12366 M  56.90549 31.12366 L  56.90549 280.11165 L  512.14938 280.11165 L  512.14938 31.12366 Z M  512.14938 280.11165  " />
 </g>
 </g>
 </g>
 </g>
 <g>
 <g stroke="rgb(0.0%,0.0%,0.0%)">
 <g fill="rgb(0.0%,0.0%,0.0%)">
 <g stroke-width="0.9pt">
 <path d=" M  56.90549 31.12366 L  56.90549 280.11165 L  512.14938 280.11165 L  512.14938 31.12366 L  56.90549 31.12366  " style="fill:none"/>
 </g>
 </g>
 </g>
 </g>
 <g>
 <g stroke="rgb(100.0%,100.0%,100.0%)">
 <g fill="rgb(100.0%,100.0%,100.0%)">
 <g fill="rgb(100.0%,100.0%,100.0%)">
 <path d=" M  56.90549 31.12366 M  56.90549 31.12366 L  56.90549 280.11165 L  512.14938 280.11165 L  512.14938 31.12366 Z M  512.14938 280.11165  " />
 </g>
 </g>
 </g>
 </g>
 <g>
 <g stroke="rgb(0.0%,0.0%,0.0%)">
 <g fill="rgb(0.0%,0.0%,0.0%)">
 <g stroke-width="0.9pt">
 <path d=" M  56.90549 31.12366 L  56.90549 280.11165 L  512.14938 280.11165 L  512.14938 31.12366 L  56.90549 31.12366  " style="fill:none"/>
 </g>
 </g>
 </g>
 </g>
 <g>
 <g stroke="rgb(0.0%,0.0%,0.0%)">
 <g fill="rgb(0.0%,0.0%,0.0%)">
 <g stroke-width="0.9pt">
 <path d=" M  56.90549 31.12366 L  512.14938 31.12366  " style="fill:none"/>
 </g>
 </g>
 </g>
 </g>
 <g>
 <g stroke="rgb(0.0%,0.0%,0.0%)">
 <g fill="rgb(0.0%,0.0%,0.0%)">
 <g stroke-width="0.9pt">
 <path d=" M  56.90549 38.59328 L  56.90549 31.12366  " style="fill:none"/>
 </g>
 </g>
 </g>
 </g>
 <g>
 <g stroke="rgb(0.0%,0.0%,0.0%)">
 <g fill="rgb(0.0%,0.0%,0.0%)">
 <g stroke-width="0.9pt">
 <path d=" M  69.87541 34.85825 L  69.87541 31.12366  " style="fill:none"/>
 </g>
 </g>
 </g>
 </g>
 <g>
 <g stroke="rgb(0.0%,0.0%,0.0%)">
 <g fill="rgb(0.0%,0.0%,0.0%)">
 <g stroke-width="0.9pt">
 <path d=" M  82.84534 34.85825 L  82.84534 31.12366  " style="fill:none"/>
 </g>
 </g>
 </g>
 </g>
 <g>
 <g stroke="rgb(0.0%,0.0%,0.0%)">
 <g fill="rgb(0.0%,0.0%,0.0%)">
 <g stroke-width="0.9pt">
 <path d=" M  95.81526 34.85825 L  95.81526 31.12366  " style="fill:none"/>
 </g>
 </g>
 </g>
 </g>
 <g>
 <g stroke="rgb(0.0%,0.0%,0.0%)">
 <g fill="rgb(0.0%,0.0%,0.0%)">
 <g stroke-width="0.9pt">
 <path d=" M  108.7852 34.85825 L  108.7852 31.12366  " style="fill:none"/>
 </g>
 </g>
 </g>
 </g>
 <g>
 <g stroke="rgb(0.0%,0.0%,0.0%)">
 <g fill="rgb(0.0%,0.0%,0.0%)">
 <g stroke-width="0.9pt">
 <path d=" M  121.75513 38.59328 L  121.75513 31.12366  " style="fill:none"/>
 </g>
 </g>
 </g>
 </g>
 <g>
 <g stroke="rgb(0.0%,0.0%,0.0%)">
 <g fill="rgb(0.0%,0.0%,0.0%)">
 <g stroke-width="0.9pt">
 <path d=" M  134.72505 34.85825 L  134.72505 31.12366  " style="fill:none"/>
 </g>
 </g>
 </g>
 </g>
 <g>
 <g stroke="rgb(0.0%,0.0%,0.0%)">
 <g fill="rgb(0.0%,0.0%,0.0%)">
 <g stroke-width="0.9pt">
 <path d=" M  147.69498 34.85825 L  147.69498 31.12366  " style="fill:none"/>
 </g>
 </g>
 </g>
 </g>
 <g>
 <g stroke="rgb(0.0%,0.0%,0.0%)">
 <g fill="rgb(0.0%,0.0%,0.0%)">
 <g stroke-width="0.9pt">
 <path d=" M  160.66447 34.85825 L  160.66447 31.12366  " style="fill:none"/>
 </g>
 </g>
 </g>
 </g>
 <g>
 <g stroke="rgb(0.0%,0.0%,0.0%)">
 <g fill="rgb(0.0%,0.0%,0.0%)">
 <g stroke-width="0.9pt">
 <path d=" M  173.6344 34.85825 L  173.6344 31.12366  " style="fill:none"/>
 </g>
 </g>
 </g>
 </g>
 <g>
 <g stroke="rgb(0.0%,0.0%,0.0%)">
 <g fill="rgb(0.0%,0.0%,0.0%)">
 <g stroke-width="0.9pt">
 <path d=" M  186.60434 38.59328 L  186.60434 31.12366  " style="fill:none"/>
 </g>
 </g>
 </g>
 </g>
 <g>
 <g stroke="rgb(0.0%,0.0%,0.0%)">
 <g fill="rgb(0.0%,0.0%,0.0%)">
 <g stroke-width="0.9pt">
 <path d=" M  199.57469 34.85825 L  199.57469 31.12366  " style="fill:none"/>
 </g>
 </g>
 </g>
 </g>
 <g>
 <g stroke="rgb(0.0%,0.0%,0.0%)">
 <g fill="rgb(0.0%,0.0%,0.0%)">
 <g stroke-width="0.9pt">
 <path d=" M  212.54463 34.85825 L  212.54463 31.12366  " style="fill:none"/>
 </g>
 </g>
 </g>
 </g>
 <g>
 <g stroke="rgb(0.0%,0.0%,0.0%)">
 <g fill="rgb(0.0%,0.0%,0.0%)">
 <g stroke-width="0.9pt">
 <path d=" M  225.51456 34.85825 L  225.51456 31.12366  " style="fill:none"/>
 </g>
 </g>
 </g>
 </g>
 <g>
 <g stroke="rgb(0.0%,0.0%,0.0%)">
 <g fill="rgb(0.0%,0.0%,0.0%)">
 <g stroke-width="0.9pt">
 <path d=" M  238.48448 34.85825 L  238.48448 31.12366  " style="fill:none"/>
 </g>
 </g>
 </g>
 </g>
 <g>
 <g stroke="rgb(0.0%,0.0%,0.0%)">
 <g fill="rgb(0.0%,0.0%,0.0%)">
 <g stroke-width="0.9pt">
 <path d=" M  251.4544 38.59328 L  251.4544 31.12366  " style="fill:none"/>
 </g>
 </g>
 </g>
 </g>
 <g>
 <g stroke="rgb(0.0%,0.0%,0.0%)">
 <g fill="rgb(0.0%,0.0%,0.0%)">
 <g stroke-width="0.9pt">
 <path d=" M  264.42435 34.85825 L  264.42435 31.12366  " style="fill:none"/>
 </g>
 </g>
 </g>
 </g>
 <g>
 <g stroke="rgb(0.0%,0.0%,0.0%)">
 <g fill="rgb(0.0%,0.0%,0.0%)">
 <g stroke-width="0.9pt">
 <path d=" M  277.39383 34.85825 L  277.39383 31.12366  " style="fill:none"/>
 </g>
 </g>
 </g>
 </g>
 <g>
 <g stroke="rgb(0.0%,0.0%,0.0%)">
 <g fill="rgb(0.0%,0.0%,0.0%)">
 <g stroke-width="0.9pt">
 <path d=" M  290.3629 34.85825 L  290.3629 31.12366  " style="fill:none"/>
 </g>
 </g>
 </g>
 </g>
 <g>
 <g stroke="rgb(0.0%,0.0%,0.0%)">
 <g fill="rgb(0.0%,0.0%,0.0%)">
 <g stroke-width="0.9pt">
 <path d=" M  303.33456 34.85825 L  303.33456 31.12366  " style="fill:none"/>
 </g>
 </g>
 </g>
 </g>
 <g>
 <g stroke="rgb(0.0%,0.0%,0.0%)">
 <g fill="rgb(0.0%,0.0%,0.0%)">
 <g stroke-width="0.9pt">
 <path d=" M  316.30362 38.59328 L  316.30362 31.12366  " style="fill:none"/>
 </g>
 </g>
 </g>
 </g>
 <g>
 <g stroke="rgb(0.0%,0.0%,0.0%)">
 <g fill="rgb(0.0%,0.0%,0.0%)">
 <g stroke-width="0.9pt">
 <path d=" M  329.27225 34.85825 L  329.27225 31.12366  " style="fill:none"/>
 </g>
 </g>
 </g>
 </g>
 <g>
 <g stroke="rgb(0.0%,0.0%,0.0%)">
 <g fill="rgb(0.0%,0.0%,0.0%)">
 <g stroke-width="0.9pt">
 <path d=" M  342.24391 34.85825 L  342.24391 31.12366  " style="fill:none"/>
 </g>
 </g>
 </g>
 </g>
 <g>
 <g stroke="rgb(0.0%,0.0%,0.0%)">
 <g fill="rgb(0.0%,0.0%,0.0%)">
 <g stroke-width="0.9pt">
 <path d=" M  355.21254 34.85825 L  355.21254 31.12366  " style="fill:none"/>
 </g>
 </g>
 </g>
 </g>
 <g>
 <g stroke="rgb(0.0%,0.0%,0.0%)">
 <g fill="rgb(0.0%,0.0%,0.0%)">
 <g stroke-width="0.9pt">
 <path d=" M  368.1842 34.85825 L  368.1842 31.12366  " style="fill:none"/>
 </g>
 </g>
 </g>
 </g>
 <g>
 <g stroke="rgb(0.0%,0.0%,0.0%)">
 <g fill="rgb(0.0%,0.0%,0.0%)">
 <g stroke-width="0.9pt">
 <path d=" M  381.15283 38.59328 L  381.15283 31.12366  " style="fill:none"/>
 </g>
 </g>
 </g>
 </g>
 <g>
 <g stroke="rgb(0.0%,0.0%,0.0%)">
 <g fill="rgb(0.0%,0.0%,0.0%)">
 <g stroke-width="0.9pt">
 <path d=" M  394.1245 34.85825 L  394.1245 31.12366  " style="fill:none"/>
 </g>
 </g>
 </g>
 </g>
 <g>
 <g stroke="rgb(0.0%,0.0%,0.0%)">
 <g fill="rgb(0.0%,0.0%,0.0%)">
 <g stroke-width="0.9pt">
 <path d=" M  407.09312 34.85825 L  407.09312 31.12366  " style="fill:none"/>
 </g>
 </g>
 </g>
 </g>
 <g>
 <g stroke="rgb(0.0%,0.0%,0.0%)">
 <g fill="rgb(0.0%,0.0%,0.0%)">
 <g stroke-width="0.9pt">
 <path d=" M  420.06218 34.85825 L  420.06218 31.12366  " style="fill:none"/>
 </g>
 </g>
 </g>
 </g>
 <g>
 <g stroke="rgb(0.0%,0.0%,0.0%)">
 <g fill="rgb(0.0%,0.0%,0.0%)">
 <g stroke-width="0.9pt">
 <path d=" M  433.03384 34.85825 L  433.03384 31.12366  " style="fill:none"/>
 </g>
 </g>
 </g>
 </g>
 <g>
 <g stroke="rgb(0.0%,0.0%,0.0%)">
 <g fill="rgb(0.0%,0.0%,0.0%)">
 <g stroke-width="0.9pt">
 <path d=" M  446.00247 38.59328 L  446.00247 31.12366  " style="fill:none"/>
 </g>
 </g>
 </g>
 </g>
 <g>
 <g stroke="rgb(0.0%,0.0%,0.0%)">
 <g fill="rgb(0.0%,0.0%,0.0%)">
 <g stroke-width="0.9pt">
 <path d=" M  458.97414 34.85825 L  458.97414 31.12366  " style="fill:none"/>
 </g>
 </g>
 </g>
 </g>
 <g>
 <g stroke="rgb(0.0%,0.0%,0.0%)">
 <g fill="rgb(0.0%,0.0%,0.0%)">
 <g stroke-width="0.9pt">
 <path d=" M  471.94276 34.85825 L  471.94276 31.12366  " style="fill:none"/>
 </g>
 </g>
 </g>
 </g>
 <g>
 <g stroke="rgb(0.0%,0.0%,0.0%)">
 <g fill="rgb(0.0%,0.0%,0.0%)">
 <g stroke-width="0.9pt">
 <path d=" M  484.91139 34.85825 L  484.91139 31.12366  " style="fill:none"/>
 </g>
 </g>
 </g>
 </g>
 <g>
 <g stroke="rgb(0.0%,0.0%,0.0%)">
 <g fill="rgb(0.0%,0.0%,0.0%)">
 <g stroke-width="0.9pt">
 <path d=" M  497.88306 34.85825 L  497.88306 31.12366  " style="fill:none"/>
 </g>
 </g>
 </g>
 </g>
 <g>
 <g stroke="rgb(0.0%,0.0%,0.0%)">
 <g fill="rgb(0.0%,0.0%,0.0%)">
 <g stroke-width="0.9pt">
 <path d=" M  510.85213 38.59328 L  510.85213 31.12366  " style="fill:none"/>
 </g>
 </g>
 </g>
 </g>
 <g>
 <g stroke="rgb(0.0%,0.0%,0.0%)">
 <g fill="rgb(0.0%,0.0%,0.0%)">
 <g stroke-width="0.9pt">
 <path d=" M  510.85213 38.59328 L  510.85213 31.12366  " style="fill:none"/>
 </g>
 </g>
 </g>
 </g>
 <path d=" M  56.90549 20.85286  " style="fill:none"/>
 <g>
 <g stroke="rgb(0.0%,0.0%,0.0%)">
 <g fill="rgb(0.0%,0.0%,0.0%)">
 <g>
 <g stroke="rgb(0.0%,0.0%,0.0%)">
 <g fill="rgb(0.0%,0.0%,0.0%)">
 </g>
 </g>
 </g>
 <g>
 <g transform="matrix(0.86171,0.0,0.0,0.86171,54.54655,20.85286)">
 <g fill="rgb(0.0%,0.0%,0.0%)">
 <text style="stroke:none" transform="scale(1,-1) translate(2.7375,0)" text-anchor="middle"  font-size="10.95"> 
<tspan font-family="cmr" font-size="10">0</tspan></text> 
</g>
 </g>
 </g>
 </g>
 </g>
 </g>
 <path d=" M  121.75513 20.85286  " style="fill:none"/>
 <g>
 <g stroke="rgb(0.0%,0.0%,0.0%)">
 <g fill="rgb(0.0%,0.0%,0.0%)">
 <g>
 <g stroke="rgb(0.0%,0.0%,0.0%)">
 <g fill="rgb(0.0%,0.0%,0.0%)">
 </g>
 </g>
 </g>
 <g>
 <g transform="matrix(0.86171,0.0,0.0,0.86171,119.3962,20.85286)">
 <g fill="rgb(0.0%,0.0%,0.0%)">
 <text style="stroke:none" transform="scale(1,-1) translate(2.7375,0)" text-anchor="middle"  font-size="10.95"> 
<tspan font-family="cmr" font-size="10">5</tspan></text> 
</g>
 </g>
 </g>
 </g>
 </g>
 </g>
 <path d=" M  186.60434 20.85286  " style="fill:none"/>
 <g>
 <g stroke="rgb(0.0%,0.0%,0.0%)">
 <g fill="rgb(0.0%,0.0%,0.0%)">
 <g>
 <g stroke="rgb(0.0%,0.0%,0.0%)">
 <g fill="rgb(0.0%,0.0%,0.0%)">
 </g>
 </g>
 </g>
 <g>
 <g transform="matrix(0.86171,0.0,0.0,0.86171,181.88647,20.85286)">
 <g fill="rgb(0.0%,0.0%,0.0%)">
 <text style="stroke:none" transform="scale(1,-1) translate(5.475,0)" text-anchor="middle"  font-size="10.95"> 
<tspan font-family="cmr" font-size="10">10</tspan></text> 
</g>
 </g>
 </g>
 </g>
 </g>
 </g>
 <path d=" M  251.4544 20.85286  " style="fill:none"/>
 <g>
 <g stroke="rgb(0.0%,0.0%,0.0%)">
 <g fill="rgb(0.0%,0.0%,0.0%)">
 <g>
 <g stroke="rgb(0.0%,0.0%,0.0%)">
 <g fill="rgb(0.0%,0.0%,0.0%)">
 </g>
 </g>
 </g>
 <g>
 <g transform="matrix(0.86171,0.0,0.0,0.86171,246.73654,20.85286)">
 <g fill="rgb(0.0%,0.0%,0.0%)">
 <text style="stroke:none" transform="scale(1,-1) translate(5.475,0)" text-anchor="middle"  font-size="10.95"> 
<tspan font-family="cmr" font-size="10">15</tspan></text> 
</g>
 </g>
 </g>
 </g>
 </g>
 </g>
 <path d=" M  316.30362 20.85286  " style="fill:none"/>
 <g>
 <g stroke="rgb(0.0%,0.0%,0.0%)">
 <g fill="rgb(0.0%,0.0%,0.0%)">
 <g>
 <g stroke="rgb(0.0%,0.0%,0.0%)">
 <g fill="rgb(0.0%,0.0%,0.0%)">
 </g>
 </g>
 </g>
 <g>
 <g transform="matrix(0.86171,0.0,0.0,0.86171,311.58575,20.85286)">
 <g fill="rgb(0.0%,0.0%,0.0%)">
 <text style="stroke:none" transform="scale(1,-1) translate(5.475,0)" text-anchor="middle"  font-size="10.95"> 
<tspan font-family="cmr" font-size="10">20</tspan></text> 
</g>
 </g>
 </g>
 </g>
 </g>
 </g>
 <path d=" M  381.15283 20.85286  " style="fill:none"/>
 <g>
 <g stroke="rgb(0.0%,0.0%,0.0%)">
 <g fill="rgb(0.0%,0.0%,0.0%)">
 <g>
 <g stroke="rgb(0.0%,0.0%,0.0%)">
 <g fill="rgb(0.0%,0.0%,0.0%)">
 </g>
 </g>
 </g>
 <g>
 <g transform="matrix(0.86171,0.0,0.0,0.86171,376.43497,20.85286)">
 <g fill="rgb(0.0%,0.0%,0.0%)">
 <text style="stroke:none" transform="scale(1,-1) translate(5.475,0)" text-anchor="middle"  font-size="10.95"> 
<tspan font-family="cmr" font-size="10">25</tspan></text> 
</g>
 </g>
 </g>
 </g>
 </g>
 </g>
 <path d=" M  446.00247 20.85286  " style="fill:none"/>
 <g>
 <g stroke="rgb(0.0%,0.0%,0.0%)">
 <g fill="rgb(0.0%,0.0%,0.0%)">
 <g>
 <g stroke="rgb(0.0%,0.0%,0.0%)">
 <g fill="rgb(0.0%,0.0%,0.0%)">
 </g>
 </g>
 </g>
 <g>
 <g transform="matrix(0.86171,0.0,0.0,0.86171,441.2846,20.85286)">
 <g fill="rgb(0.0%,0.0%,0.0%)">
 <text style="stroke:none" transform="scale(1,-1) translate(5.475,0)" text-anchor="middle"  font-size="10.95"> 
<tspan font-family="cmr" font-size="10">30</tspan></text> 
</g>
 </g>
 </g>
 </g>
 </g>
 </g>
 <path d=" M  510.85213 20.85286  " style="fill:none"/>
 <g>
 <g stroke="rgb(0.0%,0.0%,0.0%)">
 <g fill="rgb(0.0%,0.0%,0.0%)">
 <g>
 <g stroke="rgb(0.0%,0.0%,0.0%)">
 <g fill="rgb(0.0%,0.0%,0.0%)">
 </g>
 </g>
 </g>
 <g>
 <g transform="matrix(0.86171,0.0,0.0,0.86171,506.13426,20.85286)">
 <g fill="rgb(0.0%,0.0%,0.0%)">
 <text style="stroke:none" transform="scale(1,-1) translate(5.475,0)" text-anchor="middle"  font-size="10.95"> 
<tspan font-family="cmr" font-size="10">35</tspan></text> 
</g>
 </g>
 </g>
 </g>
 </g>
 </g>
 <g>
 <g stroke="rgb(0.0%,0.0%,0.0%)">
 <g fill="rgb(0.0%,0.0%,0.0%)">
 <g stroke-width="0.9pt">
 <path d=" M  56.90549 31.12366 L  56.90549 280.11165  " style="fill:none"/>
 </g>
 </g>
 </g>
 </g>
 <g>
 <g stroke="rgb(0.0%,0.0%,0.0%)">
 <g fill="rgb(0.0%,0.0%,0.0%)">
 <g stroke-width="0.9pt">
 <path d=" M  70.56267 36.60658 L  56.90549 36.60658  " style="fill:none"/>
 </g>
 </g>
 </g>
 </g>
 <g>
 <g stroke="rgb(0.0%,0.0%,0.0%)">
 <g fill="rgb(0.0%,0.0%,0.0%)">
 <g stroke-width="0.9pt">
 <path d=" M  63.7343 45.96956 L  56.90549 45.96956  " style="fill:none"/>
 </g>
 </g>
 </g>
 </g>
 <g>
 <g stroke="rgb(0.0%,0.0%,0.0%)">
 <g fill="rgb(0.0%,0.0%,0.0%)">
 <g stroke-width="0.9pt">
 <path d=" M  63.7343 55.33253 L  56.90549 55.33253  " style="fill:none"/>
 </g>
 </g>
 </g>
 </g>
 <g>
 <g stroke="rgb(0.0%,0.0%,0.0%)">
 <g fill="rgb(0.0%,0.0%,0.0%)">
 <g stroke-width="0.9pt">
 <path d=" M  63.7343 64.69508 L  56.90549 64.69508  " style="fill:none"/>
 </g>
 </g>
 </g>
 </g>
 <g>
 <g stroke="rgb(0.0%,0.0%,0.0%)">
 <g fill="rgb(0.0%,0.0%,0.0%)">
 <g stroke-width="0.9pt">
 <path d=" M  63.7343 74.05804 L  56.90549 74.05804  " style="fill:none"/>
 </g>
 </g>
 </g>
 </g>
 <g>
 <g stroke="rgb(0.0%,0.0%,0.0%)">
 <g fill="rgb(0.0%,0.0%,0.0%)">
 <g stroke-width="0.9pt">
 <path d=" M  70.56267 83.42102 L  56.90549 83.42102  " style="fill:none"/>
 </g>
 </g>
 </g>
 </g>
 <g>
 <g stroke="rgb(0.0%,0.0%,0.0%)">
 <g fill="rgb(0.0%,0.0%,0.0%)">
 <g stroke-width="0.9pt">
 <path d=" M  63.7343 92.784 L  56.90549 92.784  " style="fill:none"/>
 </g>
 </g>
 </g>
 </g>
 <g>
 <g stroke="rgb(0.0%,0.0%,0.0%)">
 <g fill="rgb(0.0%,0.0%,0.0%)">
 <g stroke-width="0.9pt">
 <path d=" M  63.7343 102.14697 L  56.90549 102.14697  " style="fill:none"/>
 </g>
 </g>
 </g>
 </g>
 <g>
 <g stroke="rgb(0.0%,0.0%,0.0%)">
 <g fill="rgb(0.0%,0.0%,0.0%)">
 <g stroke-width="0.9pt">
 <path d=" M  63.7343 111.50952 L  56.90549 111.50952  " style="fill:none"/>
 </g>
 </g>
 </g>
 </g>
 <g>
 <g stroke="rgb(0.0%,0.0%,0.0%)">
 <g fill="rgb(0.0%,0.0%,0.0%)">
 <g stroke-width="0.9pt">
 <path d=" M  63.7343 120.87248 L  56.90549 120.87248  " style="fill:none"/>
 </g>
 </g>
 </g>
 </g>
 <g>
 <g stroke="rgb(0.0%,0.0%,0.0%)">
 <g fill="rgb(0.0%,0.0%,0.0%)">
 <g stroke-width="0.9pt">
 <path d=" M  70.56267 130.23546 L  56.90549 130.23546  " style="fill:none"/>
 </g>
 </g>
 </g>
 </g>
 <g>
 <g stroke="rgb(0.0%,0.0%,0.0%)">
 <g fill="rgb(0.0%,0.0%,0.0%)">
 <g stroke-width="0.9pt">
 <path d=" M  63.7343 139.59843 L  56.90549 139.59843  " style="fill:none"/>
 </g>
 </g>
 </g>
 </g>
 <g>
 <g stroke="rgb(0.0%,0.0%,0.0%)">
 <g fill="rgb(0.0%,0.0%,0.0%)">
 <g stroke-width="0.9pt">
 <path d=" M  63.7343 148.96141 L  56.90549 148.96141  " style="fill:none"/>
 </g>
 </g>
 </g>
 </g>
 <g>
 <g stroke="rgb(0.0%,0.0%,0.0%)">
 <g fill="rgb(0.0%,0.0%,0.0%)">
 <g stroke-width="0.9pt">
 <path d=" M  63.7343 158.32394 L  56.90549 158.32394  " style="fill:none"/>
 </g>
 </g>
 </g>
 </g>
 <g>
 <g stroke="rgb(0.0%,0.0%,0.0%)">
 <g fill="rgb(0.0%,0.0%,0.0%)">
 <g stroke-width="0.9pt">
 <path d=" M  63.7343 167.68692 L  56.90549 167.68692  " style="fill:none"/>
 </g>
 </g>
 </g>
 </g>
 <g>
 <g stroke="rgb(0.0%,0.0%,0.0%)">
 <g fill="rgb(0.0%,0.0%,0.0%)">
 <g stroke-width="0.9pt">
 <path d=" M  70.56267 177.0499 L  56.90549 177.0499  " style="fill:none"/>
 </g>
 </g>
 </g>
 </g>
 <g>
 <g stroke="rgb(0.0%,0.0%,0.0%)">
 <g fill="rgb(0.0%,0.0%,0.0%)">
 <g stroke-width="0.9pt">
 <path d=" M  63.7343 186.41287 L  56.90549 186.41287  " style="fill:none"/>
 </g>
 </g>
 </g>
 </g>
 <g>
 <g stroke="rgb(0.0%,0.0%,0.0%)">
 <g fill="rgb(0.0%,0.0%,0.0%)">
 <g stroke-width="0.9pt">
 <path d=" M  63.7343 195.77585 L  56.90549 195.77585  " style="fill:none"/>
 </g>
 </g>
 </g>
 </g>
 <g>
 <g stroke="rgb(0.0%,0.0%,0.0%)">
 <g fill="rgb(0.0%,0.0%,0.0%)">
 <g stroke-width="0.9pt">
 <path d=" M  63.7343 205.13838 L  56.90549 205.13838  " style="fill:none"/>
 </g>
 </g>
 </g>
 </g>
 <g>
 <g stroke="rgb(0.0%,0.0%,0.0%)">
 <g fill="rgb(0.0%,0.0%,0.0%)">
 <g stroke-width="0.9pt">
 <path d=" M  63.7343 214.50136 L  56.90549 214.50136  " style="fill:none"/>
 </g>
 </g>
 </g>
 </g>
 <g>
 <g stroke="rgb(0.0%,0.0%,0.0%)">
 <g fill="rgb(0.0%,0.0%,0.0%)">
 <g stroke-width="0.9pt">
 <path d=" M  70.56267 223.86433 L  56.90549 223.86433  " style="fill:none"/>
 </g>
 </g>
 </g>
 </g>
 <g>
 <g stroke="rgb(0.0%,0.0%,0.0%)">
 <g fill="rgb(0.0%,0.0%,0.0%)">
 <g stroke-width="0.9pt">
 <path d=" M  63.7343 233.22731 L  56.90549 233.22731  " style="fill:none"/>
 </g>
 </g>
 </g>
 </g>
 <g>
 <g stroke="rgb(0.0%,0.0%,0.0%)">
 <g fill="rgb(0.0%,0.0%,0.0%)">
 <g stroke-width="0.9pt">
 <path d=" M  63.7343 242.59029 L  56.90549 242.59029  " style="fill:none"/>
 </g>
 </g>
 </g>
 </g>
 <g>
 <g stroke="rgb(0.0%,0.0%,0.0%)">
 <g fill="rgb(0.0%,0.0%,0.0%)">
 <g stroke-width="0.9pt">
 <path d=" M  63.7343 251.95282 L  56.90549 251.95282  " style="fill:none"/>
 </g>
 </g>
 </g>
 </g>
 <g>
 <g stroke="rgb(0.0%,0.0%,0.0%)">
 <g fill="rgb(0.0%,0.0%,0.0%)">
 <g stroke-width="0.9pt">
 <path d=" M  63.7343 261.3158 L  56.90549 261.3158  " style="fill:none"/>
 </g>
 </g>
 </g>
 </g>
 <g>
 <g stroke="rgb(0.0%,0.0%,0.0%)">
 <g fill="rgb(0.0%,0.0%,0.0%)">
 <g stroke-width="0.9pt">
 <path d=" M  70.56267 270.67877 L  56.90549 270.67877  " style="fill:none"/>
 </g>
 </g>
 </g>
 </g>
 <g>
 <g stroke="rgb(0.0%,0.0%,0.0%)">
 <g fill="rgb(0.0%,0.0%,0.0%)">
 <g stroke-width="0.9pt">
 <path d=" M  70.56267 36.60658 L  56.90549 36.60658  " style="fill:none"/>
 </g>
 </g>
 </g>
 </g>
 <g>
 <g stroke="rgb(0.0%,0.0%,0.0%)">
 <g fill="rgb(0.0%,0.0%,0.0%)">
 <g stroke-width="0.9pt">
 <path d=" M  70.56267 270.67877 L  56.90549 270.67877  " style="fill:none"/>
 </g>
 </g>
 </g>
 </g>
 <g>
 <g stroke="rgb(0.0%,0.0%,0.0%)">
 <g fill="rgb(0.0%,0.0%,0.0%)">
 <g stroke-width="0.9pt">
 <path d=" M  63.7343 280.04175 L  56.90549 280.04175  " style="fill:none"/>
 </g>
 </g>
 </g>
 </g>
 <path d=" M  54.06003 36.60658  " style="fill:none"/>
 <g>
 <g stroke="rgb(0.0%,0.0%,0.0%)">
 <g fill="rgb(0.0%,0.0%,0.0%)">
 <g>
 <g stroke="rgb(0.0%,0.0%,0.0%)">
 <g fill="rgb(0.0%,0.0%,0.0%)">
 </g>
 </g>
 </g>
 <g>
 <g transform="matrix(0.86171,0.0,0.0,0.86171,36.58919,33.56621)">
 <g fill="rgb(0.0%,0.0%,0.0%)">
 <text style="stroke:none" transform="scale(1,-1) translate(8.21251,0)" text-anchor="middle"  font-size="10.95"> 
<tspan font-family="cmr" font-size="10">130</tspan></text> 
</g>
 </g>
 </g>
 </g>
 </g>
 </g>
 <path d=" M  54.06003 83.42102  " style="fill:none"/>
 <g>
 <g stroke="rgb(0.0%,0.0%,0.0%)">
 <g fill="rgb(0.0%,0.0%,0.0%)">
 <g>
 <g stroke="rgb(0.0%,0.0%,0.0%)">
 <g fill="rgb(0.0%,0.0%,0.0%)">
 </g>
 </g>
 </g>
 <g>
 <g transform="matrix(0.86171,0.0,0.0,0.86171,36.58919,80.38065)">
 <g fill="rgb(0.0%,0.0%,0.0%)">
 <text style="stroke:none" transform="scale(1,-1) translate(8.21251,0)" text-anchor="middle"  font-size="10.95"> 
<tspan font-family="cmr" font-size="10">140</tspan></text> 
</g>
 </g>
 </g>
 </g>
 </g>
 </g>
 <path d=" M  54.06003 130.23546  " style="fill:none"/>
 <g>
 <g stroke="rgb(0.0%,0.0%,0.0%)">
 <g fill="rgb(0.0%,0.0%,0.0%)">
 <g>
 <g stroke="rgb(0.0%,0.0%,0.0%)">
 <g fill="rgb(0.0%,0.0%,0.0%)">
 </g>
 </g>
 </g>
 <g>
 <g transform="matrix(0.86171,0.0,0.0,0.86171,36.58919,127.19508)">
 <g fill="rgb(0.0%,0.0%,0.0%)">
 <text style="stroke:none" transform="scale(1,-1) translate(8.21251,0)" text-anchor="middle"  font-size="10.95"> 
<tspan font-family="cmr" font-size="10">150</tspan></text> 
</g>
 </g>
 </g>
 </g>
 </g>
 </g>
 <path d=" M  54.06003 177.0499  " style="fill:none"/>
 <g>
 <g stroke="rgb(0.0%,0.0%,0.0%)">
 <g fill="rgb(0.0%,0.0%,0.0%)">
 <g>
 <g stroke="rgb(0.0%,0.0%,0.0%)">
 <g fill="rgb(0.0%,0.0%,0.0%)">
 </g>
 </g>
 </g>
 <g>
 <g transform="matrix(0.86171,0.0,0.0,0.86171,36.58919,174.00952)">
 <g fill="rgb(0.0%,0.0%,0.0%)">
 <text style="stroke:none" transform="scale(1,-1) translate(8.21251,0)" text-anchor="middle"  font-size="10.95"> 
<tspan font-family="cmr" font-size="10">160</tspan></text> 
</g>
 </g>
 </g>
 </g>
 </g>
 </g>
 <path d=" M  54.06003 223.86433  " style="fill:none"/>
 <g>
 <g stroke="rgb(0.0%,0.0%,0.0%)">
 <g fill="rgb(0.0%,0.0%,0.0%)">
 <g>
 <g stroke="rgb(0.0%,0.0%,0.0%)">
 <g fill="rgb(0.0%,0.0%,0.0%)">
 </g>
 </g>
 </g>
 <g>
 <g transform="matrix(0.86171,0.0,0.0,0.86171,36.58919,220.82396)">
 <g fill="rgb(0.0%,0.0%,0.0%)">
 <text style="stroke:none" transform="scale(1,-1) translate(8.21251,0)" text-anchor="middle"  font-size="10.95"> 
<tspan font-family="cmr" font-size="10">170</tspan></text> 
</g>
 </g>
 </g>
 </g>
 </g>
 </g>
 <path d=" M  54.06003 270.67877  " style="fill:none"/>
 <g>
 <g stroke="rgb(0.0%,0.0%,0.0%)">
 <g fill="rgb(0.0%,0.0%,0.0%)">
 <g>
 <g stroke="rgb(0.0%,0.0%,0.0%)">
 <g fill="rgb(0.0%,0.0%,0.0%)">
 </g>
 </g>
 </g>
 <g>
 <g transform="matrix(0.86171,0.0,0.0,0.86171,36.58919,267.6384)">
 <g fill="rgb(0.0%,0.0%,0.0%)">
 <text style="stroke:none" transform="scale(1,-1) translate(8.21251,0)" text-anchor="middle"  font-size="10.95"> 
<tspan font-family="cmr" font-size="10">180</tspan></text> 
</g>
 </g>
 </g>
 </g>
 </g>
 </g>
 <path d=" M  69.87541 56.08145  " style="fill:none"/>
 <g>
 <g stroke="rgb(0.0%,100.0%,0.0%)">
 <g fill="rgb(0.0%,100.0%,0.0%)">
 <g fill="rgb(0.0%,100.0%,0.0%)">
 <path d=" M  77.08263 56.08145 C  77.08263 60.06194 73.8559 63.28867 69.87541 63.28867 C  65.89493 63.28867 62.6682 60.06194 62.6682 56.08145 C  62.6682 52.10097 65.89493 48.87424 69.87541 48.87424 C  73.8559 48.87424 77.08263 52.10097 77.08263 56.08145 Z M  69.87541 56.08145  " />
 </g>
 </g>
 </g>
 </g>
 <path d=" M  82.84534 51.21284  " style="fill:none"/>
 <g>
 <g stroke="rgb(0.0%,100.0%,0.0%)">
 <g fill="rgb(0.0%,100.0%,0.0%)">
 <g fill="rgb(0.0%,100.0%,0.0%)">
 <path d=" M  90.05255 51.21284 C  90.05255 55.19333 86.82582 58.42006 82.84534 58.42006 C  78.86485 58.42006 75.63812 55.19333 75.63812 51.21284 C  75.63812 47.23236 78.86485 44.00563 82.84534 44.00563 C  86.82582 44.00563 90.05255 47.23236 90.05255 51.21284 Z M  82.84534 51.21284  " />
 </g>
 </g>
 </g>
 </g>
 <path d=" M  95.81526 52.89824  " style="fill:none"/>
 <g>
 <g stroke="rgb(0.0%,100.0%,0.0%)">
 <g fill="rgb(0.0%,100.0%,0.0%)">
 <g fill="rgb(0.0%,100.0%,0.0%)">
 <path d=" M  103.02248 52.89824 C  103.02248 56.87872 99.79575 60.10545 95.81526 60.10545 C  91.83478 60.10545 88.60805 56.87872 88.60805 52.89824 C  88.60805 48.91776 91.83478 45.69102 95.81526 45.69102 C  99.79575 45.69102 103.02248 48.91776 103.02248 52.89824 Z M  95.81526 52.89824  " />
 </g>
 </g>
 </g>
 </g>
 <path d=" M  108.7852 50.27638  " style="fill:none"/>
 <g>
 <g stroke="rgb(0.0%,100.0%,0.0%)">
 <g fill="rgb(0.0%,100.0%,0.0%)">
 <g fill="rgb(0.0%,100.0%,0.0%)">
 <path d=" M  115.99242 50.27638 C  115.99242 54.25687 112.76569 57.4836 108.7852 57.4836 C  104.80472 57.4836 101.57799 54.25687 101.57799 50.27638 C  101.57799 46.2959 104.80472 43.06917 108.7852 43.06917 C  112.76569 43.06917 115.99242 46.2959 115.99242 50.27638 Z M  108.7852 50.27638  " />
 </g>
 </g>
 </g>
 </g>
 <path d=" M  121.75513 51.91487  " style="fill:none"/>
 <g>
 <g stroke="rgb(0.0%,100.0%,0.0%)">
 <g fill="rgb(0.0%,100.0%,0.0%)">
 <g fill="rgb(0.0%,100.0%,0.0%)">
 <path d=" M  128.96234 51.91487 C  128.96234 55.89536 125.73561 59.12209 121.75513 59.12209 C  117.77464 59.12209 114.54791 55.89536 114.54791 51.91487 C  114.54791 47.93439 117.77464 44.70766 121.75513 44.70766 C  125.73561 44.70766 128.96234 47.93439 128.96234 51.91487 Z M  121.75513 51.91487  " />
 </g>
 </g>
 </g>
 </g>
 <path d=" M  134.72505 53.13225  " style="fill:none"/>
 <g>
 <g stroke="rgb(0.0%,100.0%,0.0%)">
 <g fill="rgb(0.0%,100.0%,0.0%)">
 <g fill="rgb(0.0%,100.0%,0.0%)">
 <path d=" M  141.93227 53.13225 C  141.93227 57.11273 138.70554 60.33946 134.72505 60.33946 C  130.74457 60.33946 127.51784 57.11273 127.51784 53.13225 C  127.51784 49.15176 130.74457 45.92503 134.72505 45.92503 C  138.70554 45.92503 141.93227 49.15176 141.93227 53.13225 Z M  134.72505 53.13225  " />
 </g>
 </g>
 </g>
 </g>
 <path d=" M  147.69498 65.16353  " style="fill:none"/>
 <g>
 <g stroke="rgb(0.0%,100.0%,0.0%)">
 <g fill="rgb(0.0%,100.0%,0.0%)">
 <g fill="rgb(0.0%,100.0%,0.0%)">
 <path d=" M  154.90219 65.16353 C  154.90219 69.14401 151.67546 72.37074 147.69498 72.37074 C  143.7145 72.37074 140.48776 69.14401 140.48776 65.16353 C  140.48776 61.18304 143.7145 57.95631 147.69498 57.95631 C  151.67546 57.95631 154.90219 61.18304 154.90219 65.16353 Z M  147.69498 65.16353  " />
 </g>
 </g>
 </g>
 </g>
 <path d=" M  160.66447 85.05952  " style="fill:none"/>
 <g>
 <g stroke="rgb(0.0%,100.0%,0.0%)">
 <g fill="rgb(0.0%,100.0%,0.0%)">
 <g fill="rgb(0.0%,100.0%,0.0%)">
 <path d=" M  167.87169 85.05952 C  167.87169 89.04001 164.64496 92.26674 160.66447 92.26674 C  156.68399 92.26674 153.45726 89.04001 153.45726 85.05952 C  153.45726 81.07904 156.68399 77.85231 160.66447 77.85231 C  164.64496 77.85231 167.87169 81.07904 167.87169 85.05952 Z M  160.66447 85.05952  " />
 </g>
 </g>
 </g>
 </g>
 <path d=" M  173.6344 101.39806  " style="fill:none"/>
 <g>
 <g stroke="rgb(0.0%,100.0%,0.0%)">
 <g fill="rgb(0.0%,100.0%,0.0%)">
 <g fill="rgb(0.0%,100.0%,0.0%)">
 <path d=" M  180.84161 101.39806 C  180.84161 105.37854 177.61488 108.60527 173.6344 108.60527 C  169.65392 108.60527 166.42719 105.37854 166.42719 101.39806 C  166.42719 97.41757 169.65392 94.19084 173.6344 94.19084 C  177.61488 94.19084 180.84161 97.41757 180.84161 101.39806 Z M  173.6344 101.39806  " />
 </g>
 </g>
 </g>
 </g>
 <path d=" M  186.60434 121.52806  " style="fill:none"/>
 <g>
 <g stroke="rgb(0.0%,100.0%,0.0%)">
 <g fill="rgb(0.0%,100.0%,0.0%)">
 <g fill="rgb(0.0%,100.0%,0.0%)">
 <path d=" M  193.81155 121.52806 C  193.81155 125.50854 190.58482 128.73528 186.60434 128.73528 C  182.62386 128.73528 179.39713 125.50854 179.39713 121.52806 C  179.39713 117.54758 182.62386 114.32085 186.60434 114.32085 C  190.58482 114.32085 193.81155 117.54758 193.81155 121.52806 Z M  186.60434 121.52806  " />
 </g>
 </g>
 </g>
 </g>
 <path d=" M  199.57469 136.60234  " style="fill:none"/>
 <g>
 <g stroke="rgb(0.0%,100.0%,0.0%)">
 <g fill="rgb(0.0%,100.0%,0.0%)">
 <g fill="rgb(0.0%,100.0%,0.0%)">
 <path d=" M  206.7819 136.60234 C  206.7819 140.58282 203.55518 143.80956 199.57469 143.80956 C  195.59421 143.80956 192.36748 140.58282 192.36748 136.60234 C  192.36748 132.62186 195.59421 129.39513 199.57469 129.39513 C  203.55518 129.39513 206.7819 132.62186 206.7819 136.60234 Z M  199.57469 136.60234  " />
 </g>
 </g>
 </g>
 </g>
 <path d=" M  212.54463 142.68788  " style="fill:none"/>
 <g>
 <g stroke="rgb(0.0%,100.0%,0.0%)">
 <g fill="rgb(0.0%,100.0%,0.0%)">
 <g fill="rgb(0.0%,100.0%,0.0%)">
 <path d=" M  219.75185 142.68788 C  219.75185 146.66837 216.52512 149.8951 212.54463 149.8951 C  208.56415 149.8951 205.33742 146.66837 205.33742 142.68788 C  205.33742 138.7074 208.56415 135.48067 212.54463 135.48067 C  216.52512 135.48067 219.75185 138.7074 219.75185 142.68788 Z M  212.54463 142.68788  " />
 </g>
 </g>
 </g>
 </g>
 <path d=" M  225.51456 144.09236  " style="fill:none"/>
 <g>
 <g stroke="rgb(0.0%,100.0%,0.0%)">
 <g fill="rgb(0.0%,100.0%,0.0%)">
 <g fill="rgb(0.0%,100.0%,0.0%)">
 <path d=" M  232.72177 144.09236 C  232.72177 148.07285 229.49504 151.29958 225.51456 151.29958 C  221.53407 151.29958 218.30734 148.07285 218.30734 144.09236 C  218.30734 140.11188 221.53407 136.88515 225.51456 136.88515 C  229.49504 136.88515 232.72177 140.11188 232.72177 144.09236 Z M  225.51456 144.09236  " />
 </g>
 </g>
 </g>
 </g>
 <path d=" M  238.48448 152.19151  " style="fill:none"/>
 <g>
 <g stroke="rgb(0.0%,100.0%,0.0%)">
 <g fill="rgb(0.0%,100.0%,0.0%)">
 <g fill="rgb(0.0%,100.0%,0.0%)">
 <path d=" M  245.6917 152.19151 C  245.6917 156.172 242.46497 159.39873 238.48448 159.39873 C  234.504 159.39873 231.27727 156.172 231.27727 152.19151 C  231.27727 148.21103 234.504 144.9843 238.48448 144.9843 C  242.46497 144.9843 245.6917 148.21103 245.6917 152.19151 Z M  238.48448 152.19151  " />
 </g>
 </g>
 </g>
 </g>
 <path d=" M  251.4544 155.88965  " style="fill:none"/>
 <g>
 <g stroke="rgb(0.0%,100.0%,0.0%)">
 <g fill="rgb(0.0%,100.0%,0.0%)">
 <g fill="rgb(0.0%,100.0%,0.0%)">
 <path d=" M  258.66162 155.88965 C  258.66162 159.87013 255.43489 163.09686 251.4544 163.09686 C  247.47392 163.09686 244.2472 159.87013 244.2472 155.88965 C  244.2472 151.90916 247.47392 148.68243 251.4544 148.68243 C  255.43489 148.68243 258.66162 151.90916 258.66162 155.88965 Z M  251.4544 155.88965  " />
 </g>
 </g>
 </g>
 </g>
 <path d=" M  264.42435 160.89893  " style="fill:none"/>
 <g>
 <g stroke="rgb(0.0%,100.0%,0.0%)">
 <g fill="rgb(0.0%,100.0%,0.0%)">
 <g fill="rgb(0.0%,100.0%,0.0%)">
 <path d=" M  271.63156 160.89893 C  271.63156 164.87941 268.40483 168.10614 264.42435 168.10614 C  260.44386 168.10614 257.21713 164.87941 257.21713 160.89893 C  257.21713 156.91844 260.44386 153.69171 264.42435 153.69171 C  268.40483 153.69171 271.63156 156.91844 271.63156 160.89893 Z M  264.42435 160.89893  " />
 </g>
 </g>
 </g>
 </g>
 <path d=" M  277.39383 158.46461  " style="fill:none"/>
 <g>
 <g stroke="rgb(0.0%,100.0%,0.0%)">
 <g fill="rgb(0.0%,100.0%,0.0%)">
 <g fill="rgb(0.0%,100.0%,0.0%)">
 <path d=" M  284.60104 158.46461 C  284.60104 162.4451 281.37431 165.67183 277.39383 165.67183 C  273.41335 165.67183 270.18661 162.4451 270.18661 158.46461 C  270.18661 154.48413 273.41335 151.2574 277.39383 151.2574 C  281.37431 151.2574 284.60104 154.48413 284.60104 158.46461 Z M  277.39383 158.46461  " />
 </g>
 </g>
 </g>
 </g>
 <path d=" M  290.3629 165.48663  " style="fill:none"/>
 <g>
 <g stroke="rgb(0.0%,100.0%,0.0%)">
 <g fill="rgb(0.0%,100.0%,0.0%)">
 <g fill="rgb(0.0%,100.0%,0.0%)">
 <path d=" M  297.57011 165.48663 C  297.57011 169.46712 294.34338 172.69385 290.3629 172.69385 C  286.38242 172.69385 283.15569 169.46712 283.15569 165.48663 C  283.15569 161.50615 286.38242 158.27942 290.3629 158.27942 C  294.34338 158.27942 297.57011 161.50615 297.57011 165.48663 Z M  290.3629 165.48663  " />
 </g>
 </g>
 </g>
 </g>
 <path d=" M  303.33456 176.2072  " style="fill:none"/>
 <g>
 <g stroke="rgb(0.0%,100.0%,0.0%)">
 <g fill="rgb(0.0%,100.0%,0.0%)">
 <g fill="rgb(0.0%,100.0%,0.0%)">
 <path d=" M  310.54178 176.2072 C  310.54178 180.18768 307.31505 183.41441 303.33456 183.41441 C  299.35408 183.41441 296.12735 180.18768 296.12735 176.2072 C  296.12735 172.22672 299.35408 168.99998 303.33456 168.99998 C  307.31505 168.99998 310.54178 172.22672 310.54178 176.2072 Z M  303.33456 176.2072  " />
 </g>
 </g>
 </g>
 </g>
 <path d=" M  316.30362 169.79387  " style="fill:none"/>
 <g>
 <g stroke="rgb(0.0%,100.0%,0.0%)">
 <g fill="rgb(0.0%,100.0%,0.0%)">
 <g fill="rgb(0.0%,100.0%,0.0%)">
 <path d=" M  323.51083 169.79387 C  323.51083 173.77435 320.2841 177.00108 316.30362 177.00108 C  312.32314 177.00108 309.0964 173.77435 309.0964 169.79387 C  309.0964 165.81339 312.32314 162.58665 316.30362 162.58665 C  320.2841 162.58665 323.51083 165.81339 323.51083 169.79387 Z M  316.30362 169.79387  " />
 </g>
 </g>
 </g>
 </g>
 <path d=" M  329.27225 174.8965  " style="fill:none"/>
 <g>
 <g stroke="rgb(0.0%,100.0%,0.0%)">
 <g fill="rgb(0.0%,100.0%,0.0%)">
 <g fill="rgb(0.0%,100.0%,0.0%)">
 <path d=" M  336.47946 174.8965 C  336.47946 178.87698 333.25273 182.10371 329.27225 182.10371 C  325.29176 182.10371 322.06503 178.87698 322.06503 174.8965 C  322.06503 170.91602 325.29176 167.68929 329.27225 167.68929 C  333.25273 167.68929 336.47946 170.91602 336.47946 174.8965 Z M  329.27225 174.8965  " />
 </g>
 </g>
 </g>
 </g>
 <path d=" M  342.24391 168.6234  " style="fill:none"/>
 <g>
 <g stroke="rgb(0.0%,100.0%,0.0%)">
 <g fill="rgb(0.0%,100.0%,0.0%)">
 <g fill="rgb(0.0%,100.0%,0.0%)">
 <path d=" M  349.45113 168.6234 C  349.45113 172.60388 346.2244 175.83061 342.24391 175.83061 C  338.26343 175.83061 335.0367 172.60388 335.0367 168.6234 C  335.0367 164.64291 338.26343 161.41618 342.24391 161.41618 C  346.2244 161.41618 349.45113 164.64291 349.45113 168.6234 Z M  342.24391 168.6234  " />
 </g>
 </g>
 </g>
 </g>
 <path d=" M  355.21254 167.2189  " style="fill:none"/>
 <g>
 <g stroke="rgb(0.0%,100.0%,0.0%)">
 <g fill="rgb(0.0%,100.0%,0.0%)">
 <g fill="rgb(0.0%,100.0%,0.0%)">
 <path d=" M  362.41975 167.2189 C  362.41975 171.19939 359.19302 174.42612 355.21254 174.42612 C  351.23206 174.42612 348.00533 171.19939 348.00533 167.2189 C  348.00533 163.23842 351.23206 160.01169 355.21254 160.01169 C  359.19302 160.01169 362.41975 163.23842 362.41975 167.2189 Z M  355.21254 167.2189  " />
 </g>
 </g>
 </g>
 </g>
 <path d=" M  368.1842 159.72844  " style="fill:none"/>
 <g>
 <g stroke="rgb(0.0%,100.0%,0.0%)">
 <g fill="rgb(0.0%,100.0%,0.0%)">
 <g fill="rgb(0.0%,100.0%,0.0%)">
 <path d=" M  375.39142 159.72844 C  375.39142 163.70892 372.16469 166.93565 368.1842 166.93565 C  364.20372 166.93565 360.97699 163.70892 360.97699 159.72844 C  360.97699 155.74796 364.20372 152.52122 368.1842 152.52122 C  372.16469 152.52122 375.39142 155.74796 375.39142 159.72844 Z M  368.1842 159.72844  " />
 </g>
 </g>
 </g>
 </g>
 <path d=" M  381.15283 163.28633  " style="fill:none"/>
 <g>
 <g stroke="rgb(0.0%,100.0%,0.0%)">
 <g fill="rgb(0.0%,100.0%,0.0%)">
 <g fill="rgb(0.0%,100.0%,0.0%)">
 <path d=" M  388.36005 163.28633 C  388.36005 167.26682 385.13332 170.49355 381.15283 170.49355 C  377.17235 170.49355 373.94562 167.26682 373.94562 163.28633 C  373.94562 159.30585 377.17235 156.07912 381.15283 156.07912 C  385.13332 156.07912 388.36005 159.30585 388.36005 163.28633 Z M  381.15283 163.28633  " />
 </g>
 </g>
 </g>
 </g>
 <path d=" M  394.1245 169.32542  " style="fill:none"/>
 <g>
 <g stroke="rgb(0.0%,100.0%,0.0%)">
 <g fill="rgb(0.0%,100.0%,0.0%)">
 <g fill="rgb(0.0%,100.0%,0.0%)">
 <path d=" M  401.33171 169.32542 C  401.33171 173.30591 398.10498 176.53264 394.1245 176.53264 C  390.14401 176.53264 386.91728 173.30591 386.91728 169.32542 C  386.91728 165.34494 390.14401 162.11821 394.1245 162.11821 C  398.10498 162.11821 401.33171 165.34494 401.33171 169.32542 Z M  394.1245 169.32542  " />
 </g>
 </g>
 </g>
 </g>
 <path d=" M  407.09312 170.87057  " style="fill:none"/>
 <g>
 <g stroke="rgb(0.0%,100.0%,0.0%)">
 <g fill="rgb(0.0%,100.0%,0.0%)">
 <g fill="rgb(0.0%,100.0%,0.0%)">
 <path d=" M  414.30034 170.87057 C  414.30034 174.85106 411.07361 178.07779 407.09312 178.07779 C  403.11264 178.07779 399.88591 174.85106 399.88591 170.87057 C  399.88591 166.89009 403.11264 163.66336 407.09312 163.66336 C  411.07361 163.66336 414.30034 166.89009 414.30034 170.87057 Z M  407.09312 170.87057  " />
 </g>
 </g>
 </g>
 </g>
 <path d=" M  420.06218 162.53741  " style="fill:none"/>
 <g>
 <g stroke="rgb(0.0%,100.0%,0.0%)">
 <g fill="rgb(0.0%,100.0%,0.0%)">
 <g fill="rgb(0.0%,100.0%,0.0%)">
 <path d=" M  427.2694 162.53741 C  427.2694 166.5179 424.04266 169.74463 420.06218 169.74463 C  416.0817 169.74463 412.85497 166.5179 412.85497 162.53741 C  412.85497 158.55693 416.0817 155.3302 420.06218 155.3302 C  424.04266 155.3302 427.2694 158.55693 427.2694 162.53741 Z M  420.06218 162.53741  " />
 </g>
 </g>
 </g>
 </g>
 <path d=" M  433.03384 156.87257  " style="fill:none"/>
 <g>
 <g stroke="rgb(0.0%,100.0%,0.0%)">
 <g fill="rgb(0.0%,100.0%,0.0%)">
 <g fill="rgb(0.0%,100.0%,0.0%)">
 <path d=" M  440.24106 156.87257 C  440.24106 160.85306 437.01433 164.07979 433.03384 164.07979 C  429.05336 164.07979 425.82663 160.85306 425.82663 156.87257 C  425.82663 152.89209 429.05336 149.66536 433.03384 149.66536 C  437.01433 149.66536 440.24106 152.89209 440.24106 156.87257 Z M  433.03384 156.87257  " />
 </g>
 </g>
 </g>
 </g>
 <path d=" M  446.00247 164.78416  " style="fill:none"/>
 <g>
 <g stroke="rgb(0.0%,100.0%,0.0%)">
 <g fill="rgb(0.0%,100.0%,0.0%)">
 <g fill="rgb(0.0%,100.0%,0.0%)">
 <path d=" M  453.20969 164.78416 C  453.20969 168.76465 449.98296 171.99138 446.00247 171.99138 C  442.02199 171.99138 438.79526 168.76465 438.79526 164.78416 C  438.79526 160.80368 442.02199 157.57695 446.00247 157.57695 C  449.98296 157.57695 453.20969 160.80368 453.20969 164.78416 Z M  446.00247 164.78416  " />
 </g>
 </g>
 </g>
 </g>
 <path d=" M  458.97414 168.8574  " style="fill:none"/>
 <g>
 <g stroke="rgb(0.0%,100.0%,0.0%)">
 <g fill="rgb(0.0%,100.0%,0.0%)">
 <g fill="rgb(0.0%,100.0%,0.0%)">
 <path d=" M  466.18135 168.8574 C  466.18135 172.83789 462.95462 176.06462 458.97414 176.06462 C  454.99365 176.06462 451.76692 172.83789 451.76692 168.8574 C  451.76692 164.87692 454.99365 161.65019 458.97414 161.65019 C  462.95462 161.65019 466.18135 164.87692 466.18135 168.8574 Z M  458.97414 168.8574  " />
 </g>
 </g>
 </g>
 </g>
 <path d=" M  471.94276 158.41772  " style="fill:none"/>
 <g>
 <g stroke="rgb(0.0%,100.0%,0.0%)">
 <g fill="rgb(0.0%,100.0%,0.0%)">
 <g fill="rgb(0.0%,100.0%,0.0%)">
 <path d=" M  479.14998 158.41772 C  479.14998 162.39821 475.92325 165.62494 471.94276 165.62494 C  467.96228 165.62494 464.73555 162.39821 464.73555 158.41772 C  464.73555 154.43724 467.96228 151.21051 471.94276 151.21051 C  475.92325 151.21051 479.14998 154.43724 479.14998 158.41772 Z M  471.94276 158.41772  " />
 </g>
 </g>
 </g>
 </g>
 <path d=" M  69.87541 173.86624  " style="fill:none"/>
 <g>
 <g stroke="rgb(100.0%,0.0%,0.0%)">
 <g fill="rgb(100.0%,0.0%,0.0%)">
 <g fill="rgb(100.0%,0.0%,0.0%)">
 <path d=" M  77.08263 173.86624 C  77.08263 177.84673 73.8559 181.07346 69.87541 181.07346 C  65.89493 181.07346 62.6682 177.84673 62.6682 173.86624 C  62.6682 169.88576 65.89493 166.65903 69.87541 166.65903 C  73.8559 166.65903 77.08263 169.88576 77.08263 173.86624 Z M  69.87541 173.86624  " />
 </g>
 </g>
 </g>
 </g>
 <path d=" M  82.84534 180.046  " style="fill:none"/>
 <g>
 <g stroke="rgb(100.0%,0.0%,0.0%)">
 <g fill="rgb(100.0%,0.0%,0.0%)">
 <g fill="rgb(100.0%,0.0%,0.0%)">
 <path d=" M  90.05255 180.046 C  90.05255 184.02649 86.82582 187.25322 82.84534 187.25322 C  78.86485 187.25322 75.63812 184.02649 75.63812 180.046 C  75.63812 176.06552 78.86485 172.83879 82.84534 172.83879 C  86.82582 172.83879 90.05255 176.06552 90.05255 180.046 Z M  82.84534 180.046  " />
 </g>
 </g>
 </g>
 </g>
 <path d=" M  95.81526 186.13197  " style="fill:none"/>
 <g>
 <g stroke="rgb(100.0%,0.0%,0.0%)">
 <g fill="rgb(100.0%,0.0%,0.0%)">
 <g fill="rgb(100.0%,0.0%,0.0%)">
 <path d=" M  103.02248 186.13197 C  103.02248 190.11246 99.79575 193.33919 95.81526 193.33919 C  91.83478 193.33919 88.60805 190.11246 88.60805 186.13197 C  88.60805 182.15149 91.83478 178.92476 95.81526 178.92476 C  99.79575 178.92476 103.02248 182.15149 103.02248 186.13197 Z M  95.81526 186.13197  " />
 </g>
 </g>
 </g>
 </g>
 <path d=" M  108.7852 173.44511  " style="fill:none"/>
 <g>
 <g stroke="rgb(100.0%,0.0%,0.0%)">
 <g fill="rgb(100.0%,0.0%,0.0%)">
 <g fill="rgb(100.0%,0.0%,0.0%)">
 <path d=" M  115.99242 173.44511 C  115.99242 177.4256 112.76569 180.65233 108.7852 180.65233 C  104.80472 180.65233 101.57799 177.4256 101.57799 173.44511 C  101.57799 169.46463 104.80472 166.2379 108.7852 166.2379 C  112.76569 166.2379 115.99242 169.46463 115.99242 173.44511 Z M  108.7852 173.44511  " />
 </g>
 </g>
 </g>
 </g>
 <path d=" M  121.75513 178.03282  " style="fill:none"/>
 <g>
 <g stroke="rgb(100.0%,0.0%,0.0%)">
 <g fill="rgb(100.0%,0.0%,0.0%)">
 <g fill="rgb(100.0%,0.0%,0.0%)">
 <path d=" M  128.96234 178.03282 C  128.96234 182.0133 125.73561 185.24004 121.75513 185.24004 C  117.77464 185.24004 114.54791 182.0133 114.54791 178.03282 C  114.54791 174.05234 117.77464 170.8256 121.75513 170.8256 C  125.73561 170.8256 128.96234 174.05234 128.96234 178.03282 Z M  121.75513 178.03282  " />
 </g>
 </g>
 </g>
 </g>
 <path d=" M  134.72505 180.28001  " style="fill:none"/>
 <g>
 <g stroke="rgb(100.0%,0.0%,0.0%)">
 <g fill="rgb(100.0%,0.0%,0.0%)">
 <g fill="rgb(100.0%,0.0%,0.0%)">
 <path d=" M  141.93227 180.28001 C  141.93227 184.2605 138.70554 187.48723 134.72505 187.48723 C  130.74457 187.48723 127.51784 184.2605 127.51784 180.28001 C  127.51784 176.29953 130.74457 173.0728 134.72505 173.0728 C  138.70554 173.0728 141.93227 176.29953 141.93227 180.28001 Z M  134.72505 180.28001  " />
 </g>
 </g>
 </g>
 </g>
 <path d=" M  147.69498 180.09288  " style="fill:none"/>
 <g>
 <g stroke="rgb(100.0%,0.0%,0.0%)">
 <g fill="rgb(100.0%,0.0%,0.0%)">
 <g fill="rgb(100.0%,0.0%,0.0%)">
 <path d=" M  154.90219 180.09288 C  154.90219 184.07336 151.67546 187.3001 147.69498 187.3001 C  143.7145 187.3001 140.48776 184.07336 140.48776 180.09288 C  140.48776 176.1124 143.7145 172.88567 147.69498 172.88567 C  151.67546 172.88567 154.90219 176.1124 154.90219 180.09288 Z M  147.69498 180.09288  " />
 </g>
 </g>
 </g>
 </g>
 <path d=" M  160.66447 179.43732  " style="fill:none"/>
 <g>
 <g stroke="rgb(100.0%,0.0%,0.0%)">
 <g fill="rgb(100.0%,0.0%,0.0%)">
 <g fill="rgb(100.0%,0.0%,0.0%)">
 <path d=" M  167.87169 179.43732 C  167.87169 183.4178 164.64496 186.64453 160.66447 186.64453 C  156.68399 186.64453 153.45726 183.4178 153.45726 179.43732 C  153.45726 175.45683 156.68399 172.2301 160.66447 172.2301 C  164.64496 172.2301 167.87169 175.45683 167.87169 179.43732 Z M  160.66447 179.43732  " />
 </g>
 </g>
 </g>
 </g>
 <path d=" M  173.6344 179.4842  " style="fill:none"/>
 <g>
 <g stroke="rgb(100.0%,0.0%,0.0%)">
 <g fill="rgb(100.0%,0.0%,0.0%)">
 <g fill="rgb(100.0%,0.0%,0.0%)">
 <path d=" M  180.84161 179.4842 C  180.84161 183.46469 177.61488 186.69142 173.6344 186.69142 C  169.65392 186.69142 166.42719 183.46469 166.42719 179.4842 C  166.42719 175.50372 169.65392 172.277 173.6344 172.277 C  177.61488 172.277 180.84161 175.50372 180.84161 179.4842 Z M  173.6344 179.4842  " />
 </g>
 </g>
 </g>
 </g>
 <path d=" M  186.60434 188.14471  " style="fill:none"/>
 <g>
 <g stroke="rgb(100.0%,0.0%,0.0%)">
 <g fill="rgb(100.0%,0.0%,0.0%)">
 <g fill="rgb(100.0%,0.0%,0.0%)">
 <path d=" M  193.81155 188.14471 C  193.81155 192.1252 190.58482 195.35193 186.60434 195.35193 C  182.62386 195.35193 179.39713 192.1252 179.39713 188.14471 C  179.39713 184.16423 182.62386 180.9375 186.60434 180.9375 C  190.58482 180.9375 193.81155 184.16423 193.81155 188.14471 Z M  186.60434 188.14471  " />
 </g>
 </g>
 </g>
 </g>
 <path d=" M  199.57469 197.92882  " style="fill:none"/>
 <g>
 <g stroke="rgb(100.0%,0.0%,0.0%)">
 <g fill="rgb(100.0%,0.0%,0.0%)">
 <g fill="rgb(100.0%,0.0%,0.0%)">
 <path d=" M  206.7819 197.92882 C  206.7819 201.9093 203.55518 205.13603 199.57469 205.13603 C  195.59421 205.13603 192.36748 201.9093 192.36748 197.92882 C  192.36748 193.94833 195.59421 190.7216 199.57469 190.7216 C  203.55518 190.7216 206.7819 193.94833 206.7819 197.92882 Z M  199.57469 197.92882  " />
 </g>
 </g>
 </g>
 </g>
 <path d=" M  212.54463 184.02502  " style="fill:none"/>
 <g>
 <g stroke="rgb(100.0%,0.0%,0.0%)">
 <g fill="rgb(100.0%,0.0%,0.0%)">
 <g fill="rgb(100.0%,0.0%,0.0%)">
 <path d=" M  219.75185 184.02502 C  219.75185 188.00551 216.52512 191.23224 212.54463 191.23224 C  208.56415 191.23224 205.33742 188.00551 205.33742 184.02502 C  205.33742 180.04454 208.56415 176.81781 212.54463 176.81781 C  216.52512 176.81781 219.75185 180.04454 219.75185 184.02502 Z M  212.54463 184.02502  " />
 </g>
 </g>
 </g>
 </g>
 <path d=" M  225.51456 196.75877  " style="fill:none"/>
 <g>
 <g stroke="rgb(100.0%,0.0%,0.0%)">
 <g fill="rgb(100.0%,0.0%,0.0%)">
 <g fill="rgb(100.0%,0.0%,0.0%)">
 <path d=" M  232.72177 196.75877 C  232.72177 200.73926 229.49504 203.96599 225.51456 203.96599 C  221.53407 203.96599 218.30734 200.73926 218.30734 196.75877 C  218.30734 192.77829 221.53407 189.55156 225.51456 189.55156 C  229.49504 189.55156 232.72177 192.77829 232.72177 196.75877 Z M  225.51456 196.75877  " />
 </g>
 </g>
 </g>
 </g>
 <path d=" M  238.48448 201.01869  " style="fill:none"/>
 <g>
 <g stroke="rgb(100.0%,0.0%,0.0%)">
 <g fill="rgb(100.0%,0.0%,0.0%)">
 <g fill="rgb(100.0%,0.0%,0.0%)">
 <path d=" M  245.6917 201.01869 C  245.6917 204.99918 242.46497 208.2259 238.48448 208.2259 C  234.504 208.2259 231.27727 204.99918 231.27727 201.01869 C  231.27727 197.03821 234.504 193.81148 238.48448 193.81148 C  242.46497 193.81148 245.6917 197.03821 245.6917 201.01869 Z M  238.48448 201.01869  " />
 </g>
 </g>
 </g>
 </g>
 <path d=" M  251.4544 195.5414  " style="fill:none"/>
 <g>
 <g stroke="rgb(100.0%,0.0%,0.0%)">
 <g fill="rgb(100.0%,0.0%,0.0%)">
 <g fill="rgb(100.0%,0.0%,0.0%)">
 <path d=" M  258.66162 195.5414 C  258.66162 199.52188 255.43489 202.74861 251.4544 202.74861 C  247.47392 202.74861 244.2472 199.52188 244.2472 195.5414 C  244.2472 191.56091 247.47392 188.33418 251.4544 188.33418 C  255.43489 188.33418 258.66162 191.56091 258.66162 195.5414 Z M  251.4544 195.5414  " />
 </g>
 </g>
 </g>
 </g>
 <path d=" M  264.42435 203.4999  " style="fill:none"/>
 <g>
 <g stroke="rgb(100.0%,0.0%,0.0%)">
 <g fill="rgb(100.0%,0.0%,0.0%)">
 <g fill="rgb(100.0%,0.0%,0.0%)">
 <path d=" M  271.63156 203.4999 C  271.63156 207.48038 268.40483 210.7071 264.42435 210.7071 C  260.44386 210.7071 257.21713 207.48038 257.21713 203.4999 C  257.21713 199.51941 260.44386 196.29268 264.42435 196.29268 C  268.40483 196.29268 271.63156 199.51941 271.63156 203.4999 Z M  264.42435 203.4999  " />
 </g>
 </g>
 </g>
 </g>
 <path d=" M  277.39383 168.01471  " style="fill:none"/>
 <g>
 <g stroke="rgb(100.0%,0.0%,0.0%)">
 <g fill="rgb(100.0%,0.0%,0.0%)">
 <g fill="rgb(100.0%,0.0%,0.0%)">
 <path d=" M  284.60104 168.01471 C  284.60104 171.9952 281.37431 175.22192 277.39383 175.22192 C  273.41335 175.22192 270.18661 171.9952 270.18661 168.01471 C  270.18661 164.03423 273.41335 160.8075 277.39383 160.8075 C  281.37431 160.8075 284.60104 164.03423 284.60104 168.01471 Z M  277.39383 168.01471  " />
 </g>
 </g>
 </g>
 </g>
 <path d=" M  290.3629 156.87257  " style="fill:none"/>
 <g>
 <g stroke="rgb(100.0%,0.0%,0.0%)">
 <g fill="rgb(100.0%,0.0%,0.0%)">
 <g fill="rgb(100.0%,0.0%,0.0%)">
 <path d=" M  297.57011 156.87257 C  297.57011 160.85306 294.34338 164.07979 290.3629 164.07979 C  286.38242 164.07979 283.15569 160.85306 283.15569 156.87257 C  283.15569 152.89209 286.38242 149.66536 290.3629 149.66536 C  294.34338 149.66536 297.57011 152.89209 297.57011 156.87257 Z M  290.3629 156.87257  " />
 </g>
 </g>
 </g>
 </g>
 <path d=" M  303.33456 167.7807  " style="fill:none"/>
 <g>
 <g stroke="rgb(100.0%,0.0%,0.0%)">
 <g fill="rgb(100.0%,0.0%,0.0%)">
 <g fill="rgb(100.0%,0.0%,0.0%)">
 <path d=" M  310.54178 167.7807 C  310.54178 171.76118 307.31505 174.98792 303.33456 174.98792 C  299.35408 174.98792 296.12735 171.76118 296.12735 167.7807 C  296.12735 163.80022 299.35408 160.57349 303.33456 160.57349 C  307.31505 160.57349 310.54178 163.80022 310.54178 167.7807 Z M  303.33456 167.7807  " />
 </g>
 </g>
 </g>
 </g>
 <path d=" M  316.30362 162.91167  " style="fill:none"/>
 <g>
 <g stroke="rgb(100.0%,0.0%,0.0%)">
 <g fill="rgb(100.0%,0.0%,0.0%)">
 <g fill="rgb(100.0%,0.0%,0.0%)">
 <path d=" M  323.51083 162.91167 C  323.51083 166.89215 320.2841 170.11888 316.30362 170.11888 C  312.32314 170.11888 309.0964 166.89215 309.0964 162.91167 C  309.0964 158.93118 312.32314 155.70445 316.30362 155.70445 C  320.2841 155.70445 323.51083 158.93118 323.51083 162.91167 Z M  316.30362 162.91167  " />
 </g>
 </g>
 </g>
 </g>
 <path d=" M  329.27225 158.18372  " style="fill:none"/>
 <g>
 <g stroke="rgb(100.0%,0.0%,0.0%)">
 <g fill="rgb(100.0%,0.0%,0.0%)">
 <g fill="rgb(100.0%,0.0%,0.0%)">
 <path d=" M  336.47946 158.18372 C  336.47946 162.1642 333.25273 165.39093 329.27225 165.39093 C  325.29176 165.39093 322.06503 162.1642 322.06503 158.18372 C  322.06503 154.20323 325.29176 150.9765 329.27225 150.9765 C  333.25273 150.9765 336.47946 154.20323 336.47946 158.18372 Z M  329.27225 158.18372  " />
 </g>
 </g>
 </g>
 </g>
 <path d=" M  342.24391 180.98204  " style="fill:none"/>
 <g>
 <g stroke="rgb(100.0%,0.0%,0.0%)">
 <g fill="rgb(100.0%,0.0%,0.0%)">
 <g fill="rgb(100.0%,0.0%,0.0%)">
 <path d=" M  349.45113 180.98204 C  349.45113 184.96252 346.2244 188.18925 342.24391 188.18925 C  338.26343 188.18925 335.0367 184.96252 335.0367 180.98204 C  335.0367 177.00156 338.26343 173.77483 342.24391 173.77483 C  346.2244 173.77483 349.45113 177.00156 349.45113 180.98204 Z M  342.24391 180.98204  " />
 </g>
 </g>
 </g>
 </g>
 <path d=" M  355.21254 155.0005  " style="fill:none"/>
 <g>
 <g stroke="rgb(100.0%,0.0%,0.0%)">
 <g fill="rgb(100.0%,0.0%,0.0%)">
 <g fill="rgb(100.0%,0.0%,0.0%)">
 <path d=" M  362.41975 155.0005 C  362.41975 158.98099 359.19302 162.20772 355.21254 162.20772 C  351.23206 162.20772 348.00533 158.98099 348.00533 155.0005 C  348.00533 151.02002 351.23206 147.79329 355.21254 147.79329 C  359.19302 147.79329 362.41975 151.02002 362.41975 155.0005 Z M  355.21254 155.0005  " />
 </g>
 </g>
 </g>
 </g>
 <path d=" M  368.1842 159.02641  " style="fill:none"/>
 <g>
 <g stroke="rgb(100.0%,0.0%,0.0%)">
 <g fill="rgb(100.0%,0.0%,0.0%)">
 <g fill="rgb(100.0%,0.0%,0.0%)">
 <path d=" M  375.39142 159.02641 C  375.39142 163.0069 372.16469 166.23363 368.1842 166.23363 C  364.20372 166.23363 360.97699 163.0069 360.97699 159.02641 C  360.97699 155.04593 364.20372 151.8192 368.1842 151.8192 C  372.16469 151.8192 375.39142 155.04593 375.39142 159.02641 Z M  368.1842 159.02641  " />
 </g>
 </g>
 </g>
 </g>
 <path d=" M  381.15283 159.58821  " style="fill:none"/>
 <g>
 <g stroke="rgb(100.0%,0.0%,0.0%)">
 <g fill="rgb(100.0%,0.0%,0.0%)">
 <g fill="rgb(100.0%,0.0%,0.0%)">
 <path d=" M  388.36005 159.58821 C  388.36005 163.5687 385.13332 166.79543 381.15283 166.79543 C  377.17235 166.79543 373.94562 163.5687 373.94562 159.58821 C  373.94562 155.60773 377.17235 152.381 381.15283 152.381 C  385.13332 152.381 388.36005 155.60773 388.36005 159.58821 Z M  381.15283 159.58821  " />
 </g>
 </g>
 </g>
 </g>
 <path d=" M  394.1245 159.6351  " style="fill:none"/>
 <g>
 <g stroke="rgb(100.0%,0.0%,0.0%)">
 <g fill="rgb(100.0%,0.0%,0.0%)">
 <g fill="rgb(100.0%,0.0%,0.0%)">
 <path d=" M  401.33171 159.6351 C  401.33171 163.61559 398.10498 166.84232 394.1245 166.84232 C  390.14401 166.84232 386.91728 163.61559 386.91728 159.6351 C  386.91728 155.65462 390.14401 152.42789 394.1245 152.42789 C  398.10498 152.42789 401.33171 155.65462 401.33171 159.6351 Z M  394.1245 159.6351  " />
 </g>
 </g>
 </g>
 </g>
 <path d=" M  407.09312 154.81294  " style="fill:none"/>
 <g>
 <g stroke="rgb(100.0%,0.0%,0.0%)">
 <g fill="rgb(100.0%,0.0%,0.0%)">
 <g fill="rgb(100.0%,0.0%,0.0%)">
 <path d=" M  414.30034 154.81294 C  414.30034 158.79343 411.07361 162.02016 407.09312 162.02016 C  403.11264 162.02016 399.88591 158.79343 399.88591 154.81294 C  399.88591 150.83246 403.11264 147.60573 407.09312 147.60573 C  411.07361 147.60573 414.30034 150.83246 414.30034 154.81294 Z M  407.09312 154.81294  " />
 </g>
 </g>
 </g>
 </g>
 <path d=" M  420.06218 157.52815  " style="fill:none"/>
 <g>
 <g stroke="rgb(100.0%,0.0%,0.0%)">
 <g fill="rgb(100.0%,0.0%,0.0%)">
 <g fill="rgb(100.0%,0.0%,0.0%)">
 <path d=" M  427.2694 157.52815 C  427.2694 161.50864 424.04266 164.73537 420.06218 164.73537 C  416.0817 164.73537 412.85497 161.50864 412.85497 157.52815 C  412.85497 153.54767 416.0817 150.32094 420.06218 150.32094 C  424.04266 150.32094 427.2694 153.54767 427.2694 157.52815 Z M  420.06218 157.52815  " />
 </g>
 </g>
 </g>
 </g>
 <path d=" M  433.03384 157.24725  " style="fill:none"/>
 <g>
 <g stroke="rgb(100.0%,0.0%,0.0%)">
 <g fill="rgb(100.0%,0.0%,0.0%)">
 <g fill="rgb(100.0%,0.0%,0.0%)">
 <path d=" M  440.24106 157.24725 C  440.24106 161.22774 437.01433 164.45447 433.03384 164.45447 C  429.05336 164.45447 425.82663 161.22774 425.82663 157.24725 C  425.82663 153.26677 429.05336 150.04004 433.03384 150.04004 C  437.01433 150.04004 440.24106 153.26677 440.24106 157.24725 Z M  433.03384 157.24725  " />
 </g>
 </g>
 </g>
 </g>
 <path d=" M  446.00247 157.48126  " style="fill:none"/>
 <g>
 <g stroke="rgb(100.0%,0.0%,0.0%)">
 <g fill="rgb(100.0%,0.0%,0.0%)">
 <g fill="rgb(100.0%,0.0%,0.0%)">
 <path d=" M  453.20969 157.48126 C  453.20969 161.46175 449.98296 164.68848 446.00247 164.68848 C  442.02199 164.68848 438.79526 161.46175 438.79526 157.48126 C  438.79526 153.50078 442.02199 150.27405 446.00247 150.27405 C  449.98296 150.27405 453.20969 153.50078 453.20969 157.48126 Z M  446.00247 157.48126  " />
 </g>
 </g>
 </g>
 </g>
 <path d=" M  458.97414 155.09384  " style="fill:none"/>
 <g>
 <g stroke="rgb(100.0%,0.0%,0.0%)">
 <g fill="rgb(100.0%,0.0%,0.0%)">
 <g fill="rgb(100.0%,0.0%,0.0%)">
 <path d=" M  466.18135 155.09384 C  466.18135 159.07433 462.95462 162.30106 458.97414 162.30106 C  454.99365 162.30106 451.76692 159.07433 451.76692 155.09384 C  451.76692 151.11336 454.99365 147.88663 458.97414 147.88663 C  462.95462 147.88663 466.18135 151.11336 466.18135 155.09384 Z M  458.97414 155.09384  " />
 </g>
 </g>
 </g>
 </g>
 <path d=" M  471.94276 160.15001  " style="fill:none"/>
 <g>
 <g stroke="rgb(100.0%,0.0%,0.0%)">
 <g fill="rgb(100.0%,0.0%,0.0%)">
 <g fill="rgb(100.0%,0.0%,0.0%)">
 <path d=" M  479.14998 160.15001 C  479.14998 164.1305 475.92325 167.35722 471.94276 167.35722 C  467.96228 167.35722 464.73555 164.1305 464.73555 160.15001 C  464.73555 156.16953 467.96228 152.9428 471.94276 152.9428 C  475.92325 152.9428 479.14998 156.16953 479.14998 160.15001 Z M  471.94276 160.15001  " />
 </g>
 </g>
 </g>
 </g>
 <g>
 <g stroke="rgb(100.0%,100.0%,100.0%)">
 <g fill="rgb(100.0%,100.0%,100.0%)">
 <g fill="rgb(100.0%,100.0%,100.0%)">
 <path d=" M  341.43292 217.86476 M  341.43292 217.86476 L  341.43292 280.11165 L  512.14938 280.11165 L  512.14938 217.86476 Z M  512.14938 280.11165  " />
 </g>
 </g>
 </g>
 </g>
 <g>
 <g stroke="rgb(0.0%,0.0%,0.0%)">
 <g fill="rgb(0.0%,0.0%,0.0%)">
 <g stroke-width="0.9pt">
 <path d=" M  341.43292 217.86476 L  512.14938 217.86476  " style="fill:none"/>
 </g>
 </g>
 </g>
 </g>
 <g>
 <g stroke="rgb(0.0%,0.0%,0.0%)">
 <g fill="rgb(0.0%,0.0%,0.0%)">
 <g stroke-width="0.9pt">
 <path d=" M  512.14938 217.86476 L  512.14938 280.11165  " style="fill:none"/>
 </g>
 </g>
 </g>
 </g>
 <g>
 <g stroke="rgb(0.0%,0.0%,0.0%)">
 <g fill="rgb(0.0%,0.0%,0.0%)">
 <g stroke-width="0.9pt">
 <path d=" M  512.14938 280.11165 L  341.43292 280.11165  " style="fill:none"/>
 </g>
 </g>
 </g>
 </g>
 <g>
 <g stroke="rgb(0.0%,0.0%,0.0%)">
 <g fill="rgb(0.0%,0.0%,0.0%)">
 <g stroke-width="0.9pt">
 <path d=" M  341.43292 280.11165 L  341.43292 217.86476  " style="fill:none"/>
 </g>
 </g>
 </g>
 </g>
 <path d=" M  384.11203 257.5469  " style="fill:none"/>
 <g>
 <g stroke="rgb(0.0%,0.0%,0.0%)">
 <g fill="rgb(0.0%,0.0%,0.0%)">
 <g>
 <g stroke="rgb(0.0%,0.0%,0.0%)">
 <g fill="rgb(0.0%,0.0%,0.0%)">
 </g>
 </g>
 </g>
 <g>
 <g transform="matrix(1.55663,0.0,0.0,1.55663,390.10442,257.5469)">
 <g fill="rgb(0.0%,0.0%,0.0%)">
 <text style="stroke:none" transform="scale(1,-1) translate(16.5771,0)" text-anchor="middle"  font-size="10.95"> 
<tspan font-family="cmr" font-size="10">default</tspan></text> 
</g>
 </g>
 </g>
 </g>
 </g>
 </g>
 <g>
 <g stroke="rgb(100.0%,100.0%,100.0%)">
 <g fill="rgb(100.0%,100.0%,100.0%)">
 <path d=" M  347.83496 253.65688 L  377.70999 253.65688 L  377.70999 275.44318 L  347.83496 275.44318  " style="fill:none"/>
 </g>
 </g>
 </g>
 <g>
 <g stroke="rgb(100.0%,100.0%,100.0%)">
 <g fill="rgb(100.0%,100.0%,100.0%)">
 <g stroke-width="0.9pt">
 <path d=" M  347.83496 264.54982 L  377.70999 264.54982  " style="fill:none"/>
 </g>
 </g>
 </g>
 </g>
 <path d=" M  362.77248 264.54982  " style="fill:none"/>
 <g>
 <g stroke="rgb(0.0%,100.0%,0.0%)">
 <g fill="rgb(0.0%,100.0%,0.0%)">
 <g fill="rgb(0.0%,100.0%,0.0%)">
 <path d=" M  369.97969 264.54982 C  369.97969 268.5303 366.75296 271.75703 362.77248 271.75703 C  358.79199 271.75703 355.56526 268.5303 355.56526 264.54982 C  355.56526 260.56934 358.79199 257.3426 362.77248 257.3426 C  366.75296 257.3426 369.97969 260.56934 369.97969 264.54982 Z M  362.77248 264.54982  " />
 </g>
 </g>
 </g>
 </g>
 <path d=" M  384.11203 226.42368  " style="fill:none"/>
 <g>
 <g stroke="rgb(0.0%,0.0%,0.0%)">
 <g fill="rgb(0.0%,0.0%,0.0%)">
 <g>
 <g stroke="rgb(0.0%,0.0%,0.0%)">
 <g fill="rgb(0.0%,0.0%,0.0%)">
 </g>
 </g>
 </g>
 <g>
 <g transform="matrix(1.55663,0.0,0.0,1.55663,390.10442,226.42368)">
 <g fill="rgb(0.0%,0.0%,0.0%)">
 <text style="stroke:none" transform="scale(1,-1) translate(15.54292,0)" text-anchor="middle"  font-size="10.95"> 
<tspan font-family="cmr" font-size="10">seeded</tspan></text> 
</g>
 </g>
 </g>
 </g>
 </g>
 </g>
 <g>
 <g stroke="rgb(100.0%,100.0%,100.0%)">
 <g fill="rgb(100.0%,100.0%,100.0%)">
 <path d=" M  347.83496 222.53322 L  377.70999 222.53322 L  377.70999 244.31952 L  347.83496 244.31952  " style="fill:none"/>
 </g>
 </g>
 </g>
 <g>
 <g stroke="rgb(100.0%,100.0%,100.0%)">
 <g fill="rgb(100.0%,100.0%,100.0%)">
 <g stroke-width="0.9pt">
 <path d=" M  347.83496 233.42615 L  377.70999 233.42615  " style="fill:none"/>
 </g>
 </g>
 </g>
 </g>
 <path d=" M  362.77248 233.42615  " style="fill:none"/>
 <g>
 <g stroke="rgb(100.0%,0.0%,0.0%)">
 <g fill="rgb(100.0%,0.0%,0.0%)">
 <g fill="rgb(100.0%,0.0%,0.0%)">
 <path d=" M  369.97969 233.42615 C  369.97969 237.40663 366.75296 240.63336 362.77248 240.63336 C  358.79199 240.63336 355.56526 237.40663 355.56526 233.42615 C  355.56526 229.44566 358.79199 226.21893 362.77248 226.21893 C  366.75296 226.21893 369.97969 229.44566 369.97969 233.42615 Z M  362.77248 233.42615  " />
 </g>
 </g>
 </g>
 </g>
 <path d=" M  284.52744 301.12125  " style="fill:none"/>
 <g>
 <g stroke="rgb(0.0%,0.0%,0.0%)">
 <g fill="rgb(0.0%,0.0%,0.0%)">
 <g>
 <g stroke="rgb(0.0%,0.0%,0.0%)">
 <g fill="rgb(0.0%,0.0%,0.0%)">
 </g>
 </g>
 </g>
 <g>
 <g transform="matrix(1.13966,0.0,0.0,1.13966,216.82707,296.78816)">
 <g fill="rgb(0.0%,0.0%,0.0%)">
 <text style="stroke:none" transform="scale(1,-1) translate(59.40381,0)" text-anchor="middle"  font-size="10.95"> 
<tspan font-family="cmr" font-size="10">User run time for ranecu</tspan></text> 
</g>
 </g>
 </g>
 </g>
 </g>
 </g>
 </g>
 </g>
 </g>
 </g>
 </g>
                                                                                                                            </g> 
</svg> 
