<?xml version="1.0" encoding="iso-8859-1" standalone="no"?> 
<?xml-stylesheet href="gsocPreprint.css" type="text/css"?> 
<svg xmlns="http://www.w3.org/2000/svg" xmlns:xlink="http://www.w3.org/1999/xlink" width="569.45486pt" height="311.63617pt" viewBox="-0.2 -0.2 569.45486 311.63617 "> 
<g transform="translate(0, 311.43617 ) scale(1,-1) translate(0,0.2 )"> 
<g>
 <g stroke="rgb(0.0%,0.0%,0.0%)">
 <g fill="rgb(0.0%,0.0%,0.0%)">
 <g stroke-width="0.4pt">
 <g>
 <g>
 <g stroke="rgb(100.0%,100.0%,100.0%)">
 <g fill="rgb(100.0%,100.0%,100.0%)">
 <g fill="rgb(100.0%,100.0%,100.0%)">
 <path d=" M  0.0 0.0 M  0.0 0.0 L  0.0 311.23618 L  569.05487 311.23618 L  569.05487 0.0 Z M  569.05487 311.23618  " />
 </g>
 </g>
 </g>
 </g>
 <g>
 <g stroke="rgb(100.0%,100.0%,100.0%)">
 <g fill="rgb(100.0%,100.0%,100.0%)">
 <g fill="rgb(100.0%,100.0%,100.0%)">
 <path d=" M  56.90549 31.12366 M  56.90549 31.12366 L  56.90549 280.11165 L  512.14938 280.11165 L  512.14938 31.12366 Z M  512.14938 280.11165  " />
 </g>
 </g>
 </g>
 </g>
 <g>
 <g stroke="rgb(0.0%,0.0%,0.0%)">
 <g fill="rgb(0.0%,0.0%,0.0%)">
 <g stroke-width="0.9pt">
 <path d=" M  56.90549 31.12366 L  56.90549 280.11165 L  512.14938 280.11165 L  512.14938 31.12366 L  56.90549 31.12366  " style="fill:none"/>
 </g>
 </g>
 </g>
 </g>
 <g>
 <g stroke="rgb(100.0%,100.0%,100.0%)">
 <g fill="rgb(100.0%,100.0%,100.0%)">
 <g fill="rgb(100.0%,100.0%,100.0%)">
 <path d=" M  56.90549 31.12366 M  56.90549 31.12366 L  56.90549 280.11165 L  512.14938 280.11165 L  512.14938 31.12366 Z M  512.14938 280.11165  " />
 </g>
 </g>
 </g>
 </g>
 <g>
 <g stroke="rgb(0.0%,0.0%,0.0%)">
 <g fill="rgb(0.0%,0.0%,0.0%)">
 <g stroke-width="0.9pt">
 <path d=" M  56.90549 31.12366 L  56.90549 280.11165 L  512.14938 280.11165 L  512.14938 31.12366 L  56.90549 31.12366  " style="fill:none"/>
 </g>
 </g>
 </g>
 </g>
 <g>
 <g stroke="rgb(0.0%,100.0%,0.0%)">
 <g fill="rgb(0.0%,100.0%,0.0%)">
 <g stroke-width="0.9pt">
 <path d=" M  284.52744 63.2932 L  284.52744 87.45563  " style="fill:none"/>
 </g>
 </g>
 </g>
 </g>
 <g>
 <g stroke="rgb(0.0%,100.0%,0.0%)">
 <g fill="rgb(0.0%,100.0%,0.0%)">
 <g stroke-width="0.9pt">
 <path d=" M  284.52744 87.45563 L  284.52744 111.61806  " style="fill:none"/>
 </g>
 </g>
 </g>
 </g>
 <g>
 <g stroke="rgb(0.0%,100.0%,0.0%)">
 <g fill="rgb(0.0%,100.0%,0.0%)">
 <g stroke-width="0.9pt">
 <path d=" M  56.90549 87.45563 L  284.52744 87.45563  " style="fill:none"/>
 </g>
 </g>
 </g>
 </g>
 <g>
 <g stroke="rgb(0.0%,100.0%,0.0%)">
 <g fill="rgb(0.0%,100.0%,0.0%)">
 <g stroke-width="0.9pt">
 <path d=" M  284.52744 87.45563 L  512.14938 87.45563  " style="fill:none"/>
 </g>
 </g>
 </g>
 </g>
 <path d=" M  284.52744 87.45563  " style="fill:none"/>
 <g>
 <g stroke="rgb(0.0%,100.0%,0.0%)">
 <g fill="rgb(0.0%,100.0%,0.0%)">
 <g fill="rgb(0.0%,100.0%,0.0%)">
 <path d=" M  285.52744 87.45563 C  285.52744 88.00792 285.07973 88.45563 284.52744 88.45563 C  283.97514 88.45563 283.52744 88.00792 283.52744 87.45563 C  283.52744 86.90334 283.97514 86.45563 284.52744 86.45563 C  285.07973 86.45563 285.52744 86.90334 285.52744 87.45563 Z M  284.52744 87.45563  " />
 </g>
 </g>
 </g>
 </g>
 <g>
 <g stroke="rgb(0.0%,0.0%,0.0%)">
 <g fill="rgb(0.0%,0.0%,0.0%)">
 <g stroke-width="0.9pt">
 <path d=" M  56.90549 31.12366 L  512.14938 31.12366  " style="fill:none"/>
 </g>
 </g>
 </g>
 </g>
 <g>
 <g stroke="rgb(0.0%,0.0%,0.0%)">
 <g fill="rgb(0.0%,0.0%,0.0%)">
 <g stroke-width="0.9pt">
 <path d=" M  56.90549 38.59328 L  56.90549 31.12366  " style="fill:none"/>
 </g>
 </g>
 </g>
 </g>
 <g>
 <g stroke="rgb(0.0%,0.0%,0.0%)">
 <g fill="rgb(0.0%,0.0%,0.0%)">
 <g stroke-width="0.9pt">
 <path d=" M  70.29524 34.85825 L  70.29524 31.12366  " style="fill:none"/>
 </g>
 </g>
 </g>
 </g>
 <g>
 <g stroke="rgb(0.0%,0.0%,0.0%)">
 <g fill="rgb(0.0%,0.0%,0.0%)">
 <g stroke-width="0.9pt">
 <path d=" M  83.68456 34.85825 L  83.68456 31.12366  " style="fill:none"/>
 </g>
 </g>
 </g>
 </g>
 <g>
 <g stroke="rgb(0.0%,0.0%,0.0%)">
 <g fill="rgb(0.0%,0.0%,0.0%)">
 <g stroke-width="0.9pt">
 <path d=" M  97.07388 34.85825 L  97.07388 31.12366  " style="fill:none"/>
 </g>
 </g>
 </g>
 </g>
 <g>
 <g stroke="rgb(0.0%,0.0%,0.0%)">
 <g fill="rgb(0.0%,0.0%,0.0%)">
 <g stroke-width="0.9pt">
 <path d=" M  110.46364 38.59328 L  110.46364 31.12366  " style="fill:none"/>
 </g>
 </g>
 </g>
 </g>
 <g>
 <g stroke="rgb(0.0%,0.0%,0.0%)">
 <g fill="rgb(0.0%,0.0%,0.0%)">
 <g stroke-width="0.9pt">
 <path d=" M  123.85295 34.85825 L  123.85295 31.12366  " style="fill:none"/>
 </g>
 </g>
 </g>
 </g>
 <g>
 <g stroke="rgb(0.0%,0.0%,0.0%)">
 <g fill="rgb(0.0%,0.0%,0.0%)">
 <g stroke-width="0.9pt">
 <path d=" M  137.24272 34.85825 L  137.24272 31.12366  " style="fill:none"/>
 </g>
 </g>
 </g>
 </g>
 <g>
 <g stroke="rgb(0.0%,0.0%,0.0%)">
 <g fill="rgb(0.0%,0.0%,0.0%)">
 <g stroke-width="0.9pt">
 <path d=" M  150.63203 34.85825 L  150.63203 31.12366  " style="fill:none"/>
 </g>
 </g>
 </g>
 </g>
 <g>
 <g stroke="rgb(0.0%,0.0%,0.0%)">
 <g fill="rgb(0.0%,0.0%,0.0%)">
 <g stroke-width="0.9pt">
 <path d=" M  164.02179 38.59328 L  164.02179 31.12366  " style="fill:none"/>
 </g>
 </g>
 </g>
 </g>
 <g>
 <g stroke="rgb(0.0%,0.0%,0.0%)">
 <g fill="rgb(0.0%,0.0%,0.0%)">
 <g stroke-width="0.9pt">
 <path d=" M  177.41112 34.85825 L  177.41112 31.12366  " style="fill:none"/>
 </g>
 </g>
 </g>
 </g>
 <g>
 <g stroke="rgb(0.0%,0.0%,0.0%)">
 <g fill="rgb(0.0%,0.0%,0.0%)">
 <g stroke-width="0.9pt">
 <path d=" M  190.80087 34.85825 L  190.80087 31.12366  " style="fill:none"/>
 </g>
 </g>
 </g>
 </g>
 <g>
 <g stroke="rgb(0.0%,0.0%,0.0%)">
 <g fill="rgb(0.0%,0.0%,0.0%)">
 <g stroke-width="0.9pt">
 <path d=" M  204.19019 34.85825 L  204.19019 31.12366  " style="fill:none"/>
 </g>
 </g>
 </g>
 </g>
 <g>
 <g stroke="rgb(0.0%,0.0%,0.0%)">
 <g fill="rgb(0.0%,0.0%,0.0%)">
 <g stroke-width="0.9pt">
 <path d=" M  217.57996 38.59328 L  217.57996 31.12366  " style="fill:none"/>
 </g>
 </g>
 </g>
 </g>
 <g>
 <g stroke="rgb(0.0%,0.0%,0.0%)">
 <g fill="rgb(0.0%,0.0%,0.0%)">
 <g stroke-width="0.9pt">
 <path d=" M  230.96927 34.85825 L  230.96927 31.12366  " style="fill:none"/>
 </g>
 </g>
 </g>
 </g>
 <g>
 <g stroke="rgb(0.0%,0.0%,0.0%)">
 <g fill="rgb(0.0%,0.0%,0.0%)">
 <g stroke-width="0.9pt">
 <path d=" M  244.3586 34.85825 L  244.3586 31.12366  " style="fill:none"/>
 </g>
 </g>
 </g>
 </g>
 <g>
 <g stroke="rgb(0.0%,0.0%,0.0%)">
 <g fill="rgb(0.0%,0.0%,0.0%)">
 <g stroke-width="0.9pt">
 <path d=" M  257.74835 34.85825 L  257.74835 31.12366  " style="fill:none"/>
 </g>
 </g>
 </g>
 </g>
 <g>
 <g stroke="rgb(0.0%,0.0%,0.0%)">
 <g fill="rgb(0.0%,0.0%,0.0%)">
 <g stroke-width="0.9pt">
 <path d=" M  271.13766 38.59328 L  271.13766 31.12366  " style="fill:none"/>
 </g>
 </g>
 </g>
 </g>
 <g>
 <g stroke="rgb(0.0%,0.0%,0.0%)">
 <g fill="rgb(0.0%,0.0%,0.0%)">
 <g stroke-width="0.9pt">
 <path d=" M  284.52744 34.85825 L  284.52744 31.12366  " style="fill:none"/>
 </g>
 </g>
 </g>
 </g>
 <g>
 <g stroke="rgb(0.0%,0.0%,0.0%)">
 <g fill="rgb(0.0%,0.0%,0.0%)">
 <g stroke-width="0.9pt">
 <path d=" M  297.91719 34.85825 L  297.91719 31.12366  " style="fill:none"/>
 </g>
 </g>
 </g>
 </g>
 <g>
 <g stroke="rgb(0.0%,0.0%,0.0%)">
 <g fill="rgb(0.0%,0.0%,0.0%)">
 <g stroke-width="0.9pt">
 <path d=" M  311.30695 34.85825 L  311.30695 31.12366  " style="fill:none"/>
 </g>
 </g>
 </g>
 </g>
 <g>
 <g stroke="rgb(0.0%,0.0%,0.0%)">
 <g fill="rgb(0.0%,0.0%,0.0%)">
 <g stroke-width="0.9pt">
 <path d=" M  324.69713 38.59328 L  324.69713 31.12366  " style="fill:none"/>
 </g>
 </g>
 </g>
 </g>
 <g>
 <g stroke="rgb(0.0%,0.0%,0.0%)">
 <g fill="rgb(0.0%,0.0%,0.0%)">
 <g stroke-width="0.9pt">
 <path d=" M  338.08688 34.85825 L  338.08688 31.12366  " style="fill:none"/>
 </g>
 </g>
 </g>
 </g>
 <g>
 <g stroke="rgb(0.0%,0.0%,0.0%)">
 <g fill="rgb(0.0%,0.0%,0.0%)">
 <g stroke-width="0.9pt">
 <path d=" M  351.47404 34.85825 L  351.47404 31.12366  " style="fill:none"/>
 </g>
 </g>
 </g>
 </g>
 <g>
 <g stroke="rgb(0.0%,0.0%,0.0%)">
 <g fill="rgb(0.0%,0.0%,0.0%)">
 <g stroke-width="0.9pt">
 <path d=" M  364.8638 34.85825 L  364.8638 31.12366  " style="fill:none"/>
 </g>
 </g>
 </g>
 </g>
 <g>
 <g stroke="rgb(0.0%,0.0%,0.0%)">
 <g fill="rgb(0.0%,0.0%,0.0%)">
 <g stroke-width="0.9pt">
 <path d=" M  378.25356 38.59328 L  378.25356 31.12366  " style="fill:none"/>
 </g>
 </g>
 </g>
 </g>
 <g>
 <g stroke="rgb(0.0%,0.0%,0.0%)">
 <g fill="rgb(0.0%,0.0%,0.0%)">
 <g stroke-width="0.9pt">
 <path d=" M  391.64331 34.85825 L  391.64331 31.12366  " style="fill:none"/>
 </g>
 </g>
 </g>
 </g>
 <g>
 <g stroke="rgb(0.0%,0.0%,0.0%)">
 <g fill="rgb(0.0%,0.0%,0.0%)">
 <g stroke-width="0.9pt">
 <path d=" M  405.0335 34.85825 L  405.0335 31.12366  " style="fill:none"/>
 </g>
 </g>
 </g>
 </g>
 <g>
 <g stroke="rgb(0.0%,0.0%,0.0%)">
 <g fill="rgb(0.0%,0.0%,0.0%)">
 <g stroke-width="0.9pt">
 <path d=" M  418.42325 34.85825 L  418.42325 31.12366  " style="fill:none"/>
 </g>
 </g>
 </g>
 </g>
 <g>
 <g stroke="rgb(0.0%,0.0%,0.0%)">
 <g fill="rgb(0.0%,0.0%,0.0%)">
 <g stroke-width="0.9pt">
 <path d=" M  431.813 38.59328 L  431.813 31.12366  " style="fill:none"/>
 </g>
 </g>
 </g>
 </g>
 <g>
 <g stroke="rgb(0.0%,0.0%,0.0%)">
 <g fill="rgb(0.0%,0.0%,0.0%)">
 <g stroke-width="0.9pt">
 <path d=" M  445.20276 34.85825 L  445.20276 31.12366  " style="fill:none"/>
 </g>
 </g>
 </g>
 </g>
 <g>
 <g stroke="rgb(0.0%,0.0%,0.0%)">
 <g fill="rgb(0.0%,0.0%,0.0%)">
 <g stroke-width="0.9pt">
 <path d=" M  458.58992 34.85825 L  458.58992 31.12366  " style="fill:none"/>
 </g>
 </g>
 </g>
 </g>
 <g>
 <g stroke="rgb(0.0%,0.0%,0.0%)">
 <g fill="rgb(0.0%,0.0%,0.0%)">
 <g stroke-width="0.9pt">
 <path d=" M  471.97968 34.85825 L  471.97968 31.12366  " style="fill:none"/>
 </g>
 </g>
 </g>
 </g>
 <g>
 <g stroke="rgb(0.0%,0.0%,0.0%)">
 <g fill="rgb(0.0%,0.0%,0.0%)">
 <g stroke-width="0.9pt">
 <path d=" M  485.36986 38.59328 L  485.36986 31.12366  " style="fill:none"/>
 </g>
 </g>
 </g>
 </g>
 <g>
 <g stroke="rgb(0.0%,0.0%,0.0%)">
 <g fill="rgb(0.0%,0.0%,0.0%)">
 <g stroke-width="0.9pt">
 <path d=" M  485.36986 38.59328 L  485.36986 31.12366  " style="fill:none"/>
 </g>
 </g>
 </g>
 </g>
 <g>
 <g stroke="rgb(0.0%,0.0%,0.0%)">
 <g fill="rgb(0.0%,0.0%,0.0%)">
 <g stroke-width="0.9pt">
 <path d=" M  498.75961 34.85825 L  498.75961 31.12366  " style="fill:none"/>
 </g>
 </g>
 </g>
 </g>
 <g>
 <g stroke="rgb(0.0%,0.0%,0.0%)">
 <g fill="rgb(0.0%,0.0%,0.0%)">
 <g stroke-width="0.9pt">
 <path d=" M  512.14938 34.85825 L  512.14938 31.12366  " style="fill:none"/>
 </g>
 </g>
 </g>
 </g>
 <path d=" M  56.90549 20.85286  " style="fill:none"/>
 <g>
 <g stroke="rgb(0.0%,0.0%,0.0%)">
 <g fill="rgb(0.0%,0.0%,0.0%)">
 <g>
 <g stroke="rgb(0.0%,0.0%,0.0%)">
 <g fill="rgb(0.0%,0.0%,0.0%)">
 </g>
 </g>
 </g>
 <g>
 <g transform="matrix(0.86171,0.0,0.0,0.86171,54.54655,20.85286)">
 <g fill="rgb(0.0%,0.0%,0.0%)">
 <text style="stroke:none" transform="scale(1,-1) translate(2.7375,0)" text-anchor="middle"  font-size="10.95"> 
<tspan font-family="cmr" font-size="10">0</tspan></text> 
</g>
 </g>
 </g>
 </g>
 </g>
 </g>
 <path d=" M  110.46364 20.85286  " style="fill:none"/>
 <g>
 <g stroke="rgb(0.0%,0.0%,0.0%)">
 <g fill="rgb(0.0%,0.0%,0.0%)">
 <g>
 <g stroke="rgb(0.0%,0.0%,0.0%)">
 <g fill="rgb(0.0%,0.0%,0.0%)">
 </g>
 </g>
 </g>
 <g>
 <g transform="matrix(0.86171,0.0,0.0,0.86171,108.1047,20.85286)">
 <g fill="rgb(0.0%,0.0%,0.0%)">
 <text style="stroke:none" transform="scale(1,-1) translate(2.7375,0)" text-anchor="middle"  font-size="10.95"> 
<tspan font-family="cmr" font-size="10">2</tspan></text> 
</g>
 </g>
 </g>
 </g>
 </g>
 </g>
 <path d=" M  164.02179 20.85286  " style="fill:none"/>
 <g>
 <g stroke="rgb(0.0%,0.0%,0.0%)">
 <g fill="rgb(0.0%,0.0%,0.0%)">
 <g>
 <g stroke="rgb(0.0%,0.0%,0.0%)">
 <g fill="rgb(0.0%,0.0%,0.0%)">
 </g>
 </g>
 </g>
 <g>
 <g transform="matrix(0.86171,0.0,0.0,0.86171,161.66286,20.85286)">
 <g fill="rgb(0.0%,0.0%,0.0%)">
 <text style="stroke:none" transform="scale(1,-1) translate(2.7375,0)" text-anchor="middle"  font-size="10.95"> 
<tspan font-family="cmr" font-size="10">4</tspan></text> 
</g>
 </g>
 </g>
 </g>
 </g>
 </g>
 <path d=" M  217.57996 20.85286  " style="fill:none"/>
 <g>
 <g stroke="rgb(0.0%,0.0%,0.0%)">
 <g fill="rgb(0.0%,0.0%,0.0%)">
 <g>
 <g stroke="rgb(0.0%,0.0%,0.0%)">
 <g fill="rgb(0.0%,0.0%,0.0%)">
 </g>
 </g>
 </g>
 <g>
 <g transform="matrix(0.86171,0.0,0.0,0.86171,215.22102,20.85286)">
 <g fill="rgb(0.0%,0.0%,0.0%)">
 <text style="stroke:none" transform="scale(1,-1) translate(2.7375,0)" text-anchor="middle"  font-size="10.95"> 
<tspan font-family="cmr" font-size="10">6</tspan></text> 
</g>
 </g>
 </g>
 </g>
 </g>
 </g>
 <path d=" M  271.13766 20.85286  " style="fill:none"/>
 <g>
 <g stroke="rgb(0.0%,0.0%,0.0%)">
 <g fill="rgb(0.0%,0.0%,0.0%)">
 <g>
 <g stroke="rgb(0.0%,0.0%,0.0%)">
 <g fill="rgb(0.0%,0.0%,0.0%)">
 </g>
 </g>
 </g>
 <g>
 <g transform="matrix(0.86171,0.0,0.0,0.86171,268.77873,20.85286)">
 <g fill="rgb(0.0%,0.0%,0.0%)">
 <text style="stroke:none" transform="scale(1,-1) translate(2.7375,0)" text-anchor="middle"  font-size="10.95"> 
<tspan font-family="cmr" font-size="10">8</tspan></text> 
</g>
 </g>
 </g>
 </g>
 </g>
 </g>
 <path d=" M  324.69713 20.85286  " style="fill:none"/>
 <g>
 <g stroke="rgb(0.0%,0.0%,0.0%)">
 <g fill="rgb(0.0%,0.0%,0.0%)">
 <g>
 <g stroke="rgb(0.0%,0.0%,0.0%)">
 <g fill="rgb(0.0%,0.0%,0.0%)">
 </g>
 </g>
 </g>
 <g>
 <g transform="matrix(0.86171,0.0,0.0,0.86171,319.97926,20.85286)">
 <g fill="rgb(0.0%,0.0%,0.0%)">
 <text style="stroke:none" transform="scale(1,-1) translate(5.475,0)" text-anchor="middle"  font-size="10.95"> 
<tspan font-family="cmr" font-size="10">10</tspan></text> 
</g>
 </g>
 </g>
 </g>
 </g>
 </g>
 <path d=" M  378.25356 20.85286  " style="fill:none"/>
 <g>
 <g stroke="rgb(0.0%,0.0%,0.0%)">
 <g fill="rgb(0.0%,0.0%,0.0%)">
 <g>
 <g stroke="rgb(0.0%,0.0%,0.0%)">
 <g fill="rgb(0.0%,0.0%,0.0%)">
 </g>
 </g>
 </g>
 <g>
 <g transform="matrix(0.86171,0.0,0.0,0.86171,373.53569,20.85286)">
 <g fill="rgb(0.0%,0.0%,0.0%)">
 <text style="stroke:none" transform="scale(1,-1) translate(5.475,0)" text-anchor="middle"  font-size="10.95"> 
<tspan font-family="cmr" font-size="10">12</tspan></text> 
</g>
 </g>
 </g>
 </g>
 </g>
 </g>
 <path d=" M  431.813 20.85286  " style="fill:none"/>
 <g>
 <g stroke="rgb(0.0%,0.0%,0.0%)">
 <g fill="rgb(0.0%,0.0%,0.0%)">
 <g>
 <g stroke="rgb(0.0%,0.0%,0.0%)">
 <g fill="rgb(0.0%,0.0%,0.0%)">
 </g>
 </g>
 </g>
 <g>
 <g transform="matrix(0.86171,0.0,0.0,0.86171,427.09514,20.85286)">
 <g fill="rgb(0.0%,0.0%,0.0%)">
 <text style="stroke:none" transform="scale(1,-1) translate(5.475,0)" text-anchor="middle"  font-size="10.95"> 
<tspan font-family="cmr" font-size="10">14</tspan></text> 
</g>
 </g>
 </g>
 </g>
 </g>
 </g>
 <path d=" M  485.36986 20.85286  " style="fill:none"/>
 <g>
 <g stroke="rgb(0.0%,0.0%,0.0%)">
 <g fill="rgb(0.0%,0.0%,0.0%)">
 <g>
 <g stroke="rgb(0.0%,0.0%,0.0%)">
 <g fill="rgb(0.0%,0.0%,0.0%)">
 </g>
 </g>
 </g>
 <g>
 <g transform="matrix(0.86171,0.0,0.0,0.86171,480.652,20.85286)">
 <g fill="rgb(0.0%,0.0%,0.0%)">
 <text style="stroke:none" transform="scale(1,-1) translate(5.475,0)" text-anchor="middle"  font-size="10.95"> 
<tspan font-family="cmr" font-size="10">16</tspan></text> 
</g>
 </g>
 </g>
 </g>
 </g>
 </g>
 <g>
 <g stroke="rgb(0.0%,0.0%,0.0%)">
 <g fill="rgb(0.0%,0.0%,0.0%)">
 <g stroke-width="0.9pt">
 <path d=" M  56.90549 31.12366 L  56.90549 280.11165  " style="fill:none"/>
 </g>
 </g>
 </g>
 </g>
 <g>
 <g stroke="rgb(0.0%,0.0%,0.0%)">
 <g fill="rgb(0.0%,0.0%,0.0%)">
 <g stroke-width="0.9pt">
 <path d=" M  70.56267 43.26653 L  56.90549 43.26653  " style="fill:none"/>
 </g>
 </g>
 </g>
 </g>
 <g>
 <g stroke="rgb(0.0%,0.0%,0.0%)">
 <g fill="rgb(0.0%,0.0%,0.0%)">
 <g stroke-width="0.9pt">
 <path d=" M  63.7343 53.28073 L  56.90549 53.28073  " style="fill:none"/>
 </g>
 </g>
 </g>
 </g>
 <g>
 <g stroke="rgb(0.0%,0.0%,0.0%)">
 <g fill="rgb(0.0%,0.0%,0.0%)">
 <g stroke-width="0.9pt">
 <path d=" M  63.7343 63.29536 L  56.90549 63.29536  " style="fill:none"/>
 </g>
 </g>
 </g>
 </g>
 <g>
 <g stroke="rgb(0.0%,0.0%,0.0%)">
 <g fill="rgb(0.0%,0.0%,0.0%)">
 <g stroke-width="0.9pt">
 <path d=" M  63.7343 73.31 L  56.90549 73.31  " style="fill:none"/>
 </g>
 </g>
 </g>
 </g>
 <g>
 <g stroke="rgb(0.0%,0.0%,0.0%)">
 <g fill="rgb(0.0%,0.0%,0.0%)">
 <g stroke-width="0.9pt">
 <path d=" M  63.7343 83.32465 L  56.90549 83.32465  " style="fill:none"/>
 </g>
 </g>
 </g>
 </g>
 <g>
 <g stroke="rgb(0.0%,0.0%,0.0%)">
 <g fill="rgb(0.0%,0.0%,0.0%)">
 <g stroke-width="0.9pt">
 <path d=" M  70.56267 93.33928 L  56.90549 93.33928  " style="fill:none"/>
 </g>
 </g>
 </g>
 </g>
 <g>
 <g stroke="rgb(0.0%,0.0%,0.0%)">
 <g fill="rgb(0.0%,0.0%,0.0%)">
 <g stroke-width="0.9pt">
 <path d=" M  63.7343 103.35393 L  56.90549 103.35393  " style="fill:none"/>
 </g>
 </g>
 </g>
 </g>
 <g>
 <g stroke="rgb(0.0%,0.0%,0.0%)">
 <g fill="rgb(0.0%,0.0%,0.0%)">
 <g stroke-width="0.9pt">
 <path d=" M  63.7343 113.36856 L  56.90549 113.36856  " style="fill:none"/>
 </g>
 </g>
 </g>
 </g>
 <g>
 <g stroke="rgb(0.0%,0.0%,0.0%)">
 <g fill="rgb(0.0%,0.0%,0.0%)">
 <g stroke-width="0.9pt">
 <path d=" M  63.7343 123.38321 L  56.90549 123.38321  " style="fill:none"/>
 </g>
 </g>
 </g>
 </g>
 <g>
 <g stroke="rgb(0.0%,0.0%,0.0%)">
 <g fill="rgb(0.0%,0.0%,0.0%)">
 <g stroke-width="0.9pt">
 <path d=" M  63.7343 133.39784 L  56.90549 133.39784  " style="fill:none"/>
 </g>
 </g>
 </g>
 </g>
 <g>
 <g stroke="rgb(0.0%,0.0%,0.0%)">
 <g fill="rgb(0.0%,0.0%,0.0%)">
 <g stroke-width="0.9pt">
 <path d=" M  70.56267 143.41248 L  56.90549 143.41248  " style="fill:none"/>
 </g>
 </g>
 </g>
 </g>
 <g>
 <g stroke="rgb(0.0%,0.0%,0.0%)">
 <g fill="rgb(0.0%,0.0%,0.0%)">
 <g stroke-width="0.9pt">
 <path d=" M  63.7343 153.42668 L  56.90549 153.42668  " style="fill:none"/>
 </g>
 </g>
 </g>
 </g>
 <g>
 <g stroke="rgb(0.0%,0.0%,0.0%)">
 <g fill="rgb(0.0%,0.0%,0.0%)">
 <g stroke-width="0.9pt">
 <path d=" M  63.7343 163.44176 L  56.90549 163.44176  " style="fill:none"/>
 </g>
 </g>
 </g>
 </g>
 <g>
 <g stroke="rgb(0.0%,0.0%,0.0%)">
 <g fill="rgb(0.0%,0.0%,0.0%)">
 <g stroke-width="0.9pt">
 <path d=" M  63.7343 173.45596 L  56.90549 173.45596  " style="fill:none"/>
 </g>
 </g>
 </g>
 </g>
 <g>
 <g stroke="rgb(0.0%,0.0%,0.0%)">
 <g fill="rgb(0.0%,0.0%,0.0%)">
 <g stroke-width="0.9pt">
 <path d=" M  63.7343 183.47061 L  56.90549 183.47061  " style="fill:none"/>
 </g>
 </g>
 </g>
 </g>
 <g>
 <g stroke="rgb(0.0%,0.0%,0.0%)">
 <g fill="rgb(0.0%,0.0%,0.0%)">
 <g stroke-width="0.9pt">
 <path d=" M  70.56267 193.48569 L  56.90549 193.48569  " style="fill:none"/>
 </g>
 </g>
 </g>
 </g>
 <g>
 <g stroke="rgb(0.0%,0.0%,0.0%)">
 <g fill="rgb(0.0%,0.0%,0.0%)">
 <g stroke-width="0.9pt">
 <path d=" M  63.7343 203.4999 L  56.90549 203.4999  " style="fill:none"/>
 </g>
 </g>
 </g>
 </g>
 <g>
 <g stroke="rgb(0.0%,0.0%,0.0%)">
 <g fill="rgb(0.0%,0.0%,0.0%)">
 <g stroke-width="0.9pt">
 <path d=" M  63.7343 213.51453 L  56.90549 213.51453  " style="fill:none"/>
 </g>
 </g>
 </g>
 </g>
 <g>
 <g stroke="rgb(0.0%,0.0%,0.0%)">
 <g fill="rgb(0.0%,0.0%,0.0%)">
 <g stroke-width="0.9pt">
 <path d=" M  63.7343 223.52916 L  56.90549 223.52916  " style="fill:none"/>
 </g>
 </g>
 </g>
 </g>
 <g>
 <g stroke="rgb(0.0%,0.0%,0.0%)">
 <g fill="rgb(0.0%,0.0%,0.0%)">
 <g stroke-width="0.9pt">
 <path d=" M  63.7343 233.54381 L  56.90549 233.54381  " style="fill:none"/>
 </g>
 </g>
 </g>
 </g>
 <g>
 <g stroke="rgb(0.0%,0.0%,0.0%)">
 <g fill="rgb(0.0%,0.0%,0.0%)">
 <g stroke-width="0.9pt">
 <path d=" M  70.56267 243.55844 L  56.90549 243.55844  " style="fill:none"/>
 </g>
 </g>
 </g>
 </g>
 <g>
 <g stroke="rgb(0.0%,0.0%,0.0%)">
 <g fill="rgb(0.0%,0.0%,0.0%)">
 <g stroke-width="0.9pt">
 <path d=" M  70.56267 43.26653 L  56.90549 43.26653  " style="fill:none"/>
 </g>
 </g>
 </g>
 </g>
 <g>
 <g stroke="rgb(0.0%,0.0%,0.0%)">
 <g fill="rgb(0.0%,0.0%,0.0%)">
 <g stroke-width="0.9pt">
 <path d=" M  63.7343 33.25145 L  56.90549 33.25145  " style="fill:none"/>
 </g>
 </g>
 </g>
 </g>
 <g>
 <g stroke="rgb(0.0%,0.0%,0.0%)">
 <g fill="rgb(0.0%,0.0%,0.0%)">
 <g stroke-width="0.9pt">
 <path d=" M  70.56267 243.55844 L  56.90549 243.55844  " style="fill:none"/>
 </g>
 </g>
 </g>
 </g>
 <g>
 <g stroke="rgb(0.0%,0.0%,0.0%)">
 <g fill="rgb(0.0%,0.0%,0.0%)">
 <g stroke-width="0.9pt">
 <path d=" M  63.7343 253.57309 L  56.90549 253.57309  " style="fill:none"/>
 </g>
 </g>
 </g>
 </g>
 <g>
 <g stroke="rgb(0.0%,0.0%,0.0%)">
 <g fill="rgb(0.0%,0.0%,0.0%)">
 <g stroke-width="0.9pt">
 <path d=" M  63.7343 263.58772 L  56.90549 263.58772  " style="fill:none"/>
 </g>
 </g>
 </g>
 </g>
 <g>
 <g stroke="rgb(0.0%,0.0%,0.0%)">
 <g fill="rgb(0.0%,0.0%,0.0%)">
 <g stroke-width="0.9pt">
 <path d=" M  63.7343 273.60193 L  56.90549 273.60193  " style="fill:none"/>
 </g>
 </g>
 </g>
 </g>
 <path d=" M  54.06003 43.26653  " style="fill:none"/>
 <g>
 <g stroke="rgb(0.0%,0.0%,0.0%)">
 <g fill="rgb(0.0%,0.0%,0.0%)">
 <g>
 <g stroke="rgb(0.0%,0.0%,0.0%)">
 <g fill="rgb(0.0%,0.0%,0.0%)">
 </g>
 </g>
 </g>
 <g>
 <g transform="matrix(0.86171,0.0,0.0,0.86171,41.30705,40.22615)">
 <g fill="rgb(0.0%,0.0%,0.0%)">
 <text style="stroke:none" transform="scale(1,-1) translate(5.475,0)" text-anchor="middle"  font-size="10.95"> 
<tspan font-family="cmr" font-size="10">56</tspan></text> 
</g>
 </g>
 </g>
 </g>
 </g>
 </g>
 <path d=" M  54.06003 93.33928  " style="fill:none"/>
 <g>
 <g stroke="rgb(0.0%,0.0%,0.0%)">
 <g fill="rgb(0.0%,0.0%,0.0%)">
 <g>
 <g stroke="rgb(0.0%,0.0%,0.0%)">
 <g fill="rgb(0.0%,0.0%,0.0%)">
 </g>
 </g>
 </g>
 <g>
 <g transform="matrix(0.86171,0.0,0.0,0.86171,33.96817,90.2989)">
 <g fill="rgb(0.0%,0.0%,0.0%)">
 <text style="stroke:none" transform="scale(1,-1) translate(9.73334,0)" text-anchor="middle"  font-size="10.95"> 
<tspan font-family="cmr" font-size="10">56.5</tspan></text> 
</g>
 </g>
 </g>
 </g>
 </g>
 </g>
 <path d=" M  54.06003 143.41248  " style="fill:none"/>
 <g>
 <g stroke="rgb(0.0%,0.0%,0.0%)">
 <g fill="rgb(0.0%,0.0%,0.0%)">
 <g>
 <g stroke="rgb(0.0%,0.0%,0.0%)">
 <g fill="rgb(0.0%,0.0%,0.0%)">
 </g>
 </g>
 </g>
 <g>
 <g transform="matrix(0.86171,0.0,0.0,0.86171,41.30705,140.3721)">
 <g fill="rgb(0.0%,0.0%,0.0%)">
 <text style="stroke:none" transform="scale(1,-1) translate(5.475,0)" text-anchor="middle"  font-size="10.95"> 
<tspan font-family="cmr" font-size="10">57</tspan></text> 
</g>
 </g>
 </g>
 </g>
 </g>
 </g>
 <path d=" M  54.06003 193.48569  " style="fill:none"/>
 <g>
 <g stroke="rgb(0.0%,0.0%,0.0%)">
 <g fill="rgb(0.0%,0.0%,0.0%)">
 <g>
 <g stroke="rgb(0.0%,0.0%,0.0%)">
 <g fill="rgb(0.0%,0.0%,0.0%)">
 </g>
 </g>
 </g>
 <g>
 <g transform="matrix(0.86171,0.0,0.0,0.86171,33.96817,190.44531)">
 <g fill="rgb(0.0%,0.0%,0.0%)">
 <text style="stroke:none" transform="scale(1,-1) translate(9.73334,0)" text-anchor="middle"  font-size="10.95"> 
<tspan font-family="cmr" font-size="10">57.5</tspan></text> 
</g>
 </g>
 </g>
 </g>
 </g>
 </g>
 <path d=" M  54.06003 243.55844  " style="fill:none"/>
 <g>
 <g stroke="rgb(0.0%,0.0%,0.0%)">
 <g fill="rgb(0.0%,0.0%,0.0%)">
 <g>
 <g stroke="rgb(0.0%,0.0%,0.0%)">
 <g fill="rgb(0.0%,0.0%,0.0%)">
 </g>
 </g>
 </g>
 <g>
 <g transform="matrix(0.86171,0.0,0.0,0.86171,41.30705,240.51807)">
 <g fill="rgb(0.0%,0.0%,0.0%)">
 <text style="stroke:none" transform="scale(1,-1) translate(5.475,0)" text-anchor="middle"  font-size="10.95"> 
<tspan font-family="cmr" font-size="10">58</tspan></text> 
</g>
 </g>
 </g>
 </g>
 </g>
 </g>
 <g>
 <g stroke="rgb(100.0%,0.0%,0.0%)">
 <g fill="rgb(100.0%,0.0%,0.0%)">
 <g stroke-width="0.9pt">
 <path d=" M  284.52744 139.1938 L  284.52744 163.50429  " style="fill:none"/>
 </g>
 </g>
 </g>
 </g>
 <g>
 <g stroke="rgb(100.0%,0.0%,0.0%)">
 <g fill="rgb(100.0%,0.0%,0.0%)">
 <g stroke-width="0.9pt">
 <path d=" M  284.52744 163.50429 L  284.52744 187.81476  " style="fill:none"/>
 </g>
 </g>
 </g>
 </g>
 <g>
 <g stroke="rgb(100.0%,0.0%,0.0%)">
 <g fill="rgb(100.0%,0.0%,0.0%)">
 <g stroke-width="0.9pt">
 <path d=" M  56.90549 163.50429 L  284.52744 163.50429  " style="fill:none"/>
 </g>
 </g>
 </g>
 </g>
 <g>
 <g stroke="rgb(100.0%,0.0%,0.0%)">
 <g fill="rgb(100.0%,0.0%,0.0%)">
 <g stroke-width="0.9pt">
 <path d=" M  284.52744 163.50429 L  512.14938 163.50429  " style="fill:none"/>
 </g>
 </g>
 </g>
 </g>
 <path d=" M  284.52744 163.50429  " style="fill:none"/>
 <g>
 <g stroke="rgb(100.0%,0.0%,0.0%)">
 <g fill="rgb(100.0%,0.0%,0.0%)">
 <g fill="rgb(100.0%,0.0%,0.0%)">
 <path d=" M  285.52744 163.50429 C  285.52744 164.05658 285.07973 164.50429 284.52744 164.50429 C  283.97514 164.50429 283.52744 164.05658 283.52744 163.50429 C  283.52744 162.952 283.97514 162.50429 284.52744 162.50429 C  285.07973 162.50429 285.52744 162.952 285.52744 163.50429 Z M  284.52744 163.50429  " />
 </g>
 </g>
 </g>
 </g>
 <path d=" M  83.68456 85.3274  " style="fill:none"/>
 <g>
 <g stroke="rgb(0.0%,100.0%,0.0%)">
 <g fill="rgb(0.0%,100.0%,0.0%)">
 <g fill="rgb(0.0%,100.0%,0.0%)">
 <path d=" M  90.89177 85.3274 C  90.89177 89.30788 87.66504 92.5346 83.68456 92.5346 C  79.70407 92.5346 76.47734 89.30788 76.47734 85.3274 C  76.47734 81.34691 79.70407 78.12018 83.68456 78.12018 C  87.66504 78.12018 90.89177 81.34691 90.89177 85.3274 Z M  83.68456 85.3274  " />
 </g>
 </g>
 </g>
 </g>
 <path d=" M  110.46364 53.28073  " style="fill:none"/>
 <g>
 <g stroke="rgb(0.0%,100.0%,0.0%)">
 <g fill="rgb(0.0%,100.0%,0.0%)">
 <g fill="rgb(0.0%,100.0%,0.0%)">
 <path d=" M  117.67085 53.28073 C  117.67085 57.26122 114.44412 60.48795 110.46364 60.48795 C  106.48315 60.48795 103.25642 57.26122 103.25642 53.28073 C  103.25642 49.30025 106.48315 46.07352 110.46364 46.07352 C  114.44412 46.07352 117.67085 49.30025 117.67085 53.28073 Z M  110.46364 53.28073  " />
 </g>
 </g>
 </g>
 </g>
 <path d=" M  137.24272 62.29376  " style="fill:none"/>
 <g>
 <g stroke="rgb(0.0%,100.0%,0.0%)">
 <g fill="rgb(0.0%,100.0%,0.0%)">
 <g fill="rgb(0.0%,100.0%,0.0%)">
 <path d=" M  144.44994 62.29376 C  144.44994 66.27425 141.2232 69.50098 137.24272 69.50098 C  133.26224 69.50098 130.0355 66.27425 130.0355 62.29376 C  130.0355 58.31328 133.26224 55.08655 137.24272 55.08655 C  141.2232 55.08655 144.44994 58.31328 144.44994 62.29376 Z M  137.24272 62.29376  " />
 </g>
 </g>
 </g>
 </g>
 <path d=" M  164.02179 120.37886  " style="fill:none"/>
 <g>
 <g stroke="rgb(0.0%,100.0%,0.0%)">
 <g fill="rgb(0.0%,100.0%,0.0%)">
 <g fill="rgb(0.0%,100.0%,0.0%)">
 <path d=" M  171.229 120.37886 C  171.229 124.35934 168.00227 127.58607 164.02179 127.58607 C  160.0413 127.58607 156.81458 124.35934 156.81458 120.37886 C  156.81458 116.39838 160.0413 113.17165 164.02179 113.17165 C  168.00227 113.17165 171.229 116.39838 171.229 120.37886 Z M  164.02179 120.37886  " />
 </g>
 </g>
 </g>
 </g>
 <path d=" M  190.80087 118.3761  " style="fill:none"/>
 <g>
 <g stroke="rgb(0.0%,100.0%,0.0%)">
 <g fill="rgb(0.0%,100.0%,0.0%)">
 <g fill="rgb(0.0%,100.0%,0.0%)">
 <path d=" M  198.00809 118.3761 C  198.00809 122.35658 194.78136 125.58331 190.80087 125.58331 C  186.82039 125.58331 183.59366 122.35658 183.59366 118.3761 C  183.59366 114.39561 186.82039 111.16888 190.80087 111.16888 C  194.78136 111.16888 198.00809 114.39561 198.00809 118.3761 Z M  190.80087 118.3761  " />
 </g>
 </g>
 </g>
 </g>
 <path d=" M  217.57996 60.29102  " style="fill:none"/>
 <g>
 <g stroke="rgb(0.0%,100.0%,0.0%)">
 <g fill="rgb(0.0%,100.0%,0.0%)">
 <g fill="rgb(0.0%,100.0%,0.0%)">
 <path d=" M  224.78717 60.29102 C  224.78717 64.2715 221.56044 67.49823 217.57996 67.49823 C  213.59947 67.49823 210.37274 64.2715 210.37274 60.29102 C  210.37274 56.31053 213.59947 53.0838 217.57996 53.0838 C  221.56044 53.0838 224.78717 56.31053 224.78717 60.29102 Z M  217.57996 60.29102  " />
 </g>
 </g>
 </g>
 </g>
 <path d=" M  244.3586 76.31435  " style="fill:none"/>
 <g>
 <g stroke="rgb(0.0%,100.0%,0.0%)">
 <g fill="rgb(0.0%,100.0%,0.0%)">
 <g fill="rgb(0.0%,100.0%,0.0%)">
 <path d=" M  251.56581 76.31435 C  251.56581 80.29483 248.33908 83.52156 244.3586 83.52156 C  240.37811 83.52156 237.15138 80.29483 237.15138 76.31435 C  237.15138 72.33386 240.37811 69.10713 244.3586 69.10713 C  248.33908 69.10713 251.56581 72.33386 251.56581 76.31435 Z M  244.3586 76.31435  " />
 </g>
 </g>
 </g>
 </g>
 <path d=" M  271.13766 115.37132  " style="fill:none"/>
 <g>
 <g stroke="rgb(0.0%,100.0%,0.0%)">
 <g fill="rgb(0.0%,100.0%,0.0%)">
 <g fill="rgb(0.0%,100.0%,0.0%)">
 <path d=" M  278.34488 115.37132 C  278.34488 119.3518 275.11815 122.57854 271.13766 122.57854 C  267.15718 122.57854 263.93045 119.3518 263.93045 115.37132 C  263.93045 111.39084 267.15718 108.16411 271.13766 108.16411 C  275.11815 108.16411 278.34488 111.39084 278.34488 115.37132 Z M  271.13766 115.37132  " />
 </g>
 </g>
 </g>
 </g>
 <path d=" M  297.91719 86.329  " style="fill:none"/>
 <g>
 <g stroke="rgb(0.0%,100.0%,0.0%)">
 <g fill="rgb(0.0%,100.0%,0.0%)">
 <g fill="rgb(0.0%,100.0%,0.0%)">
 <path d=" M  305.1244 86.329 C  305.1244 90.30948 301.89767 93.53621 297.91719 93.53621 C  293.9367 93.53621 290.70998 90.30948 290.70998 86.329 C  290.70998 82.34851 293.9367 79.12178 297.91719 79.12178 C  301.89767 79.12178 305.1244 82.34851 305.1244 86.329 Z M  297.91719 86.329  " />
 </g>
 </g>
 </g>
 </g>
 <path d=" M  324.69713 114.37016  " style="fill:none"/>
 <g>
 <g stroke="rgb(0.0%,100.0%,0.0%)">
 <g fill="rgb(0.0%,100.0%,0.0%)">
 <g fill="rgb(0.0%,100.0%,0.0%)">
 <path d=" M  331.90434 114.37016 C  331.90434 118.35065 328.67761 121.57738 324.69713 121.57738 C  320.71664 121.57738 317.48991 118.35065 317.48991 114.37016 C  317.48991 110.38968 320.71664 107.16295 324.69713 107.16295 C  328.67761 107.16295 331.90434 110.38968 331.90434 114.37016 Z M  324.69713 114.37016  " />
 </g>
 </g>
 </g>
 </g>
 <path d=" M  351.47404 111.36537  " style="fill:none"/>
 <g>
 <g stroke="rgb(0.0%,100.0%,0.0%)">
 <g fill="rgb(0.0%,100.0%,0.0%)">
 <g fill="rgb(0.0%,100.0%,0.0%)">
 <path d=" M  358.68126 111.36537 C  358.68126 115.34586 355.45453 118.57259 351.47404 118.57259 C  347.49356 118.57259 344.26683 115.34586 344.26683 111.36537 C  344.26683 107.38489 347.49356 104.15816 351.47404 104.15816 C  355.45453 104.15816 358.68126 107.38489 358.68126 111.36537 Z M  351.47404 111.36537  " />
 </g>
 </g>
 </g>
 </g>
 <path d=" M  378.25356 50.27638  " style="fill:none"/>
 <g>
 <g stroke="rgb(0.0%,100.0%,0.0%)">
 <g fill="rgb(0.0%,100.0%,0.0%)">
 <g fill="rgb(0.0%,100.0%,0.0%)">
 <path d=" M  385.46077 50.27638 C  385.46077 54.25687 382.23404 57.4836 378.25356 57.4836 C  374.27307 57.4836 371.04634 54.25687 371.04634 50.27638 C  371.04634 46.2959 374.27307 43.06917 378.25356 43.06917 C  382.23404 43.06917 385.46077 46.2959 385.46077 50.27638 Z M  378.25356 50.27638  " />
 </g>
 </g>
 </g>
 </g>
 <path d=" M  405.0335 104.35509  " style="fill:none"/>
 <g>
 <g stroke="rgb(0.0%,100.0%,0.0%)">
 <g fill="rgb(0.0%,100.0%,0.0%)">
 <g fill="rgb(0.0%,100.0%,0.0%)">
 <path d=" M  412.2407 104.35509 C  412.2407 108.33557 409.01398 111.5623 405.0335 111.5623 C  401.05301 111.5623 397.82628 108.33557 397.82628 104.35509 C  397.82628 100.3746 401.05301 97.14787 405.0335 97.14787 C  409.01398 97.14787 412.2407 100.3746 412.2407 104.35509 Z M  405.0335 104.35509  " />
 </g>
 </g>
 </g>
 </g>
 <path d=" M  431.813 86.329  " style="fill:none"/>
 <g>
 <g stroke="rgb(0.0%,100.0%,0.0%)">
 <g fill="rgb(0.0%,100.0%,0.0%)">
 <g fill="rgb(0.0%,100.0%,0.0%)">
 <path d=" M  439.02022 86.329 C  439.02022 90.30948 435.79349 93.53621 431.813 93.53621 C  427.83252 93.53621 424.60579 90.30948 424.60579 86.329 C  424.60579 82.34851 427.83252 79.12178 431.813 79.12178 C  435.79349 79.12178 439.02022 82.34851 439.02022 86.329 Z M  431.813 86.329  " />
 </g>
 </g>
 </g>
 </g>
 <path d=" M  458.58992 84.32623  " style="fill:none"/>
 <g>
 <g stroke="rgb(0.0%,100.0%,0.0%)">
 <g fill="rgb(0.0%,100.0%,0.0%)">
 <g fill="rgb(0.0%,100.0%,0.0%)">
 <path d=" M  465.79713 84.32623 C  465.79713 88.30672 462.5704 91.53345 458.58992 91.53345 C  454.60944 91.53345 451.3827 88.30672 451.3827 84.32623 C  451.3827 80.34575 454.60944 77.11902 458.58992 77.11902 C  462.5704 77.11902 465.79713 80.34575 465.79713 84.32623 Z M  458.58992 84.32623  " />
 </g>
 </g>
 </g>
 </g>
 <path d=" M  485.36986 70.30565  " style="fill:none"/>
 <g>
 <g stroke="rgb(0.0%,100.0%,0.0%)">
 <g fill="rgb(0.0%,100.0%,0.0%)">
 <g fill="rgb(0.0%,100.0%,0.0%)">
 <path d=" M  492.57707 70.30565 C  492.57707 74.28613 489.35034 77.51286 485.36986 77.51286 C  481.38937 77.51286 478.16264 74.28613 478.16264 70.30565 C  478.16264 66.32516 481.38937 63.09843 485.36986 63.09843 C  489.35034 63.09843 492.57707 66.32516 492.57707 70.30565 Z M  485.36986 70.30565  " />
 </g>
 </g>
 </g>
 </g>
 <path d=" M  83.68456 181.46785  " style="fill:none"/>
 <g>
 <g stroke="rgb(100.0%,0.0%,0.0%)">
 <g fill="rgb(100.0%,0.0%,0.0%)">
 <g fill="rgb(100.0%,0.0%,0.0%)">
 <path d=" M  90.89177 181.46785 C  90.89177 185.44833 87.66504 188.67506 83.68456 188.67506 C  79.70407 188.67506 76.47734 185.44833 76.47734 181.46785 C  76.47734 177.48737 79.70407 174.26064 83.68456 174.26064 C  87.66504 174.26064 90.89177 177.48737 90.89177 181.46785 Z M  83.68456 181.46785  " />
 </g>
 </g>
 </g>
 </g>
 <path d=" M  110.46364 186.47496  " style="fill:none"/>
 <g>
 <g stroke="rgb(100.0%,0.0%,0.0%)">
 <g fill="rgb(100.0%,0.0%,0.0%)">
 <g fill="rgb(100.0%,0.0%,0.0%)">
 <path d=" M  117.67085 186.47496 C  117.67085 190.45544 114.44412 193.68217 110.46364 193.68217 C  106.48315 193.68217 103.25642 190.45544 103.25642 186.47496 C  103.25642 182.49448 106.48315 179.26775 110.46364 179.26775 C  114.44412 179.26775 117.67085 182.49448 117.67085 186.47496 Z M  110.46364 186.47496  " />
 </g>
 </g>
 </g>
 </g>
 <path d=" M  137.24272 156.43103  " style="fill:none"/>
 <g>
 <g stroke="rgb(100.0%,0.0%,0.0%)">
 <g fill="rgb(100.0%,0.0%,0.0%)">
 <g fill="rgb(100.0%,0.0%,0.0%)">
 <path d=" M  144.44994 156.43103 C  144.44994 160.41151 141.2232 163.63824 137.24272 163.63824 C  133.26224 163.63824 130.0355 160.41151 130.0355 156.43103 C  130.0355 152.45055 133.26224 149.22382 137.24272 149.22382 C  141.2232 149.22382 144.44994 152.45055 144.44994 156.43103 Z M  137.24272 156.43103  " />
 </g>
 </g>
 </g>
 </g>
 <path d=" M  164.02179 180.46626  " style="fill:none"/>
 <g>
 <g stroke="rgb(100.0%,0.0%,0.0%)">
 <g fill="rgb(100.0%,0.0%,0.0%)">
 <g fill="rgb(100.0%,0.0%,0.0%)">
 <path d=" M  171.229 180.46626 C  171.229 184.44675 168.00227 187.67348 164.02179 187.67348 C  160.0413 187.67348 156.81458 184.44675 156.81458 180.46626 C  156.81458 176.48578 160.0413 173.25905 164.02179 173.25905 C  168.00227 173.25905 171.229 176.48578 171.229 180.46626 Z M  164.02179 180.46626  " />
 </g>
 </g>
 </g>
 </g>
 <path d=" M  190.80087 160.43698  " style="fill:none"/>
 <g>
 <g stroke="rgb(100.0%,0.0%,0.0%)">
 <g fill="rgb(100.0%,0.0%,0.0%)">
 <g fill="rgb(100.0%,0.0%,0.0%)">
 <path d=" M  198.00809 160.43698 C  198.00809 164.41747 194.78136 167.6442 190.80087 167.6442 C  186.82039 167.6442 183.59366 164.41747 183.59366 160.43698 C  183.59366 156.4565 186.82039 153.22977 190.80087 153.22977 C  194.78136 153.22977 198.00809 156.4565 198.00809 160.43698 Z M  190.80087 160.43698  " />
 </g>
 </g>
 </g>
 </g>
 <path d=" M  217.57996 140.40813  " style="fill:none"/>
 <g>
 <g stroke="rgb(100.0%,0.0%,0.0%)">
 <g fill="rgb(100.0%,0.0%,0.0%)">
 <g fill="rgb(100.0%,0.0%,0.0%)">
 <path d=" M  224.78717 140.40813 C  224.78717 144.38861 221.56044 147.61534 217.57996 147.61534 C  213.59947 147.61534 210.37274 144.38861 210.37274 140.40813 C  210.37274 136.42764 213.59947 133.20091 217.57996 133.20091 C  221.56044 133.20091 224.78717 136.42764 224.78717 140.40813 Z M  217.57996 140.40813  " />
 </g>
 </g>
 </g>
 </g>
 <path d=" M  244.3586 153.42668  " style="fill:none"/>
 <g>
 <g stroke="rgb(100.0%,0.0%,0.0%)">
 <g fill="rgb(100.0%,0.0%,0.0%)">
 <g fill="rgb(100.0%,0.0%,0.0%)">
 <path d=" M  251.56581 153.42668 C  251.56581 157.40717 248.33908 160.6339 244.3586 160.6339 C  240.37811 160.6339 237.15138 157.40717 237.15138 153.42668 C  237.15138 149.4462 240.37811 146.21947 244.3586 146.21947 C  248.33908 146.21947 251.56581 149.4462 251.56581 153.42668 Z M  244.3586 153.42668  " />
 </g>
 </g>
 </g>
 </g>
 <path d=" M  271.13766 148.41959  " style="fill:none"/>
 <g>
 <g stroke="rgb(100.0%,0.0%,0.0%)">
 <g fill="rgb(100.0%,0.0%,0.0%)">
 <g fill="rgb(100.0%,0.0%,0.0%)">
 <path d=" M  278.34488 148.41959 C  278.34488 152.40007 275.11815 155.6268 271.13766 155.6268 C  267.15718 155.6268 263.93045 152.40007 263.93045 148.41959 C  263.93045 144.4391 267.15718 141.21237 271.13766 141.21237 C  275.11815 141.21237 278.34488 144.4391 278.34488 148.41959 Z M  271.13766 148.41959  " />
 </g>
 </g>
 </g>
 </g>
 <path d=" M  297.91719 203.4999  " style="fill:none"/>
 <g>
 <g stroke="rgb(100.0%,0.0%,0.0%)">
 <g fill="rgb(100.0%,0.0%,0.0%)">
 <g fill="rgb(100.0%,0.0%,0.0%)">
 <path d=" M  305.1244 203.4999 C  305.1244 207.48038 301.89767 210.7071 297.91719 210.7071 C  293.9367 210.7071 290.70998 207.48038 290.70998 203.4999 C  290.70998 199.51941 293.9367 196.29268 297.91719 196.29268 C  301.89767 196.29268 305.1244 199.51941 305.1244 203.4999 Z M  297.91719 203.4999  " />
 </g>
 </g>
 </g>
 </g>
 <path d=" M  324.69713 158.43422  " style="fill:none"/>
 <g>
 <g stroke="rgb(100.0%,0.0%,0.0%)">
 <g fill="rgb(100.0%,0.0%,0.0%)">
 <g fill="rgb(100.0%,0.0%,0.0%)">
 <path d=" M  331.90434 158.43422 C  331.90434 162.4147 328.67761 165.64143 324.69713 165.64143 C  320.71664 165.64143 317.48991 162.4147 317.48991 158.43422 C  317.48991 154.45374 320.71664 151.227 324.69713 151.227 C  328.67761 151.227 331.90434 154.45374 331.90434 158.43422 Z M  324.69713 158.43422  " />
 </g>
 </g>
 </g>
 </g>
 <path d=" M  351.47404 141.4093  " style="fill:none"/>
 <g>
 <g stroke="rgb(100.0%,0.0%,0.0%)">
 <g fill="rgb(100.0%,0.0%,0.0%)">
 <g fill="rgb(100.0%,0.0%,0.0%)">
 <path d=" M  358.68126 141.4093 C  358.68126 145.38979 355.45453 148.61652 351.47404 148.61652 C  347.49356 148.61652 344.26683 145.38979 344.26683 141.4093 C  344.26683 137.42882 347.49356 134.20209 351.47404 134.20209 C  355.45453 134.20209 358.68126 137.42882 358.68126 141.4093 Z M  351.47404 141.4093  " />
 </g>
 </g>
 </g>
 </g>
 <path d=" M  378.25356 127.38872  " style="fill:none"/>
 <g>
 <g stroke="rgb(100.0%,0.0%,0.0%)">
 <g fill="rgb(100.0%,0.0%,0.0%)">
 <g fill="rgb(100.0%,0.0%,0.0%)">
 <path d=" M  385.46077 127.38872 C  385.46077 131.3692 382.23404 134.59593 378.25356 134.59593 C  374.27307 134.59593 371.04634 131.3692 371.04634 127.38872 C  371.04634 123.40823 374.27307 120.1815 378.25356 120.1815 C  382.23404 120.1815 385.46077 123.40823 385.46077 127.38872 Z M  378.25356 127.38872  " />
 </g>
 </g>
 </g>
 </g>
 <path d=" M  405.0335 182.46901  " style="fill:none"/>
 <g>
 <g stroke="rgb(100.0%,0.0%,0.0%)">
 <g fill="rgb(100.0%,0.0%,0.0%)">
 <g fill="rgb(100.0%,0.0%,0.0%)">
 <path d=" M  412.2407 182.46901 C  412.2407 186.4495 409.01398 189.67622 405.0335 189.67622 C  401.05301 189.67622 397.82628 186.4495 397.82628 182.46901 C  397.82628 178.48853 401.05301 175.2618 405.0335 175.2618 C  409.01398 175.2618 412.2407 178.48853 412.2407 182.46901 Z M  405.0335 182.46901  " />
 </g>
 </g>
 </g>
 </g>
 <path d=" M  431.813 184.4722  " style="fill:none"/>
 <g>
 <g stroke="rgb(100.0%,0.0%,0.0%)">
 <g fill="rgb(100.0%,0.0%,0.0%)">
 <g fill="rgb(100.0%,0.0%,0.0%)">
 <path d=" M  439.02022 184.4722 C  439.02022 188.45268 435.79349 191.67941 431.813 191.67941 C  427.83252 191.67941 424.60579 188.45268 424.60579 184.4722 C  424.60579 180.49171 427.83252 177.26498 431.813 177.26498 C  435.79349 177.26498 439.02022 180.49171 439.02022 184.4722 Z M  431.813 184.4722  " />
 </g>
 </g>
 </g>
 </g>
 <path d=" M  458.58992 120.37886  " style="fill:none"/>
 <g>
 <g stroke="rgb(100.0%,0.0%,0.0%)">
 <g fill="rgb(100.0%,0.0%,0.0%)">
 <g fill="rgb(100.0%,0.0%,0.0%)">
 <path d=" M  465.79713 120.37886 C  465.79713 124.35934 462.5704 127.58607 458.58992 127.58607 C  454.60944 127.58607 451.3827 124.35934 451.3827 120.37886 C  451.3827 116.39838 454.60944 113.17165 458.58992 113.17165 C  462.5704 113.17165 465.79713 116.39838 465.79713 120.37886 Z M  458.58992 120.37886  " />
 </g>
 </g>
 </g>
 </g>
 <path d=" M  485.36986 190.4809  " style="fill:none"/>
 <g>
 <g stroke="rgb(100.0%,0.0%,0.0%)">
 <g fill="rgb(100.0%,0.0%,0.0%)">
 <g fill="rgb(100.0%,0.0%,0.0%)">
 <path d=" M  492.57707 190.4809 C  492.57707 194.46138 489.35034 197.68811 485.36986 197.68811 C  481.38937 197.68811 478.16264 194.46138 478.16264 190.4809 C  478.16264 186.50041 481.38937 183.27368 485.36986 183.27368 C  489.35034 183.27368 492.57707 186.50041 492.57707 190.4809 Z M  485.36986 190.4809  " />
 </g>
 </g>
 </g>
 </g>
 <g>
 <g stroke="rgb(100.0%,100.0%,100.0%)">
 <g fill="rgb(100.0%,100.0%,100.0%)">
 <g fill="rgb(100.0%,100.0%,100.0%)">
 <path d=" M  341.43292 217.86476 M  341.43292 217.86476 L  341.43292 280.11165 L  512.14938 280.11165 L  512.14938 217.86476 Z M  512.14938 280.11165  " />
 </g>
 </g>
 </g>
 </g>
 <g>
 <g stroke="rgb(0.0%,0.0%,0.0%)">
 <g fill="rgb(0.0%,0.0%,0.0%)">
 <g stroke-width="0.9pt">
 <path d=" M  341.43292 217.86476 L  512.14938 217.86476  " style="fill:none"/>
 </g>
 </g>
 </g>
 </g>
 <g>
 <g stroke="rgb(0.0%,0.0%,0.0%)">
 <g fill="rgb(0.0%,0.0%,0.0%)">
 <g stroke-width="0.9pt">
 <path d=" M  512.14938 217.86476 L  512.14938 280.11165  " style="fill:none"/>
 </g>
 </g>
 </g>
 </g>
 <g>
 <g stroke="rgb(0.0%,0.0%,0.0%)">
 <g fill="rgb(0.0%,0.0%,0.0%)">
 <g stroke-width="0.9pt">
 <path d=" M  512.14938 280.11165 L  341.43292 280.11165  " style="fill:none"/>
 </g>
 </g>
 </g>
 </g>
 <g>
 <g stroke="rgb(0.0%,0.0%,0.0%)">
 <g fill="rgb(0.0%,0.0%,0.0%)">
 <g stroke-width="0.9pt">
 <path d=" M  341.43292 280.11165 L  341.43292 217.86476  " style="fill:none"/>
 </g>
 </g>
 </g>
 </g>
 <path d=" M  384.11203 257.5469  " style="fill:none"/>
 <g>
 <g stroke="rgb(0.0%,0.0%,0.0%)">
 <g fill="rgb(0.0%,0.0%,0.0%)">
 <g>
 <g stroke="rgb(0.0%,0.0%,0.0%)">
 <g fill="rgb(0.0%,0.0%,0.0%)">
 </g>
 </g>
 </g>
 <g>
 <g transform="matrix(1.55663,0.0,0.0,1.55663,390.10442,257.5469)">
 <g fill="rgb(0.0%,0.0%,0.0%)">
 <text style="stroke:none" transform="scale(1,-1) translate(16.5771,0)" text-anchor="middle"  font-size="10.95"> 
<tspan font-family="cmr" font-size="10">default</tspan></text> 
</g>
 </g>
 </g>
 </g>
 </g>
 </g>
 <g>
 <g stroke="rgb(100.0%,100.0%,100.0%)">
 <g fill="rgb(100.0%,100.0%,100.0%)">
 <path d=" M  347.83496 253.65688 L  377.70999 253.65688 L  377.70999 275.44318 L  347.83496 275.44318  " style="fill:none"/>
 </g>
 </g>
 </g>
 <g>
 <g stroke="rgb(100.0%,100.0%,100.0%)">
 <g fill="rgb(100.0%,100.0%,100.0%)">
 <g stroke-width="0.9pt">
 <path d=" M  347.83496 264.54982 L  377.70999 264.54982  " style="fill:none"/>
 </g>
 </g>
 </g>
 </g>
 <path d=" M  362.77248 264.54982  " style="fill:none"/>
 <g>
 <g stroke="rgb(0.0%,100.0%,0.0%)">
 <g fill="rgb(0.0%,100.0%,0.0%)">
 <g fill="rgb(0.0%,100.0%,0.0%)">
 <path d=" M  369.97969 264.54982 C  369.97969 268.5303 366.75296 271.75703 362.77248 271.75703 C  358.79199 271.75703 355.56526 268.5303 355.56526 264.54982 C  355.56526 260.56934 358.79199 257.3426 362.77248 257.3426 C  366.75296 257.3426 369.97969 260.56934 369.97969 264.54982 Z M  362.77248 264.54982  " />
 </g>
 </g>
 </g>
 </g>
 <path d=" M  384.11203 226.42368  " style="fill:none"/>
 <g>
 <g stroke="rgb(0.0%,0.0%,0.0%)">
 <g fill="rgb(0.0%,0.0%,0.0%)">
 <g>
 <g stroke="rgb(0.0%,0.0%,0.0%)">
 <g fill="rgb(0.0%,0.0%,0.0%)">
 </g>
 </g>
 </g>
 <g>
 <g transform="matrix(1.55663,0.0,0.0,1.55663,390.10442,226.42368)">
 <g fill="rgb(0.0%,0.0%,0.0%)">
 <text style="stroke:none" transform="scale(1,-1) translate(15.54292,0)" text-anchor="middle"  font-size="10.95"> 
<tspan font-family="cmr" font-size="10">seeded</tspan></text> 
</g>
 </g>
 </g>
 </g>
 </g>
 </g>
 <g>
 <g stroke="rgb(100.0%,100.0%,100.0%)">
 <g fill="rgb(100.0%,100.0%,100.0%)">
 <path d=" M  347.83496 222.53322 L  377.70999 222.53322 L  377.70999 244.31952 L  347.83496 244.31952  " style="fill:none"/>
 </g>
 </g>
 </g>
 <g>
 <g stroke="rgb(100.0%,100.0%,100.0%)">
 <g fill="rgb(100.0%,100.0%,100.0%)">
 <g stroke-width="0.9pt">
 <path d=" M  347.83496 233.42659 L  377.70999 233.42659  " style="fill:none"/>
 </g>
 </g>
 </g>
 </g>
 <path d=" M  362.77248 233.42659  " style="fill:none"/>
 <g>
 <g stroke="rgb(100.0%,0.0%,0.0%)">
 <g fill="rgb(100.0%,0.0%,0.0%)">
 <g fill="rgb(100.0%,0.0%,0.0%)">
 <path d=" M  369.97969 233.42659 C  369.97969 237.40707 366.75296 240.6338 362.77248 240.6338 C  358.79199 240.6338 355.56526 237.40707 355.56526 233.42659 C  355.56526 229.4461 358.79199 226.21938 362.77248 226.21938 C  366.75296 226.21938 369.97969 229.4461 369.97969 233.42659 Z M  362.77248 233.42659  " />
 </g>
 </g>
 </g>
 </g>
 <path d=" M  284.52744 300.49216  " style="fill:none"/>
 <g>
 <g stroke="rgb(0.0%,0.0%,0.0%)">
 <g fill="rgb(0.0%,0.0%,0.0%)">
 <g>
 <g stroke="rgb(0.0%,0.0%,0.0%)">
 <g fill="rgb(0.0%,0.0%,0.0%)">
 </g>
 </g>
 </g>
 <g>
 <g transform="matrix(1.22305,0.0,0.0,1.22305,213.38008,297.14406)">
 <g fill="rgb(0.0%,0.0%,0.0%)">
 <text style="stroke:none" transform="scale(1,-1) translate(58.17194,0)" text-anchor="middle"  font-size="10.95"> 
<tspan font-family="cmr" font-size="10">User run time for philox</tspan></text> 
</g>
 </g>
 </g>
 </g>
 </g>
 </g>
 </g>
 </g>
 </g>
 </g>
 </g>
                                                                                                                             </g> 
</svg> 
