<?xml version="1.0" encoding="iso-8859-1" standalone="no"?> 
<?xml-stylesheet href="gsocPreprint.css" type="text/css"?> 
<svg xmlns="http://www.w3.org/2000/svg" xmlns:xlink="http://www.w3.org/1999/xlink" width="569.45486pt" height="311.63617pt" viewBox="-0.2 -0.2 569.45486 311.63617 "> 
<g transform="translate(0, 311.43617 ) scale(1,-1) translate(0,0.2 )"> 
<g>
 <g stroke="rgb(0.0%,0.0%,0.0%)">
 <g fill="rgb(0.0%,0.0%,0.0%)">
 <g stroke-width="0.4pt">
 <g>
 <g>
 <g stroke="rgb(100.0%,100.0%,100.0%)">
 <g fill="rgb(100.0%,100.0%,100.0%)">
 <g fill="rgb(100.0%,100.0%,100.0%)">
 <path d=" M  0.0 0.0 M  0.0 0.0 L  0.0 311.23618 L  569.05487 311.23618 L  569.05487 0.0 Z M  569.05487 311.23618  " />
 </g>
 </g>
 </g>
 </g>
 <g>
 <g stroke="rgb(100.0%,100.0%,100.0%)">
 <g fill="rgb(100.0%,100.0%,100.0%)">
 <g fill="rgb(100.0%,100.0%,100.0%)">
 <path d=" M  56.90549 31.12366 M  56.90549 31.12366 L  56.90549 280.11165 L  512.14938 280.11165 L  512.14938 31.12366 Z M  512.14938 280.11165  " />
 </g>
 </g>
 </g>
 </g>
 <g>
 <g stroke="rgb(0.0%,0.0%,0.0%)">
 <g fill="rgb(0.0%,0.0%,0.0%)">
 <g stroke-width="0.9pt">
 <path d=" M  56.90549 31.12366 L  56.90549 280.11165 L  512.14938 280.11165 L  512.14938 31.12366 L  56.90549 31.12366  " style="fill:none"/>
 </g>
 </g>
 </g>
 </g>
 <g>
 <g stroke="rgb(100.0%,100.0%,100.0%)">
 <g fill="rgb(100.0%,100.0%,100.0%)">
 <g fill="rgb(100.0%,100.0%,100.0%)">
 <path d=" M  56.90549 31.12366 M  56.90549 31.12366 L  56.90549 280.11165 L  512.14938 280.11165 L  512.14938 31.12366 Z M  512.14938 280.11165  " />
 </g>
 </g>
 </g>
 </g>
 <g>
 <g stroke="rgb(0.0%,0.0%,0.0%)">
 <g fill="rgb(0.0%,0.0%,0.0%)">
 <g stroke-width="0.9pt">
 <path d=" M  56.90549 31.12366 L  56.90549 280.11165 L  512.14938 280.11165 L  512.14938 31.12366 L  56.90549 31.12366  " style="fill:none"/>
 </g>
 </g>
 </g>
 </g>
 <g>
 <g stroke="rgb(0.0%,100.0%,0.0%)">
 <g fill="rgb(0.0%,100.0%,0.0%)">
 <g stroke-width="0.9pt">
 <path d=" M  284.52744 83.05591 L  284.52744 108.526  " style="fill:none"/>
 </g>
 </g>
 </g>
 </g>
 <g>
 <g stroke="rgb(0.0%,100.0%,0.0%)">
 <g fill="rgb(0.0%,100.0%,0.0%)">
 <g stroke-width="0.9pt">
 <path d=" M  284.52744 108.526 L  284.52744 133.99611  " style="fill:none"/>
 </g>
 </g>
 </g>
 </g>
 <g>
 <g stroke="rgb(0.0%,100.0%,0.0%)">
 <g fill="rgb(0.0%,100.0%,0.0%)">
 <g stroke-width="0.9pt">
 <path d=" M  56.90549 108.526 L  284.52744 108.526  " style="fill:none"/>
 </g>
 </g>
 </g>
 </g>
 <g>
 <g stroke="rgb(0.0%,100.0%,0.0%)">
 <g fill="rgb(0.0%,100.0%,0.0%)">
 <g stroke-width="0.9pt">
 <path d=" M  284.52744 108.526 L  512.14938 108.526  " style="fill:none"/>
 </g>
 </g>
 </g>
 </g>
 <path d=" M  284.52744 108.526  " style="fill:none"/>
 <g>
 <g stroke="rgb(0.0%,100.0%,0.0%)">
 <g fill="rgb(0.0%,100.0%,0.0%)">
 <g fill="rgb(0.0%,100.0%,0.0%)">
 <path d=" M  285.52744 108.526 C  285.52744 109.0783 285.07973 109.526 284.52744 109.526 C  283.97514 109.526 283.52744 109.0783 283.52744 108.526 C  283.52744 107.97371 283.97514 107.526 284.52744 107.526 C  285.07973 107.526 285.52744 107.97371 285.52744 108.526 Z M  284.52744 108.526  " />
 </g>
 </g>
 </g>
 </g>
 <g>
 <g stroke="rgb(0.0%,0.0%,0.0%)">
 <g fill="rgb(0.0%,0.0%,0.0%)">
 <g stroke-width="0.9pt">
 <path d=" M  56.90549 31.12366 L  512.14938 31.12366  " style="fill:none"/>
 </g>
 </g>
 </g>
 </g>
 <g>
 <g stroke="rgb(0.0%,0.0%,0.0%)">
 <g fill="rgb(0.0%,0.0%,0.0%)">
 <g stroke-width="0.9pt">
 <path d=" M  56.90549 38.59328 L  56.90549 31.12366  " style="fill:none"/>
 </g>
 </g>
 </g>
 </g>
 <g>
 <g stroke="rgb(0.0%,0.0%,0.0%)">
 <g fill="rgb(0.0%,0.0%,0.0%)">
 <g stroke-width="0.9pt">
 <path d=" M  70.29524 34.85825 L  70.29524 31.12366  " style="fill:none"/>
 </g>
 </g>
 </g>
 </g>
 <g>
 <g stroke="rgb(0.0%,0.0%,0.0%)">
 <g fill="rgb(0.0%,0.0%,0.0%)">
 <g stroke-width="0.9pt">
 <path d=" M  83.68456 34.85825 L  83.68456 31.12366  " style="fill:none"/>
 </g>
 </g>
 </g>
 </g>
 <g>
 <g stroke="rgb(0.0%,0.0%,0.0%)">
 <g fill="rgb(0.0%,0.0%,0.0%)">
 <g stroke-width="0.9pt">
 <path d=" M  97.07388 34.85825 L  97.07388 31.12366  " style="fill:none"/>
 </g>
 </g>
 </g>
 </g>
 <g>
 <g stroke="rgb(0.0%,0.0%,0.0%)">
 <g fill="rgb(0.0%,0.0%,0.0%)">
 <g stroke-width="0.9pt">
 <path d=" M  110.46364 38.59328 L  110.46364 31.12366  " style="fill:none"/>
 </g>
 </g>
 </g>
 </g>
 <g>
 <g stroke="rgb(0.0%,0.0%,0.0%)">
 <g fill="rgb(0.0%,0.0%,0.0%)">
 <g stroke-width="0.9pt">
 <path d=" M  123.85295 34.85825 L  123.85295 31.12366  " style="fill:none"/>
 </g>
 </g>
 </g>
 </g>
 <g>
 <g stroke="rgb(0.0%,0.0%,0.0%)">
 <g fill="rgb(0.0%,0.0%,0.0%)">
 <g stroke-width="0.9pt">
 <path d=" M  137.24272 34.85825 L  137.24272 31.12366  " style="fill:none"/>
 </g>
 </g>
 </g>
 </g>
 <g>
 <g stroke="rgb(0.0%,0.0%,0.0%)">
 <g fill="rgb(0.0%,0.0%,0.0%)">
 <g stroke-width="0.9pt">
 <path d=" M  150.63203 34.85825 L  150.63203 31.12366  " style="fill:none"/>
 </g>
 </g>
 </g>
 </g>
 <g>
 <g stroke="rgb(0.0%,0.0%,0.0%)">
 <g fill="rgb(0.0%,0.0%,0.0%)">
 <g stroke-width="0.9pt">
 <path d=" M  164.02179 38.59328 L  164.02179 31.12366  " style="fill:none"/>
 </g>
 </g>
 </g>
 </g>
 <g>
 <g stroke="rgb(0.0%,0.0%,0.0%)">
 <g fill="rgb(0.0%,0.0%,0.0%)">
 <g stroke-width="0.9pt">
 <path d=" M  177.41112 34.85825 L  177.41112 31.12366  " style="fill:none"/>
 </g>
 </g>
 </g>
 </g>
 <g>
 <g stroke="rgb(0.0%,0.0%,0.0%)">
 <g fill="rgb(0.0%,0.0%,0.0%)">
 <g stroke-width="0.9pt">
 <path d=" M  190.80087 34.85825 L  190.80087 31.12366  " style="fill:none"/>
 </g>
 </g>
 </g>
 </g>
 <g>
 <g stroke="rgb(0.0%,0.0%,0.0%)">
 <g fill="rgb(0.0%,0.0%,0.0%)">
 <g stroke-width="0.9pt">
 <path d=" M  204.19019 34.85825 L  204.19019 31.12366  " style="fill:none"/>
 </g>
 </g>
 </g>
 </g>
 <g>
 <g stroke="rgb(0.0%,0.0%,0.0%)">
 <g fill="rgb(0.0%,0.0%,0.0%)">
 <g stroke-width="0.9pt">
 <path d=" M  217.57996 38.59328 L  217.57996 31.12366  " style="fill:none"/>
 </g>
 </g>
 </g>
 </g>
 <g>
 <g stroke="rgb(0.0%,0.0%,0.0%)">
 <g fill="rgb(0.0%,0.0%,0.0%)">
 <g stroke-width="0.9pt">
 <path d=" M  230.96927 34.85825 L  230.96927 31.12366  " style="fill:none"/>
 </g>
 </g>
 </g>
 </g>
 <g>
 <g stroke="rgb(0.0%,0.0%,0.0%)">
 <g fill="rgb(0.0%,0.0%,0.0%)">
 <g stroke-width="0.9pt">
 <path d=" M  244.3586 34.85825 L  244.3586 31.12366  " style="fill:none"/>
 </g>
 </g>
 </g>
 </g>
 <g>
 <g stroke="rgb(0.0%,0.0%,0.0%)">
 <g fill="rgb(0.0%,0.0%,0.0%)">
 <g stroke-width="0.9pt">
 <path d=" M  257.74835 34.85825 L  257.74835 31.12366  " style="fill:none"/>
 </g>
 </g>
 </g>
 </g>
 <g>
 <g stroke="rgb(0.0%,0.0%,0.0%)">
 <g fill="rgb(0.0%,0.0%,0.0%)">
 <g stroke-width="0.9pt">
 <path d=" M  271.13766 38.59328 L  271.13766 31.12366  " style="fill:none"/>
 </g>
 </g>
 </g>
 </g>
 <g>
 <g stroke="rgb(0.0%,0.0%,0.0%)">
 <g fill="rgb(0.0%,0.0%,0.0%)">
 <g stroke-width="0.9pt">
 <path d=" M  284.52744 34.85825 L  284.52744 31.12366  " style="fill:none"/>
 </g>
 </g>
 </g>
 </g>
 <g>
 <g stroke="rgb(0.0%,0.0%,0.0%)">
 <g fill="rgb(0.0%,0.0%,0.0%)">
 <g stroke-width="0.9pt">
 <path d=" M  297.91719 34.85825 L  297.91719 31.12366  " style="fill:none"/>
 </g>
 </g>
 </g>
 </g>
 <g>
 <g stroke="rgb(0.0%,0.0%,0.0%)">
 <g fill="rgb(0.0%,0.0%,0.0%)">
 <g stroke-width="0.9pt">
 <path d=" M  311.30695 34.85825 L  311.30695 31.12366  " style="fill:none"/>
 </g>
 </g>
 </g>
 </g>
 <g>
 <g stroke="rgb(0.0%,0.0%,0.0%)">
 <g fill="rgb(0.0%,0.0%,0.0%)">
 <g stroke-width="0.9pt">
 <path d=" M  324.69713 38.59328 L  324.69713 31.12366  " style="fill:none"/>
 </g>
 </g>
 </g>
 </g>
 <g>
 <g stroke="rgb(0.0%,0.0%,0.0%)">
 <g fill="rgb(0.0%,0.0%,0.0%)">
 <g stroke-width="0.9pt">
 <path d=" M  338.08688 34.85825 L  338.08688 31.12366  " style="fill:none"/>
 </g>
 </g>
 </g>
 </g>
 <g>
 <g stroke="rgb(0.0%,0.0%,0.0%)">
 <g fill="rgb(0.0%,0.0%,0.0%)">
 <g stroke-width="0.9pt">
 <path d=" M  351.47404 34.85825 L  351.47404 31.12366  " style="fill:none"/>
 </g>
 </g>
 </g>
 </g>
 <g>
 <g stroke="rgb(0.0%,0.0%,0.0%)">
 <g fill="rgb(0.0%,0.0%,0.0%)">
 <g stroke-width="0.9pt">
 <path d=" M  364.8638 34.85825 L  364.8638 31.12366  " style="fill:none"/>
 </g>
 </g>
 </g>
 </g>
 <g>
 <g stroke="rgb(0.0%,0.0%,0.0%)">
 <g fill="rgb(0.0%,0.0%,0.0%)">
 <g stroke-width="0.9pt">
 <path d=" M  378.25356 38.59328 L  378.25356 31.12366  " style="fill:none"/>
 </g>
 </g>
 </g>
 </g>
 <g>
 <g stroke="rgb(0.0%,0.0%,0.0%)">
 <g fill="rgb(0.0%,0.0%,0.0%)">
 <g stroke-width="0.9pt">
 <path d=" M  391.64331 34.85825 L  391.64331 31.12366  " style="fill:none"/>
 </g>
 </g>
 </g>
 </g>
 <g>
 <g stroke="rgb(0.0%,0.0%,0.0%)">
 <g fill="rgb(0.0%,0.0%,0.0%)">
 <g stroke-width="0.9pt">
 <path d=" M  405.0335 34.85825 L  405.0335 31.12366  " style="fill:none"/>
 </g>
 </g>
 </g>
 </g>
 <g>
 <g stroke="rgb(0.0%,0.0%,0.0%)">
 <g fill="rgb(0.0%,0.0%,0.0%)">
 <g stroke-width="0.9pt">
 <path d=" M  418.42325 34.85825 L  418.42325 31.12366  " style="fill:none"/>
 </g>
 </g>
 </g>
 </g>
 <g>
 <g stroke="rgb(0.0%,0.0%,0.0%)">
 <g fill="rgb(0.0%,0.0%,0.0%)">
 <g stroke-width="0.9pt">
 <path d=" M  431.813 38.59328 L  431.813 31.12366  " style="fill:none"/>
 </g>
 </g>
 </g>
 </g>
 <g>
 <g stroke="rgb(0.0%,0.0%,0.0%)">
 <g fill="rgb(0.0%,0.0%,0.0%)">
 <g stroke-width="0.9pt">
 <path d=" M  445.20276 34.85825 L  445.20276 31.12366  " style="fill:none"/>
 </g>
 </g>
 </g>
 </g>
 <g>
 <g stroke="rgb(0.0%,0.0%,0.0%)">
 <g fill="rgb(0.0%,0.0%,0.0%)">
 <g stroke-width="0.9pt">
 <path d=" M  458.58992 34.85825 L  458.58992 31.12366  " style="fill:none"/>
 </g>
 </g>
 </g>
 </g>
 <g>
 <g stroke="rgb(0.0%,0.0%,0.0%)">
 <g fill="rgb(0.0%,0.0%,0.0%)">
 <g stroke-width="0.9pt">
 <path d=" M  471.97968 34.85825 L  471.97968 31.12366  " style="fill:none"/>
 </g>
 </g>
 </g>
 </g>
 <g>
 <g stroke="rgb(0.0%,0.0%,0.0%)">
 <g fill="rgb(0.0%,0.0%,0.0%)">
 <g stroke-width="0.9pt">
 <path d=" M  485.36986 38.59328 L  485.36986 31.12366  " style="fill:none"/>
 </g>
 </g>
 </g>
 </g>
 <g>
 <g stroke="rgb(0.0%,0.0%,0.0%)">
 <g fill="rgb(0.0%,0.0%,0.0%)">
 <g stroke-width="0.9pt">
 <path d=" M  485.36986 38.59328 L  485.36986 31.12366  " style="fill:none"/>
 </g>
 </g>
 </g>
 </g>
 <g>
 <g stroke="rgb(0.0%,0.0%,0.0%)">
 <g fill="rgb(0.0%,0.0%,0.0%)">
 <g stroke-width="0.9pt">
 <path d=" M  498.75961 34.85825 L  498.75961 31.12366  " style="fill:none"/>
 </g>
 </g>
 </g>
 </g>
 <g>
 <g stroke="rgb(0.0%,0.0%,0.0%)">
 <g fill="rgb(0.0%,0.0%,0.0%)">
 <g stroke-width="0.9pt">
 <path d=" M  512.14938 34.85825 L  512.14938 31.12366  " style="fill:none"/>
 </g>
 </g>
 </g>
 </g>
 <path d=" M  56.90549 20.85286  " style="fill:none"/>
 <g>
 <g stroke="rgb(0.0%,0.0%,0.0%)">
 <g fill="rgb(0.0%,0.0%,0.0%)">
 <g>
 <g stroke="rgb(0.0%,0.0%,0.0%)">
 <g fill="rgb(0.0%,0.0%,0.0%)">
 </g>
 </g>
 </g>
 <g>
 <g transform="matrix(0.86171,0.0,0.0,0.86171,54.54655,20.85286)">
 <g fill="rgb(0.0%,0.0%,0.0%)">
 <text style="stroke:none" transform="scale(1,-1) translate(2.7375,0)" text-anchor="middle"  font-size="10.95"> 
<tspan font-family="cmr" font-size="10">0</tspan></text> 
</g>
 </g>
 </g>
 </g>
 </g>
 </g>
 <path d=" M  110.46364 20.85286  " style="fill:none"/>
 <g>
 <g stroke="rgb(0.0%,0.0%,0.0%)">
 <g fill="rgb(0.0%,0.0%,0.0%)">
 <g>
 <g stroke="rgb(0.0%,0.0%,0.0%)">
 <g fill="rgb(0.0%,0.0%,0.0%)">
 </g>
 </g>
 </g>
 <g>
 <g transform="matrix(0.86171,0.0,0.0,0.86171,108.1047,20.85286)">
 <g fill="rgb(0.0%,0.0%,0.0%)">
 <text style="stroke:none" transform="scale(1,-1) translate(2.7375,0)" text-anchor="middle"  font-size="10.95"> 
<tspan font-family="cmr" font-size="10">2</tspan></text> 
</g>
 </g>
 </g>
 </g>
 </g>
 </g>
 <path d=" M  164.02179 20.85286  " style="fill:none"/>
 <g>
 <g stroke="rgb(0.0%,0.0%,0.0%)">
 <g fill="rgb(0.0%,0.0%,0.0%)">
 <g>
 <g stroke="rgb(0.0%,0.0%,0.0%)">
 <g fill="rgb(0.0%,0.0%,0.0%)">
 </g>
 </g>
 </g>
 <g>
 <g transform="matrix(0.86171,0.0,0.0,0.86171,161.66286,20.85286)">
 <g fill="rgb(0.0%,0.0%,0.0%)">
 <text style="stroke:none" transform="scale(1,-1) translate(2.7375,0)" text-anchor="middle"  font-size="10.95"> 
<tspan font-family="cmr" font-size="10">4</tspan></text> 
</g>
 </g>
 </g>
 </g>
 </g>
 </g>
 <path d=" M  217.57996 20.85286  " style="fill:none"/>
 <g>
 <g stroke="rgb(0.0%,0.0%,0.0%)">
 <g fill="rgb(0.0%,0.0%,0.0%)">
 <g>
 <g stroke="rgb(0.0%,0.0%,0.0%)">
 <g fill="rgb(0.0%,0.0%,0.0%)">
 </g>
 </g>
 </g>
 <g>
 <g transform="matrix(0.86171,0.0,0.0,0.86171,215.22102,20.85286)">
 <g fill="rgb(0.0%,0.0%,0.0%)">
 <text style="stroke:none" transform="scale(1,-1) translate(2.7375,0)" text-anchor="middle"  font-size="10.95"> 
<tspan font-family="cmr" font-size="10">6</tspan></text> 
</g>
 </g>
 </g>
 </g>
 </g>
 </g>
 <path d=" M  271.13766 20.85286  " style="fill:none"/>
 <g>
 <g stroke="rgb(0.0%,0.0%,0.0%)">
 <g fill="rgb(0.0%,0.0%,0.0%)">
 <g>
 <g stroke="rgb(0.0%,0.0%,0.0%)">
 <g fill="rgb(0.0%,0.0%,0.0%)">
 </g>
 </g>
 </g>
 <g>
 <g transform="matrix(0.86171,0.0,0.0,0.86171,268.77873,20.85286)">
 <g fill="rgb(0.0%,0.0%,0.0%)">
 <text style="stroke:none" transform="scale(1,-1) translate(2.7375,0)" text-anchor="middle"  font-size="10.95"> 
<tspan font-family="cmr" font-size="10">8</tspan></text> 
</g>
 </g>
 </g>
 </g>
 </g>
 </g>
 <path d=" M  324.69713 20.85286  " style="fill:none"/>
 <g>
 <g stroke="rgb(0.0%,0.0%,0.0%)">
 <g fill="rgb(0.0%,0.0%,0.0%)">
 <g>
 <g stroke="rgb(0.0%,0.0%,0.0%)">
 <g fill="rgb(0.0%,0.0%,0.0%)">
 </g>
 </g>
 </g>
 <g>
 <g transform="matrix(0.86171,0.0,0.0,0.86171,319.97926,20.85286)">
 <g fill="rgb(0.0%,0.0%,0.0%)">
 <text style="stroke:none" transform="scale(1,-1) translate(5.475,0)" text-anchor="middle"  font-size="10.95"> 
<tspan font-family="cmr" font-size="10">10</tspan></text> 
</g>
 </g>
 </g>
 </g>
 </g>
 </g>
 <path d=" M  378.25356 20.85286  " style="fill:none"/>
 <g>
 <g stroke="rgb(0.0%,0.0%,0.0%)">
 <g fill="rgb(0.0%,0.0%,0.0%)">
 <g>
 <g stroke="rgb(0.0%,0.0%,0.0%)">
 <g fill="rgb(0.0%,0.0%,0.0%)">
 </g>
 </g>
 </g>
 <g>
 <g transform="matrix(0.86171,0.0,0.0,0.86171,373.53569,20.85286)">
 <g fill="rgb(0.0%,0.0%,0.0%)">
 <text style="stroke:none" transform="scale(1,-1) translate(5.475,0)" text-anchor="middle"  font-size="10.95"> 
<tspan font-family="cmr" font-size="10">12</tspan></text> 
</g>
 </g>
 </g>
 </g>
 </g>
 </g>
 <path d=" M  431.813 20.85286  " style="fill:none"/>
 <g>
 <g stroke="rgb(0.0%,0.0%,0.0%)">
 <g fill="rgb(0.0%,0.0%,0.0%)">
 <g>
 <g stroke="rgb(0.0%,0.0%,0.0%)">
 <g fill="rgb(0.0%,0.0%,0.0%)">
 </g>
 </g>
 </g>
 <g>
 <g transform="matrix(0.86171,0.0,0.0,0.86171,427.09514,20.85286)">
 <g fill="rgb(0.0%,0.0%,0.0%)">
 <text style="stroke:none" transform="scale(1,-1) translate(5.475,0)" text-anchor="middle"  font-size="10.95"> 
<tspan font-family="cmr" font-size="10">14</tspan></text> 
</g>
 </g>
 </g>
 </g>
 </g>
 </g>
 <path d=" M  485.36986 20.85286  " style="fill:none"/>
 <g>
 <g stroke="rgb(0.0%,0.0%,0.0%)">
 <g fill="rgb(0.0%,0.0%,0.0%)">
 <g>
 <g stroke="rgb(0.0%,0.0%,0.0%)">
 <g fill="rgb(0.0%,0.0%,0.0%)">
 </g>
 </g>
 </g>
 <g>
 <g transform="matrix(0.86171,0.0,0.0,0.86171,480.652,20.85286)">
 <g fill="rgb(0.0%,0.0%,0.0%)">
 <text style="stroke:none" transform="scale(1,-1) translate(5.475,0)" text-anchor="middle"  font-size="10.95"> 
<tspan font-family="cmr" font-size="10">16</tspan></text> 
</g>
 </g>
 </g>
 </g>
 </g>
 </g>
 <g>
 <g stroke="rgb(0.0%,0.0%,0.0%)">
 <g fill="rgb(0.0%,0.0%,0.0%)">
 <g stroke-width="0.9pt">
 <path d=" M  56.90549 31.12366 L  56.90549 280.11165  " style="fill:none"/>
 </g>
 </g>
 </g>
 </g>
 <g>
 <g stroke="rgb(0.0%,0.0%,0.0%)">
 <g fill="rgb(0.0%,0.0%,0.0%)">
 <g stroke-width="0.9pt">
 <path d=" M  70.56267 34.81354 L  56.90549 34.81354  " style="fill:none"/>
 </g>
 </g>
 </g>
 </g>
 <g>
 <g stroke="rgb(0.0%,0.0%,0.0%)">
 <g fill="rgb(0.0%,0.0%,0.0%)">
 <g stroke-width="0.9pt">
 <path d=" M  63.7343 41.84206 L  56.90549 41.84206  " style="fill:none"/>
 </g>
 </g>
 </g>
 </g>
 <g>
 <g stroke="rgb(0.0%,0.0%,0.0%)">
 <g fill="rgb(0.0%,0.0%,0.0%)">
 <g stroke-width="0.9pt">
 <path d=" M  63.7343 48.87059 L  56.90549 48.87059  " style="fill:none"/>
 </g>
 </g>
 </g>
 </g>
 <g>
 <g stroke="rgb(0.0%,0.0%,0.0%)">
 <g fill="rgb(0.0%,0.0%,0.0%)">
 <g stroke-width="0.9pt">
 <path d=" M  63.7343 55.89954 L  56.90549 55.89954  " style="fill:none"/>
 </g>
 </g>
 </g>
 </g>
 <g>
 <g stroke="rgb(0.0%,0.0%,0.0%)">
 <g fill="rgb(0.0%,0.0%,0.0%)">
 <g stroke-width="0.9pt">
 <path d=" M  63.7343 62.92807 L  56.90549 62.92807  " style="fill:none"/>
 </g>
 </g>
 </g>
 </g>
 <g>
 <g stroke="rgb(0.0%,0.0%,0.0%)">
 <g fill="rgb(0.0%,0.0%,0.0%)">
 <g stroke-width="0.9pt">
 <path d=" M  70.56267 69.95659 L  56.90549 69.95659  " style="fill:none"/>
 </g>
 </g>
 </g>
 </g>
 <g>
 <g stroke="rgb(0.0%,0.0%,0.0%)">
 <g fill="rgb(0.0%,0.0%,0.0%)">
 <g stroke-width="0.9pt">
 <path d=" M  63.7343 76.98512 L  56.90549 76.98512  " style="fill:none"/>
 </g>
 </g>
 </g>
 </g>
 <g>
 <g stroke="rgb(0.0%,0.0%,0.0%)">
 <g fill="rgb(0.0%,0.0%,0.0%)">
 <g stroke-width="0.9pt">
 <path d=" M  63.7343 84.01364 L  56.90549 84.01364  " style="fill:none"/>
 </g>
 </g>
 </g>
 </g>
 <g>
 <g stroke="rgb(0.0%,0.0%,0.0%)">
 <g fill="rgb(0.0%,0.0%,0.0%)">
 <g stroke-width="0.9pt">
 <path d=" M  63.7343 91.04218 L  56.90549 91.04218  " style="fill:none"/>
 </g>
 </g>
 </g>
 </g>
 <g>
 <g stroke="rgb(0.0%,0.0%,0.0%)">
 <g fill="rgb(0.0%,0.0%,0.0%)">
 <g stroke-width="0.9pt">
 <path d=" M  63.7343 98.0707 L  56.90549 98.0707  " style="fill:none"/>
 </g>
 </g>
 </g>
 </g>
 <g>
 <g stroke="rgb(0.0%,0.0%,0.0%)">
 <g fill="rgb(0.0%,0.0%,0.0%)">
 <g stroke-width="0.9pt">
 <path d=" M  70.56267 105.09966 L  56.90549 105.09966  " style="fill:none"/>
 </g>
 </g>
 </g>
 </g>
 <g>
 <g stroke="rgb(0.0%,0.0%,0.0%)">
 <g fill="rgb(0.0%,0.0%,0.0%)">
 <g stroke-width="0.9pt">
 <path d=" M  63.7343 112.12819 L  56.90549 112.12819  " style="fill:none"/>
 </g>
 </g>
 </g>
 </g>
 <g>
 <g stroke="rgb(0.0%,0.0%,0.0%)">
 <g fill="rgb(0.0%,0.0%,0.0%)">
 <g stroke-width="0.9pt">
 <path d=" M  63.7343 119.15671 L  56.90549 119.15671  " style="fill:none"/>
 </g>
 </g>
 </g>
 </g>
 <g>
 <g stroke="rgb(0.0%,0.0%,0.0%)">
 <g fill="rgb(0.0%,0.0%,0.0%)">
 <g stroke-width="0.9pt">
 <path d=" M  63.7343 126.18524 L  56.90549 126.18524  " style="fill:none"/>
 </g>
 </g>
 </g>
 </g>
 <g>
 <g stroke="rgb(0.0%,0.0%,0.0%)">
 <g fill="rgb(0.0%,0.0%,0.0%)">
 <g stroke-width="0.9pt">
 <path d=" M  63.7343 133.2142 L  56.90549 133.2142  " style="fill:none"/>
 </g>
 </g>
 </g>
 </g>
 <g>
 <g stroke="rgb(0.0%,0.0%,0.0%)">
 <g fill="rgb(0.0%,0.0%,0.0%)">
 <g stroke-width="0.9pt">
 <path d=" M  70.56267 140.2423 L  56.90549 140.2423  " style="fill:none"/>
 </g>
 </g>
 </g>
 </g>
 <g>
 <g stroke="rgb(0.0%,0.0%,0.0%)">
 <g fill="rgb(0.0%,0.0%,0.0%)">
 <g stroke-width="0.9pt">
 <path d=" M  63.7343 147.27124 L  56.90549 147.27124  " style="fill:none"/>
 </g>
 </g>
 </g>
 </g>
 <g>
 <g stroke="rgb(0.0%,0.0%,0.0%)">
 <g fill="rgb(0.0%,0.0%,0.0%)">
 <g stroke-width="0.9pt">
 <path d=" M  63.7343 154.29977 L  56.90549 154.29977  " style="fill:none"/>
 </g>
 </g>
 </g>
 </g>
 <g>
 <g stroke="rgb(0.0%,0.0%,0.0%)">
 <g fill="rgb(0.0%,0.0%,0.0%)">
 <g stroke-width="0.9pt">
 <path d=" M  63.7343 161.3283 L  56.90549 161.3283  " style="fill:none"/>
 </g>
 </g>
 </g>
 </g>
 <g>
 <g stroke="rgb(0.0%,0.0%,0.0%)">
 <g fill="rgb(0.0%,0.0%,0.0%)">
 <g stroke-width="0.9pt">
 <path d=" M  63.7343 168.35683 L  56.90549 168.35683  " style="fill:none"/>
 </g>
 </g>
 </g>
 </g>
 <g>
 <g stroke="rgb(0.0%,0.0%,0.0%)">
 <g fill="rgb(0.0%,0.0%,0.0%)">
 <g stroke-width="0.9pt">
 <path d=" M  70.56267 175.38535 L  56.90549 175.38535  " style="fill:none"/>
 </g>
 </g>
 </g>
 </g>
 <g>
 <g stroke="rgb(0.0%,0.0%,0.0%)">
 <g fill="rgb(0.0%,0.0%,0.0%)">
 <g stroke-width="0.9pt">
 <path d=" M  63.7343 182.4143 L  56.90549 182.4143  " style="fill:none"/>
 </g>
 </g>
 </g>
 </g>
 <g>
 <g stroke="rgb(0.0%,0.0%,0.0%)">
 <g fill="rgb(0.0%,0.0%,0.0%)">
 <g stroke-width="0.9pt">
 <path d=" M  63.7343 189.44284 L  56.90549 189.44284  " style="fill:none"/>
 </g>
 </g>
 </g>
 </g>
 <g>
 <g stroke="rgb(0.0%,0.0%,0.0%)">
 <g fill="rgb(0.0%,0.0%,0.0%)">
 <g stroke-width="0.9pt">
 <path d=" M  63.7343 196.47136 L  56.90549 196.47136  " style="fill:none"/>
 </g>
 </g>
 </g>
 </g>
 <g>
 <g stroke="rgb(0.0%,0.0%,0.0%)">
 <g fill="rgb(0.0%,0.0%,0.0%)">
 <g stroke-width="0.9pt">
 <path d=" M  63.7343 203.4999 L  56.90549 203.4999  " style="fill:none"/>
 </g>
 </g>
 </g>
 </g>
 <g>
 <g stroke="rgb(0.0%,0.0%,0.0%)">
 <g fill="rgb(0.0%,0.0%,0.0%)">
 <g stroke-width="0.9pt">
 <path d=" M  70.56267 210.52885 L  56.90549 210.52885  " style="fill:none"/>
 </g>
 </g>
 </g>
 </g>
 <g>
 <g stroke="rgb(0.0%,0.0%,0.0%)">
 <g fill="rgb(0.0%,0.0%,0.0%)">
 <g stroke-width="0.9pt">
 <path d=" M  63.7343 217.55695 L  56.90549 217.55695  " style="fill:none"/>
 </g>
 </g>
 </g>
 </g>
 <g>
 <g stroke="rgb(0.0%,0.0%,0.0%)">
 <g fill="rgb(0.0%,0.0%,0.0%)">
 <g stroke-width="0.9pt">
 <path d=" M  63.7343 224.58589 L  56.90549 224.58589  " style="fill:none"/>
 </g>
 </g>
 </g>
 </g>
 <g>
 <g stroke="rgb(0.0%,0.0%,0.0%)">
 <g fill="rgb(0.0%,0.0%,0.0%)">
 <g stroke-width="0.9pt">
 <path d=" M  63.7343 231.61443 L  56.90549 231.61443  " style="fill:none"/>
 </g>
 </g>
 </g>
 </g>
 <g>
 <g stroke="rgb(0.0%,0.0%,0.0%)">
 <g fill="rgb(0.0%,0.0%,0.0%)">
 <g stroke-width="0.9pt">
 <path d=" M  63.7343 238.64294 L  56.90549 238.64294  " style="fill:none"/>
 </g>
 </g>
 </g>
 </g>
 <g>
 <g stroke="rgb(0.0%,0.0%,0.0%)">
 <g fill="rgb(0.0%,0.0%,0.0%)">
 <g stroke-width="0.9pt">
 <path d=" M  70.56267 245.67148 L  56.90549 245.67148  " style="fill:none"/>
 </g>
 </g>
 </g>
 </g>
 <g>
 <g stroke="rgb(0.0%,0.0%,0.0%)">
 <g fill="rgb(0.0%,0.0%,0.0%)">
 <g stroke-width="0.9pt">
 <path d=" M  70.56267 34.81354 L  56.90549 34.81354  " style="fill:none"/>
 </g>
 </g>
 </g>
 </g>
 <g>
 <g stroke="rgb(0.0%,0.0%,0.0%)">
 <g fill="rgb(0.0%,0.0%,0.0%)">
 <g stroke-width="0.9pt">
 <path d=" M  70.56267 245.67148 L  56.90549 245.67148  " style="fill:none"/>
 </g>
 </g>
 </g>
 </g>
 <g>
 <g stroke="rgb(0.0%,0.0%,0.0%)">
 <g fill="rgb(0.0%,0.0%,0.0%)">
 <g stroke-width="0.9pt">
 <path d=" M  63.7343 252.7 L  56.90549 252.7  " style="fill:none"/>
 </g>
 </g>
 </g>
 </g>
 <g>
 <g stroke="rgb(0.0%,0.0%,0.0%)">
 <g fill="rgb(0.0%,0.0%,0.0%)">
 <g stroke-width="0.9pt">
 <path d=" M  63.7343 259.72896 L  56.90549 259.72896  " style="fill:none"/>
 </g>
 </g>
 </g>
 </g>
 <g>
 <g stroke="rgb(0.0%,0.0%,0.0%)">
 <g fill="rgb(0.0%,0.0%,0.0%)">
 <g stroke-width="0.9pt">
 <path d=" M  63.7343 266.75705 L  56.90549 266.75705  " style="fill:none"/>
 </g>
 </g>
 </g>
 </g>
 <g>
 <g stroke="rgb(0.0%,0.0%,0.0%)">
 <g fill="rgb(0.0%,0.0%,0.0%)">
 <g stroke-width="0.9pt">
 <path d=" M  63.7343 273.78601 L  56.90549 273.78601  " style="fill:none"/>
 </g>
 </g>
 </g>
 </g>
 <path d=" M  54.06003 34.81354  " style="fill:none"/>
 <g>
 <g stroke="rgb(0.0%,0.0%,0.0%)">
 <g fill="rgb(0.0%,0.0%,0.0%)">
 <g>
 <g stroke="rgb(0.0%,0.0%,0.0%)">
 <g fill="rgb(0.0%,0.0%,0.0%)">
 </g>
 </g>
 </g>
 <g>
 <g transform="matrix(0.86171,0.0,0.0,0.86171,41.30705,31.77316)">
 <g fill="rgb(0.0%,0.0%,0.0%)">
 <text style="stroke:none" transform="scale(1,-1) translate(5.475,0)" text-anchor="middle"  font-size="10.95"> 
<tspan font-family="cmr" font-size="10">74</tspan></text> 
</g>
 </g>
 </g>
 </g>
 </g>
 </g>
 <path d=" M  54.06003 69.95659  " style="fill:none"/>
 <g>
 <g stroke="rgb(0.0%,0.0%,0.0%)">
 <g fill="rgb(0.0%,0.0%,0.0%)">
 <g>
 <g stroke="rgb(0.0%,0.0%,0.0%)">
 <g fill="rgb(0.0%,0.0%,0.0%)">
 </g>
 </g>
 </g>
 <g>
 <g transform="matrix(0.86171,0.0,0.0,0.86171,33.96817,66.91621)">
 <g fill="rgb(0.0%,0.0%,0.0%)">
 <text style="stroke:none" transform="scale(1,-1) translate(9.73334,0)" text-anchor="middle"  font-size="10.95"> 
<tspan font-family="cmr" font-size="10">74.5</tspan></text> 
</g>
 </g>
 </g>
 </g>
 </g>
 </g>
 <path d=" M  54.06003 105.09966  " style="fill:none"/>
 <g>
 <g stroke="rgb(0.0%,0.0%,0.0%)">
 <g fill="rgb(0.0%,0.0%,0.0%)">
 <g>
 <g stroke="rgb(0.0%,0.0%,0.0%)">
 <g fill="rgb(0.0%,0.0%,0.0%)">
 </g>
 </g>
 </g>
 <g>
 <g transform="matrix(0.86171,0.0,0.0,0.86171,41.30705,102.05928)">
 <g fill="rgb(0.0%,0.0%,0.0%)">
 <text style="stroke:none" transform="scale(1,-1) translate(5.475,0)" text-anchor="middle"  font-size="10.95"> 
<tspan font-family="cmr" font-size="10">75</tspan></text> 
</g>
 </g>
 </g>
 </g>
 </g>
 </g>
 <path d=" M  54.06003 140.2423  " style="fill:none"/>
 <g>
 <g stroke="rgb(0.0%,0.0%,0.0%)">
 <g fill="rgb(0.0%,0.0%,0.0%)">
 <g>
 <g stroke="rgb(0.0%,0.0%,0.0%)">
 <g fill="rgb(0.0%,0.0%,0.0%)">
 </g>
 </g>
 </g>
 <g>
 <g transform="matrix(0.86171,0.0,0.0,0.86171,33.96817,137.20192)">
 <g fill="rgb(0.0%,0.0%,0.0%)">
 <text style="stroke:none" transform="scale(1,-1) translate(9.73334,0)" text-anchor="middle"  font-size="10.95"> 
<tspan font-family="cmr" font-size="10">75.5</tspan></text> 
</g>
 </g>
 </g>
 </g>
 </g>
 </g>
 <path d=" M  54.06003 175.38535  " style="fill:none"/>
 <g>
 <g stroke="rgb(0.0%,0.0%,0.0%)">
 <g fill="rgb(0.0%,0.0%,0.0%)">
 <g>
 <g stroke="rgb(0.0%,0.0%,0.0%)">
 <g fill="rgb(0.0%,0.0%,0.0%)">
 </g>
 </g>
 </g>
 <g>
 <g transform="matrix(0.86171,0.0,0.0,0.86171,41.30705,172.34497)">
 <g fill="rgb(0.0%,0.0%,0.0%)">
 <text style="stroke:none" transform="scale(1,-1) translate(5.475,0)" text-anchor="middle"  font-size="10.95"> 
<tspan font-family="cmr" font-size="10">76</tspan></text> 
</g>
 </g>
 </g>
 </g>
 </g>
 </g>
 <path d=" M  54.06003 210.52885  " style="fill:none"/>
 <g>
 <g stroke="rgb(0.0%,0.0%,0.0%)">
 <g fill="rgb(0.0%,0.0%,0.0%)">
 <g>
 <g stroke="rgb(0.0%,0.0%,0.0%)">
 <g fill="rgb(0.0%,0.0%,0.0%)">
 </g>
 </g>
 </g>
 <g>
 <g transform="matrix(0.86171,0.0,0.0,0.86171,33.96817,207.48848)">
 <g fill="rgb(0.0%,0.0%,0.0%)">
 <text style="stroke:none" transform="scale(1,-1) translate(9.73334,0)" text-anchor="middle"  font-size="10.95"> 
<tspan font-family="cmr" font-size="10">76.5</tspan></text> 
</g>
 </g>
 </g>
 </g>
 </g>
 </g>
 <path d=" M  54.06003 245.67148  " style="fill:none"/>
 <g>
 <g stroke="rgb(0.0%,0.0%,0.0%)">
 <g fill="rgb(0.0%,0.0%,0.0%)">
 <g>
 <g stroke="rgb(0.0%,0.0%,0.0%)">
 <g fill="rgb(0.0%,0.0%,0.0%)">
 </g>
 </g>
 </g>
 <g>
 <g transform="matrix(0.86171,0.0,0.0,0.86171,41.30705,242.6311)">
 <g fill="rgb(0.0%,0.0%,0.0%)">
 <text style="stroke:none" transform="scale(1,-1) translate(5.475,0)" text-anchor="middle"  font-size="10.95"> 
<tspan font-family="cmr" font-size="10">77</tspan></text> 
</g>
 </g>
 </g>
 </g>
 </g>
 </g>
 <g>
 <g stroke="rgb(100.0%,0.0%,0.0%)">
 <g fill="rgb(100.0%,0.0%,0.0%)">
 <g stroke-width="0.9pt">
 <path d=" M  284.52744 130.75818 L  284.52744 154.16823  " style="fill:none"/>
 </g>
 </g>
 </g>
 </g>
 <g>
 <g stroke="rgb(100.0%,0.0%,0.0%)">
 <g fill="rgb(100.0%,0.0%,0.0%)">
 <g stroke-width="0.9pt">
 <path d=" M  284.52744 154.16823 L  284.52744 177.57826  " style="fill:none"/>
 </g>
 </g>
 </g>
 </g>
 <g>
 <g stroke="rgb(100.0%,0.0%,0.0%)">
 <g fill="rgb(100.0%,0.0%,0.0%)">
 <g stroke-width="0.9pt">
 <path d=" M  56.90549 154.16823 L  284.52744 154.16823  " style="fill:none"/>
 </g>
 </g>
 </g>
 </g>
 <g>
 <g stroke="rgb(100.0%,0.0%,0.0%)">
 <g fill="rgb(100.0%,0.0%,0.0%)">
 <g stroke-width="0.9pt">
 <path d=" M  284.52744 154.16823 L  512.14938 154.16823  " style="fill:none"/>
 </g>
 </g>
 </g>
 </g>
 <path d=" M  284.52744 154.16823  " style="fill:none"/>
 <g>
 <g stroke="rgb(100.0%,0.0%,0.0%)">
 <g fill="rgb(100.0%,0.0%,0.0%)">
 <g fill="rgb(100.0%,0.0%,0.0%)">
 <path d=" M  285.52744 154.16823 C  285.52744 154.72052 285.07973 155.16823 284.52744 155.16823 C  283.97514 155.16823 283.52744 154.72052 283.52744 154.16823 C  283.52744 153.61594 283.97514 153.16823 284.52744 153.16823 C  285.07973 153.16823 285.52744 153.61594 285.52744 154.16823 Z M  284.52744 154.16823  " />
 </g>
 </g>
 </g>
 </g>
 <path d=" M  83.68456 125.48277  " style="fill:none"/>
 <g>
 <g stroke="rgb(0.0%,100.0%,0.0%)">
 <g fill="rgb(0.0%,100.0%,0.0%)">
 <g fill="rgb(0.0%,100.0%,0.0%)">
 <path d=" M  90.89177 125.48277 C  90.89177 129.46326 87.66504 132.68999 83.68456 132.68999 C  79.70407 132.68999 76.47734 129.46326 76.47734 125.48277 C  76.47734 121.50229 79.70407 118.27556 83.68456 118.27556 C  87.66504 118.27556 90.89177 121.50229 90.89177 125.48277 Z M  83.68456 125.48277  " />
 </g>
 </g>
 </g>
 </g>
 <path d=" M  110.46364 130.40262  " style="fill:none"/>
 <g>
 <g stroke="rgb(0.0%,100.0%,0.0%)">
 <g fill="rgb(0.0%,100.0%,0.0%)">
 <g fill="rgb(0.0%,100.0%,0.0%)">
 <path d=" M  117.67085 130.40262 C  117.67085 134.3831 114.44412 137.60983 110.46364 137.60983 C  106.48315 137.60983 103.25642 134.3831 103.25642 130.40262 C  103.25642 126.42213 106.48315 123.1954 110.46364 123.1954 C  114.44412 123.1954 117.67085 126.42213 117.67085 130.40262 Z M  110.46364 130.40262  " />
 </g>
 </g>
 </g>
 </g>
 <path d=" M  137.24272 128.99683  " style="fill:none"/>
 <g>
 <g stroke="rgb(0.0%,100.0%,0.0%)">
 <g fill="rgb(0.0%,100.0%,0.0%)">
 <g fill="rgb(0.0%,100.0%,0.0%)">
 <path d=" M  144.44994 128.99683 C  144.44994 132.97731 141.2232 136.20404 137.24272 136.20404 C  133.26224 136.20404 130.0355 132.97731 130.0355 128.99683 C  130.0355 125.01634 133.26224 121.78961 137.24272 121.78961 C  141.2232 121.78961 144.44994 125.01634 144.44994 128.99683 Z M  137.24272 128.99683  " />
 </g>
 </g>
 </g>
 </g>
 <path d=" M  164.02179 128.99683  " style="fill:none"/>
 <g>
 <g stroke="rgb(0.0%,100.0%,0.0%)">
 <g fill="rgb(0.0%,100.0%,0.0%)">
 <g fill="rgb(0.0%,100.0%,0.0%)">
 <path d=" M  171.229 128.99683 C  171.229 132.97731 168.00227 136.20404 164.02179 136.20404 C  160.0413 136.20404 156.81458 132.97731 156.81458 128.99683 C  156.81458 125.01634 160.0413 121.78961 164.02179 121.78961 C  168.00227 121.78961 171.229 125.01634 171.229 128.99683 Z M  164.02179 128.99683  " />
 </g>
 </g>
 </g>
 </g>
 <path d=" M  190.80087 123.37408  " style="fill:none"/>
 <g>
 <g stroke="rgb(0.0%,100.0%,0.0%)">
 <g fill="rgb(0.0%,100.0%,0.0%)">
 <g fill="rgb(0.0%,100.0%,0.0%)">
 <path d=" M  198.00809 123.37408 C  198.00809 127.35457 194.78136 130.5813 190.80087 130.5813 C  186.82039 130.5813 183.59366 127.35457 183.59366 123.37408 C  183.59366 119.3936 186.82039 116.16687 190.80087 116.16687 C  194.78136 116.16687 198.00809 119.3936 198.00809 123.37408 Z M  190.80087 123.37408  " />
 </g>
 </g>
 </g>
 </g>
 <path d=" M  217.57996 138.83693  " style="fill:none"/>
 <g>
 <g stroke="rgb(0.0%,100.0%,0.0%)">
 <g fill="rgb(0.0%,100.0%,0.0%)">
 <g fill="rgb(0.0%,100.0%,0.0%)">
 <path d=" M  224.78717 138.83693 C  224.78717 142.81741 221.56044 146.04414 217.57996 146.04414 C  213.59947 146.04414 210.37274 142.81741 210.37274 138.83693 C  210.37274 134.85645 213.59947 131.62971 217.57996 131.62971 C  221.56044 131.62971 224.78717 134.85645 224.78717 138.83693 Z M  217.57996 138.83693  " />
 </g>
 </g>
 </g>
 </g>
 <path d=" M  244.3586 63.63097  " style="fill:none"/>
 <g>
 <g stroke="rgb(0.0%,100.0%,0.0%)">
 <g fill="rgb(0.0%,100.0%,0.0%)">
 <g fill="rgb(0.0%,100.0%,0.0%)">
 <path d=" M  251.56581 63.63097 C  251.56581 67.61145 248.33908 70.83818 244.3586 70.83818 C  240.37811 70.83818 237.15138 67.61145 237.15138 63.63097 C  237.15138 59.65048 240.37811 56.42375 244.3586 56.42375 C  248.33908 56.42375 251.56581 59.65048 251.56581 63.63097 Z M  244.3586 63.63097  " />
 </g>
 </g>
 </g>
 </g>
 <path d=" M  271.13766 113.53398  " style="fill:none"/>
 <g>
 <g stroke="rgb(0.0%,100.0%,0.0%)">
 <g fill="rgb(0.0%,100.0%,0.0%)">
 <g fill="rgb(0.0%,100.0%,0.0%)">
 <path d=" M  278.34488 113.53398 C  278.34488 117.51447 275.11815 120.7412 271.13766 120.7412 C  267.15718 120.7412 263.93045 117.51447 263.93045 113.53398 C  263.93045 109.5535 267.15718 106.32677 271.13766 106.32677 C  275.11815 106.32677 278.34488 109.5535 278.34488 113.53398 Z M  271.13766 113.53398  " />
 </g>
 </g>
 </g>
 </g>
 <path d=" M  297.91719 127.59103  " style="fill:none"/>
 <g>
 <g stroke="rgb(0.0%,100.0%,0.0%)">
 <g fill="rgb(0.0%,100.0%,0.0%)">
 <g fill="rgb(0.0%,100.0%,0.0%)">
 <path d=" M  305.1244 127.59103 C  305.1244 131.57152 301.89767 134.79825 297.91719 134.79825 C  293.9367 134.79825 290.70998 131.57152 290.70998 127.59103 C  290.70998 123.61055 293.9367 120.38382 297.91719 120.38382 C  301.89767 120.38382 305.1244 123.61055 305.1244 127.59103 Z M  297.91719 127.59103  " />
 </g>
 </g>
 </g>
 </g>
 <path d=" M  324.69713 109.3166  " style="fill:none"/>
 <g>
 <g stroke="rgb(0.0%,100.0%,0.0%)">
 <g fill="rgb(0.0%,100.0%,0.0%)">
 <g fill="rgb(0.0%,100.0%,0.0%)">
 <path d=" M  331.90434 109.3166 C  331.90434 113.29709 328.67761 116.52382 324.69713 116.52382 C  320.71664 116.52382 317.48991 113.29709 317.48991 109.3166 C  317.48991 105.33612 320.71664 102.10939 324.69713 102.10939 C  328.67761 102.10939 331.90434 105.33612 331.90434 109.3166 Z M  324.69713 109.3166  " />
 </g>
 </g>
 </g>
 </g>
 <path d=" M  351.47404 87.52812  " style="fill:none"/>
 <g>
 <g stroke="rgb(0.0%,100.0%,0.0%)">
 <g fill="rgb(0.0%,100.0%,0.0%)">
 <g fill="rgb(0.0%,100.0%,0.0%)">
 <path d=" M  358.68126 87.52812 C  358.68126 91.5086 355.45453 94.73534 351.47404 94.73534 C  347.49356 94.73534 344.26683 91.5086 344.26683 87.52812 C  344.26683 83.54764 347.49356 80.3209 351.47404 80.3209 C  355.45453 80.3209 358.68126 83.54764 358.68126 87.52812 Z M  351.47404 87.52812  " />
 </g>
 </g>
 </g>
 </g>
 <path d=" M  378.25356 114.93977  " style="fill:none"/>
 <g>
 <g stroke="rgb(0.0%,100.0%,0.0%)">
 <g fill="rgb(0.0%,100.0%,0.0%)">
 <g fill="rgb(0.0%,100.0%,0.0%)">
 <path d=" M  385.46077 114.93977 C  385.46077 118.92026 382.23404 122.14699 378.25356 122.14699 C  374.27307 122.14699 371.04634 118.92026 371.04634 114.93977 C  371.04634 110.95929 374.27307 107.73256 378.25356 107.73256 C  382.23404 107.73256 385.46077 110.95929 385.46077 114.93977 Z M  378.25356 114.93977  " />
 </g>
 </g>
 </g>
 </g>
 <path d=" M  405.0335 100.17938  " style="fill:none"/>
 <g>
 <g stroke="rgb(0.0%,100.0%,0.0%)">
 <g fill="rgb(0.0%,100.0%,0.0%)">
 <g fill="rgb(0.0%,100.0%,0.0%)">
 <path d=" M  412.2407 100.17938 C  412.2407 104.15987 409.01398 107.3866 405.0335 107.3866 C  401.05301 107.3866 397.82628 104.15987 397.82628 100.17938 C  397.82628 96.1989 401.05301 92.97217 405.0335 92.97217 C  409.01398 92.97217 412.2407 96.1989 412.2407 100.17938 Z M  405.0335 100.17938  " />
 </g>
 </g>
 </g>
 </g>
 <path d=" M  431.813 83.31075  " style="fill:none"/>
 <g>
 <g stroke="rgb(0.0%,100.0%,0.0%)">
 <g fill="rgb(0.0%,100.0%,0.0%)">
 <g fill="rgb(0.0%,100.0%,0.0%)">
 <path d=" M  439.02022 83.31075 C  439.02022 87.29123 435.79349 90.51796 431.813 90.51796 C  427.83252 90.51796 424.60579 87.29123 424.60579 83.31075 C  424.60579 79.33026 427.83252 76.10353 431.813 76.10353 C  435.79349 76.10353 439.02022 79.33026 439.02022 83.31075 Z M  431.813 83.31075  " />
 </g>
 </g>
 </g>
 </g>
 <path d=" M  458.58992 50.27638  " style="fill:none"/>
 <g>
 <g stroke="rgb(0.0%,100.0%,0.0%)">
 <g fill="rgb(0.0%,100.0%,0.0%)">
 <g fill="rgb(0.0%,100.0%,0.0%)">
 <path d=" M  465.79713 50.27638 C  465.79713 54.25687 462.5704 57.4836 458.58992 57.4836 C  454.60944 57.4836 451.3827 54.25687 451.3827 50.27638 C  451.3827 46.2959 454.60944 43.06917 458.58992 43.06917 C  462.5704 43.06917 465.79713 46.2959 465.79713 50.27638 Z M  458.58992 50.27638  " />
 </g>
 </g>
 </g>
 </g>
 <path d=" M  485.36986 110.0195  " style="fill:none"/>
 <g>
 <g stroke="rgb(0.0%,100.0%,0.0%)">
 <g fill="rgb(0.0%,100.0%,0.0%)">
 <g fill="rgb(0.0%,100.0%,0.0%)">
 <path d=" M  492.57707 110.0195 C  492.57707 113.99998 489.35034 117.22672 485.36986 117.22672 C  481.38937 117.22672 478.16264 113.99998 478.16264 110.0195 C  478.16264 106.03902 481.38937 102.81229 485.36986 102.81229 C  489.35034 102.81229 492.57707 106.03902 492.57707 110.0195 Z M  485.36986 110.0195  " />
 </g>
 </g>
 </g>
 </g>
 <path d=" M  83.68456 149.37993  " style="fill:none"/>
 <g>
 <g stroke="rgb(100.0%,0.0%,0.0%)">
 <g fill="rgb(100.0%,0.0%,0.0%)">
 <g fill="rgb(100.0%,0.0%,0.0%)">
 <path d=" M  90.89177 149.37993 C  90.89177 153.36041 87.66504 156.58714 83.68456 156.58714 C  79.70407 156.58714 76.47734 153.36041 76.47734 149.37993 C  76.47734 145.39944 79.70407 142.17271 83.68456 142.17271 C  87.66504 142.17271 90.89177 145.39944 90.89177 149.37993 Z M  83.68456 149.37993  " />
 </g>
 </g>
 </g>
 </g>
 <path d=" M  110.46364 157.11136  " style="fill:none"/>
 <g>
 <g stroke="rgb(100.0%,0.0%,0.0%)">
 <g fill="rgb(100.0%,0.0%,0.0%)">
 <g fill="rgb(100.0%,0.0%,0.0%)">
 <path d=" M  117.67085 157.11136 C  117.67085 161.09184 114.44412 164.31857 110.46364 164.31857 C  106.48315 164.31857 103.25642 161.09184 103.25642 157.11136 C  103.25642 153.13087 106.48315 149.90414 110.46364 149.90414 C  114.44412 149.90414 117.67085 153.13087 117.67085 157.11136 Z M  110.46364 157.11136  " />
 </g>
 </g>
 </g>
 </g>
 <path d=" M  137.24272 141.64809  " style="fill:none"/>
 <g>
 <g stroke="rgb(100.0%,0.0%,0.0%)">
 <g fill="rgb(100.0%,0.0%,0.0%)">
 <g fill="rgb(100.0%,0.0%,0.0%)">
 <path d=" M  144.44994 141.64809 C  144.44994 145.62857 141.2232 148.8553 137.24272 148.8553 C  133.26224 148.8553 130.0355 145.62857 130.0355 141.64809 C  130.0355 137.6676 133.26224 134.44087 137.24272 134.44087 C  141.2232 134.44087 144.44994 137.6676 144.44994 141.64809 Z M  137.24272 141.64809  " />
 </g>
 </g>
 </g>
 </g>
 <path d=" M  164.02179 138.83693  " style="fill:none"/>
 <g>
 <g stroke="rgb(100.0%,0.0%,0.0%)">
 <g fill="rgb(100.0%,0.0%,0.0%)">
 <g fill="rgb(100.0%,0.0%,0.0%)">
 <path d=" M  171.229 138.83693 C  171.229 142.81741 168.00227 146.04414 164.02179 146.04414 C  160.0413 146.04414 156.81458 142.81741 156.81458 138.83693 C  156.81458 134.85645 160.0413 131.62971 164.02179 131.62971 C  168.00227 131.62971 171.229 134.85645 171.229 138.83693 Z M  164.02179 138.83693  " />
 </g>
 </g>
 </g>
 </g>
 <path d=" M  190.80087 169.05972  " style="fill:none"/>
 <g>
 <g stroke="rgb(100.0%,0.0%,0.0%)">
 <g fill="rgb(100.0%,0.0%,0.0%)">
 <g fill="rgb(100.0%,0.0%,0.0%)">
 <path d=" M  198.00809 169.05972 C  198.00809 173.0402 194.78136 176.26694 190.80087 176.26694 C  186.82039 176.26694 183.59366 173.0402 183.59366 169.05972 C  183.59366 165.07924 186.82039 161.85251 190.80087 161.85251 C  194.78136 161.85251 198.00809 165.07924 198.00809 169.05972 Z M  190.80087 169.05972  " />
 </g>
 </g>
 </g>
 </g>
 <path d=" M  217.57996 159.9225  " style="fill:none"/>
 <g>
 <g stroke="rgb(100.0%,0.0%,0.0%)">
 <g fill="rgb(100.0%,0.0%,0.0%)">
 <g fill="rgb(100.0%,0.0%,0.0%)">
 <path d=" M  224.78717 159.9225 C  224.78717 163.90298 221.56044 167.12971 217.57996 167.12971 C  213.59947 167.12971 210.37274 163.90298 210.37274 159.9225 C  210.37274 155.94202 213.59947 152.71529 217.57996 152.71529 C  221.56044 152.71529 224.78717 155.94202 224.78717 159.9225 Z M  217.57996 159.9225  " />
 </g>
 </g>
 </g>
 </g>
 <path d=" M  244.3586 188.73994  " style="fill:none"/>
 <g>
 <g stroke="rgb(100.0%,0.0%,0.0%)">
 <g fill="rgb(100.0%,0.0%,0.0%)">
 <g fill="rgb(100.0%,0.0%,0.0%)">
 <path d=" M  251.56581 188.73994 C  251.56581 192.72043 248.33908 195.94716 244.3586 195.94716 C  240.37811 195.94716 237.15138 192.72043 237.15138 188.73994 C  237.15138 184.75946 240.37811 181.53273 244.3586 181.53273 C  248.33908 181.53273 251.56581 184.75946 251.56581 188.73994 Z M  244.3586 188.73994  " />
 </g>
 </g>
 </g>
 </g>
 <path d=" M  271.13766 163.43698  " style="fill:none"/>
 <g>
 <g stroke="rgb(100.0%,0.0%,0.0%)">
 <g fill="rgb(100.0%,0.0%,0.0%)">
 <g fill="rgb(100.0%,0.0%,0.0%)">
 <path d=" M  278.34488 163.43698 C  278.34488 167.41747 275.11815 170.6442 271.13766 170.6442 C  267.15718 170.6442 263.93045 167.41747 263.93045 163.43698 C  263.93045 159.4565 267.15718 156.22977 271.13766 156.22977 C  275.11815 156.22977 278.34488 159.4565 278.34488 163.43698 Z M  271.13766 163.43698  " />
 </g>
 </g>
 </g>
 </g>
 <path d=" M  297.91719 203.4999  " style="fill:none"/>
 <g>
 <g stroke="rgb(100.0%,0.0%,0.0%)">
 <g fill="rgb(100.0%,0.0%,0.0%)">
 <g fill="rgb(100.0%,0.0%,0.0%)">
 <path d=" M  305.1244 203.4999 C  305.1244 207.48038 301.89767 210.7071 297.91719 210.7071 C  293.9367 210.7071 290.70998 207.48038 290.70998 203.4999 C  290.70998 199.51941 293.9367 196.29268 297.91719 196.29268 C  301.89767 196.29268 305.1244 199.51941 305.1244 203.4999 Z M  297.91719 203.4999  " />
 </g>
 </g>
 </g>
 </g>
 <path d=" M  324.69713 101.58517  " style="fill:none"/>
 <g>
 <g stroke="rgb(100.0%,0.0%,0.0%)">
 <g fill="rgb(100.0%,0.0%,0.0%)">
 <g fill="rgb(100.0%,0.0%,0.0%)">
 <path d=" M  331.90434 101.58517 C  331.90434 105.56566 328.67761 108.79239 324.69713 108.79239 C  320.71664 108.79239 317.48991 105.56566 317.48991 101.58517 C  317.48991 97.60469 320.71664 94.37796 324.69713 94.37796 C  328.67761 94.37796 331.90434 97.60469 331.90434 101.58517 Z M  324.69713 101.58517  " />
 </g>
 </g>
 </g>
 </g>
 <path d=" M  351.47404 155.00267  " style="fill:none"/>
 <g>
 <g stroke="rgb(100.0%,0.0%,0.0%)">
 <g fill="rgb(100.0%,0.0%,0.0%)">
 <g fill="rgb(100.0%,0.0%,0.0%)">
 <path d=" M  358.68126 155.00267 C  358.68126 158.98315 355.45453 162.20988 351.47404 162.20988 C  347.49356 162.20988 344.26683 158.98315 344.26683 155.00267 C  344.26683 151.02219 347.49356 147.79546 351.47404 147.79546 C  355.45453 147.79546 358.68126 151.02219 358.68126 155.00267 Z M  351.47404 155.00267  " />
 </g>
 </g>
 </g>
 </g>
 <path d=" M  378.25356 171.16841  " style="fill:none"/>
 <g>
 <g stroke="rgb(100.0%,0.0%,0.0%)">
 <g fill="rgb(100.0%,0.0%,0.0%)">
 <g fill="rgb(100.0%,0.0%,0.0%)">
 <path d=" M  385.46077 171.16841 C  385.46077 175.1489 382.23404 178.37563 378.25356 178.37563 C  374.27307 178.37563 371.04634 175.1489 371.04634 171.16841 C  371.04634 167.18793 374.27307 163.9612 378.25356 163.9612 C  382.23404 163.9612 385.46077 167.18793 385.46077 171.16841 Z M  378.25356 171.16841  " />
 </g>
 </g>
 </g>
 </g>
 <path d=" M  405.0335 135.32245  " style="fill:none"/>
 <g>
 <g stroke="rgb(100.0%,0.0%,0.0%)">
 <g fill="rgb(100.0%,0.0%,0.0%)">
 <g fill="rgb(100.0%,0.0%,0.0%)">
 <path d=" M  412.2407 135.32245 C  412.2407 139.30293 409.01398 142.52966 405.0335 142.52966 C  401.05301 142.52966 397.82628 139.30293 397.82628 135.32245 C  397.82628 131.34196 401.05301 128.11523 405.0335 128.11523 C  409.01398 128.11523 412.2407 131.34196 412.2407 135.32245 Z M  405.0335 135.32245  " />
 </g>
 </g>
 </g>
 </g>
 <path d=" M  431.813 141.64809  " style="fill:none"/>
 <g>
 <g stroke="rgb(100.0%,0.0%,0.0%)">
 <g fill="rgb(100.0%,0.0%,0.0%)">
 <g fill="rgb(100.0%,0.0%,0.0%)">
 <path d=" M  439.02022 141.64809 C  439.02022 145.62857 435.79349 148.8553 431.813 148.8553 C  427.83252 148.8553 424.60579 145.62857 424.60579 141.64809 C  424.60579 137.6676 427.83252 134.44087 431.813 134.44087 C  435.79349 134.44087 439.02022 137.6676 439.02022 141.64809 Z M  431.813 141.64809  " />
 </g>
 </g>
 </g>
 </g>
 <path d=" M  458.58992 138.13403  " style="fill:none"/>
 <g>
 <g stroke="rgb(100.0%,0.0%,0.0%)">
 <g fill="rgb(100.0%,0.0%,0.0%)">
 <g fill="rgb(100.0%,0.0%,0.0%)">
 <path d=" M  465.79713 138.13403 C  465.79713 142.11452 462.5704 145.34125 458.58992 145.34125 C  454.60944 145.34125 451.3827 142.11452 451.3827 138.13403 C  451.3827 134.15355 454.60944 130.92682 458.58992 130.92682 C  462.5704 130.92682 465.79713 134.15355 465.79713 138.13403 Z M  458.58992 138.13403  " />
 </g>
 </g>
 </g>
 </g>
 <path d=" M  485.36986 152.19109  " style="fill:none"/>
 <g>
 <g stroke="rgb(100.0%,0.0%,0.0%)">
 <g fill="rgb(100.0%,0.0%,0.0%)">
 <g fill="rgb(100.0%,0.0%,0.0%)">
 <path d=" M  492.57707 152.19109 C  492.57707 156.17157 489.35034 159.3983 485.36986 159.3983 C  481.38937 159.3983 478.16264 156.17157 478.16264 152.19109 C  478.16264 148.2106 481.38937 144.98387 485.36986 144.98387 C  489.35034 144.98387 492.57707 148.2106 492.57707 152.19109 Z M  485.36986 152.19109  " />
 </g>
 </g>
 </g>
 </g>
 <g>
 <g stroke="rgb(100.0%,100.0%,100.0%)">
 <g fill="rgb(100.0%,100.0%,100.0%)">
 <g fill="rgb(100.0%,100.0%,100.0%)">
 <path d=" M  341.43292 217.86476 M  341.43292 217.86476 L  341.43292 280.11165 L  512.14938 280.11165 L  512.14938 217.86476 Z M  512.14938 280.11165  " />
 </g>
 </g>
 </g>
 </g>
 <g>
 <g stroke="rgb(0.0%,0.0%,0.0%)">
 <g fill="rgb(0.0%,0.0%,0.0%)">
 <g stroke-width="0.9pt">
 <path d=" M  341.43292 217.86476 L  512.14938 217.86476  " style="fill:none"/>
 </g>
 </g>
 </g>
 </g>
 <g>
 <g stroke="rgb(0.0%,0.0%,0.0%)">
 <g fill="rgb(0.0%,0.0%,0.0%)">
 <g stroke-width="0.9pt">
 <path d=" M  512.14938 217.86476 L  512.14938 280.11165  " style="fill:none"/>
 </g>
 </g>
 </g>
 </g>
 <g>
 <g stroke="rgb(0.0%,0.0%,0.0%)">
 <g fill="rgb(0.0%,0.0%,0.0%)">
 <g stroke-width="0.9pt">
 <path d=" M  512.14938 280.11165 L  341.43292 280.11165  " style="fill:none"/>
 </g>
 </g>
 </g>
 </g>
 <g>
 <g stroke="rgb(0.0%,0.0%,0.0%)">
 <g fill="rgb(0.0%,0.0%,0.0%)">
 <g stroke-width="0.9pt">
 <path d=" M  341.43292 280.11165 L  341.43292 217.86476  " style="fill:none"/>
 </g>
 </g>
 </g>
 </g>
 <path d=" M  384.11203 257.5469  " style="fill:none"/>
 <g>
 <g stroke="rgb(0.0%,0.0%,0.0%)">
 <g fill="rgb(0.0%,0.0%,0.0%)">
 <g>
 <g stroke="rgb(0.0%,0.0%,0.0%)">
 <g fill="rgb(0.0%,0.0%,0.0%)">
 </g>
 </g>
 </g>
 <g>
 <g transform="matrix(1.55663,0.0,0.0,1.55663,390.10442,257.5469)">
 <g fill="rgb(0.0%,0.0%,0.0%)">
 <text style="stroke:none" transform="scale(1,-1) translate(16.5771,0)" text-anchor="middle"  font-size="10.95"> 
<tspan font-family="cmr" font-size="10">default</tspan></text> 
</g>
 </g>
 </g>
 </g>
 </g>
 </g>
 <g>
 <g stroke="rgb(100.0%,100.0%,100.0%)">
 <g fill="rgb(100.0%,100.0%,100.0%)">
 <path d=" M  347.83496 253.65688 L  377.70999 253.65688 L  377.70999 275.44318 L  347.83496 275.44318  " style="fill:none"/>
 </g>
 </g>
 </g>
 <g>
 <g stroke="rgb(100.0%,100.0%,100.0%)">
 <g fill="rgb(100.0%,100.0%,100.0%)">
 <g stroke-width="0.9pt">
 <path d=" M  347.83496 264.54982 L  377.70999 264.54982  " style="fill:none"/>
 </g>
 </g>
 </g>
 </g>
 <path d=" M  362.77248 264.54982  " style="fill:none"/>
 <g>
 <g stroke="rgb(0.0%,100.0%,0.0%)">
 <g fill="rgb(0.0%,100.0%,0.0%)">
 <g fill="rgb(0.0%,100.0%,0.0%)">
 <path d=" M  369.97969 264.54982 C  369.97969 268.5303 366.75296 271.75703 362.77248 271.75703 C  358.79199 271.75703 355.56526 268.5303 355.56526 264.54982 C  355.56526 260.56934 358.79199 257.3426 362.77248 257.3426 C  366.75296 257.3426 369.97969 260.56934 369.97969 264.54982 Z M  362.77248 264.54982  " />
 </g>
 </g>
 </g>
 </g>
 <path d=" M  384.11203 226.42368  " style="fill:none"/>
 <g>
 <g stroke="rgb(0.0%,0.0%,0.0%)">
 <g fill="rgb(0.0%,0.0%,0.0%)">
 <g>
 <g stroke="rgb(0.0%,0.0%,0.0%)">
 <g fill="rgb(0.0%,0.0%,0.0%)">
 </g>
 </g>
 </g>
 <g>
 <g transform="matrix(1.55663,0.0,0.0,1.55663,390.10442,226.42368)">
 <g fill="rgb(0.0%,0.0%,0.0%)">
 <text style="stroke:none" transform="scale(1,-1) translate(15.54292,0)" text-anchor="middle"  font-size="10.95"> 
<tspan font-family="cmr" font-size="10">seeded</tspan></text> 
</g>
 </g>
 </g>
 </g>
 </g>
 </g>
 <g>
 <g stroke="rgb(100.0%,100.0%,100.0%)">
 <g fill="rgb(100.0%,100.0%,100.0%)">
 <path d=" M  347.83496 222.53322 L  377.70999 222.53322 L  377.70999 244.31952 L  347.83496 244.31952  " style="fill:none"/>
 </g>
 </g>
 </g>
 <g>
 <g stroke="rgb(100.0%,100.0%,100.0%)">
 <g fill="rgb(100.0%,100.0%,100.0%)">
 <g stroke-width="0.9pt">
 <path d=" M  347.83496 233.42615 L  377.70999 233.42615  " style="fill:none"/>
 </g>
 </g>
 </g>
 </g>
 <path d=" M  362.77248 233.42615  " style="fill:none"/>
 <g>
 <g stroke="rgb(100.0%,0.0%,0.0%)">
 <g fill="rgb(100.0%,0.0%,0.0%)">
 <g fill="rgb(100.0%,0.0%,0.0%)">
 <path d=" M  369.97969 233.42615 C  369.97969 237.40663 366.75296 240.63336 362.77248 240.63336 C  358.79199 240.63336 355.56526 237.40663 355.56526 233.42615 C  355.56526 229.44566 358.79199 226.21893 362.77248 226.21893 C  366.75296 226.21893 369.97969 229.44566 369.97969 233.42615 Z M  362.77248 233.42615  " />
 </g>
 </g>
 </g>
 </g>
 <path d=" M  284.52744 301.12125  " style="fill:none"/>
 <g>
 <g stroke="rgb(0.0%,0.0%,0.0%)">
 <g fill="rgb(0.0%,0.0%,0.0%)">
 <g>
 <g stroke="rgb(0.0%,0.0%,0.0%)">
 <g fill="rgb(0.0%,0.0%,0.0%)">
 </g>
 </g>
 </g>
 <g>
 <g transform="matrix(1.13966,0.0,0.0,1.13966,211.10738,296.78816)">
 <g fill="rgb(0.0%,0.0%,0.0%)">
 <text style="stroke:none" transform="scale(1,-1) translate(64.42258,0)" text-anchor="middle"  font-size="10.95"> 
<tspan font-family="cmr" font-size="10">User run time for ranlux64</tspan></text> 
</g>
 </g>
 </g>
 </g>
 </g>
 </g>
 </g>
 </g>
 </g>
 </g>
 </g>
                                                                                                                          </g> 
</svg> 
