<?xml version="1.0" encoding="iso-8859-1" standalone="no"?> 
<?xml-stylesheet href="gsocPreprint.css" type="text/css"?> 
<svg xmlns="http://www.w3.org/2000/svg" xmlns:xlink="http://www.w3.org/1999/xlink" width="569.45486pt" height="555.76901pt" viewBox="-0.2 -0.2 569.45486 555.76901 "> 
<g transform="translate(0, 555.56902 ) scale(1,-1) translate(0,0.2 )"> 
<g>
 <g stroke="rgb(0.0%,0.0%,0.0%)">
 <g fill="rgb(0.0%,0.0%,0.0%)">
 <g stroke-width="0.4pt">
 <g>
 <g>
 <g stroke="rgb(100.0%,100.0%,100.0%)">
 <g fill="rgb(100.0%,100.0%,100.0%)">
 <g fill="rgb(100.0%,100.0%,100.0%)">
 <path d=" M  0.0 0.0 M  0.0 0.0 L  0.0 555.36902 L  569.05487 555.36902 L  569.05487 0.0 Z M  569.05487 555.36902  " />
 </g>
 </g>
 </g>
 </g>
 <g>
 <g stroke="rgb(100.0%,100.0%,100.0%)">
 <g fill="rgb(100.0%,100.0%,100.0%)">
 <g fill="rgb(100.0%,100.0%,100.0%)">
 <path d=" M  56.90549 55.53702 M  56.90549 55.53702 L  56.90549 499.83199 L  512.14938 499.83199 L  512.14938 55.53702 Z M  512.14938 499.83199  " />
 </g>
 </g>
 </g>
 </g>
 <g>
 <g stroke="rgb(0.0%,0.0%,0.0%)">
 <g fill="rgb(0.0%,0.0%,0.0%)">
 <g stroke-width="0.9pt">
 <path d=" M  56.90549 55.53702 L  56.90549 499.83199 L  512.14938 499.83199 L  512.14938 55.53702 L  56.90549 55.53702  " style="fill:none"/>
 </g>
 </g>
 </g>
 </g>
 <g>
 <g stroke="rgb(100.0%,100.0%,100.0%)">
 <g fill="rgb(100.0%,100.0%,100.0%)">
 <g fill="rgb(100.0%,100.0%,100.0%)">
 <path d=" M  56.90549 55.53702 M  56.90549 55.53702 L  56.90549 499.83199 L  512.14938 499.83199 L  512.14938 55.53702 Z M  512.14938 499.83199  " />
 </g>
 </g>
 </g>
 </g>
 <g>
 <g stroke="rgb(0.0%,0.0%,0.0%)">
 <g fill="rgb(0.0%,0.0%,0.0%)">
 <g stroke-width="0.9pt">
 <path d=" M  56.90549 55.53702 L  56.90549 499.83199 L  512.14938 499.83199 L  512.14938 55.53702 L  56.90549 55.53702  " style="fill:none"/>
 </g>
 </g>
 </g>
 </g>
 <g>
 <g stroke="rgb(0.0%,0.0%,0.0%)">
 <g fill="rgb(0.0%,0.0%,0.0%)">
 <g stroke-dasharray="3.0pt,3.0pt" stroke-dashoffset="0.0pt">
 <g stroke-width="1.8pt">
 <path d=" M  57.21938 57.59187 L  57.84717 58.20273 L  58.47539 58.81445 L  59.10316 59.42575 L  59.73096 60.0366 L  60.35918 60.64833 L  60.98697 61.25919 L  61.61519 61.87091 L  62.24298 62.48177 L  62.87076 63.09305 L  63.49855 63.70433 L  64.12634 64.31563 L  64.75456 64.92735 L  65.38234 65.53821 L  66.01056 66.14993 L  66.63835 66.76079 L  67.26614 67.37207 L  67.89436 67.98337 L  68.52216 68.59465 L  69.14993 69.20638 L  69.77773 69.81723 L  70.40594 70.42853 L  71.03374 71.03981 L  71.66151 71.6511 L  72.28973 72.26239 L  72.91753 72.87367 L  73.54532 73.48497 L  74.17354 74.09625 L  74.80133 74.70755 L  75.42911 75.31883 L  76.0569 75.93013 L  76.68512 76.54141 L  77.31291 77.15271 L  77.94069 77.76399 L  78.56891 78.37529 L  79.1967 78.98657 L  79.82492 79.59785 L  80.45271 80.20915 L  81.0805 80.82043 L  81.70828 81.43173 L  82.33607 82.04301 L  82.9643 82.65387 L  83.59209 83.2656 L  84.2203 83.87689 L  84.8481 84.48817 L  85.47588 85.09947 L  86.1041 85.71033 L  86.73189 86.32205 L  87.35968 86.9329 L  87.98746 87.54463  " style="fill:none"/>
 </g>
 </g>
 </g>
 </g>
 </g>
 <g>
 <g stroke="rgb(0.0%,0.0%,0.0%)">
 <g fill="rgb(0.0%,0.0%,0.0%)">
 <g stroke-dasharray="3.0pt,3.0pt" stroke-dashoffset="0.0pt">
 <g stroke-width="1.8pt">
 <path d=" M  87.98746 87.54463 L  88.61568 88.15549 L  89.24347 88.76677 L  89.87126 89.3785 L  90.49948 89.98935 L  91.12727 90.60107 L  91.75505 91.21193 L  92.38327 91.82321 L  93.01106 92.43451 L  93.63885 93.04579 L  94.26663 93.65752 L  94.89485 94.26837 L  95.52264 94.87967 L  96.15044 95.49095 L  96.77866 96.10225 L  97.40645 96.71353 L  98.03467 97.32481 L  98.66245 97.93611 L  99.29024 98.5474 L  99.91803 99.15869 L  100.5458 99.76997 L  101.17403 100.38127 L  101.80182 100.99255 L  102.43004 101.60385 L  103.05783 102.21513 L  103.68562 102.82643 L  104.31384 103.43771 L  104.94162 104.04901 L  105.56941 104.6603 L  106.1972 105.27158 L  106.82542 105.88287 L  107.45322 106.49416 L  108.081 107.10501 L  108.70921 107.71674 L  109.337 108.32803 L  109.9648 108.93932 L  110.59302 109.55061 L  111.2208 110.16147 L  111.84859 110.7732 L  112.47638 111.38405 L  113.1046 111.99577 L  113.73239 112.60706 L  114.36061 113.21791 L  114.98839 113.82964 L  115.61618 114.44049 L  116.2444 115.05222 L  116.8722 115.66307 L  117.49997 116.2748 L  118.12776 116.88565 L  118.75598 117.49693  " style="fill:none"/>
 </g>
 </g>
 </g>
 </g>
 </g>
 <g>
 <g stroke="rgb(0.0%,0.0%,0.0%)">
 <g fill="rgb(0.0%,0.0%,0.0%)">
 <g stroke-dasharray="3.0pt,3.0pt" stroke-dashoffset="0.0pt">
 <g stroke-width="1.8pt">
 <path d=" M  118.75598 117.49693 L  119.38377 118.10866 L  120.01157 118.71951 L  120.63979 119.33124 L  121.26756 119.9421 L  121.89536 120.55339 L  122.52357 121.16467 L  123.15137 121.77597 L  123.77959 122.38768 L  124.40694 122.99854 L  125.03516 123.60983 L  125.66295 124.22112 L  126.29074 124.83241 L  126.91896 125.4437 L  127.54674 126.055 L  128.17497 126.66628 L  128.80275 127.27757 L  129.43054 127.88885 L  130.05833 128.50015 L  130.68611 129.11143 L  131.31433 129.72273 L  131.94212 130.33401 L  132.57034 130.9453 L  133.19814 131.5566 L  133.82591 132.16788 L  134.45415 132.77917 L  135.08192 133.39046 L  135.70972 134.00175 L  136.33751 134.61304 L  136.96573 135.22433 L  137.5935 135.83519 L  138.2213 136.44691 L  138.84952 137.0582 L  139.47731 137.6695 L  140.10509 138.28078 L  140.73332 138.89163 L  141.3611 139.50336 L  141.98932 140.11421 L  142.61668 140.72594 L  143.2449 141.33679 L  143.87268 141.94807 L  144.50047 142.5598 L  145.1287 143.17065 L  145.75648 143.78238 L  146.3847 144.39323 L  147.0125 145.00453 L  147.64027 145.61581 L  148.26807 146.22711 L  148.89586 146.83884 L  149.52408 147.44969  " style="fill:none"/>
 </g>
 </g>
 </g>
 </g>
 </g>
 <g>
 <g stroke="rgb(0.0%,0.0%,0.0%)">
 <g fill="rgb(0.0%,0.0%,0.0%)">
 <g stroke-dasharray="3.0pt,3.0pt" stroke-dashoffset="0.0pt">
 <g stroke-width="1.8pt">
 <path d=" M  149.52408 147.44969 L  150.15186 148.06097 L  150.78009 148.67226 L  151.40787 149.28355 L  152.03566 149.89484 L  152.66388 150.50613 L  153.29167 151.11742 L  153.91945 151.72871 L  154.54724 152.34 L  155.17546 152.9513 L  155.80325 153.56258 L  156.43103 154.17387 L  157.05927 154.78516 L  157.68704 155.39645 L  158.31483 156.00774 L  158.94305 156.61902 L  159.57085 157.23032 L  160.19862 157.8416 L  160.82642 158.4529 L  161.45464 159.06418 L  162.08243 159.67548 L  162.7102 160.28633 L  163.33844 160.89806 L  163.96622 161.50934 L  164.59444 162.12064 L  165.22223 162.73192 L  165.85002 163.34277 L  166.4778 163.9545 L  167.10559 164.56535 L  167.73381 165.17708 L  168.3616 165.78836 L  168.98982 166.39966 L  169.61761 167.01094 L  170.24539 167.6218 L  170.87361 168.23352 L  171.5014 168.84438 L  172.12962 169.4561 L  172.75697 170.06696 L  173.38521 170.67825 L  174.01299 171.28998 L  174.64078 171.90083 L  175.269 172.51254 L  175.89679 173.12341 L  176.52501 173.7347 L  177.15279 174.34598 L  177.78058 174.95728 L  178.40837 175.569 L  179.03615 176.17986 L  179.66438 176.79114 L  180.29216 177.40244  " style="fill:none"/>
 </g>
 </g>
 </g>
 </g>
 </g>
 <g>
 <g stroke="rgb(0.0%,0.0%,0.0%)">
 <g fill="rgb(0.0%,0.0%,0.0%)">
 <g stroke-dasharray="3.0pt,3.0pt" stroke-dashoffset="0.0pt">
 <g stroke-width="1.8pt">
 <path d=" M  180.29216 177.40244 L  180.92038 178.01372 L  181.54817 178.62502 L  182.17596 179.2363 L  182.80418 179.8476 L  183.43196 180.45888 L  184.05975 181.07018 L  184.68755 181.68146 L  185.31577 182.29274 L  185.94356 182.90404 L  186.57133 183.51532 L  187.19955 184.12662 L  187.82735 184.7379 L  188.45514 185.3492 L  189.08336 185.96048 L  189.71114 186.57178 L  190.33937 187.18306 L  190.96672 187.79436 L  191.59494 188.40564 L  192.22273 189.0165 L  192.85051 189.62822 L  193.47873 190.2395 L  194.10652 190.8508 L  194.73474 191.46208 L  195.36253 192.07294 L  195.99033 192.68466 L  196.61855 193.29552 L  197.2459 193.90724 L  197.87411 194.5181 L  198.5019 195.1294 L  199.13013 195.74112 L  199.7579 196.35197 L  200.3857 196.9637 L  201.01392 197.57455 L  201.64171 198.18584 L  202.2695 198.79712 L  202.89728 199.40842 L  203.5255 200.02014 L  204.15329 200.631 L  204.78108 201.24228 L  205.4093 201.85358 L  206.03708 202.46486 L  206.66487 203.07616 L  207.29309 203.68744 L  207.92088 204.29874 L  208.5491 204.91002 L  209.17645 205.52132 L  209.80467 206.1326 L  210.43246 206.7439 L  211.06026 207.35518  " style="fill:none"/>
 </g>
 </g>
 </g>
 </g>
 </g>
 <g>
 <g stroke="rgb(0.0%,0.0%,0.0%)">
 <g fill="rgb(0.0%,0.0%,0.0%)">
 <g stroke-dasharray="3.0pt,3.0pt" stroke-dashoffset="0.0pt">
 <g stroke-width="1.8pt">
 <path d=" M  211.06026 207.35518 L  211.68848 207.96646 L  212.31625 208.57776 L  212.94449 209.18904 L  213.57227 209.80034 L  214.20006 210.41162 L  214.82785 211.02292 L  215.45563 211.6342 L  216.08385 212.2455 L  216.71164 212.85678 L  217.33986 213.46764 L  217.96765 214.07936 L  218.59544 214.69066 L  219.22366 215.30194 L  219.85144 215.91322 L  220.47923 216.52452 L  221.10703 217.1358 L  221.73524 217.74666 L  222.36302 218.35838 L  222.99081 218.96968 L  223.61903 219.58096 L  224.24683 220.19226 L  224.87462 220.80312 L  225.50284 221.41484 L  226.13062 222.0257 L  226.75883 222.63742 L  227.3862 223.24828 L  228.01442 223.85956 L  228.6422 224.47128 L  229.27043 225.08214 L  229.89821 225.69386 L  230.526 226.30472 L  231.15422 226.916 L  231.78201 227.5273 L  232.40979 228.13858 L  233.03758 228.7503 L  233.6658 229.36116 L  234.2936 229.97246 L  234.92137 230.58374 L  235.5496 231.19504 L  236.17738 231.80632 L  236.80518 232.41762 L  237.4334 233.0289 L  238.06119 233.64018 L  238.6894 234.25148 L  239.31676 234.86276 L  239.94498 235.47406 L  240.57277 236.08534 L  241.20056 236.69664 L  241.82878 237.30792  " style="fill:none"/>
 </g>
 </g>
 </g>
 </g>
 </g>
 <g>
 <g stroke="rgb(0.0%,0.0%,0.0%)">
 <g fill="rgb(0.0%,0.0%,0.0%)">
 <g stroke-dasharray="3.0pt,3.0pt" stroke-dashoffset="0.0pt">
 <g stroke-width="1.8pt">
 <path d=" M  241.82878 237.30792 L  242.45656 237.91922 L  243.08478 238.5305 L  243.71257 239.1418 L  244.34036 239.75308 L  244.96858 240.36438 L  245.59593 240.97566 L  246.22415 241.58694 L  246.85194 242.1978 L  247.48016 242.80952 L  248.10796 243.42082 L  248.73573 244.0321 L  249.36395 244.6434 L  249.99174 245.25426 L  250.61954 245.86598 L  251.24776 246.47684 L  251.87555 247.08856 L  252.50333 247.69942 L  253.13112 248.3107 L  253.75934 248.92242 L  254.38713 249.53328 L  255.01491 250.145 L  255.64313 250.75586 L  256.27092 251.36714 L  256.89914 251.97844 L  257.52649 252.58972 L  258.15472 253.20145 L  258.7825 253.8123 L  259.4103 254.4236 L  260.03851 255.03488 L  260.6663 255.64618 L  261.29453 256.25746 L  261.92232 256.86876 L  262.5501 257.48004 L  263.17789 258.09132 L  263.80568 258.70262 L  264.4339 259.3139 L  265.06168 259.9252 L  265.6899 260.53648 L  266.31769 261.14778 L  266.94548 261.75906 L  267.5737 262.37036 L  268.20149 262.98164 L  268.82927 263.59294 L  269.45706 264.20422 L  270.08528 264.81552 L  270.71307 265.4268 L  271.34085 266.0381 L  271.96907 266.64938 L  272.59686 267.26067  " style="fill:none"/>
 </g>
 </g>
 </g>
 </g>
 </g>
 <g>
 <g stroke="rgb(0.0%,0.0%,0.0%)">
 <g fill="rgb(0.0%,0.0%,0.0%)">
 <g stroke-dasharray="3.0pt,3.0pt" stroke-dashoffset="0.0pt">
 <g stroke-width="1.8pt">
 <path d=" M  272.59686 267.26067 L  273.22466 267.87196 L  273.85287 268.48325 L  274.48067 269.09454 L  275.10889 269.70583 L  275.73624 270.31712 L  276.36446 270.92798 L  276.99225 271.5397 L  277.62003 272.15056 L  278.24825 272.76228 L  278.87604 273.37357 L  279.50426 273.98442 L  280.13205 274.59615 L  280.75984 275.207 L  281.38806 275.81873 L  282.01541 276.42958 L  282.64363 277.04086 L  283.27142 277.65259 L  283.89964 278.26344 L  284.52744 278.87517 L  285.15608 279.48602 L  285.78214 280.09732 L  286.4108 280.7086 L  287.03989 281.3199 L  287.66592 281.93118 L  288.29459 282.54248 L  288.92325 283.15376 L  289.55234 283.76505 L  290.17795 284.37634 L  290.80704 284.9885 L  291.4357 285.60022 L  292.06174 286.20891 L  292.6904 286.82063 L  293.31949 287.43236 L  293.9451 288.04408 L  294.57419 288.6558 L  295.20285 289.26753 L  295.8289 289.87665 L  296.45755 290.48837 L  297.08664 291.1001 L  297.71227 291.7118 L  298.34135 292.32353 L  298.97 292.93526 L  299.59866 293.54698 L  300.22472 294.15567 L  300.8538 294.7674 L  301.48245 295.37912 L  302.1085 295.99084 L  302.73717 296.60257 L  303.36581 297.21472  " style="fill:none"/>
 </g>
 </g>
 </g>
 </g>
 </g>
 <g>
 <g stroke="rgb(0.0%,0.0%,0.0%)">
 <g fill="rgb(0.0%,0.0%,0.0%)">
 <g stroke-dasharray="3.0pt,3.0pt" stroke-dashoffset="0.0pt">
 <g stroke-width="1.8pt">
 <path d=" M  303.36581 297.21472 L  303.99187 297.82341 L  304.62096 298.43513 L  305.24962 299.04686 L  305.87567 299.65858 L  306.50432 300.2703 L  307.13298 300.88202 L  307.76207 301.49115 L  308.38768 302.10286 L  309.01677 302.71458 L  309.64543 303.32631 L  310.27148 303.93803 L  310.90013 304.54976 L  311.52922 305.15845 L  312.15485 305.77017 L  312.78394 306.3819 L  313.41258 306.99362 L  314.03864 307.60535 L  314.6673 308.21706 L  315.29639 308.82878 L  315.922 309.43791 L  316.55109 310.04962 L  317.17975 310.66135 L  317.8084 311.27307 L  318.43445 311.8848 L  319.06354 312.49652 L  319.6922 313.10521 L  320.31825 313.71693 L  320.9469 314.32866 L  321.57556 314.94038 L  322.20161 315.55211 L  322.8307 316.16382 L  323.45935 316.77295 L  324.0854 317.38467 L  324.71407 317.99638 L  325.34271 318.60811 L  325.9718 319.21983 L  326.59785 319.83156 L  327.22652 320.44067 L  327.85516 321.0524 L  328.48122 321.66412 L  329.10988 322.27585 L  329.73897 322.88757 L  330.36458 323.4993 L  330.99367 324.11102 L  331.62233 324.71971 L  332.24838 325.33144 L  332.87703 325.94316 L  333.50612 326.55487 L  334.13174 327.1666  " style="fill:none"/>
 </g>
 </g>
 </g>
 </g>
 </g>
 <g>
 <g stroke="rgb(0.0%,0.0%,0.0%)">
 <g fill="rgb(0.0%,0.0%,0.0%)">
 <g stroke-dasharray="3.0pt,3.0pt" stroke-dashoffset="0.0pt">
 <g stroke-width="1.8pt">
 <path d=" M  334.13174 327.1666 L  334.76083 327.77832 L  335.38948 328.38744 L  336.01814 328.99916 L  336.6442 329.61089 L  337.27328 330.22261 L  337.90193 330.83434 L  338.52798 331.44606 L  339.15665 332.05475 L  339.7853 332.66647 L  340.41135 333.2782 L  341.04044 333.88992 L  341.6691 334.50163 L  342.29515 335.11336 L  342.9238 335.72249 L  343.55246 336.3342 L  344.18155 336.94592 L  344.8076 337.55765 L  345.43625 338.16937 L  346.06491 338.7811 L  346.69096 339.39282 L  347.31961 340.00194 L  347.9487 340.61366 L  348.57475 341.22539 L  349.20341 341.83711 L  349.83206 342.44884 L  350.45811 343.06056 L  351.08678 343.66925 L  351.71587 344.28096 L  352.34192 344.89268 L  352.97057 345.50441 L  353.59923 346.11613 L  354.22832 346.72786 L  354.85393 347.33698 L  355.48302 347.9487 L  356.11168 348.56042 L  356.73773 349.17215 L  357.36638 349.78387 L  357.99547 350.3956 L  358.6211 351.00732 L  359.25018 351.61601 L  359.87883 352.22774 L  360.50488 352.83945 L  361.13354 353.45117 L  361.76219 354.0629 L  362.39128 354.67462 L  363.01733 355.28374 L  363.646 355.89546 L  364.27464 356.50719 L  364.9007 357.11891  " style="fill:none"/>
 </g>
 </g>
 </g>
 </g>
 </g>
 <g>
 <g stroke="rgb(0.0%,0.0%,0.0%)">
 <g fill="rgb(0.0%,0.0%,0.0%)">
 <g stroke-dasharray="3.0pt,3.0pt" stroke-dashoffset="0.0pt">
 <g stroke-width="1.8pt">
 <path d=" M  364.9007 357.11891 L  365.52936 357.73064 L  366.15845 358.34236 L  366.7845 358.95148 L  367.41315 359.5632 L  368.04181 360.17493 L  368.66786 360.78665 L  369.29651 361.39838 L  369.9256 362.0101 L  370.55165 362.61877 L  371.18031 363.2305 L  371.80896 363.84222 L  372.43805 364.45395 L  373.06367 365.06567 L  373.69276 365.6774 L  374.32141 366.28912 L  374.94746 366.89824 L  375.57613 367.50996 L  376.20522 368.12169 L  376.83083 368.73341 L  377.45992 369.34514 L  378.08858 369.95686 L  378.71461 370.56554 L  379.34328 371.17726 L  379.97237 371.78899 L  380.60103 372.40071 L  381.22708 373.01244 L  381.85573 373.62416 L  382.48439 374.23328 L  383.11044 374.845 L  383.73909 375.45673 L  384.36818 376.06845 L  384.99423 376.68018 L  385.6229 377.2919 L  386.25154 377.90059 L  386.8776 378.51274 L  387.50626 379.12447 L  388.13535 379.73619 L  388.76138 380.34792 L  389.39005 380.95964 L  390.0187 381.57137 L  390.6478 382.18004 L  391.2734 382.79176 L  391.9025 383.40349 L  392.53116 384.01521 L  393.1572 384.62694 L  393.78586 385.23866 L  394.41495 385.84778 L  395.04056 386.4595 L  395.66965 387.07123  " style="fill:none"/>
 </g>
 </g>
 </g>
 </g>
 </g>
 <g>
 <g stroke="rgb(0.0%,0.0%,0.0%)">
 <g fill="rgb(0.0%,0.0%,0.0%)">
 <g stroke-dasharray="3.0pt,3.0pt" stroke-dashoffset="0.0pt">
 <g stroke-width="1.8pt">
 <path d=" M  395.66965 387.07123 L  396.29831 387.68295 L  396.92436 388.29468 L  397.55301 388.9064 L  398.18211 389.51508 L  398.81076 390.1268 L  399.43681 390.73853 L  400.06548 391.35025 L  400.69412 391.96198 L  401.32018 392.5737 L  401.94926 393.18282 L  402.57793 393.79454 L  403.20396 394.40627 L  403.83263 395.01799 L  404.46129 395.62971 L  405.08733 396.24144 L  405.71599 396.85316 L  406.34508 397.46184 L  406.97113 398.074 L  407.59978 398.68573 L  408.22844 399.29745 L  408.85753 399.90918 L  409.48314 400.52089 L  410.11223 401.12958 L  410.74089 401.7413 L  411.36694 402.35303 L  411.99559 402.96475 L  412.62468 403.57648 L  413.2503 404.1882 L  413.8794 404.79732 L  414.50804 405.40904 L  415.1341 406.02077 L  415.76276 406.63249 L  416.39185 407.24422 L  417.02051 407.85594 L  417.64655 408.46461 L  418.2752 409.07634 L  418.90387 409.68806 L  419.5299 410.29979 L  420.159 410.91151 L  420.78766 411.52324 L  421.41371 412.13496 L  422.04236 412.74408 L  422.67102 413.3558 L  423.29707 413.96753 L  423.92616 414.57925 L  424.55481 415.19098 L  425.18086 415.8027 L  425.80952 416.41138 L  426.43817 417.0231  " style="fill:none"/>
 </g>
 </g>
 </g>
 </g>
 </g>
 <g>
 <g stroke="rgb(0.0%,0.0%,0.0%)">
 <g fill="rgb(0.0%,0.0%,0.0%)">
 <g stroke-dasharray="3.0pt,3.0pt" stroke-dashoffset="0.0pt">
 <g stroke-width="1.8pt">
 <path d=" M  426.43817 417.0231 L  427.06726 417.63527 L  427.69289 418.247 L  428.32198 418.8587 L  428.95062 419.47043 L  429.57668 420.07912 L  430.20534 420.69084 L  430.83443 421.30257 L  431.46004 421.91429 L  432.08913 422.52602 L  432.71779 423.13774 L  433.34384 423.74686 L  433.97249 424.35858 L  434.60158 424.9703 L  435.23024 425.58203 L  435.8563 426.19376 L  436.48494 426.80547 L  437.1136 427.41719 L  437.73965 428.02588 L  438.36874 428.6376 L  438.99739 429.24933 L  439.62344 429.86105 L  440.2521 430.47278 L  440.88075 431.0845 L  441.5068 431.69362 L  442.1359 432.30534 L  442.76456 432.91707 L  443.39061 433.5288 L  444.01926 434.14052 L  444.64792 434.75223 L  445.27701 435.36092 L  445.90306 435.97264 L  446.53171 436.58437 L  447.16037 437.19652 L  447.78642 437.80824 L  448.41507 438.41997 L  449.04416 439.0317 L  449.66978 439.64038 L  450.29887 440.2521 L  450.92752 440.86383 L  451.55357 441.47556 L  452.18224 442.08728 L  452.81133 442.69899 L  453.43997 443.30812 L  454.06602 443.91985 L  454.69469 444.53157 L  455.32378 445.14328 L  455.94939 445.755 L  456.57848 446.36673 L  457.20714 446.97542  " style="fill:none"/>
 </g>
 </g>
 </g>
 </g>
 </g>
 <g>
 <g stroke="rgb(0.0%,0.0%,0.0%)">
 <g fill="rgb(0.0%,0.0%,0.0%)">
 <g stroke-dasharray="3.0pt,3.0pt" stroke-dashoffset="0.0pt">
 <g stroke-width="1.8pt">
 <path d=" M  457.20714 446.97542 L  457.83319 447.58714 L  458.46184 448.19887 L  459.0905 448.8106 L  459.71655 449.42232 L  460.34564 450.03404 L  460.97429 450.64316 L  461.60034 451.25488 L  462.229 451.86661 L  462.85765 452.47833 L  463.48674 453.09004 L  464.1128 453.70177 L  464.74146 454.31349 L  465.3701 454.92218 L  465.99615 455.5339 L  466.62482 456.14563 L  467.2539 456.75778 L  467.87996 457.3695 L  468.5086 457.98123 L  469.13727 458.58992 L  469.76332 459.20164 L  470.39197 459.81337 L  471.02106 460.4251 L  471.64972 461.0368 L  472.27577 461.64853 L  472.90442 462.25766 L  473.53351 462.86937 L  474.15913 463.4811 L  474.78822 464.09282 L  475.41687 464.70454 L  476.04292 465.31627 L  476.67159 465.92496 L  477.30067 466.53668 L  477.92628 467.1484 L  478.55537 467.76013 L  479.18404 468.37186 L  479.81009 468.98357 L  480.43874 469.59529 L  481.0674 470.20442 L  481.69649 470.81615 L  482.32254 471.42786 L  482.95119 472.03958 L  483.57985 472.6513 L  484.2059 473.26303 L  484.83455 473.87172 L  485.46364 474.48344 L  486.08969 475.09517 L  486.71835 475.7069 L  487.347 476.31905 L  487.97305 476.93077  " style="fill:none"/>
 </g>
 </g>
 </g>
 </g>
 </g>
 <g>
 <g stroke="rgb(0.0%,0.0%,0.0%)">
 <g fill="rgb(0.0%,0.0%,0.0%)">
 <g stroke-dasharray="3.0pt,3.0pt" stroke-dashoffset="0.0pt">
 <g stroke-width="1.8pt">
 <path d=" M  487.97305 476.93077 L  488.60172 477.53946 L  489.2308 478.15118 L  489.85945 478.76291 L  490.4855 479.37462 L  491.11417 479.98634 L  491.74326 480.59807 L  492.36887 481.20718 L  492.99796 481.81891 L  493.62662 482.43063 L  494.25267 483.04236 L  494.88132 483.65408 L  495.5104 484.26581 L  496.13603 484.87753 L  496.76512 485.48622 L  497.39377 486.09795 L  498.01982 486.70967 L  498.64848 487.32138 L  499.27757 487.9331 L  499.90622 488.54483 L  500.53227 489.15395 L  501.16093 489.76567 L  501.78958 490.3774 L  502.41563 490.98912 L  503.0443 491.60085 L  503.67339 492.21257 L  504.29942 492.82126 L  504.92809 493.43298 L  505.55675 494.04471 L  506.18279 494.65643 L  506.81145 495.26814 L  507.44054 495.88031 L  508.0692 496.489 L  508.69524 497.10072 L  509.3239 497.71243 L  509.95299 498.32416 L  510.5786 498.93588 L  511.20769 499.5476 L  511.83635 499.83199  " style="fill:none"/>
 </g>
 </g>
 </g>
 </g>
 </g>
 <g>
 <g stroke="rgb(0.0%,0.0%,0.0%)">
 <g fill="rgb(0.0%,0.0%,0.0%)">
 <g stroke-width="0.9pt">
 <path d=" M  56.90549 55.53702 L  512.14938 55.53702  " style="fill:none"/>
 </g>
 </g>
 </g>
 </g>
 <path d=" M  512.14938 24.43637  " style="fill:none"/>
 <g>
 <g stroke="rgb(0.0%,0.0%,0.0%)">
 <g fill="rgb(0.0%,0.0%,0.0%)">
 <g>
 <g stroke="rgb(0.0%,0.0%,0.0%)">
 <g fill="rgb(0.0%,0.0%,0.0%)">
 </g>
 </g>
 </g>
 <g>
 <g transform="matrix(1.51329,0.0,0.0,1.51329,434.20378,19.8965)">
 <g fill="rgb(0.0%,0.0%,0.0%)">
 <text style="stroke:none" transform="scale(1,-1) translate(23.69559,0)" text-anchor="middle"  font-size="12"> 
default, s</text> 
</g>
 </g>
 </g>
 </g>
 </g>
 </g>
 <g>
 <g stroke="rgb(0.0%,0.0%,0.0%)">
 <g fill="rgb(0.0%,0.0%,0.0%)">
 <g stroke-width="0.9pt">
 <path d=" M  72.60364 68.866 L  72.60364 55.53702  " style="fill:none"/>
 </g>
 </g>
 </g>
 </g>
 <g>
 <g stroke="rgb(0.0%,0.0%,0.0%)">
 <g fill="rgb(0.0%,0.0%,0.0%)">
 <g stroke-width="0.9pt">
 <path d=" M  88.30179 62.2013 L  88.30179 55.53702  " style="fill:none"/>
 </g>
 </g>
 </g>
 </g>
 <g>
 <g stroke="rgb(0.0%,0.0%,0.0%)">
 <g fill="rgb(0.0%,0.0%,0.0%)">
 <g stroke-width="0.9pt">
 <path d=" M  103.99951 62.2013 L  103.99951 55.53702  " style="fill:none"/>
 </g>
 </g>
 </g>
 </g>
 <g>
 <g stroke="rgb(0.0%,0.0%,0.0%)">
 <g fill="rgb(0.0%,0.0%,0.0%)">
 <g stroke-width="0.9pt">
 <path d=" M  119.69766 62.2013 L  119.69766 55.53702  " style="fill:none"/>
 </g>
 </g>
 </g>
 </g>
 <g>
 <g stroke="rgb(0.0%,0.0%,0.0%)">
 <g fill="rgb(0.0%,0.0%,0.0%)">
 <g stroke-width="0.9pt">
 <path d=" M  135.39583 62.2013 L  135.39583 55.53702  " style="fill:none"/>
 </g>
 </g>
 </g>
 </g>
 <g>
 <g stroke="rgb(0.0%,0.0%,0.0%)">
 <g fill="rgb(0.0%,0.0%,0.0%)">
 <g stroke-width="0.9pt">
 <path d=" M  151.09354 68.866 L  151.09354 55.53702  " style="fill:none"/>
 </g>
 </g>
 </g>
 </g>
 <g>
 <g stroke="rgb(0.0%,0.0%,0.0%)">
 <g fill="rgb(0.0%,0.0%,0.0%)">
 <g stroke-width="0.9pt">
 <path d=" M  166.79213 62.2013 L  166.79213 55.53702  " style="fill:none"/>
 </g>
 </g>
 </g>
 </g>
 <g>
 <g stroke="rgb(0.0%,0.0%,0.0%)">
 <g fill="rgb(0.0%,0.0%,0.0%)">
 <g stroke-width="0.9pt">
 <path d=" M  182.48985 62.2013 L  182.48985 55.53702  " style="fill:none"/>
 </g>
 </g>
 </g>
 </g>
 <g>
 <g stroke="rgb(0.0%,0.0%,0.0%)">
 <g fill="rgb(0.0%,0.0%,0.0%)">
 <g stroke-width="0.9pt">
 <path d=" M  198.188 62.2013 L  198.188 55.53702  " style="fill:none"/>
 </g>
 </g>
 </g>
 </g>
 <g>
 <g stroke="rgb(0.0%,0.0%,0.0%)">
 <g fill="rgb(0.0%,0.0%,0.0%)">
 <g stroke-width="0.9pt">
 <path d=" M  213.88617 62.2013 L  213.88617 55.53702  " style="fill:none"/>
 </g>
 </g>
 </g>
 </g>
 <g>
 <g stroke="rgb(0.0%,0.0%,0.0%)">
 <g fill="rgb(0.0%,0.0%,0.0%)">
 <g stroke-width="0.9pt">
 <path d=" M  229.58432 68.866 L  229.58432 55.53702  " style="fill:none"/>
 </g>
 </g>
 </g>
 </g>
 <g>
 <g stroke="rgb(0.0%,0.0%,0.0%)">
 <g fill="rgb(0.0%,0.0%,0.0%)">
 <g stroke-width="0.9pt">
 <path d=" M  245.28247 62.2013 L  245.28247 55.53702  " style="fill:none"/>
 </g>
 </g>
 </g>
 </g>
 <g>
 <g stroke="rgb(0.0%,0.0%,0.0%)">
 <g fill="rgb(0.0%,0.0%,0.0%)">
 <g stroke-width="0.9pt">
 <path d=" M  260.9802 62.2013 L  260.9802 55.53702  " style="fill:none"/>
 </g>
 </g>
 </g>
 </g>
 <g>
 <g stroke="rgb(0.0%,0.0%,0.0%)">
 <g fill="rgb(0.0%,0.0%,0.0%)">
 <g stroke-width="0.9pt">
 <path d=" M  276.67834 62.2013 L  276.67834 55.53702  " style="fill:none"/>
 </g>
 </g>
 </g>
 </g>
 <g>
 <g stroke="rgb(0.0%,0.0%,0.0%)">
 <g fill="rgb(0.0%,0.0%,0.0%)">
 <g stroke-width="0.9pt">
 <path d=" M  292.37738 62.2013 L  292.37738 55.53702  " style="fill:none"/>
 </g>
 </g>
 </g>
 </g>
 <g>
 <g stroke="rgb(0.0%,0.0%,0.0%)">
 <g fill="rgb(0.0%,0.0%,0.0%)">
 <g stroke-width="0.9pt">
 <path d=" M  308.07509 68.866 L  308.07509 55.53702  " style="fill:none"/>
 </g>
 </g>
 </g>
 </g>
 <g>
 <g stroke="rgb(0.0%,0.0%,0.0%)">
 <g fill="rgb(0.0%,0.0%,0.0%)">
 <g stroke-width="0.9pt">
 <path d=" M  323.77238 62.2013 L  323.77238 55.53702  " style="fill:none"/>
 </g>
 </g>
 </g>
 </g>
 <g>
 <g stroke="rgb(0.0%,0.0%,0.0%)">
 <g fill="rgb(0.0%,0.0%,0.0%)">
 <g stroke-width="0.9pt">
 <path d=" M  339.46967 62.2013 L  339.46967 55.53702  " style="fill:none"/>
 </g>
 </g>
 </g>
 </g>
 <g>
 <g stroke="rgb(0.0%,0.0%,0.0%)">
 <g fill="rgb(0.0%,0.0%,0.0%)">
 <g stroke-width="0.9pt">
 <path d=" M  355.17 62.2013 L  355.17 55.53702  " style="fill:none"/>
 </g>
 </g>
 </g>
 </g>
 <g>
 <g stroke="rgb(0.0%,0.0%,0.0%)">
 <g fill="rgb(0.0%,0.0%,0.0%)">
 <g stroke-width="0.9pt">
 <path d=" M  370.86728 62.2013 L  370.86728 55.53702  " style="fill:none"/>
 </g>
 </g>
 </g>
 </g>
 <g>
 <g stroke="rgb(0.0%,0.0%,0.0%)">
 <g fill="rgb(0.0%,0.0%,0.0%)">
 <g stroke-width="0.9pt">
 <path d=" M  386.56458 68.866 L  386.56458 55.53702  " style="fill:none"/>
 </g>
 </g>
 </g>
 </g>
 <g>
 <g stroke="rgb(0.0%,0.0%,0.0%)">
 <g fill="rgb(0.0%,0.0%,0.0%)">
 <g stroke-width="0.9pt">
 <path d=" M  402.26186 62.2013 L  402.26186 55.53702  " style="fill:none"/>
 </g>
 </g>
 </g>
 </g>
 <g>
 <g stroke="rgb(0.0%,0.0%,0.0%)">
 <g fill="rgb(0.0%,0.0%,0.0%)">
 <g stroke-width="0.9pt">
 <path d=" M  417.96219 62.2013 L  417.96219 55.53702  " style="fill:none"/>
 </g>
 </g>
 </g>
 </g>
 <g>
 <g stroke="rgb(0.0%,0.0%,0.0%)">
 <g fill="rgb(0.0%,0.0%,0.0%)">
 <g stroke-width="0.9pt">
 <path d=" M  433.65947 62.2013 L  433.65947 55.53702  " style="fill:none"/>
 </g>
 </g>
 </g>
 </g>
 <g>
 <g stroke="rgb(0.0%,0.0%,0.0%)">
 <g fill="rgb(0.0%,0.0%,0.0%)">
 <g stroke-width="0.9pt">
 <path d=" M  449.3572 62.2013 L  449.3572 55.53702  " style="fill:none"/>
 </g>
 </g>
 </g>
 </g>
 <g>
 <g stroke="rgb(0.0%,0.0%,0.0%)">
 <g fill="rgb(0.0%,0.0%,0.0%)">
 <g stroke-width="0.9pt">
 <path d=" M  465.05447 68.866 L  465.05447 55.53702  " style="fill:none"/>
 </g>
 </g>
 </g>
 </g>
 <g>
 <g stroke="rgb(0.0%,0.0%,0.0%)">
 <g fill="rgb(0.0%,0.0%,0.0%)">
 <g stroke-width="0.9pt">
 <path d=" M  72.60364 68.866 L  72.60364 55.53702  " style="fill:none"/>
 </g>
 </g>
 </g>
 </g>
 <g>
 <g stroke="rgb(0.0%,0.0%,0.0%)">
 <g fill="rgb(0.0%,0.0%,0.0%)">
 <g stroke-width="0.9pt">
 <path d=" M  56.90549 62.2013 L  56.90549 55.53702  " style="fill:none"/>
 </g>
 </g>
 </g>
 </g>
 <g>
 <g stroke="rgb(0.0%,0.0%,0.0%)">
 <g fill="rgb(0.0%,0.0%,0.0%)">
 <g stroke-width="0.9pt">
 <path d=" M  465.05447 68.866 L  465.05447 55.53702  " style="fill:none"/>
 </g>
 </g>
 </g>
 </g>
 <g>
 <g stroke="rgb(0.0%,0.0%,0.0%)">
 <g fill="rgb(0.0%,0.0%,0.0%)">
 <g stroke-width="0.9pt">
 <path d=" M  480.7548 62.2013 L  480.7548 55.53702  " style="fill:none"/>
 </g>
 </g>
 </g>
 </g>
 <g>
 <g stroke="rgb(0.0%,0.0%,0.0%)">
 <g fill="rgb(0.0%,0.0%,0.0%)">
 <g stroke-width="0.9pt">
 <path d=" M  496.45209 62.2013 L  496.45209 55.53702  " style="fill:none"/>
 </g>
 </g>
 </g>
 </g>
 <g>
 <g stroke="rgb(0.0%,0.0%,0.0%)">
 <g fill="rgb(0.0%,0.0%,0.0%)">
 <g stroke-width="0.9pt">
 <path d=" M  512.14938 62.2013 L  512.14938 55.53702  " style="fill:none"/>
 </g>
 </g>
 </g>
 </g>
 <path d=" M  72.60364 37.21007  " style="fill:none"/>
 <g>
 <g stroke="rgb(0.0%,0.0%,0.0%)">
 <g fill="rgb(0.0%,0.0%,0.0%)">
 <g>
 <g stroke="rgb(0.0%,0.0%,0.0%)">
 <g fill="rgb(0.0%,0.0%,0.0%)">
 </g>
 </g>
 </g>
 <g>
 <g transform="matrix(1.51329,0.0,0.0,1.51329,63.71315,37.21007)">
 <g fill="rgb(0.0%,0.0%,0.0%)">
 <text style="stroke:none" transform="scale(1,-1) translate(5.87494,0)" text-anchor="middle"  font-size="12"> 
50</text> 
</g>
 </g>
 </g>
 </g>
 </g>
 </g>
 <path d=" M  151.09354 37.21007  " style="fill:none"/>
 <g>
 <g stroke="rgb(0.0%,0.0%,0.0%)">
 <g fill="rgb(0.0%,0.0%,0.0%)">
 <g>
 <g stroke="rgb(0.0%,0.0%,0.0%)">
 <g fill="rgb(0.0%,0.0%,0.0%)">
 </g>
 </g>
 </g>
 <g>
 <g transform="matrix(1.51329,0.0,0.0,1.51329,142.20305,37.21007)">
 <g fill="rgb(0.0%,0.0%,0.0%)">
 <text style="stroke:none" transform="scale(1,-1) translate(5.87494,0)" text-anchor="middle"  font-size="12"> 
55</text> 
</g>
 </g>
 </g>
 </g>
 </g>
 </g>
 <path d=" M  229.58432 37.21007  " style="fill:none"/>
 <g>
 <g stroke="rgb(0.0%,0.0%,0.0%)">
 <g fill="rgb(0.0%,0.0%,0.0%)">
 <g>
 <g stroke="rgb(0.0%,0.0%,0.0%)">
 <g fill="rgb(0.0%,0.0%,0.0%)">
 </g>
 </g>
 </g>
 <g>
 <g transform="matrix(1.51329,0.0,0.0,1.51329,220.69383,37.21007)">
 <g fill="rgb(0.0%,0.0%,0.0%)">
 <text style="stroke:none" transform="scale(1,-1) translate(5.87494,0)" text-anchor="middle"  font-size="12"> 
60</text> 
</g>
 </g>
 </g>
 </g>
 </g>
 </g>
 <path d=" M  308.07509 37.21007  " style="fill:none"/>
 <g>
 <g stroke="rgb(0.0%,0.0%,0.0%)">
 <g fill="rgb(0.0%,0.0%,0.0%)">
 <g>
 <g stroke="rgb(0.0%,0.0%,0.0%)">
 <g fill="rgb(0.0%,0.0%,0.0%)">
 </g>
 </g>
 </g>
 <g>
 <g transform="matrix(1.51329,0.0,0.0,1.51329,299.1846,37.21007)">
 <g fill="rgb(0.0%,0.0%,0.0%)">
 <text style="stroke:none" transform="scale(1,-1) translate(5.87494,0)" text-anchor="middle"  font-size="12"> 
65</text> 
</g>
 </g>
 </g>
 </g>
 </g>
 </g>
 <path d=" M  386.56458 37.21007  " style="fill:none"/>
 <g>
 <g stroke="rgb(0.0%,0.0%,0.0%)">
 <g fill="rgb(0.0%,0.0%,0.0%)">
 <g>
 <g stroke="rgb(0.0%,0.0%,0.0%)">
 <g fill="rgb(0.0%,0.0%,0.0%)">
 </g>
 </g>
 </g>
 <g>
 <g transform="matrix(1.51329,0.0,0.0,1.51329,377.67409,37.21007)">
 <g fill="rgb(0.0%,0.0%,0.0%)">
 <text style="stroke:none" transform="scale(1,-1) translate(5.87494,0)" text-anchor="middle"  font-size="12"> 
70</text> 
</g>
 </g>
 </g>
 </g>
 </g>
 </g>
 <path d=" M  465.05447 37.21007  " style="fill:none"/>
 <g>
 <g stroke="rgb(0.0%,0.0%,0.0%)">
 <g fill="rgb(0.0%,0.0%,0.0%)">
 <g>
 <g stroke="rgb(0.0%,0.0%,0.0%)">
 <g fill="rgb(0.0%,0.0%,0.0%)">
 </g>
 </g>
 </g>
 <g>
 <g transform="matrix(1.51329,0.0,0.0,1.51329,456.16399,37.21007)">
 <g fill="rgb(0.0%,0.0%,0.0%)">
 <text style="stroke:none" transform="scale(1,-1) translate(5.87494,0)" text-anchor="middle"  font-size="12"> 
75</text> 
</g>
 </g>
 </g>
 </g>
 </g>
 </g>
 <g>
 <g stroke="rgb(0.0%,0.0%,0.0%)">
 <g fill="rgb(0.0%,0.0%,0.0%)">
 <g stroke-width="0.9pt">
 <path d=" M  56.90549 55.53702 L  56.90549 499.83199  " style="fill:none"/>
 </g>
 </g>
 </g>
 </g>
 <path d=" M  25.03854 499.83199  " style="fill:none"/>
 <g>
 <g stroke="rgb(0.0%,0.0%,0.0%)">
 <g fill="rgb(0.0%,0.0%,0.0%)">
 <g>
 <g stroke="rgb(0.0%,0.0%,0.0%)">
 <g fill="rgb(0.0%,0.0%,0.0%)">
 </g>
 </g>
 </g>
 <g>
 <g transform="matrix(0.0,1.51329,-1.51329,0.0,29.57841,363.99942)">
 <g fill="rgb(0.0%,0.0%,0.0%)">
 <text style="stroke:none" transform="scale(1,-1) translate(42.82178,0)" text-anchor="middle"  font-size="12"> 
with reseeding, s</text> 
</g>
 </g>
 </g>
 </g>
 </g>
 </g>
 <g>
 <g stroke="rgb(0.0%,0.0%,0.0%)">
 <g fill="rgb(0.0%,0.0%,0.0%)">
 <g stroke-width="0.9pt">
 <path d=" M  70.56267 72.56804 L  56.90549 72.56804  " style="fill:none"/>
 </g>
 </g>
 </g>
 </g>
 <g>
 <g stroke="rgb(0.0%,0.0%,0.0%)">
 <g fill="rgb(0.0%,0.0%,0.0%)">
 <g stroke-width="0.9pt">
 <path d=" M  63.7343 87.85027 L  56.90549 87.85027  " style="fill:none"/>
 </g>
 </g>
 </g>
 </g>
 <g>
 <g stroke="rgb(0.0%,0.0%,0.0%)">
 <g fill="rgb(0.0%,0.0%,0.0%)">
 <g stroke-width="0.9pt">
 <path d=" M  63.7343 103.13206 L  56.90549 103.13206  " style="fill:none"/>
 </g>
 </g>
 </g>
 </g>
 <g>
 <g stroke="rgb(0.0%,0.0%,0.0%)">
 <g fill="rgb(0.0%,0.0%,0.0%)">
 <g stroke-width="0.9pt">
 <path d=" M  63.7343 118.41386 L  56.90549 118.41386  " style="fill:none"/>
 </g>
 </g>
 </g>
 </g>
 <g>
 <g stroke="rgb(0.0%,0.0%,0.0%)">
 <g fill="rgb(0.0%,0.0%,0.0%)">
 <g stroke-width="0.9pt">
 <path d=" M  63.7343 133.6961 L  56.90549 133.6961  " style="fill:none"/>
 </g>
 </g>
 </g>
 </g>
 <g>
 <g stroke="rgb(0.0%,0.0%,0.0%)">
 <g fill="rgb(0.0%,0.0%,0.0%)">
 <g stroke-width="0.9pt">
 <path d=" M  70.56267 148.9779 L  56.90549 148.9779  " style="fill:none"/>
 </g>
 </g>
 </g>
 </g>
 <g>
 <g stroke="rgb(0.0%,0.0%,0.0%)">
 <g fill="rgb(0.0%,0.0%,0.0%)">
 <g stroke-width="0.9pt">
 <path d=" M  63.7343 164.26015 L  56.90549 164.26015  " style="fill:none"/>
 </g>
 </g>
 </g>
 </g>
 <g>
 <g stroke="rgb(0.0%,0.0%,0.0%)">
 <g fill="rgb(0.0%,0.0%,0.0%)">
 <g stroke-width="0.9pt">
 <path d=" M  63.7343 179.54195 L  56.90549 179.54195  " style="fill:none"/>
 </g>
 </g>
 </g>
 </g>
 <g>
 <g stroke="rgb(0.0%,0.0%,0.0%)">
 <g fill="rgb(0.0%,0.0%,0.0%)">
 <g stroke-width="0.9pt">
 <path d=" M  63.7343 194.82375 L  56.90549 194.82375  " style="fill:none"/>
 </g>
 </g>
 </g>
 </g>
 <g>
 <g stroke="rgb(0.0%,0.0%,0.0%)">
 <g fill="rgb(0.0%,0.0%,0.0%)">
 <g stroke-width="0.9pt">
 <path d=" M  63.7343 210.10599 L  56.90549 210.10599  " style="fill:none"/>
 </g>
 </g>
 </g>
 </g>
 <g>
 <g stroke="rgb(0.0%,0.0%,0.0%)">
 <g fill="rgb(0.0%,0.0%,0.0%)">
 <g stroke-width="0.9pt">
 <path d=" M  70.56267 225.38779 L  56.90549 225.38779  " style="fill:none"/>
 </g>
 </g>
 </g>
 </g>
 <g>
 <g stroke="rgb(0.0%,0.0%,0.0%)">
 <g fill="rgb(0.0%,0.0%,0.0%)">
 <g stroke-width="0.9pt">
 <path d=" M  63.7343 240.66959 L  56.90549 240.66959  " style="fill:none"/>
 </g>
 </g>
 </g>
 </g>
 <g>
 <g stroke="rgb(0.0%,0.0%,0.0%)">
 <g fill="rgb(0.0%,0.0%,0.0%)">
 <g stroke-width="0.9pt">
 <path d=" M  63.7343 255.95181 L  56.90549 255.95181  " style="fill:none"/>
 </g>
 </g>
 </g>
 </g>
 <g>
 <g stroke="rgb(0.0%,0.0%,0.0%)">
 <g fill="rgb(0.0%,0.0%,0.0%)">
 <g stroke-width="0.9pt">
 <path d=" M  63.7343 271.23405 L  56.90549 271.23405  " style="fill:none"/>
 </g>
 </g>
 </g>
 </g>
 <g>
 <g stroke="rgb(0.0%,0.0%,0.0%)">
 <g fill="rgb(0.0%,0.0%,0.0%)">
 <g stroke-width="0.9pt">
 <path d=" M  63.7343 286.5163 L  56.90549 286.5163  " style="fill:none"/>
 </g>
 </g>
 </g>
 </g>
 <g>
 <g stroke="rgb(0.0%,0.0%,0.0%)">
 <g fill="rgb(0.0%,0.0%,0.0%)">
 <g stroke-width="0.9pt">
 <path d=" M  70.56267 301.7981 L  56.90549 301.7981  " style="fill:none"/>
 </g>
 </g>
 </g>
 </g>
 <g>
 <g stroke="rgb(0.0%,0.0%,0.0%)">
 <g fill="rgb(0.0%,0.0%,0.0%)">
 <g stroke-width="0.9pt">
 <path d=" M  63.7343 317.08032 L  56.90549 317.08032  " style="fill:none"/>
 </g>
 </g>
 </g>
 </g>
 <g>
 <g stroke="rgb(0.0%,0.0%,0.0%)">
 <g fill="rgb(0.0%,0.0%,0.0%)">
 <g stroke-width="0.9pt">
 <path d=" M  63.7343 332.36212 L  56.90549 332.36212  " style="fill:none"/>
 </g>
 </g>
 </g>
 </g>
 <g>
 <g stroke="rgb(0.0%,0.0%,0.0%)">
 <g fill="rgb(0.0%,0.0%,0.0%)">
 <g stroke-width="0.9pt">
 <path d=" M  63.7343 347.64436 L  56.90549 347.64436  " style="fill:none"/>
 </g>
 </g>
 </g>
 </g>
 <g>
 <g stroke="rgb(0.0%,0.0%,0.0%)">
 <g fill="rgb(0.0%,0.0%,0.0%)">
 <g stroke-width="0.9pt">
 <path d=" M  63.7343 362.92616 L  56.90549 362.92616  " style="fill:none"/>
 </g>
 </g>
 </g>
 </g>
 <g>
 <g stroke="rgb(0.0%,0.0%,0.0%)">
 <g fill="rgb(0.0%,0.0%,0.0%)">
 <g stroke-width="0.9pt">
 <path d=" M  70.56267 378.20796 L  56.90549 378.20796  " style="fill:none"/>
 </g>
 </g>
 </g>
 </g>
 <g>
 <g stroke="rgb(0.0%,0.0%,0.0%)">
 <g fill="rgb(0.0%,0.0%,0.0%)">
 <g stroke-width="0.9pt">
 <path d=" M  63.7343 393.4902 L  56.90549 393.4902  " style="fill:none"/>
 </g>
 </g>
 </g>
 </g>
 <g>
 <g stroke="rgb(0.0%,0.0%,0.0%)">
 <g fill="rgb(0.0%,0.0%,0.0%)">
 <g stroke-width="0.9pt">
 <path d=" M  63.7343 408.772 L  56.90549 408.772  " style="fill:none"/>
 </g>
 </g>
 </g>
 </g>
 <g>
 <g stroke="rgb(0.0%,0.0%,0.0%)">
 <g fill="rgb(0.0%,0.0%,0.0%)">
 <g stroke-width="0.9pt">
 <path d=" M  63.7343 424.0538 L  56.90549 424.0538  " style="fill:none"/>
 </g>
 </g>
 </g>
 </g>
 <g>
 <g stroke="rgb(0.0%,0.0%,0.0%)">
 <g fill="rgb(0.0%,0.0%,0.0%)">
 <g stroke-width="0.9pt">
 <path d=" M  63.7343 439.33604 L  56.90549 439.33604  " style="fill:none"/>
 </g>
 </g>
 </g>
 </g>
 <g>
 <g stroke="rgb(0.0%,0.0%,0.0%)">
 <g fill="rgb(0.0%,0.0%,0.0%)">
 <g stroke-width="0.9pt">
 <path d=" M  70.56267 454.61784 L  56.90549 454.61784  " style="fill:none"/>
 </g>
 </g>
 </g>
 </g>
 <g>
 <g stroke="rgb(0.0%,0.0%,0.0%)">
 <g fill="rgb(0.0%,0.0%,0.0%)">
 <g stroke-width="0.9pt">
 <path d=" M  70.56267 72.56804 L  56.90549 72.56804  " style="fill:none"/>
 </g>
 </g>
 </g>
 </g>
 <g>
 <g stroke="rgb(0.0%,0.0%,0.0%)">
 <g fill="rgb(0.0%,0.0%,0.0%)">
 <g stroke-width="0.9pt">
 <path d=" M  63.7343 57.28624 L  56.90549 57.28624  " style="fill:none"/>
 </g>
 </g>
 </g>
 </g>
 <g>
 <g stroke="rgb(0.0%,0.0%,0.0%)">
 <g fill="rgb(0.0%,0.0%,0.0%)">
 <g stroke-width="0.9pt">
 <path d=" M  70.56267 454.61784 L  56.90549 454.61784  " style="fill:none"/>
 </g>
 </g>
 </g>
 </g>
 <g>
 <g stroke="rgb(0.0%,0.0%,0.0%)">
 <g fill="rgb(0.0%,0.0%,0.0%)">
 <g stroke-width="0.9pt">
 <path d=" M  63.7343 469.90007 L  56.90549 469.90007  " style="fill:none"/>
 </g>
 </g>
 </g>
 </g>
 <g>
 <g stroke="rgb(0.0%,0.0%,0.0%)">
 <g fill="rgb(0.0%,0.0%,0.0%)">
 <g stroke-width="0.9pt">
 <path d=" M  63.7343 485.18187 L  56.90549 485.18187  " style="fill:none"/>
 </g>
 </g>
 </g>
 </g>
 <path d=" M  54.06003 72.56804  " style="fill:none"/>
 <g>
 <g stroke="rgb(0.0%,0.0%,0.0%)">
 <g fill="rgb(0.0%,0.0%,0.0%)">
 <g>
 <g stroke="rgb(0.0%,0.0%,0.0%)">
 <g fill="rgb(0.0%,0.0%,0.0%)">
 </g>
 </g>
 </g>
 <g>
 <g transform="matrix(1.51329,0.0,0.0,1.51329,30.05006,66.71667)">
 <g fill="rgb(0.0%,0.0%,0.0%)">
 <text style="stroke:none" transform="scale(1,-1) translate(5.87494,0)" text-anchor="middle"  font-size="12"> 
50</text> 
</g>
 </g>
 </g>
 </g>
 </g>
 </g>
 <path d=" M  54.06003 148.9779  " style="fill:none"/>
 <g>
 <g stroke="rgb(0.0%,0.0%,0.0%)">
 <g fill="rgb(0.0%,0.0%,0.0%)">
 <g>
 <g stroke="rgb(0.0%,0.0%,0.0%)">
 <g fill="rgb(0.0%,0.0%,0.0%)">
 </g>
 </g>
 </g>
 <g>
 <g transform="matrix(1.51329,0.0,0.0,1.51329,30.05006,143.12654)">
 <g fill="rgb(0.0%,0.0%,0.0%)">
 <text style="stroke:none" transform="scale(1,-1) translate(5.87494,0)" text-anchor="middle"  font-size="12"> 
55</text> 
</g>
 </g>
 </g>
 </g>
 </g>
 </g>
 <path d=" M  54.06003 225.38779  " style="fill:none"/>
 <g>
 <g stroke="rgb(0.0%,0.0%,0.0%)">
 <g fill="rgb(0.0%,0.0%,0.0%)">
 <g>
 <g stroke="rgb(0.0%,0.0%,0.0%)">
 <g fill="rgb(0.0%,0.0%,0.0%)">
 </g>
 </g>
 </g>
 <g>
 <g transform="matrix(1.51329,0.0,0.0,1.51329,30.05006,219.53642)">
 <g fill="rgb(0.0%,0.0%,0.0%)">
 <text style="stroke:none" transform="scale(1,-1) translate(5.87494,0)" text-anchor="middle"  font-size="12"> 
60</text> 
</g>
 </g>
 </g>
 </g>
 </g>
 </g>
 <path d=" M  54.06003 301.7981  " style="fill:none"/>
 <g>
 <g stroke="rgb(0.0%,0.0%,0.0%)">
 <g fill="rgb(0.0%,0.0%,0.0%)">
 <g>
 <g stroke="rgb(0.0%,0.0%,0.0%)">
 <g fill="rgb(0.0%,0.0%,0.0%)">
 </g>
 </g>
 </g>
 <g>
 <g transform="matrix(1.51329,0.0,0.0,1.51329,30.05006,295.94673)">
 <g fill="rgb(0.0%,0.0%,0.0%)">
 <text style="stroke:none" transform="scale(1,-1) translate(5.87494,0)" text-anchor="middle"  font-size="12"> 
65</text> 
</g>
 </g>
 </g>
 </g>
 </g>
 </g>
 <path d=" M  54.06003 378.20796  " style="fill:none"/>
 <g>
 <g stroke="rgb(0.0%,0.0%,0.0%)">
 <g fill="rgb(0.0%,0.0%,0.0%)">
 <g>
 <g stroke="rgb(0.0%,0.0%,0.0%)">
 <g fill="rgb(0.0%,0.0%,0.0%)">
 </g>
 </g>
 </g>
 <g>
 <g transform="matrix(1.51329,0.0,0.0,1.51329,30.05006,372.3566)">
 <g fill="rgb(0.0%,0.0%,0.0%)">
 <text style="stroke:none" transform="scale(1,-1) translate(5.87494,0)" text-anchor="middle"  font-size="12"> 
70</text> 
</g>
 </g>
 </g>
 </g>
 </g>
 </g>
 <path d=" M  54.06003 454.61784  " style="fill:none"/>
 <g>
 <g stroke="rgb(0.0%,0.0%,0.0%)">
 <g fill="rgb(0.0%,0.0%,0.0%)">
 <g>
 <g stroke="rgb(0.0%,0.0%,0.0%)">
 <g fill="rgb(0.0%,0.0%,0.0%)">
 </g>
 </g>
 </g>
 <g>
 <g transform="matrix(1.51329,0.0,0.0,1.51329,30.05006,448.76648)">
 <g fill="rgb(0.0%,0.0%,0.0%)">
 <text style="stroke:none" transform="scale(1,-1) translate(5.87494,0)" text-anchor="middle"  font-size="12"> 
75</text> 
</g>
 </g>
 </g>
 </g>
 </g>
 </g>
 <g>
 <g stroke="rgb(100.0%,0.0%,0.0%)">
 <g fill="rgb(100.0%,0.0%,0.0%)">
 <g stroke-width="2.7pt">
 <path d=" M  76.46544 93.10701 L  73.29437 93.10701  " style="fill:none"/>
 </g>
 </g>
 </g>
 </g>
 <g>
 <g stroke="rgb(100.0%,0.0%,0.0%)">
 <g fill="rgb(100.0%,0.0%,0.0%)">
 <g stroke-width="2.7pt">
 <path d=" M  73.29437 91.96649 L  73.29437 94.24753  " style="fill:none"/>
 </g>
 </g>
 </g>
 </g>
 <g>
 <g stroke="rgb(100.0%,0.0%,0.0%)">
 <g fill="rgb(100.0%,0.0%,0.0%)">
 <g stroke-width="2.7pt">
 <path d=" M  76.46544 93.10701 L  79.6365 93.10701  " style="fill:none"/>
 </g>
 </g>
 </g>
 </g>
 <g>
 <g stroke="rgb(100.0%,0.0%,0.0%)">
 <g fill="rgb(100.0%,0.0%,0.0%)">
 <g stroke-width="2.7pt">
 <path d=" M  79.6365 91.96649 L  79.6365 94.24753  " style="fill:none"/>
 </g>
 </g>
 </g>
 </g>
 <g>
 <g stroke="rgb(100.0%,0.0%,0.0%)">
 <g fill="rgb(100.0%,0.0%,0.0%)">
 <g stroke-width="2.7pt">
 <path d=" M  76.46544 93.10701 L  76.46544 97.56924  " style="fill:none"/>
 </g>
 </g>
 </g>
 </g>
 <g>
 <g stroke="rgb(100.0%,0.0%,0.0%)">
 <g fill="rgb(100.0%,0.0%,0.0%)">
 <g stroke-width="2.7pt">
 <path d=" M  75.32492 97.56924 L  77.60553 97.56924  " style="fill:none"/>
 </g>
 </g>
 </g>
 </g>
 <g>
 <g stroke="rgb(100.0%,0.0%,0.0%)">
 <g fill="rgb(100.0%,0.0%,0.0%)">
 <g stroke-width="2.7pt">
 <path d=" M  76.46544 93.10701 L  76.46544 88.64478  " style="fill:none"/>
 </g>
 </g>
 </g>
 </g>
 <g>
 <g stroke="rgb(100.0%,0.0%,0.0%)">
 <g fill="rgb(100.0%,0.0%,0.0%)">
 <g stroke-width="2.7pt">
 <path d=" M  75.32492 88.64478 L  77.60553 88.64478  " style="fill:none"/>
 </g>
 </g>
 </g>
 </g>
 <path d=" M  76.46544 93.10701  " style="fill:none"/>
 <g>
 <g stroke="rgb(100.0%,0.0%,0.0%)">
 <g fill="rgb(100.0%,0.0%,0.0%)">
 <g fill="rgb(100.0%,0.0%,0.0%)">
 <path d=" M  77.46544 93.10701 C  77.46544 93.6593 77.01773 94.10701 76.46544 94.10701 C  75.91315 94.10701 75.46544 93.6593 75.46544 93.10701 C  75.46544 92.55472 75.91315 92.10701 76.46544 92.10701 C  77.01773 92.10701 77.46544 92.55472 77.46544 93.10701 Z M  76.46544 93.10701  " />
 </g>
 </g>
 </g>
 </g>
 <g>
 <g stroke="rgb(0.0%,100.0%,0.0%)">
 <g fill="rgb(0.0%,100.0%,0.0%)">
 <g stroke-width="2.7pt">
 <path d=" M  137.48367 156.20657 L  133.71608 156.20657  " style="fill:none"/>
 </g>
 </g>
 </g>
 </g>
 <g>
 <g stroke="rgb(0.0%,100.0%,0.0%)">
 <g fill="rgb(0.0%,100.0%,0.0%)">
 <g stroke-width="2.7pt">
 <path d=" M  133.71608 155.06606 L  133.71608 157.34666  " style="fill:none"/>
 </g>
 </g>
 </g>
 </g>
 <g>
 <g stroke="rgb(0.0%,100.0%,0.0%)">
 <g fill="rgb(0.0%,100.0%,0.0%)">
 <g stroke-width="2.7pt">
 <path d=" M  137.48367 156.20657 L  141.25127 156.20657  " style="fill:none"/>
 </g>
 </g>
 </g>
 </g>
 <g>
 <g stroke="rgb(0.0%,100.0%,0.0%)">
 <g fill="rgb(0.0%,100.0%,0.0%)">
 <g stroke-width="2.7pt">
 <path d=" M  141.25127 155.06606 L  141.25127 157.34666  " style="fill:none"/>
 </g>
 </g>
 </g>
 </g>
 <g>
 <g stroke="rgb(0.0%,100.0%,0.0%)">
 <g fill="rgb(0.0%,100.0%,0.0%)">
 <g stroke-width="2.7pt">
 <path d=" M  137.48367 156.20657 L  137.48367 159.29341  " style="fill:none"/>
 </g>
 </g>
 </g>
 </g>
 <g>
 <g stroke="rgb(0.0%,100.0%,0.0%)">
 <g fill="rgb(0.0%,100.0%,0.0%)">
 <g stroke-width="2.7pt">
 <path d=" M  136.34314 159.29341 L  138.62419 159.29341  " style="fill:none"/>
 </g>
 </g>
 </g>
 </g>
 <g>
 <g stroke="rgb(0.0%,100.0%,0.0%)">
 <g fill="rgb(0.0%,100.0%,0.0%)">
 <g stroke-width="2.7pt">
 <path d=" M  137.48367 156.20657 L  137.48367 153.11931  " style="fill:none"/>
 </g>
 </g>
 </g>
 </g>
 <g>
 <g stroke="rgb(0.0%,100.0%,0.0%)">
 <g fill="rgb(0.0%,100.0%,0.0%)">
 <g stroke-width="2.7pt">
 <path d=" M  136.34314 153.11931 L  138.62419 153.11931  " style="fill:none"/>
 </g>
 </g>
 </g>
 </g>
 <path d=" M  137.48367 156.20657  " style="fill:none"/>
 <g>
 <g stroke="rgb(0.0%,100.0%,0.0%)">
 <g fill="rgb(0.0%,100.0%,0.0%)">
 <g fill="rgb(0.0%,100.0%,0.0%)">
 <path d=" M  138.48367 156.20657 C  138.48367 156.75887 138.03596 157.20657 137.48367 157.20657 C  136.93138 157.20657 136.48367 156.75887 136.48367 156.20657 C  136.48367 155.65428 136.93138 155.20657 137.48367 155.20657 C  138.03596 155.20657 138.48367 155.65428 138.48367 156.20657 Z M  137.48367 156.20657  " />
 </g>
 </g>
 </g>
 </g>
 <g>
 <g stroke="rgb(0.0%,0.0%,100.0%)">
 <g fill="rgb(0.0%,0.0%,100.0%)">
 <g stroke-width="2.7pt">
 <path d=" M  177.2939 182.568 L  171.43845 182.568  " style="fill:none"/>
 </g>
 </g>
 </g>
 </g>
 <g>
 <g stroke="rgb(0.0%,0.0%,100.0%)">
 <g fill="rgb(0.0%,0.0%,100.0%)">
 <g stroke-width="2.7pt">
 <path d=" M  171.43845 181.42747 L  171.43845 183.70808  " style="fill:none"/>
 </g>
 </g>
 </g>
 </g>
 <g>
 <g stroke="rgb(0.0%,0.0%,100.0%)">
 <g fill="rgb(0.0%,0.0%,100.0%)">
 <g stroke-width="2.7pt">
 <path d=" M  177.2939 182.568 L  183.14934 182.568  " style="fill:none"/>
 </g>
 </g>
 </g>
 </g>
 <g>
 <g stroke="rgb(0.0%,0.0%,100.0%)">
 <g fill="rgb(0.0%,0.0%,100.0%)">
 <g stroke-width="2.7pt">
 <path d=" M  183.14934 181.42747 L  183.14934 183.70808  " style="fill:none"/>
 </g>
 </g>
 </g>
 </g>
 <g>
 <g stroke="rgb(0.0%,0.0%,100.0%)">
 <g fill="rgb(0.0%,0.0%,100.0%)">
 <g stroke-width="2.7pt">
 <path d=" M  177.2939 182.568 L  177.2939 187.30505  " style="fill:none"/>
 </g>
 </g>
 </g>
 </g>
 <g>
 <g stroke="rgb(0.0%,0.0%,100.0%)">
 <g fill="rgb(0.0%,0.0%,100.0%)">
 <g stroke-width="2.7pt">
 <path d=" M  176.15337 187.30505 L  178.43442 187.30505  " style="fill:none"/>
 </g>
 </g>
 </g>
 </g>
 <g>
 <g stroke="rgb(0.0%,0.0%,100.0%)">
 <g fill="rgb(0.0%,0.0%,100.0%)">
 <g stroke-width="2.7pt">
 <path d=" M  177.2939 182.568 L  177.2939 177.8305  " style="fill:none"/>
 </g>
 </g>
 </g>
 </g>
 <g>
 <g stroke="rgb(0.0%,0.0%,100.0%)">
 <g fill="rgb(0.0%,0.0%,100.0%)">
 <g stroke-width="2.7pt">
 <path d=" M  176.15337 177.8305 L  178.43442 177.8305  " style="fill:none"/>
 </g>
 </g>
 </g>
 </g>
 <path d=" M  177.2939 182.568  " style="fill:none"/>
 <g>
 <g stroke="rgb(0.0%,0.0%,100.0%)">
 <g fill="rgb(0.0%,0.0%,100.0%)">
 <g fill="rgb(0.0%,0.0%,100.0%)">
 <path d=" M  178.2939 182.568 C  178.2939 183.12029 177.84619 183.568 177.2939 183.568 C  176.74161 183.568 176.2939 183.12029 176.2939 182.568 C  176.2939 182.0157 176.74161 181.568 177.2939 181.568 C  177.84619 181.568 178.2939 182.0157 178.2939 182.568 Z M  177.2939 182.568  " />
 </g>
 </g>
 </g>
 </g>
 <g>
 <g stroke="rgb(100.0%,100.0%,0.0%)">
 <g fill="rgb(100.0%,100.0%,0.0%)">
 <g stroke-width="2.7pt">
 <path d=" M  173.71472 182.61359 L  170.04134 182.61359  " style="fill:none"/>
 </g>
 </g>
 </g>
 </g>
 <g>
 <g stroke="rgb(100.0%,100.0%,0.0%)">
 <g fill="rgb(100.0%,100.0%,0.0%)">
 <g stroke-width="2.7pt">
 <path d=" M  170.04134 181.4735 L  170.04134 183.7541  " style="fill:none"/>
 </g>
 </g>
 </g>
 </g>
 <g>
 <g stroke="rgb(100.0%,100.0%,0.0%)">
 <g fill="rgb(100.0%,100.0%,0.0%)">
 <g stroke-width="2.7pt">
 <path d=" M  173.71472 182.61359 L  177.3881 182.61359  " style="fill:none"/>
 </g>
 </g>
 </g>
 </g>
 <g>
 <g stroke="rgb(100.0%,100.0%,0.0%)">
 <g fill="rgb(100.0%,100.0%,0.0%)">
 <g stroke-width="2.7pt">
 <path d=" M  177.3881 181.4735 L  177.3881 183.7541  " style="fill:none"/>
 </g>
 </g>
 </g>
 </g>
 <g>
 <g stroke="rgb(100.0%,100.0%,0.0%)">
 <g fill="rgb(100.0%,100.0%,0.0%)">
 <g stroke-width="2.7pt">
 <path d=" M  173.71472 182.61359 L  173.71472 186.20491  " style="fill:none"/>
 </g>
 </g>
 </g>
 </g>
 <g>
 <g stroke="rgb(100.0%,100.0%,0.0%)">
 <g fill="rgb(100.0%,100.0%,0.0%)">
 <g stroke-width="2.7pt">
 <path d=" M  172.57463 186.20491 L  174.85526 186.20491  " style="fill:none"/>
 </g>
 </g>
 </g>
 </g>
 <g>
 <g stroke="rgb(100.0%,100.0%,0.0%)">
 <g fill="rgb(100.0%,100.0%,0.0%)">
 <g stroke-width="2.7pt">
 <path d=" M  173.71472 182.61359 L  173.71472 179.02226  " style="fill:none"/>
 </g>
 </g>
 </g>
 </g>
 <g>
 <g stroke="rgb(100.0%,100.0%,0.0%)">
 <g fill="rgb(100.0%,100.0%,0.0%)">
 <g stroke-width="2.7pt">
 <path d=" M  172.57463 179.02226 L  174.85526 179.02226  " style="fill:none"/>
 </g>
 </g>
 </g>
 </g>
 <path d=" M  173.71472 182.61359  " style="fill:none"/>
 <g>
 <g stroke="rgb(100.0%,100.0%,0.0%)">
 <g fill="rgb(100.0%,100.0%,0.0%)">
 <g fill="rgb(100.0%,100.0%,0.0%)">
 <path d=" M  174.71472 182.61359 C  174.71472 183.16588 174.26701 183.61359 173.71472 183.61359 C  173.16243 183.61359 172.71472 183.16588 172.71472 182.61359 C  172.71472 182.0613 173.16243 181.61359 173.71472 181.61359 C  174.26701 181.61359 174.71472 182.0613 174.71472 182.61359 Z M  173.71472 182.61359  " />
 </g>
 </g>
 </g>
 </g>
 <g>
 <g stroke="rgb(100.0%,0.0%,100.0%)">
 <g fill="rgb(100.0%,0.0%,100.0%)">
 <g stroke-width="2.7pt">
 <path d=" M  78.08223 147.66373 L  73.87483 147.66373  " style="fill:none"/>
 </g>
 </g>
 </g>
 </g>
 <g>
 <g stroke="rgb(100.0%,0.0%,100.0%)">
 <g fill="rgb(100.0%,0.0%,100.0%)">
 <g stroke-width="2.7pt">
 <path d=" M  73.87483 146.5232 L  73.87483 148.80424  " style="fill:none"/>
 </g>
 </g>
 </g>
 </g>
 <g>
 <g stroke="rgb(100.0%,0.0%,100.0%)">
 <g fill="rgb(100.0%,0.0%,100.0%)">
 <g stroke-width="2.7pt">
 <path d=" M  78.08223 147.66373 L  82.28918 147.66373  " style="fill:none"/>
 </g>
 </g>
 </g>
 </g>
 <g>
 <g stroke="rgb(100.0%,0.0%,100.0%)">
 <g fill="rgb(100.0%,0.0%,100.0%)">
 <g stroke-width="2.7pt">
 <path d=" M  82.28918 146.5232 L  82.28918 148.80424  " style="fill:none"/>
 </g>
 </g>
 </g>
 </g>
 <g>
 <g stroke="rgb(100.0%,0.0%,100.0%)">
 <g fill="rgb(100.0%,0.0%,100.0%)">
 <g stroke-width="2.7pt">
 <path d=" M  78.08223 147.66373 L  78.08223 153.25693  " style="fill:none"/>
 </g>
 </g>
 </g>
 </g>
 <g>
 <g stroke="rgb(100.0%,0.0%,100.0%)">
 <g fill="rgb(100.0%,0.0%,100.0%)">
 <g stroke-width="2.7pt">
 <path d=" M  76.94171 153.25693 L  79.22275 153.25693  " style="fill:none"/>
 </g>
 </g>
 </g>
 </g>
 <g>
 <g stroke="rgb(100.0%,0.0%,100.0%)">
 <g fill="rgb(100.0%,0.0%,100.0%)">
 <g stroke-width="2.7pt">
 <path d=" M  78.08223 147.66373 L  78.08223 142.07051  " style="fill:none"/>
 </g>
 </g>
 </g>
 </g>
 <g>
 <g stroke="rgb(100.0%,0.0%,100.0%)">
 <g fill="rgb(100.0%,0.0%,100.0%)">
 <g stroke-width="2.7pt">
 <path d=" M  76.94171 142.07051 L  79.22275 142.07051  " style="fill:none"/>
 </g>
 </g>
 </g>
 </g>
 <path d=" M  78.08223 147.66373  " style="fill:none"/>
 <g>
 <g stroke="rgb(100.0%,0.0%,100.0%)">
 <g fill="rgb(100.0%,0.0%,100.0%)">
 <g fill="rgb(100.0%,0.0%,100.0%)">
 <path d=" M  79.08223 147.66373 C  79.08223 148.21602 78.63452 148.66373 78.08223 148.66373 C  77.52994 148.66373 77.08223 148.21602 77.08223 147.66373 C  77.08223 147.11143 77.52994 146.66373 78.08223 146.66373 C  78.63452 146.66373 79.08223 147.11143 79.08223 147.66373 Z M  78.08223 147.66373  " />
 </g>
 </g>
 </g>
 </g>
 <g>
 <g stroke="rgb(0.0%,100.0%,100.0%)">
 <g fill="rgb(0.0%,100.0%,100.0%)">
 <g stroke-width="2.7pt">
 <path d=" M  468.16432 464.53653 L  460.33131 464.53653  " style="fill:none"/>
 </g>
 </g>
 </g>
 </g>
 <g>
 <g stroke="rgb(0.0%,100.0%,100.0%)">
 <g fill="rgb(0.0%,100.0%,100.0%)">
 <g stroke-width="2.7pt">
 <path d=" M  460.33131 463.39557 L  460.33131 465.67749  " style="fill:none"/>
 </g>
 </g>
 </g>
 </g>
 <g>
 <g stroke="rgb(0.0%,100.0%,100.0%)">
 <g fill="rgb(0.0%,100.0%,100.0%)">
 <g stroke-width="2.7pt">
 <path d=" M  468.16432 464.53653 L  475.99734 464.53653  " style="fill:none"/>
 </g>
 </g>
 </g>
 </g>
 <g>
 <g stroke="rgb(0.0%,100.0%,100.0%)">
 <g fill="rgb(0.0%,100.0%,100.0%)">
 <g stroke-width="2.7pt">
 <path d=" M  475.99734 463.39557 L  475.99734 465.67749  " style="fill:none"/>
 </g>
 </g>
 </g>
 </g>
 <g>
 <g stroke="rgb(0.0%,100.0%,100.0%)">
 <g fill="rgb(0.0%,100.0%,100.0%)">
 <g stroke-width="2.7pt">
 <path d=" M  468.16432 464.53653 L  468.16432 475.98302  " style="fill:none"/>
 </g>
 </g>
 </g>
 </g>
 <g>
 <g stroke="rgb(0.0%,100.0%,100.0%)">
 <g fill="rgb(0.0%,100.0%,100.0%)">
 <g stroke-width="2.7pt">
 <path d=" M  467.02336 475.98302 L  469.30225 475.98302  " style="fill:none"/>
 </g>
 </g>
 </g>
 </g>
 <g>
 <g stroke="rgb(0.0%,100.0%,100.0%)">
 <g fill="rgb(0.0%,100.0%,100.0%)">
 <g stroke-width="2.7pt">
 <path d=" M  468.16432 464.53653 L  468.16432 453.09004  " style="fill:none"/>
 </g>
 </g>
 </g>
 </g>
 <g>
 <g stroke="rgb(0.0%,100.0%,100.0%)">
 <g fill="rgb(0.0%,100.0%,100.0%)">
 <g stroke-width="2.7pt">
 <path d=" M  467.02336 453.09004 L  469.30225 453.09004  " style="fill:none"/>
 </g>
 </g>
 </g>
 </g>
 <path d=" M  468.16432 464.53653  " style="fill:none"/>
 <g>
 <g stroke="rgb(0.0%,100.0%,100.0%)">
 <g fill="rgb(0.0%,100.0%,100.0%)">
 <g fill="rgb(0.0%,100.0%,100.0%)">
 <path d=" M  469.16432 464.53653 C  469.16432 465.08882 468.71661 465.53653 468.16432 465.53653 C  467.61203 465.53653 467.16432 465.08882 467.16432 464.53653 C  467.16432 463.98424 467.61203 463.53653 468.16432 463.53653 C  468.71661 463.53653 469.16432 463.98424 469.16432 464.53653 Z M  468.16432 464.53653  " />
 </g>
 </g>
 </g>
 </g>
 <g>
 <g stroke="rgb(35.00061%,83.00018%,33.00018%)">
 <g fill="rgb(35.00061%,83.00018%,33.00018%)">
 <g stroke-width="2.7pt">
 <path d=" M  465.82553 465.28502 L  460.31438 465.28502  " style="fill:none"/>
 </g>
 </g>
 </g>
 </g>
 <g>
 <g stroke="rgb(35.00061%,83.00018%,33.00018%)">
 <g fill="rgb(35.00061%,83.00018%,33.00018%)">
 <g stroke-width="2.7pt">
 <path d=" M  460.31438 464.14406 L  460.31438 466.42596  " style="fill:none"/>
 </g>
 </g>
 </g>
 </g>
 <g>
 <g stroke="rgb(35.00061%,83.00018%,33.00018%)">
 <g fill="rgb(35.00061%,83.00018%,33.00018%)">
 <g stroke-width="2.7pt">
 <path d=" M  465.82553 465.28502 L  471.33409 465.28502  " style="fill:none"/>
 </g>
 </g>
 </g>
 </g>
 <g>
 <g stroke="rgb(35.00061%,83.00018%,33.00018%)">
 <g fill="rgb(35.00061%,83.00018%,33.00018%)">
 <g stroke-width="2.7pt">
 <path d=" M  471.33409 464.14406 L  471.33409 466.42596  " style="fill:none"/>
 </g>
 </g>
 </g>
 </g>
 <g>
 <g stroke="rgb(35.00061%,83.00018%,33.00018%)">
 <g fill="rgb(35.00061%,83.00018%,33.00018%)">
 <g stroke-width="2.7pt">
 <path d=" M  465.82553 465.28502 L  465.82553 470.20442  " style="fill:none"/>
 </g>
 </g>
 </g>
 </g>
 <g>
 <g stroke="rgb(35.00061%,83.00018%,33.00018%)">
 <g fill="rgb(35.00061%,83.00018%,33.00018%)">
 <g stroke-width="2.7pt">
 <path d=" M  464.68457 470.20442 L  466.96346 470.20442  " style="fill:none"/>
 </g>
 </g>
 </g>
 </g>
 <g>
 <g stroke="rgb(35.00061%,83.00018%,33.00018%)">
 <g fill="rgb(35.00061%,83.00018%,33.00018%)">
 <g stroke-width="2.7pt">
 <path d=" M  465.82553 465.28502 L  465.82553 460.36256  " style="fill:none"/>
 </g>
 </g>
 </g>
 </g>
 <g>
 <g stroke="rgb(35.00061%,83.00018%,33.00018%)">
 <g fill="rgb(35.00061%,83.00018%,33.00018%)">
 <g stroke-width="2.7pt">
 <path d=" M  464.68457 460.36256 L  466.96346 460.36256  " style="fill:none"/>
 </g>
 </g>
 </g>
 </g>
 <path d=" M  465.82553 465.28502  " style="fill:none"/>
 <g>
 <g stroke="rgb(35.00061%,83.00018%,33.00018%)">
 <g fill="rgb(35.00061%,83.00018%,33.00018%)">
 <g fill="rgb(35.00061%,83.00018%,33.00018%)">
 <path d=" M  466.82553 465.28502 C  466.82553 465.83731 466.37782 466.28502 465.82553 466.28502 C  465.27324 466.28502 464.82553 465.83731 464.82553 465.28502 C  464.82553 464.73273 465.27324 464.28502 465.82553 464.28502 C  466.37782 464.28502 466.82553 464.73273 466.82553 465.28502 Z M  465.82553 465.28502  " />
 </g>
 </g>
 </g>
 </g>
 <g>
 <g stroke="rgb(35.00061%,33.00018%,85.00061%)">
 <g fill="rgb(35.00061%,33.00018%,85.00061%)">
 <g stroke-width="2.7pt">
 <path d=" M  74.33026 87.85027 L  71.34763 87.85027  " style="fill:none"/>
 </g>
 </g>
 </g>
 </g>
 <g>
 <g stroke="rgb(35.00061%,33.00018%,85.00061%)">
 <g fill="rgb(35.00061%,33.00018%,85.00061%)">
 <g stroke-width="2.7pt">
 <path d=" M  71.34763 86.70975 L  71.34763 88.99036  " style="fill:none"/>
 </g>
 </g>
 </g>
 </g>
 <g>
 <g stroke="rgb(35.00061%,33.00018%,85.00061%)">
 <g fill="rgb(35.00061%,33.00018%,85.00061%)">
 <g stroke-width="2.7pt">
 <path d=" M  74.33026 87.85027 L  77.31291 87.85027  " style="fill:none"/>
 </g>
 </g>
 </g>
 </g>
 <g>
 <g stroke="rgb(35.00061%,33.00018%,85.00061%)">
 <g fill="rgb(35.00061%,33.00018%,85.00061%)">
 <g stroke-width="2.7pt">
 <path d=" M  77.31291 86.70975 L  77.31291 88.99036  " style="fill:none"/>
 </g>
 </g>
 </g>
 </g>
 <g>
 <g stroke="rgb(35.00061%,33.00018%,85.00061%)">
 <g fill="rgb(35.00061%,33.00018%,85.00061%)">
 <g stroke-width="2.7pt">
 <path d=" M  74.33026 87.85027 L  74.33026 90.67705  " style="fill:none"/>
 </g>
 </g>
 </g>
 </g>
 <g>
 <g stroke="rgb(35.00061%,33.00018%,85.00061%)">
 <g fill="rgb(35.00061%,33.00018%,85.00061%)">
 <g stroke-width="2.7pt">
 <path d=" M  73.18974 90.67705 L  75.4708 90.67705  " style="fill:none"/>
 </g>
 </g>
 </g>
 </g>
 <g>
 <g stroke="rgb(35.00061%,33.00018%,85.00061%)">
 <g fill="rgb(35.00061%,33.00018%,85.00061%)">
 <g stroke-width="2.7pt">
 <path d=" M  74.33026 87.85027 L  74.33026 85.02263  " style="fill:none"/>
 </g>
 </g>
 </g>
 </g>
 <g>
 <g stroke="rgb(35.00061%,33.00018%,85.00061%)">
 <g fill="rgb(35.00061%,33.00018%,85.00061%)">
 <g stroke-width="2.7pt">
 <path d=" M  73.18974 85.02263 L  75.4708 85.02263  " style="fill:none"/>
 </g>
 </g>
 </g>
 </g>
 <path d=" M  74.33026 87.85027  " style="fill:none"/>
 <g>
 <g stroke="rgb(35.00061%,33.00018%,85.00061%)">
 <g fill="rgb(35.00061%,33.00018%,85.00061%)">
 <g fill="rgb(35.00061%,33.00018%,85.00061%)">
 <path d=" M  75.33026 87.85027 C  75.33026 88.40256 74.88255 88.85027 74.33026 88.85027 C  73.77797 88.85027 73.33026 88.40256 73.33026 87.85027 C  73.33026 87.29797 73.77797 86.85027 74.33026 86.85027 C  74.88255 86.85027 75.33026 87.29797 75.33026 87.85027 Z M  74.33026 87.85027  " />
 </g>
 </g>
 </g>
 </g>
 <g>
 <g stroke="rgb(100.0%,100.0%,100.0%)">
 <g fill="rgb(100.0%,100.0%,100.0%)">
 <g fill="rgb(100.0%,100.0%,100.0%)">
 <path d=" M  295.90836 55.53702 M  295.90836 55.53702 L  295.90836 266.57774 L  512.14938 266.57774 L  512.14938 55.53702 Z M  512.14938 266.57774  " />
 </g>
 </g>
 </g>
 </g>
 <g>
 <g stroke="rgb(0.0%,0.0%,0.0%)">
 <g fill="rgb(0.0%,0.0%,0.0%)">
 <g stroke-width="0.9pt">
 <path d=" M  295.90836 55.53702 L  512.14938 55.53702  " style="fill:none"/>
 </g>
 </g>
 </g>
 </g>
 <g>
 <g stroke="rgb(0.0%,0.0%,0.0%)">
 <g fill="rgb(0.0%,0.0%,0.0%)">
 <g stroke-width="0.9pt">
 <path d=" M  512.14938 55.53702 L  512.14938 266.57774  " style="fill:none"/>
 </g>
 </g>
 </g>
 </g>
 <g>
 <g stroke="rgb(0.0%,0.0%,0.0%)">
 <g fill="rgb(0.0%,0.0%,0.0%)">
 <g stroke-width="0.9pt">
 <path d=" M  512.14938 266.57774 L  295.90836 266.57774  " style="fill:none"/>
 </g>
 </g>
 </g>
 </g>
 <g>
 <g stroke="rgb(0.0%,0.0%,0.0%)">
 <g fill="rgb(0.0%,0.0%,0.0%)">
 <g stroke-width="0.9pt">
 <path d=" M  295.90836 266.57774 L  295.90836 55.53702  " style="fill:none"/>
 </g>
 </g>
 </g>
 </g>
 <path d=" M  349.96883 249.57713  " style="fill:none"/>
 <g>
 <g stroke="rgb(0.0%,0.0%,0.0%)">
 <g fill="rgb(0.0%,0.0%,0.0%)">
 <g>
 <g stroke="rgb(0.0%,0.0%,0.0%)">
 <g fill="rgb(0.0%,0.0%,0.0%)">
 </g>
 </g>
 </g>
 <g>
 <g transform="matrix(1.51329,0.0,0.0,1.51329,356.19781,249.57713)">
 <g fill="rgb(0.0%,0.0%,0.0%)">
 <text style="stroke:none" transform="scale(1,-1) translate(25.13168,0)" text-anchor="middle"  font-size="12"> 
t_1 = t_2</text> 
</g>
 </g>
 </g>
 </g>
 </g>
 </g>
 <g>
 <g stroke="rgb(100.0%,100.0%,100.0%)">
 <g fill="rgb(100.0%,100.0%,100.0%)">
 <path d=" M  304.01749 246.64615 L  341.8597 246.64615 L  341.8597 263.06023 L  304.01749 263.06023  " style="fill:none"/>
 </g>
 </g>
 </g>
 <g>
 <g stroke="rgb(0.0%,0.0%,0.0%)">
 <g fill="rgb(0.0%,0.0%,0.0%)">
 <g stroke-dasharray="3.0pt,3.0pt" stroke-dashoffset="0.0pt">
 <g stroke-width="1.8pt">
 <path d=" M  304.01749 254.85341 L  341.8597 254.85341  " style="fill:none"/>
 </g>
 </g>
 </g>
 </g>
 </g>
 <path d=" M  322.93881 254.85341  " style="fill:none"/>
 <g>
 <g stroke="rgb(0.0%,0.0%,0.0%)">
 <g fill="rgb(0.0%,0.0%,0.0%)">
 <g fill="rgb(0.0%,0.0%,0.0%)">
 <path d=" M  323.93881 254.85341 C  323.93881 255.4057 323.4911 255.85341 322.93881 255.85341 C  322.38652 255.85341 321.93881 255.4057 321.93881 254.85341 C  321.93881 254.30112 322.38652 253.85341 322.93881 253.85341 C  323.4911 253.85341 323.93881 254.30112 323.93881 254.85341 Z M  322.93881 254.85341  " />
 </g>
 </g>
 </g>
 </g>
 <path d=" M  349.96883 226.12802  " style="fill:none"/>
 <g>
 <g stroke="rgb(0.0%,0.0%,0.0%)">
 <g fill="rgb(0.0%,0.0%,0.0%)">
 <g>
 <g stroke="rgb(0.0%,0.0%,0.0%)">
 <g fill="rgb(0.0%,0.0%,0.0%)">
 </g>
 </g>
 </g>
 <g>
 <g transform="matrix(1.51329,0.0,0.0,1.51329,356.19781,226.12802)">
 <g fill="rgb(0.0%,0.0%,0.0%)">
 <text style="stroke:none" transform="scale(1,-1) translate(19.01091,0)" text-anchor="middle"  font-size="12"> 
Ranecu</text> 
</g>
 </g>
 </g>
 </g>
 </g>
 </g>
 <g>
 <g stroke="rgb(100.0%,100.0%,100.0%)">
 <g fill="rgb(100.0%,100.0%,100.0%)">
 <g fill="rgb(100.0%,100.0%,100.0%)">
 <path d=" M  304.01749 223.19704 L  341.8597 223.19704 L  341.8597 239.61154 L  304.01749 239.61154  " />
 </g>
 </g>
 </g>
 </g>
 <g>
 <g stroke="rgb(100.0%,0.0%,0.0%)">
 <g fill="rgb(100.0%,0.0%,0.0%)">
 <g stroke-width="2.7pt">
 <path d=" M  304.01749 231.4043 L  341.8597 231.4043  " style="fill:none"/>
 </g>
 </g>
 </g>
 </g>
 <path d=" M  322.93881 231.4043  " style="fill:none"/>
 <g>
 <g stroke="rgb(100.0%,0.0%,0.0%)">
 <g fill="rgb(100.0%,0.0%,0.0%)">
 <g fill="rgb(100.0%,0.0%,0.0%)">
 <path d=" M  323.93881 231.4043 C  323.93881 231.95659 323.4911 232.4043 322.93881 232.4043 C  322.38652 232.4043 321.93881 231.95659 321.93881 231.4043 C  321.93881 230.852 322.38652 230.4043 322.93881 230.4043 C  323.4911 230.4043 323.93881 230.852 323.93881 231.4043 Z M  322.93881 231.4043  " />
 </g>
 </g>
 </g>
 </g>
 <path d=" M  349.96883 202.67934  " style="fill:none"/>
 <g>
 <g stroke="rgb(0.0%,0.0%,0.0%)">
 <g fill="rgb(0.0%,0.0%,0.0%)">
 <g>
 <g stroke="rgb(0.0%,0.0%,0.0%)">
 <g fill="rgb(0.0%,0.0%,0.0%)">
 </g>
 </g>
 </g>
 <g>
 <g transform="matrix(1.51329,0.0,0.0,1.51329,356.19781,202.67934)">
 <g fill="rgb(0.0%,0.0%,0.0%)">
 <text style="stroke:none" transform="scale(1,-1) translate(21.04977,0)" text-anchor="middle"  font-size="12"> 
Mixmax</text> 
</g>
 </g>
 </g>
 </g>
 </g>
 </g>
 <g>
 <g stroke="rgb(100.0%,100.0%,100.0%)">
 <g fill="rgb(100.0%,100.0%,100.0%)">
 <g fill="rgb(100.0%,100.0%,100.0%)">
 <path d=" M  304.01749 199.74835 L  341.8597 199.74835 L  341.8597 216.16243 L  304.01749 216.16243  " />
 </g>
 </g>
 </g>
 </g>
 <g>
 <g stroke="rgb(0.0%,100.0%,0.0%)">
 <g fill="rgb(0.0%,100.0%,0.0%)">
 <g stroke-width="2.7pt">
 <path d=" M  304.01749 207.95518 L  341.8597 207.95518  " style="fill:none"/>
 </g>
 </g>
 </g>
 </g>
 <path d=" M  322.93881 207.95518  " style="fill:none"/>
 <g>
 <g stroke="rgb(0.0%,100.0%,0.0%)">
 <g fill="rgb(0.0%,100.0%,0.0%)">
 <g fill="rgb(0.0%,100.0%,0.0%)">
 <path d=" M  323.93881 207.95518 C  323.93881 208.50748 323.4911 208.95518 322.93881 208.95518 C  322.38652 208.95518 321.93881 208.50748 321.93881 207.95518 C  321.93881 207.4029 322.38652 206.95518 322.93881 206.95518 C  323.4911 206.95518 323.93881 207.4029 323.93881 207.95518 Z M  322.93881 207.95518  " />
 </g>
 </g>
 </g>
 </g>
 <path d=" M  349.96883 179.23022  " style="fill:none"/>
 <g>
 <g stroke="rgb(0.0%,0.0%,0.0%)">
 <g fill="rgb(0.0%,0.0%,0.0%)">
 <g>
 <g stroke="rgb(0.0%,0.0%,0.0%)">
 <g fill="rgb(0.0%,0.0%,0.0%)">
 </g>
 </g>
 </g>
 <g>
 <g transform="matrix(1.51329,0.0,0.0,1.51329,356.19781,179.23022)">
 <g fill="rgb(0.0%,0.0%,0.0%)">
 <text style="stroke:none" transform="scale(1,-1) translate(22.19421,0)" text-anchor="middle"  font-size="12"> 
Threefry</text> 
</g>
 </g>
 </g>
 </g>
 </g>
 </g>
 <g>
 <g stroke="rgb(100.0%,100.0%,100.0%)">
 <g fill="rgb(100.0%,100.0%,100.0%)">
 <g fill="rgb(100.0%,100.0%,100.0%)">
 <path d=" M  304.01749 176.29924 L  341.8597 176.29924 L  341.8597 192.71376 L  304.01749 192.71376  " />
 </g>
 </g>
 </g>
 </g>
 <g>
 <g stroke="rgb(0.0%,0.0%,100.0%)">
 <g fill="rgb(0.0%,0.0%,100.0%)">
 <g stroke-width="2.7pt">
 <path d=" M  304.01749 184.5065 L  341.8597 184.5065  " style="fill:none"/>
 </g>
 </g>
 </g>
 </g>
 <path d=" M  322.93881 184.5065  " style="fill:none"/>
 <g>
 <g stroke="rgb(0.0%,0.0%,100.0%)">
 <g fill="rgb(0.0%,0.0%,100.0%)">
 <g fill="rgb(0.0%,0.0%,100.0%)">
 <path d=" M  323.93881 184.5065 C  323.93881 185.05879 323.4911 185.5065 322.93881 185.5065 C  322.38652 185.5065 321.93881 185.05879 321.93881 184.5065 C  321.93881 183.95421 322.38652 183.5065 322.93881 183.5065 C  323.4911 183.5065 323.93881 183.95421 323.93881 184.5065 Z M  322.93881 184.5065  " />
 </g>
 </g>
 </g>
 </g>
 <path d=" M  349.96883 155.78111  " style="fill:none"/>
 <g>
 <g stroke="rgb(0.0%,0.0%,0.0%)">
 <g fill="rgb(0.0%,0.0%,0.0%)">
 <g>
 <g stroke="rgb(0.0%,0.0%,0.0%)">
 <g fill="rgb(0.0%,0.0%,0.0%)">
 </g>
 </g>
 </g>
 <g>
 <g transform="matrix(1.51329,0.0,0.0,1.51329,356.19781,155.78111)">
 <g fill="rgb(0.0%,0.0%,0.0%)">
 <text style="stroke:none" transform="scale(1,-1) translate(16.39983,0)" text-anchor="middle"  font-size="12"> 
Philox</text> 
</g>
 </g>
 </g>
 </g>
 </g>
 </g>
 <g>
 <g stroke="rgb(100.0%,100.0%,100.0%)">
 <g fill="rgb(100.0%,100.0%,100.0%)">
 <g fill="rgb(100.0%,100.0%,100.0%)">
 <path d=" M  304.01749 152.85013 L  341.8597 152.85013 L  341.8597 169.26465 L  304.01749 169.26465  " />
 </g>
 </g>
 </g>
 </g>
 <g>
 <g stroke="rgb(100.0%,100.0%,0.0%)">
 <g fill="rgb(100.0%,100.0%,0.0%)">
 <g stroke-width="2.7pt">
 <path d=" M  304.01749 161.05739 L  341.8597 161.05739  " style="fill:none"/>
 </g>
 </g>
 </g>
 </g>
 <path d=" M  322.93881 161.05739  " style="fill:none"/>
 <g>
 <g stroke="rgb(100.0%,100.0%,0.0%)">
 <g fill="rgb(100.0%,100.0%,0.0%)">
 <g fill="rgb(100.0%,100.0%,0.0%)">
 <path d=" M  323.93881 161.05739 C  323.93881 161.60968 323.4911 162.05739 322.93881 162.05739 C  322.38652 162.05739 321.93881 161.60968 321.93881 161.05739 C  321.93881 160.5051 322.38652 160.05739 322.93881 160.05739 C  323.4911 160.05739 323.93881 160.5051 323.93881 161.05739 Z M  322.93881 161.05739  " />
 </g>
 </g>
 </g>
 </g>
 <path d=" M  349.96883 132.33243  " style="fill:none"/>
 <g>
 <g stroke="rgb(0.0%,0.0%,0.0%)">
 <g fill="rgb(0.0%,0.0%,0.0%)">
 <g>
 <g stroke="rgb(0.0%,0.0%,0.0%)">
 <g fill="rgb(0.0%,0.0%,0.0%)">
 </g>
 </g>
 </g>
 <g>
 <g transform="matrix(1.51329,0.0,0.0,1.51329,356.19781,132.33243)">
 <g fill="rgb(0.0%,0.0%,0.0%)">
 <text style="stroke:none" transform="scale(1,-1) translate(24.34627,0)" text-anchor="middle"  font-size="12"> 
Mersenne</text> 
</g>
 </g>
 </g>
 </g>
 </g>
 </g>
 <g>
 <g stroke="rgb(100.0%,100.0%,100.0%)">
 <g fill="rgb(100.0%,100.0%,100.0%)">
 <g fill="rgb(100.0%,100.0%,100.0%)">
 <path d=" M  304.01749 129.40146 L  341.8597 129.40146 L  341.8597 145.81552 L  304.01749 145.81552  " />
 </g>
 </g>
 </g>
 </g>
 <g>
 <g stroke="rgb(100.0%,0.0%,100.0%)">
 <g fill="rgb(100.0%,0.0%,100.0%)">
 <g stroke-width="2.7pt">
 <path d=" M  304.01749 137.60828 L  341.8597 137.60828  " style="fill:none"/>
 </g>
 </g>
 </g>
 </g>
 <path d=" M  322.93881 137.60828  " style="fill:none"/>
 <g>
 <g stroke="rgb(100.0%,0.0%,100.0%)">
 <g fill="rgb(100.0%,0.0%,100.0%)">
 <g fill="rgb(100.0%,0.0%,100.0%)">
 <path d=" M  323.93881 137.60828 C  323.93881 138.16057 323.4911 138.60828 322.93881 138.60828 C  322.38652 138.60828 321.93881 138.16057 321.93881 137.60828 C  321.93881 137.05598 322.38652 136.60828 322.93881 136.60828 C  323.4911 136.60828 323.93881 137.05598 323.93881 137.60828 Z M  322.93881 137.60828  " />
 </g>
 </g>
 </g>
 </g>
 <path d=" M  349.96883 108.88332  " style="fill:none"/>
 <g>
 <g stroke="rgb(0.0%,0.0%,0.0%)">
 <g fill="rgb(0.0%,0.0%,0.0%)">
 <g>
 <g stroke="rgb(0.0%,0.0%,0.0%)">
 <g fill="rgb(0.0%,0.0%,0.0%)">
 </g>
 </g>
 </g>
 <g>
 <g transform="matrix(1.51329,0.0,0.0,1.51329,356.19781,108.88332)">
 <g fill="rgb(0.0%,0.0%,0.0%)">
 <text style="stroke:none" transform="scale(1,-1) translate(18.52133,0)" text-anchor="middle"  font-size="12"> 
Ranlux</text> 
</g>
 </g>
 </g>
 </g>
 </g>
 </g>
 <g>
 <g stroke="rgb(100.0%,100.0%,100.0%)">
 <g fill="rgb(100.0%,100.0%,100.0%)">
 <g fill="rgb(100.0%,100.0%,100.0%)">
 <path d=" M  304.01749 105.95233 L  341.8597 105.95233 L  341.8597 122.36641 L  304.01749 122.36641  " />
 </g>
 </g>
 </g>
 </g>
 <g>
 <g stroke="rgb(0.0%,100.0%,100.0%)">
 <g fill="rgb(0.0%,100.0%,100.0%)">
 <g stroke-width="2.7pt">
 <path d=" M  304.01749 114.15959 L  341.8597 114.15959  " style="fill:none"/>
 </g>
 </g>
 </g>
 </g>
 <path d=" M  322.93881 114.15959  " style="fill:none"/>
 <g>
 <g stroke="rgb(0.0%,100.0%,100.0%)">
 <g fill="rgb(0.0%,100.0%,100.0%)">
 <g fill="rgb(0.0%,100.0%,100.0%)">
 <path d=" M  323.93881 114.15959 C  323.93881 114.71188 323.4911 115.15959 322.93881 115.15959 C  322.38652 115.15959 321.93881 114.71188 321.93881 114.15959 C  321.93881 113.6073 322.38652 113.15959 322.93881 113.15959 C  323.4911 113.15959 323.93881 113.6073 323.93881 114.15959 Z M  322.93881 114.15959  " />
 </g>
 </g>
 </g>
 </g>
 <path d=" M  349.96883 85.43463  " style="fill:none"/>
 <g>
 <g stroke="rgb(0.0%,0.0%,0.0%)">
 <g fill="rgb(0.0%,0.0%,0.0%)">
 <g>
 <g stroke="rgb(0.0%,0.0%,0.0%)">
 <g fill="rgb(0.0%,0.0%,0.0%)">
 </g>
 </g>
 </g>
 <g>
 <g transform="matrix(1.51329,0.0,0.0,1.51329,356.19781,85.43463)">
 <g fill="rgb(0.0%,0.0%,0.0%)">
 <text style="stroke:none" transform="scale(1,-1) translate(24.39627,0)" text-anchor="middle"  font-size="12"> 
Ranlux64</text> 
</g>
 </g>
 </g>
 </g>
 </g>
 </g>
 <g>
 <g stroke="rgb(100.0%,100.0%,100.0%)">
 <g fill="rgb(100.0%,100.0%,100.0%)">
 <g fill="rgb(100.0%,100.0%,100.0%)">
 <path d=" M  304.01749 82.50322 L  341.8597 82.50322 L  341.8597 98.91774 L  304.01749 98.91774  " />
 </g>
 </g>
 </g>
 </g>
 <g>
 <g stroke="rgb(35.00061%,83.00018%,33.00018%)">
 <g fill="rgb(35.00061%,83.00018%,33.00018%)">
 <g stroke-width="2.7pt">
 <path d=" M  304.01749 90.71048 L  341.8597 90.71048  " style="fill:none"/>
 </g>
 </g>
 </g>
 </g>
 <path d=" M  322.93881 90.71048  " style="fill:none"/>
 <g>
 <g stroke="rgb(35.00061%,83.00018%,33.00018%)">
 <g fill="rgb(35.00061%,83.00018%,33.00018%)">
 <g fill="rgb(35.00061%,83.00018%,33.00018%)">
 <path d=" M  323.93881 90.71048 C  323.93881 91.26277 323.4911 91.71048 322.93881 91.71048 C  322.38652 91.71048 321.93881 91.26277 321.93881 90.71048 C  321.93881 90.15819 322.38652 89.71048 322.93881 89.71048 C  323.4911 89.71048 323.93881 90.15819 323.93881 90.71048 Z M  322.93881 90.71048  " />
 </g>
 </g>
 </g>
 </g>
 <path d=" M  349.96883 61.98552  " style="fill:none"/>
 <g>
 <g stroke="rgb(0.0%,0.0%,0.0%)">
 <g fill="rgb(0.0%,0.0%,0.0%)">
 <g>
 <g stroke="rgb(0.0%,0.0%,0.0%)">
 <g fill="rgb(0.0%,0.0%,0.0%)">
 </g>
 </g>
 </g>
 <g>
 <g transform="matrix(1.51329,0.0,0.0,1.51329,356.19781,61.98552)">
 <g fill="rgb(0.0%,0.0%,0.0%)">
 <text style="stroke:none" transform="scale(1,-1) translate(26.10876,0)" text-anchor="middle"  font-size="12"> 
DualRand</text> 
</g>
 </g>
 </g>
 </g>
 </g>
 </g>
 <g>
 <g stroke="rgb(100.0%,100.0%,100.0%)">
 <g fill="rgb(100.0%,100.0%,100.0%)">
 <g fill="rgb(100.0%,100.0%,100.0%)">
 <path d=" M  304.01749 59.05411 L  341.8597 59.05411 L  341.8597 75.46861 L  304.01749 75.46861  " />
 </g>
 </g>
 </g>
 </g>
 <g>
 <g stroke="rgb(35.00061%,33.00018%,85.00061%)">
 <g fill="rgb(35.00061%,33.00018%,85.00061%)">
 <g stroke-width="2.7pt">
 <path d=" M  304.01749 67.26137 L  341.8597 67.26137  " style="fill:none"/>
 </g>
 </g>
 </g>
 </g>
 <path d=" M  322.93881 67.26137  " style="fill:none"/>
 <g>
 <g stroke="rgb(35.00061%,33.00018%,85.00061%)">
 <g fill="rgb(35.00061%,33.00018%,85.00061%)">
 <g fill="rgb(35.00061%,33.00018%,85.00061%)">
 <path d=" M  323.93881 67.26137 C  323.93881 67.81366 323.4911 68.26137 322.93881 68.26137 C  322.38652 68.26137 321.93881 67.81366 321.93881 67.26137 C  321.93881 66.70908 322.38652 66.26137 322.93881 66.26137 C  323.4911 66.26137 323.93881 66.70908 323.93881 67.26137 Z M  322.93881 67.26137  " />
 </g>
 </g>
 </g>
 </g>
 <path d=" M  284.52744 537.32166  " style="fill:none"/>
 <g>
 <g stroke="rgb(0.0%,0.0%,0.0%)">
 <g fill="rgb(0.0%,0.0%,0.0%)">
 <g>
 <g stroke="rgb(0.0%,0.0%,0.0%)">
 <g fill="rgb(0.0%,0.0%,0.0%)">
 </g>
 </g>
 </g>
 <g>
 <g transform="matrix(2.0474,0.0,0.0,2.0474,234.9128,528.92737)">
 <g fill="rgb(0.0%,0.0%,0.0%)">
 <text style="stroke:none" transform="scale(1,-1) translate(24.23308,0)" text-anchor="middle"  font-size="12"> 
Run time</text> 
</g>
 </g>
 </g>
 </g>
 </g>
 </g>
 </g>
 </g>
 </g>
 </g>
 </g>
                                                                                                                            </g> 
</svg> 
