<?xml version="1.0" encoding="iso-8859-1" standalone="no"?> 
<?xml-stylesheet href="gsocPreprint.css" type="text/css"?> 
<svg xmlns="http://www.w3.org/2000/svg" xmlns:xlink="http://www.w3.org/1999/xlink" width="569.45486pt" height="311.63617pt" viewBox="-0.2 -0.2 569.45486 311.63617 "> 
<g transform="translate(0, 311.43617 ) scale(1,-1) translate(0,0.2 )"> 
<g>
 <g stroke="rgb(0.0%,0.0%,0.0%)">
 <g fill="rgb(0.0%,0.0%,0.0%)">
 <g stroke-width="0.4pt">
 <g>
 <g>
 <g stroke="rgb(100.0%,100.0%,100.0%)">
 <g fill="rgb(100.0%,100.0%,100.0%)">
 <g fill="rgb(100.0%,100.0%,100.0%)">
 <path d=" M  0.0 0.0 M  0.0 0.0 L  0.0 311.23618 L  569.05487 311.23618 L  569.05487 0.0 Z M  569.05487 311.23618  " />
 </g>
 </g>
 </g>
 </g>
 <g>
 <g stroke="rgb(100.0%,100.0%,100.0%)">
 <g fill="rgb(100.0%,100.0%,100.0%)">
 <g fill="rgb(100.0%,100.0%,100.0%)">
 <path d=" M  56.90549 31.12366 M  56.90549 31.12366 L  56.90549 280.11165 L  512.14938 280.11165 L  512.14938 31.12366 Z M  512.14938 280.11165  " />
 </g>
 </g>
 </g>
 </g>
 <g>
 <g stroke="rgb(0.0%,0.0%,0.0%)">
 <g fill="rgb(0.0%,0.0%,0.0%)">
 <g stroke-width="0.9pt">
 <path d=" M  56.90549 31.12366 L  56.90549 280.11165 L  512.14938 280.11165 L  512.14938 31.12366 L  56.90549 31.12366  " style="fill:none"/>
 </g>
 </g>
 </g>
 </g>
 <g>
 <g stroke="rgb(100.0%,100.0%,100.0%)">
 <g fill="rgb(100.0%,100.0%,100.0%)">
 <g fill="rgb(100.0%,100.0%,100.0%)">
 <path d=" M  56.90549 31.12366 M  56.90549 31.12366 L  56.90549 280.11165 L  512.14938 280.11165 L  512.14938 31.12366 Z M  512.14938 280.11165  " />
 </g>
 </g>
 </g>
 </g>
 <g>
 <g stroke="rgb(0.0%,0.0%,0.0%)">
 <g fill="rgb(0.0%,0.0%,0.0%)">
 <g stroke-width="0.9pt">
 <path d=" M  56.90549 31.12366 L  56.90549 280.11165 L  512.14938 280.11165 L  512.14938 31.12366 L  56.90549 31.12366  " style="fill:none"/>
 </g>
 </g>
 </g>
 </g>
 <g>
 <g stroke="rgb(0.0%,0.0%,0.0%)">
 <g fill="rgb(0.0%,0.0%,0.0%)">
 <g stroke-width="0.9pt">
 <path d=" M  56.90549 31.12366 L  512.14938 31.12366  " style="fill:none"/>
 </g>
 </g>
 </g>
 </g>
 <g>
 <g stroke="rgb(0.0%,0.0%,0.0%)">
 <g fill="rgb(0.0%,0.0%,0.0%)">
 <g stroke-width="0.9pt">
 <path d=" M  56.90549 38.59328 L  56.90549 31.12366  " style="fill:none"/>
 </g>
 </g>
 </g>
 </g>
 <g>
 <g stroke="rgb(0.0%,0.0%,0.0%)">
 <g fill="rgb(0.0%,0.0%,0.0%)">
 <g stroke-width="0.9pt">
 <path d=" M  69.91231 34.85825 L  69.91231 31.12366  " style="fill:none"/>
 </g>
 </g>
 </g>
 </g>
 <g>
 <g stroke="rgb(0.0%,0.0%,0.0%)">
 <g fill="rgb(0.0%,0.0%,0.0%)">
 <g stroke-width="0.9pt">
 <path d=" M  82.91957 34.85825 L  82.91957 31.12366  " style="fill:none"/>
 </g>
 </g>
 </g>
 </g>
 <g>
 <g stroke="rgb(0.0%,0.0%,0.0%)">
 <g fill="rgb(0.0%,0.0%,0.0%)">
 <g stroke-width="0.9pt">
 <path d=" M  95.9264 34.85825 L  95.9264 31.12366  " style="fill:none"/>
 </g>
 </g>
 </g>
 </g>
 <g>
 <g stroke="rgb(0.0%,0.0%,0.0%)">
 <g fill="rgb(0.0%,0.0%,0.0%)">
 <g stroke-width="0.9pt">
 <path d=" M  108.93324 38.59328 L  108.93324 31.12366  " style="fill:none"/>
 </g>
 </g>
 </g>
 </g>
 <g>
 <g stroke="rgb(0.0%,0.0%,0.0%)">
 <g fill="rgb(0.0%,0.0%,0.0%)">
 <g stroke-width="0.9pt">
 <path d=" M  121.94008 34.85825 L  121.94008 31.12366  " style="fill:none"/>
 </g>
 </g>
 </g>
 </g>
 <g>
 <g stroke="rgb(0.0%,0.0%,0.0%)">
 <g fill="rgb(0.0%,0.0%,0.0%)">
 <g stroke-width="0.9pt">
 <path d=" M  134.94734 34.85825 L  134.94734 31.12366  " style="fill:none"/>
 </g>
 </g>
 </g>
 </g>
 <g>
 <g stroke="rgb(0.0%,0.0%,0.0%)">
 <g fill="rgb(0.0%,0.0%,0.0%)">
 <g stroke-width="0.9pt">
 <path d=" M  147.95418 34.85825 L  147.95418 31.12366  " style="fill:none"/>
 </g>
 </g>
 </g>
 </g>
 <g>
 <g stroke="rgb(0.0%,0.0%,0.0%)">
 <g fill="rgb(0.0%,0.0%,0.0%)">
 <g stroke-width="0.9pt">
 <path d=" M  160.961 38.59328 L  160.961 31.12366  " style="fill:none"/>
 </g>
 </g>
 </g>
 </g>
 <g>
 <g stroke="rgb(0.0%,0.0%,0.0%)">
 <g fill="rgb(0.0%,0.0%,0.0%)">
 <g stroke-width="0.9pt">
 <path d=" M  173.96828 34.85825 L  173.96828 31.12366  " style="fill:none"/>
 </g>
 </g>
 </g>
 </g>
 <g>
 <g stroke="rgb(0.0%,0.0%,0.0%)">
 <g fill="rgb(0.0%,0.0%,0.0%)">
 <g stroke-width="0.9pt">
 <path d=" M  186.9751 34.85825 L  186.9751 31.12366  " style="fill:none"/>
 </g>
 </g>
 </g>
 </g>
 <g>
 <g stroke="rgb(0.0%,0.0%,0.0%)">
 <g fill="rgb(0.0%,0.0%,0.0%)">
 <g stroke-width="0.9pt">
 <path d=" M  199.98193 34.85825 L  199.98193 31.12366  " style="fill:none"/>
 </g>
 </g>
 </g>
 </g>
 <g>
 <g stroke="rgb(0.0%,0.0%,0.0%)">
 <g fill="rgb(0.0%,0.0%,0.0%)">
 <g stroke-width="0.9pt">
 <path d=" M  212.98877 38.59328 L  212.98877 31.12366  " style="fill:none"/>
 </g>
 </g>
 </g>
 </g>
 <g>
 <g stroke="rgb(0.0%,0.0%,0.0%)">
 <g fill="rgb(0.0%,0.0%,0.0%)">
 <g stroke-width="0.9pt">
 <path d=" M  225.99603 34.85825 L  225.99603 31.12366  " style="fill:none"/>
 </g>
 </g>
 </g>
 </g>
 <g>
 <g stroke="rgb(0.0%,0.0%,0.0%)">
 <g fill="rgb(0.0%,0.0%,0.0%)">
 <g stroke-width="0.9pt">
 <path d=" M  239.00287 34.85825 L  239.00287 31.12366  " style="fill:none"/>
 </g>
 </g>
 </g>
 </g>
 <g>
 <g stroke="rgb(0.0%,0.0%,0.0%)">
 <g fill="rgb(0.0%,0.0%,0.0%)">
 <g stroke-width="0.9pt">
 <path d=" M  252.01013 34.85825 L  252.01013 31.12366  " style="fill:none"/>
 </g>
 </g>
 </g>
 </g>
 <g>
 <g stroke="rgb(0.0%,0.0%,0.0%)">
 <g fill="rgb(0.0%,0.0%,0.0%)">
 <g stroke-width="0.9pt">
 <path d=" M  265.01697 38.59328 L  265.01697 31.12366  " style="fill:none"/>
 </g>
 </g>
 </g>
 </g>
 <g>
 <g stroke="rgb(0.0%,0.0%,0.0%)">
 <g fill="rgb(0.0%,0.0%,0.0%)">
 <g stroke-width="0.9pt">
 <path d=" M  278.02379 34.85825 L  278.02379 31.12366  " style="fill:none"/>
 </g>
 </g>
 </g>
 </g>
 <g>
 <g stroke="rgb(0.0%,0.0%,0.0%)">
 <g fill="rgb(0.0%,0.0%,0.0%)">
 <g stroke-width="0.9pt">
 <path d=" M  291.03194 34.85825 L  291.03194 31.12366  " style="fill:none"/>
 </g>
 </g>
 </g>
 </g>
 <g>
 <g stroke="rgb(0.0%,0.0%,0.0%)">
 <g fill="rgb(0.0%,0.0%,0.0%)">
 <g stroke-width="0.9pt">
 <path d=" M  304.03746 34.85825 L  304.03746 31.12366  " style="fill:none"/>
 </g>
 </g>
 </g>
 </g>
 <g>
 <g stroke="rgb(0.0%,0.0%,0.0%)">
 <g fill="rgb(0.0%,0.0%,0.0%)">
 <g stroke-width="0.9pt">
 <path d=" M  317.04602 38.59328 L  317.04602 31.12366  " style="fill:none"/>
 </g>
 </g>
 </g>
 </g>
 <g>
 <g stroke="rgb(0.0%,0.0%,0.0%)">
 <g fill="rgb(0.0%,0.0%,0.0%)">
 <g stroke-width="0.9pt">
 <path d=" M  330.05199 34.85825 L  330.05199 31.12366  " style="fill:none"/>
 </g>
 </g>
 </g>
 </g>
 <g>
 <g stroke="rgb(0.0%,0.0%,0.0%)">
 <g fill="rgb(0.0%,0.0%,0.0%)">
 <g stroke-width="0.9pt">
 <path d=" M  343.05753 34.85825 L  343.05753 31.12366  " style="fill:none"/>
 </g>
 </g>
 </g>
 </g>
 <g>
 <g stroke="rgb(0.0%,0.0%,0.0%)">
 <g fill="rgb(0.0%,0.0%,0.0%)">
 <g stroke-width="0.9pt">
 <path d=" M  356.06609 34.85825 L  356.06609 31.12366  " style="fill:none"/>
 </g>
 </g>
 </g>
 </g>
 <g>
 <g stroke="rgb(0.0%,0.0%,0.0%)">
 <g fill="rgb(0.0%,0.0%,0.0%)">
 <g stroke-width="0.9pt">
 <path d=" M  369.07205 38.59328 L  369.07205 31.12366  " style="fill:none"/>
 </g>
 </g>
 </g>
 </g>
 <g>
 <g stroke="rgb(0.0%,0.0%,0.0%)">
 <g fill="rgb(0.0%,0.0%,0.0%)">
 <g stroke-width="0.9pt">
 <path d=" M  382.08063 34.85825 L  382.08063 31.12366  " style="fill:none"/>
 </g>
 </g>
 </g>
 </g>
 <g>
 <g stroke="rgb(0.0%,0.0%,0.0%)">
 <g fill="rgb(0.0%,0.0%,0.0%)">
 <g stroke-width="0.9pt">
 <path d=" M  395.08615 34.85825 L  395.08615 31.12366  " style="fill:none"/>
 </g>
 </g>
 </g>
 </g>
 <g>
 <g stroke="rgb(0.0%,0.0%,0.0%)">
 <g fill="rgb(0.0%,0.0%,0.0%)">
 <g stroke-width="0.9pt">
 <path d=" M  408.09473 34.85825 L  408.09473 31.12366  " style="fill:none"/>
 </g>
 </g>
 </g>
 </g>
 <g>
 <g stroke="rgb(0.0%,0.0%,0.0%)">
 <g fill="rgb(0.0%,0.0%,0.0%)">
 <g stroke-width="0.9pt">
 <path d=" M  421.10068 38.59328 L  421.10068 31.12366  " style="fill:none"/>
 </g>
 </g>
 </g>
 </g>
 <g>
 <g stroke="rgb(0.0%,0.0%,0.0%)">
 <g fill="rgb(0.0%,0.0%,0.0%)">
 <g stroke-width="0.9pt">
 <path d=" M  434.10622 34.85825 L  434.10622 31.12366  " style="fill:none"/>
 </g>
 </g>
 </g>
 </g>
 <g>
 <g stroke="rgb(0.0%,0.0%,0.0%)">
 <g fill="rgb(0.0%,0.0%,0.0%)">
 <g stroke-width="0.9pt">
 <path d=" M  447.11478 34.85825 L  447.11478 31.12366  " style="fill:none"/>
 </g>
 </g>
 </g>
 </g>
 <g>
 <g stroke="rgb(0.0%,0.0%,0.0%)">
 <g fill="rgb(0.0%,0.0%,0.0%)">
 <g stroke-width="0.9pt">
 <path d=" M  460.12074 34.85825 L  460.12074 31.12366  " style="fill:none"/>
 </g>
 </g>
 </g>
 </g>
 <g>
 <g stroke="rgb(0.0%,0.0%,0.0%)">
 <g fill="rgb(0.0%,0.0%,0.0%)">
 <g stroke-width="0.9pt">
 <path d=" M  473.12932 38.59328 L  473.12932 31.12366  " style="fill:none"/>
 </g>
 </g>
 </g>
 </g>
 <g>
 <g stroke="rgb(0.0%,0.0%,0.0%)">
 <g fill="rgb(0.0%,0.0%,0.0%)">
 <g stroke-width="0.9pt">
 <path d=" M  473.12932 38.59328 L  473.12932 31.12366  " style="fill:none"/>
 </g>
 </g>
 </g>
 </g>
 <g>
 <g stroke="rgb(0.0%,0.0%,0.0%)">
 <g fill="rgb(0.0%,0.0%,0.0%)">
 <g stroke-width="0.9pt">
 <path d=" M  486.13484 34.85825 L  486.13484 31.12366  " style="fill:none"/>
 </g>
 </g>
 </g>
 </g>
 <g>
 <g stroke="rgb(0.0%,0.0%,0.0%)">
 <g fill="rgb(0.0%,0.0%,0.0%)">
 <g stroke-width="0.9pt">
 <path d=" M  499.14342 34.85825 L  499.14342 31.12366  " style="fill:none"/>
 </g>
 </g>
 </g>
 </g>
 <g>
 <g stroke="rgb(0.0%,0.0%,0.0%)">
 <g fill="rgb(0.0%,0.0%,0.0%)">
 <g stroke-width="0.9pt">
 <path d=" M  512.14938 34.85825 L  512.14938 31.12366  " style="fill:none"/>
 </g>
 </g>
 </g>
 </g>
 <path d=" M  56.90549 20.85286  " style="fill:none"/>
 <g>
 <g stroke="rgb(0.0%,0.0%,0.0%)">
 <g fill="rgb(0.0%,0.0%,0.0%)">
 <g>
 <g stroke="rgb(0.0%,0.0%,0.0%)">
 <g fill="rgb(0.0%,0.0%,0.0%)">
 </g>
 </g>
 </g>
 <g>
 <g transform="matrix(0.86171,0.0,0.0,0.86171,54.54655,20.85286)">
 <g fill="rgb(0.0%,0.0%,0.0%)">
 <text style="stroke:none" transform="scale(1,-1) translate(2.7375,0)" text-anchor="middle"  font-size="10.95"> 
<tspan font-family="cmr" font-size="10">0</tspan></text> 
</g>
 </g>
 </g>
 </g>
 </g>
 </g>
 <path d=" M  108.93324 20.85286  " style="fill:none"/>
 <g>
 <g stroke="rgb(0.0%,0.0%,0.0%)">
 <g fill="rgb(0.0%,0.0%,0.0%)">
 <g>
 <g stroke="rgb(0.0%,0.0%,0.0%)">
 <g fill="rgb(0.0%,0.0%,0.0%)">
 </g>
 </g>
 </g>
 <g>
 <g transform="matrix(0.86171,0.0,0.0,0.86171,106.57431,20.85286)">
 <g fill="rgb(0.0%,0.0%,0.0%)">
 <text style="stroke:none" transform="scale(1,-1) translate(2.7375,0)" text-anchor="middle"  font-size="10.95"> 
<tspan font-family="cmr" font-size="10">2</tspan></text> 
</g>
 </g>
 </g>
 </g>
 </g>
 </g>
 <path d=" M  160.961 20.85286  " style="fill:none"/>
 <g>
 <g stroke="rgb(0.0%,0.0%,0.0%)">
 <g fill="rgb(0.0%,0.0%,0.0%)">
 <g>
 <g stroke="rgb(0.0%,0.0%,0.0%)">
 <g fill="rgb(0.0%,0.0%,0.0%)">
 </g>
 </g>
 </g>
 <g>
 <g transform="matrix(0.86171,0.0,0.0,0.86171,158.60207,20.85286)">
 <g fill="rgb(0.0%,0.0%,0.0%)">
 <text style="stroke:none" transform="scale(1,-1) translate(2.7375,0)" text-anchor="middle"  font-size="10.95"> 
<tspan font-family="cmr" font-size="10">4</tspan></text> 
</g>
 </g>
 </g>
 </g>
 </g>
 </g>
 <path d=" M  212.98877 20.85286  " style="fill:none"/>
 <g>
 <g stroke="rgb(0.0%,0.0%,0.0%)">
 <g fill="rgb(0.0%,0.0%,0.0%)">
 <g>
 <g stroke="rgb(0.0%,0.0%,0.0%)">
 <g fill="rgb(0.0%,0.0%,0.0%)">
 </g>
 </g>
 </g>
 <g>
 <g transform="matrix(0.86171,0.0,0.0,0.86171,210.62984,20.85286)">
 <g fill="rgb(0.0%,0.0%,0.0%)">
 <text style="stroke:none" transform="scale(1,-1) translate(2.7375,0)" text-anchor="middle"  font-size="10.95"> 
<tspan font-family="cmr" font-size="10">6</tspan></text> 
</g>
 </g>
 </g>
 </g>
 </g>
 </g>
 <path d=" M  265.01697 20.85286  " style="fill:none"/>
 <g>
 <g stroke="rgb(0.0%,0.0%,0.0%)">
 <g fill="rgb(0.0%,0.0%,0.0%)">
 <g>
 <g stroke="rgb(0.0%,0.0%,0.0%)">
 <g fill="rgb(0.0%,0.0%,0.0%)">
 </g>
 </g>
 </g>
 <g>
 <g transform="matrix(0.86171,0.0,0.0,0.86171,262.65804,20.85286)">
 <g fill="rgb(0.0%,0.0%,0.0%)">
 <text style="stroke:none" transform="scale(1,-1) translate(2.7375,0)" text-anchor="middle"  font-size="10.95"> 
<tspan font-family="cmr" font-size="10">8</tspan></text> 
</g>
 </g>
 </g>
 </g>
 </g>
 </g>
 <path d=" M  317.04602 20.85286  " style="fill:none"/>
 <g>
 <g stroke="rgb(0.0%,0.0%,0.0%)">
 <g fill="rgb(0.0%,0.0%,0.0%)">
 <g>
 <g stroke="rgb(0.0%,0.0%,0.0%)">
 <g fill="rgb(0.0%,0.0%,0.0%)">
 </g>
 </g>
 </g>
 <g>
 <g transform="matrix(0.86171,0.0,0.0,0.86171,312.32816,20.85286)">
 <g fill="rgb(0.0%,0.0%,0.0%)">
 <text style="stroke:none" transform="scale(1,-1) translate(5.475,0)" text-anchor="middle"  font-size="10.95"> 
<tspan font-family="cmr" font-size="10">10</tspan></text> 
</g>
 </g>
 </g>
 </g>
 </g>
 </g>
 <path d=" M  369.07205 20.85286  " style="fill:none"/>
 <g>
 <g stroke="rgb(0.0%,0.0%,0.0%)">
 <g fill="rgb(0.0%,0.0%,0.0%)">
 <g>
 <g stroke="rgb(0.0%,0.0%,0.0%)">
 <g fill="rgb(0.0%,0.0%,0.0%)">
 </g>
 </g>
 </g>
 <g>
 <g transform="matrix(0.86171,0.0,0.0,0.86171,364.35419,20.85286)">
 <g fill="rgb(0.0%,0.0%,0.0%)">
 <text style="stroke:none" transform="scale(1,-1) translate(5.475,0)" text-anchor="middle"  font-size="10.95"> 
<tspan font-family="cmr" font-size="10">12</tspan></text> 
</g>
 </g>
 </g>
 </g>
 </g>
 </g>
 <path d=" M  421.10068 20.85286  " style="fill:none"/>
 <g>
 <g stroke="rgb(0.0%,0.0%,0.0%)">
 <g fill="rgb(0.0%,0.0%,0.0%)">
 <g>
 <g stroke="rgb(0.0%,0.0%,0.0%)">
 <g fill="rgb(0.0%,0.0%,0.0%)">
 </g>
 </g>
 </g>
 <g>
 <g transform="matrix(0.86171,0.0,0.0,0.86171,416.38281,20.85286)">
 <g fill="rgb(0.0%,0.0%,0.0%)">
 <text style="stroke:none" transform="scale(1,-1) translate(5.475,0)" text-anchor="middle"  font-size="10.95"> 
<tspan font-family="cmr" font-size="10">14</tspan></text> 
</g>
 </g>
 </g>
 </g>
 </g>
 </g>
 <path d=" M  473.12932 20.85286  " style="fill:none"/>
 <g>
 <g stroke="rgb(0.0%,0.0%,0.0%)">
 <g fill="rgb(0.0%,0.0%,0.0%)">
 <g>
 <g stroke="rgb(0.0%,0.0%,0.0%)">
 <g fill="rgb(0.0%,0.0%,0.0%)">
 </g>
 </g>
 </g>
 <g>
 <g transform="matrix(0.86171,0.0,0.0,0.86171,468.41145,20.85286)">
 <g fill="rgb(0.0%,0.0%,0.0%)">
 <text style="stroke:none" transform="scale(1,-1) translate(5.475,0)" text-anchor="middle"  font-size="10.95"> 
<tspan font-family="cmr" font-size="10">16</tspan></text> 
</g>
 </g>
 </g>
 </g>
 </g>
 </g>
 <g>
 <g stroke="rgb(0.0%,0.0%,0.0%)">
 <g fill="rgb(0.0%,0.0%,0.0%)">
 <g stroke-width="0.9pt">
 <path d=" M  56.90549 31.12366 L  56.90549 280.11165  " style="fill:none"/>
 </g>
 </g>
 </g>
 </g>
 <g>
 <g stroke="rgb(0.0%,0.0%,0.0%)">
 <g fill="rgb(0.0%,0.0%,0.0%)">
 <g stroke-width="0.9pt">
 <path d=" M  70.56267 48.33397 L  56.90549 48.33397  " style="fill:none"/>
 </g>
 </g>
 </g>
 </g>
 <g>
 <g stroke="rgb(0.0%,0.0%,0.0%)">
 <g fill="rgb(0.0%,0.0%,0.0%)">
 <g stroke-width="0.9pt">
 <path d=" M  63.7343 56.78044 L  56.90549 56.78044  " style="fill:none"/>
 </g>
 </g>
 </g>
 </g>
 <g>
 <g stroke="rgb(0.0%,0.0%,0.0%)">
 <g fill="rgb(0.0%,0.0%,0.0%)">
 <g stroke-width="0.9pt">
 <path d=" M  63.7343 65.22691 L  56.90549 65.22691  " style="fill:none"/>
 </g>
 </g>
 </g>
 </g>
 <g>
 <g stroke="rgb(0.0%,0.0%,0.0%)">
 <g fill="rgb(0.0%,0.0%,0.0%)">
 <g stroke-width="0.9pt">
 <path d=" M  63.7343 73.67383 L  56.90549 73.67383  " style="fill:none"/>
 </g>
 </g>
 </g>
 </g>
 <g>
 <g stroke="rgb(0.0%,0.0%,0.0%)">
 <g fill="rgb(0.0%,0.0%,0.0%)">
 <g stroke-width="0.9pt">
 <path d=" M  63.7343 82.12073 L  56.90549 82.12073  " style="fill:none"/>
 </g>
 </g>
 </g>
 </g>
 <g>
 <g stroke="rgb(0.0%,0.0%,0.0%)">
 <g fill="rgb(0.0%,0.0%,0.0%)">
 <g stroke-width="0.9pt">
 <path d=" M  70.56267 90.56721 L  56.90549 90.56721  " style="fill:none"/>
 </g>
 </g>
 </g>
 </g>
 <g>
 <g stroke="rgb(0.0%,0.0%,0.0%)">
 <g fill="rgb(0.0%,0.0%,0.0%)">
 <g stroke-width="0.9pt">
 <path d=" M  63.7343 99.01411 L  56.90549 99.01411  " style="fill:none"/>
 </g>
 </g>
 </g>
 </g>
 <g>
 <g stroke="rgb(0.0%,0.0%,0.0%)">
 <g fill="rgb(0.0%,0.0%,0.0%)">
 <g stroke-width="0.9pt">
 <path d=" M  63.7343 107.46103 L  56.90549 107.46103  " style="fill:none"/>
 </g>
 </g>
 </g>
 </g>
 <g>
 <g stroke="rgb(0.0%,0.0%,0.0%)">
 <g fill="rgb(0.0%,0.0%,0.0%)">
 <g stroke-width="0.9pt">
 <path d=" M  63.7343 115.9075 L  56.90549 115.9075  " style="fill:none"/>
 </g>
 </g>
 </g>
 </g>
 <g>
 <g stroke="rgb(0.0%,0.0%,0.0%)">
 <g fill="rgb(0.0%,0.0%,0.0%)">
 <g stroke-width="0.9pt">
 <path d=" M  63.7343 124.35397 L  56.90549 124.35397  " style="fill:none"/>
 </g>
 </g>
 </g>
 </g>
 <g>
 <g stroke="rgb(0.0%,0.0%,0.0%)">
 <g fill="rgb(0.0%,0.0%,0.0%)">
 <g stroke-width="0.9pt">
 <path d=" M  70.56267 132.80089 L  56.90549 132.80089  " style="fill:none"/>
 </g>
 </g>
 </g>
 </g>
 <g>
 <g stroke="rgb(0.0%,0.0%,0.0%)">
 <g fill="rgb(0.0%,0.0%,0.0%)">
 <g stroke-width="0.9pt">
 <path d=" M  63.7343 141.24779 L  56.90549 141.24779  " style="fill:none"/>
 </g>
 </g>
 </g>
 </g>
 <g>
 <g stroke="rgb(0.0%,0.0%,0.0%)">
 <g fill="rgb(0.0%,0.0%,0.0%)">
 <g stroke-width="0.9pt">
 <path d=" M  63.7343 149.69426 L  56.90549 149.69426  " style="fill:none"/>
 </g>
 </g>
 </g>
 </g>
 <g>
 <g stroke="rgb(0.0%,0.0%,0.0%)">
 <g fill="rgb(0.0%,0.0%,0.0%)">
 <g stroke-width="0.9pt">
 <path d=" M  63.7343 158.14117 L  56.90549 158.14117  " style="fill:none"/>
 </g>
 </g>
 </g>
 </g>
 <g>
 <g stroke="rgb(0.0%,0.0%,0.0%)">
 <g fill="rgb(0.0%,0.0%,0.0%)">
 <g stroke-width="0.9pt">
 <path d=" M  63.7343 166.58765 L  56.90549 166.58765  " style="fill:none"/>
 </g>
 </g>
 </g>
 </g>
 <g>
 <g stroke="rgb(0.0%,0.0%,0.0%)">
 <g fill="rgb(0.0%,0.0%,0.0%)">
 <g stroke-width="0.9pt">
 <path d=" M  70.56267 175.03455 L  56.90549 175.03455  " style="fill:none"/>
 </g>
 </g>
 </g>
 </g>
 <g>
 <g stroke="rgb(0.0%,0.0%,0.0%)">
 <g fill="rgb(0.0%,0.0%,0.0%)">
 <g stroke-width="0.9pt">
 <path d=" M  63.7343 183.48103 L  56.90549 183.48103  " style="fill:none"/>
 </g>
 </g>
 </g>
 </g>
 <g>
 <g stroke="rgb(0.0%,0.0%,0.0%)">
 <g fill="rgb(0.0%,0.0%,0.0%)">
 <g stroke-width="0.9pt">
 <path d=" M  63.7343 191.92793 L  56.90549 191.92793  " style="fill:none"/>
 </g>
 </g>
 </g>
 </g>
 <g>
 <g stroke="rgb(0.0%,0.0%,0.0%)">
 <g fill="rgb(0.0%,0.0%,0.0%)">
 <g stroke-width="0.9pt">
 <path d=" M  63.7343 200.37485 L  56.90549 200.37485  " style="fill:none"/>
 </g>
 </g>
 </g>
 </g>
 <g>
 <g stroke="rgb(0.0%,0.0%,0.0%)">
 <g fill="rgb(0.0%,0.0%,0.0%)">
 <g stroke-width="0.9pt">
 <path d=" M  63.7343 208.82132 L  56.90549 208.82132  " style="fill:none"/>
 </g>
 </g>
 </g>
 </g>
 <g>
 <g stroke="rgb(0.0%,0.0%,0.0%)">
 <g fill="rgb(0.0%,0.0%,0.0%)">
 <g stroke-width="0.9pt">
 <path d=" M  70.56267 217.26779 L  56.90549 217.26779  " style="fill:none"/>
 </g>
 </g>
 </g>
 </g>
 <g>
 <g stroke="rgb(0.0%,0.0%,0.0%)">
 <g fill="rgb(0.0%,0.0%,0.0%)">
 <g stroke-width="0.9pt">
 <path d=" M  63.7343 225.7147 L  56.90549 225.7147  " style="fill:none"/>
 </g>
 </g>
 </g>
 </g>
 <g>
 <g stroke="rgb(0.0%,0.0%,0.0%)">
 <g fill="rgb(0.0%,0.0%,0.0%)">
 <g stroke-width="0.9pt">
 <path d=" M  63.7343 234.1616 L  56.90549 234.1616  " style="fill:none"/>
 </g>
 </g>
 </g>
 </g>
 <g>
 <g stroke="rgb(0.0%,0.0%,0.0%)">
 <g fill="rgb(0.0%,0.0%,0.0%)">
 <g stroke-width="0.9pt">
 <path d=" M  63.7343 242.60808 L  56.90549 242.60808  " style="fill:none"/>
 </g>
 </g>
 </g>
 </g>
 <g>
 <g stroke="rgb(0.0%,0.0%,0.0%)">
 <g fill="rgb(0.0%,0.0%,0.0%)">
 <g stroke-width="0.9pt">
 <path d=" M  63.7343 251.055 L  56.90549 251.055  " style="fill:none"/>
 </g>
 </g>
 </g>
 </g>
 <g>
 <g stroke="rgb(0.0%,0.0%,0.0%)">
 <g fill="rgb(0.0%,0.0%,0.0%)">
 <g stroke-width="0.9pt">
 <path d=" M  70.56267 259.50189 L  56.90549 259.50189  " style="fill:none"/>
 </g>
 </g>
 </g>
 </g>
 <g>
 <g stroke="rgb(0.0%,0.0%,0.0%)">
 <g fill="rgb(0.0%,0.0%,0.0%)">
 <g stroke-width="0.9pt">
 <path d=" M  70.56267 48.33397 L  56.90549 48.33397  " style="fill:none"/>
 </g>
 </g>
 </g>
 </g>
 <g>
 <g stroke="rgb(0.0%,0.0%,0.0%)">
 <g fill="rgb(0.0%,0.0%,0.0%)">
 <g stroke-width="0.9pt">
 <path d=" M  63.7343 39.88705 L  56.90549 39.88705  " style="fill:none"/>
 </g>
 </g>
 </g>
 </g>
 <g>
 <g stroke="rgb(0.0%,0.0%,0.0%)">
 <g fill="rgb(0.0%,0.0%,0.0%)">
 <g stroke-width="0.9pt">
 <path d=" M  63.7343 31.44016 L  56.90549 31.44016  " style="fill:none"/>
 </g>
 </g>
 </g>
 </g>
 <g>
 <g stroke="rgb(0.0%,0.0%,0.0%)">
 <g fill="rgb(0.0%,0.0%,0.0%)">
 <g stroke-width="0.9pt">
 <path d=" M  70.56267 259.50189 L  56.90549 259.50189  " style="fill:none"/>
 </g>
 </g>
 </g>
 </g>
 <g>
 <g stroke="rgb(0.0%,0.0%,0.0%)">
 <g fill="rgb(0.0%,0.0%,0.0%)">
 <g stroke-width="0.9pt">
 <path d=" M  63.7343 267.94838 L  56.90549 267.94838  " style="fill:none"/>
 </g>
 </g>
 </g>
 </g>
 <g>
 <g stroke="rgb(0.0%,0.0%,0.0%)">
 <g fill="rgb(0.0%,0.0%,0.0%)">
 <g stroke-width="0.9pt">
 <path d=" M  63.7343 276.39528 L  56.90549 276.39528  " style="fill:none"/>
 </g>
 </g>
 </g>
 </g>
 <path d=" M  54.06003 48.33397  " style="fill:none"/>
 <g>
 <g stroke="rgb(0.0%,0.0%,0.0%)">
 <g fill="rgb(0.0%,0.0%,0.0%)">
 <g>
 <g stroke="rgb(0.0%,0.0%,0.0%)">
 <g fill="rgb(0.0%,0.0%,0.0%)">
 </g>
 </g>
 </g>
 <g>
 <g transform="matrix(0.86171,0.0,0.0,0.86171,36.58919,45.2936)">
 <g fill="rgb(0.0%,0.0%,0.0%)">
 <text style="stroke:none" transform="scale(1,-1) translate(8.21251,0)" text-anchor="middle"  font-size="10.95"> 
<tspan font-family="cmr" font-size="10">165</tspan></text> 
</g>
 </g>
 </g>
 </g>
 </g>
 </g>
 <path d=" M  54.06003 90.56721  " style="fill:none"/>
 <g>
 <g stroke="rgb(0.0%,0.0%,0.0%)">
 <g fill="rgb(0.0%,0.0%,0.0%)">
 <g>
 <g stroke="rgb(0.0%,0.0%,0.0%)">
 <g fill="rgb(0.0%,0.0%,0.0%)">
 </g>
 </g>
 </g>
 <g>
 <g transform="matrix(0.86171,0.0,0.0,0.86171,36.58919,87.52684)">
 <g fill="rgb(0.0%,0.0%,0.0%)">
 <text style="stroke:none" transform="scale(1,-1) translate(8.21251,0)" text-anchor="middle"  font-size="10.95"> 
<tspan font-family="cmr" font-size="10">170</tspan></text> 
</g>
 </g>
 </g>
 </g>
 </g>
 </g>
 <path d=" M  54.06003 132.80089  " style="fill:none"/>
 <g>
 <g stroke="rgb(0.0%,0.0%,0.0%)">
 <g fill="rgb(0.0%,0.0%,0.0%)">
 <g>
 <g stroke="rgb(0.0%,0.0%,0.0%)">
 <g fill="rgb(0.0%,0.0%,0.0%)">
 </g>
 </g>
 </g>
 <g>
 <g transform="matrix(0.86171,0.0,0.0,0.86171,36.58919,129.76051)">
 <g fill="rgb(0.0%,0.0%,0.0%)">
 <text style="stroke:none" transform="scale(1,-1) translate(8.21251,0)" text-anchor="middle"  font-size="10.95"> 
<tspan font-family="cmr" font-size="10">175</tspan></text> 
</g>
 </g>
 </g>
 </g>
 </g>
 </g>
 <path d=" M  54.06003 175.03455  " style="fill:none"/>
 <g>
 <g stroke="rgb(0.0%,0.0%,0.0%)">
 <g fill="rgb(0.0%,0.0%,0.0%)">
 <g>
 <g stroke="rgb(0.0%,0.0%,0.0%)">
 <g fill="rgb(0.0%,0.0%,0.0%)">
 </g>
 </g>
 </g>
 <g>
 <g transform="matrix(0.86171,0.0,0.0,0.86171,36.58919,171.99417)">
 <g fill="rgb(0.0%,0.0%,0.0%)">
 <text style="stroke:none" transform="scale(1,-1) translate(8.21251,0)" text-anchor="middle"  font-size="10.95"> 
<tspan font-family="cmr" font-size="10">180</tspan></text> 
</g>
 </g>
 </g>
 </g>
 </g>
 </g>
 <path d=" M  54.06003 217.26779  " style="fill:none"/>
 <g>
 <g stroke="rgb(0.0%,0.0%,0.0%)">
 <g fill="rgb(0.0%,0.0%,0.0%)">
 <g>
 <g stroke="rgb(0.0%,0.0%,0.0%)">
 <g fill="rgb(0.0%,0.0%,0.0%)">
 </g>
 </g>
 </g>
 <g>
 <g transform="matrix(0.86171,0.0,0.0,0.86171,36.58919,214.22742)">
 <g fill="rgb(0.0%,0.0%,0.0%)">
 <text style="stroke:none" transform="scale(1,-1) translate(8.21251,0)" text-anchor="middle"  font-size="10.95"> 
<tspan font-family="cmr" font-size="10">185</tspan></text> 
</g>
 </g>
 </g>
 </g>
 </g>
 </g>
 <path d=" M  54.06003 259.50189  " style="fill:none"/>
 <g>
 <g stroke="rgb(0.0%,0.0%,0.0%)">
 <g fill="rgb(0.0%,0.0%,0.0%)">
 <g>
 <g stroke="rgb(0.0%,0.0%,0.0%)">
 <g fill="rgb(0.0%,0.0%,0.0%)">
 </g>
 </g>
 </g>
 <g>
 <g transform="matrix(0.86171,0.0,0.0,0.86171,36.58919,256.46152)">
 <g fill="rgb(0.0%,0.0%,0.0%)">
 <text style="stroke:none" transform="scale(1,-1) translate(8.21251,0)" text-anchor="middle"  font-size="10.95"> 
<tspan font-family="cmr" font-size="10">190</tspan></text> 
</g>
 </g>
 </g>
 </g>
 </g>
 </g>
 <path d=" M  82.91957 50.27638  " style="fill:none"/>
 <g>
 <g stroke="rgb(0.0%,100.0%,0.0%)">
 <g fill="rgb(0.0%,100.0%,0.0%)">
 <g fill="rgb(0.0%,100.0%,0.0%)">
 <path d=" M  90.12679 50.27638 C  90.12679 54.25687 86.90005 57.4836 82.91957 57.4836 C  78.93909 57.4836 75.71236 54.25687 75.71236 50.27638 C  75.71236 46.2959 78.93909 43.06917 82.91957 43.06917 C  86.90005 43.06917 90.12679 46.2959 90.12679 50.27638 Z M  82.91957 50.27638  " />
 </g>
 </g>
 </g>
 </g>
 <path d=" M  108.93324 51.20546  " style="fill:none"/>
 <g>
 <g stroke="rgb(0.0%,100.0%,0.0%)">
 <g fill="rgb(0.0%,100.0%,0.0%)">
 <g fill="rgb(0.0%,100.0%,0.0%)">
 <path d=" M  116.14046 51.20546 C  116.14046 55.18594 112.91373 58.41267 108.93324 58.41267 C  104.95276 58.41267 101.72603 55.18594 101.72603 51.20546 C  101.72603 47.22498 104.95276 43.99825 108.93324 43.99825 C  112.91373 43.99825 116.14046 47.22498 116.14046 51.20546 Z M  108.93324 51.20546  " />
 </g>
 </g>
 </g>
 </g>
 <path d=" M  134.94734 65.98712  " style="fill:none"/>
 <g>
 <g stroke="rgb(0.0%,100.0%,0.0%)">
 <g fill="rgb(0.0%,100.0%,0.0%)">
 <g fill="rgb(0.0%,100.0%,0.0%)">
 <path d=" M  142.15456 65.98712 C  142.15456 69.9676 138.92783 73.19434 134.94734 73.19434 C  130.96686 73.19434 127.74013 69.9676 127.74013 65.98712 C  127.74013 62.00664 130.96686 58.7799 134.94734 58.7799 C  138.92783 58.7799 142.15456 62.00664 142.15456 65.98712 Z M  134.94734 65.98712  " />
 </g>
 </g>
 </g>
 </g>
 <path d=" M  160.961 64.6356  " style="fill:none"/>
 <g>
 <g stroke="rgb(0.0%,100.0%,0.0%)">
 <g fill="rgb(0.0%,100.0%,0.0%)">
 <g fill="rgb(0.0%,100.0%,0.0%)">
 <path d=" M  168.16821 64.6356 C  168.16821 68.61609 164.94148 71.84282 160.961 71.84282 C  156.98051 71.84282 153.75378 68.61609 153.75378 64.6356 C  153.75378 60.65512 156.98051 57.42839 160.961 57.42839 C  164.94148 57.42839 168.16821 60.65512 168.16821 64.6356 Z M  160.961 64.6356  " />
 </g>
 </g>
 </g>
 </g>
 <path d=" M  186.9751 60.835  " style="fill:none"/>
 <g>
 <g stroke="rgb(0.0%,100.0%,0.0%)">
 <g fill="rgb(0.0%,100.0%,0.0%)">
 <g fill="rgb(0.0%,100.0%,0.0%)">
 <path d=" M  194.18231 60.835 C  194.18231 64.81549 190.95558 68.04222 186.9751 68.04222 C  182.99461 68.04222 179.76788 64.81549 179.76788 60.835 C  179.76788 56.85452 182.99461 53.62779 186.9751 53.62779 C  190.95558 53.62779 194.18231 56.85452 194.18231 60.835 Z M  186.9751 60.835  " />
 </g>
 </g>
 </g>
 </g>
 <path d=" M  212.98877 72.6605  " style="fill:none"/>
 <g>
 <g stroke="rgb(0.0%,100.0%,0.0%)">
 <g fill="rgb(0.0%,100.0%,0.0%)">
 <g fill="rgb(0.0%,100.0%,0.0%)">
 <path d=" M  220.19598 72.6605 C  220.19598 76.64099 216.96925 79.86772 212.98877 79.86772 C  209.00829 79.86772 205.78156 76.64099 205.78156 72.6605 C  205.78156 68.68002 209.00829 65.4533 212.98877 65.4533 C  216.96925 65.4533 220.19598 68.68002 220.19598 72.6605 Z M  212.98877 72.6605  " />
 </g>
 </g>
 </g>
 </g>
 <path d=" M  239.00287 53.3172  " style="fill:none"/>
 <g>
 <g stroke="rgb(0.0%,100.0%,0.0%)">
 <g fill="rgb(0.0%,100.0%,0.0%)">
 <g fill="rgb(0.0%,100.0%,0.0%)">
 <path d=" M  246.21008 53.3172 C  246.21008 57.29768 242.98335 60.52441 239.00287 60.52441 C  235.02238 60.52441 231.79565 57.29768 231.79565 53.3172 C  231.79565 49.33672 235.02238 46.10999 239.00287 46.10999 C  242.98335 46.10999 246.21008 49.33672 246.21008 53.3172 Z M  239.00287 53.3172  " />
 </g>
 </g>
 </g>
 </g>
 <path d=" M  265.01697 81.61365  " style="fill:none"/>
 <g>
 <g stroke="rgb(0.0%,100.0%,0.0%)">
 <g fill="rgb(0.0%,100.0%,0.0%)">
 <g fill="rgb(0.0%,100.0%,0.0%)">
 <path d=" M  272.22418 81.61365 C  272.22418 85.59413 268.99745 88.82086 265.01697 88.82086 C  261.03648 88.82086 257.80975 85.59413 257.80975 81.61365 C  257.80975 77.63316 261.03648 74.40643 265.01697 74.40643 C  268.99745 74.40643 272.22418 77.63316 272.22418 81.61365 Z M  265.01697 81.61365  " />
 </g>
 </g>
 </g>
 </g>
 <path d=" M  291.03194 80.009  " style="fill:none"/>
 <g>
 <g stroke="rgb(0.0%,100.0%,0.0%)">
 <g fill="rgb(0.0%,100.0%,0.0%)">
 <g fill="rgb(0.0%,100.0%,0.0%)">
 <path d=" M  298.23915 80.009 C  298.23915 83.98949 295.01242 87.21622 291.03194 87.21622 C  287.05145 87.21622 283.82472 83.98949 283.82472 80.009 C  283.82472 76.02852 287.05145 72.80179 291.03194 72.80179 C  295.01242 72.80179 298.23915 76.02852 298.23915 80.009 Z M  291.03194 80.009  " />
 </g>
 </g>
 </g>
 </g>
 <path d=" M  317.04602 66.32533  " style="fill:none"/>
 <g>
 <g stroke="rgb(0.0%,100.0%,0.0%)">
 <g fill="rgb(0.0%,100.0%,0.0%)">
 <g fill="rgb(0.0%,100.0%,0.0%)">
 <path d=" M  324.25323 66.32533 C  324.25323 70.30582 321.0265 73.53255 317.04602 73.53255 C  313.06554 73.53255 309.8388 70.30582 309.8388 66.32533 C  309.8388 62.34485 313.06554 59.11812 317.04602 59.11812 C  321.0265 59.11812 324.25323 62.34485 324.25323 66.32533 Z M  317.04602 66.32533  " />
 </g>
 </g>
 </g>
 </g>
 <path d=" M  343.05753 73.0825  " style="fill:none"/>
 <g>
 <g stroke="rgb(0.0%,100.0%,0.0%)">
 <g fill="rgb(0.0%,100.0%,0.0%)">
 <g fill="rgb(0.0%,100.0%,0.0%)">
 <path d=" M  350.26474 73.0825 C  350.26474 77.06299 347.03801 80.28972 343.05753 80.28972 C  339.07704 80.28972 335.85031 77.06299 335.85031 73.0825 C  335.85031 69.10202 339.07704 65.87529 343.05753 65.87529 C  347.03801 65.87529 350.26474 69.10202 350.26474 73.0825 Z M  343.05753 73.0825  " />
 </g>
 </g>
 </g>
 </g>
 <path d=" M  369.07205 67.92996  " style="fill:none"/>
 <g>
 <g stroke="rgb(0.0%,100.0%,0.0%)">
 <g fill="rgb(0.0%,100.0%,0.0%)">
 <g fill="rgb(0.0%,100.0%,0.0%)">
 <path d=" M  376.27927 67.92996 C  376.27927 71.91045 373.05254 75.13718 369.07205 75.13718 C  365.09157 75.13718 361.86484 71.91045 361.86484 67.92996 C  361.86484 63.94948 365.09157 60.72275 369.07205 60.72275 C  373.05254 60.72275 376.27927 63.94948 376.27927 67.92996 Z M  369.07205 67.92996  " />
 </g>
 </g>
 </g>
 </g>
 <path d=" M  395.08615 83.38759  " style="fill:none"/>
 <g>
 <g stroke="rgb(0.0%,100.0%,0.0%)">
 <g fill="rgb(0.0%,100.0%,0.0%)">
 <g fill="rgb(0.0%,100.0%,0.0%)">
 <path d=" M  402.29337 83.38759 C  402.29337 87.36807 399.06664 90.5948 395.08615 90.5948 C  391.10567 90.5948 387.87894 87.36807 387.87894 83.38759 C  387.87894 79.4071 391.10567 76.18037 395.08615 76.18037 C  399.06664 76.18037 402.29337 79.4071 402.29337 83.38759 Z M  395.08615 83.38759  " />
 </g>
 </g>
 </g>
 </g>
 <path d=" M  421.10068 90.65187  " style="fill:none"/>
 <g>
 <g stroke="rgb(0.0%,100.0%,0.0%)">
 <g fill="rgb(0.0%,100.0%,0.0%)">
 <g fill="rgb(0.0%,100.0%,0.0%)">
 <path d=" M  428.30789 90.65187 C  428.30789 94.63235 425.08116 97.85909 421.10068 97.85909 C  417.1202 97.85909 413.89346 94.63235 413.89346 90.65187 C  413.89346 86.67139 417.1202 83.44466 421.10068 83.44466 C  425.08116 83.44466 428.30789 86.67139 428.30789 90.65187 Z M  421.10068 90.65187  " />
 </g>
 </g>
 </g>
 </g>
 <path d=" M  447.11478 83.97891  " style="fill:none"/>
 <g>
 <g stroke="rgb(0.0%,100.0%,0.0%)">
 <g fill="rgb(0.0%,100.0%,0.0%)">
 <g fill="rgb(0.0%,100.0%,0.0%)">
 <path d=" M  454.32199 83.97891 C  454.32199 87.9594 451.09526 91.18613 447.11478 91.18613 C  443.1343 91.18613 439.90756 87.9594 439.90756 83.97891 C  439.90756 79.99843 443.1343 76.7717 447.11478 76.7717 C  451.09526 76.7717 454.32199 79.99843 454.32199 83.97891 Z M  447.11478 83.97891  " />
 </g>
 </g>
 </g>
 </g>
 <path d=" M  473.12932 72.74474  " style="fill:none"/>
 <g>
 <g stroke="rgb(0.0%,100.0%,0.0%)">
 <g fill="rgb(0.0%,100.0%,0.0%)">
 <g fill="rgb(0.0%,100.0%,0.0%)">
 <path d=" M  480.33653 72.74474 C  480.33653 76.72522 477.1098 79.95195 473.12932 79.95195 C  469.14883 79.95195 465.9221 76.72522 465.9221 72.74474 C  465.9221 68.76425 469.14883 65.53752 473.12932 65.53752 C  477.1098 65.53752 480.33653 68.76425 480.33653 72.74474 Z M  473.12932 72.74474  " />
 </g>
 </g>
 </g>
 </g>
 <path d=" M  82.91957 176.8085  " style="fill:none"/>
 <g>
 <g stroke="rgb(100.0%,0.0%,0.0%)">
 <g fill="rgb(100.0%,0.0%,0.0%)">
 <g fill="rgb(100.0%,0.0%,0.0%)">
 <path d=" M  90.12679 176.8085 C  90.12679 180.78899 86.90005 184.01572 82.91957 184.01572 C  78.93909 184.01572 75.71236 180.78899 75.71236 176.8085 C  75.71236 172.82802 78.93909 169.60129 82.91957 169.60129 C  86.90005 169.60129 90.12679 172.82802 90.12679 176.8085 Z M  82.91957 176.8085  " />
 </g>
 </g>
 </g>
 </g>
 <path d=" M  108.93324 171.40242  " style="fill:none"/>
 <g>
 <g stroke="rgb(100.0%,0.0%,0.0%)">
 <g fill="rgb(100.0%,0.0%,0.0%)">
 <g fill="rgb(100.0%,0.0%,0.0%)">
 <path d=" M  116.14046 171.40242 C  116.14046 175.3829 112.91373 178.60963 108.93324 178.60963 C  104.95276 178.60963 101.72603 175.3829 101.72603 171.40242 C  101.72603 167.42194 104.95276 164.1952 108.93324 164.1952 C  112.91373 164.1952 116.14046 167.42194 116.14046 171.40242 Z M  108.93324 171.40242  " />
 </g>
 </g>
 </g>
 </g>
 <path d=" M  134.94734 168.78403  " style="fill:none"/>
 <g>
 <g stroke="rgb(100.0%,0.0%,0.0%)">
 <g fill="rgb(100.0%,0.0%,0.0%)">
 <g fill="rgb(100.0%,0.0%,0.0%)">
 <path d=" M  142.15456 168.78403 C  142.15456 172.76451 138.92783 175.99124 134.94734 175.99124 C  130.96686 175.99124 127.74013 172.76451 127.74013 168.78403 C  127.74013 164.80354 130.96686 161.57681 134.94734 161.57681 C  138.92783 161.57681 142.15456 164.80354 142.15456 168.78403 Z M  134.94734 168.78403  " />
 </g>
 </g>
 </g>
 </g>
 <path d=" M  160.961 163.63148  " style="fill:none"/>
 <g>
 <g stroke="rgb(100.0%,0.0%,0.0%)">
 <g fill="rgb(100.0%,0.0%,0.0%)">
 <g fill="rgb(100.0%,0.0%,0.0%)">
 <path d=" M  168.16821 163.63148 C  168.16821 167.61197 164.94148 170.8387 160.961 170.8387 C  156.98051 170.8387 153.75378 167.61197 153.75378 163.63148 C  153.75378 159.651 156.98051 156.42427 160.961 156.42427 C  164.94148 156.42427 168.16821 159.651 168.16821 163.63148 Z M  160.961 163.63148  " />
 </g>
 </g>
 </g>
 </g>
 <path d=" M  186.9751 171.90907  " style="fill:none"/>
 <g>
 <g stroke="rgb(100.0%,0.0%,0.0%)">
 <g fill="rgb(100.0%,0.0%,0.0%)">
 <g fill="rgb(100.0%,0.0%,0.0%)">
 <path d=" M  194.18231 171.90907 C  194.18231 175.88956 190.95558 179.11629 186.9751 179.11629 C  182.99461 179.11629 179.76788 175.88956 179.76788 171.90907 C  179.76788 167.92859 182.99461 164.70186 186.9751 164.70186 C  190.95558 164.70186 194.18231 167.92859 194.18231 171.90907 Z M  186.9751 171.90907  " />
 </g>
 </g>
 </g>
 </g>
 <path d=" M  212.98877 178.9198  " style="fill:none"/>
 <g>
 <g stroke="rgb(100.0%,0.0%,0.0%)">
 <g fill="rgb(100.0%,0.0%,0.0%)">
 <g fill="rgb(100.0%,0.0%,0.0%)">
 <path d=" M  220.19598 178.9198 C  220.19598 182.90028 216.96925 186.12701 212.98877 186.12701 C  209.00829 186.12701 205.78156 182.90028 205.78156 178.9198 C  205.78156 174.93932 209.00829 171.71259 212.98877 171.71259 C  216.96925 171.71259 220.19598 174.93932 220.19598 178.9198 Z M  212.98877 178.9198  " />
 </g>
 </g>
 </g>
 </g>
 <path d=" M  239.00287 186.26874  " style="fill:none"/>
 <g>
 <g stroke="rgb(100.0%,0.0%,0.0%)">
 <g fill="rgb(100.0%,0.0%,0.0%)">
 <g fill="rgb(100.0%,0.0%,0.0%)">
 <path d=" M  246.21008 186.26874 C  246.21008 190.24922 242.98335 193.47595 239.00287 193.47595 C  235.02238 193.47595 231.79565 190.24922 231.79565 186.26874 C  231.79565 182.28825 235.02238 179.06152 239.00287 179.06152 C  242.98335 179.06152 246.21008 182.28825 246.21008 186.26874 Z M  239.00287 186.26874  " />
 </g>
 </g>
 </g>
 </g>
 <path d=" M  265.01697 190.32286  " style="fill:none"/>
 <g>
 <g stroke="rgb(100.0%,0.0%,0.0%)">
 <g fill="rgb(100.0%,0.0%,0.0%)">
 <g fill="rgb(100.0%,0.0%,0.0%)">
 <path d=" M  272.22418 190.32286 C  272.22418 194.30334 268.99745 197.53008 265.01697 197.53008 C  261.03648 197.53008 257.80975 194.30334 257.80975 190.32286 C  257.80975 186.34238 261.03648 183.11565 265.01697 183.11565 C  268.99745 183.11565 272.22418 186.34238 272.22418 190.32286 Z M  265.01697 190.32286  " />
 </g>
 </g>
 </g>
 </g>
 <path d=" M  291.03194 188.54935  " style="fill:none"/>
 <g>
 <g stroke="rgb(100.0%,0.0%,0.0%)">
 <g fill="rgb(100.0%,0.0%,0.0%)">
 <g fill="rgb(100.0%,0.0%,0.0%)">
 <path d=" M  298.23915 188.54935 C  298.23915 192.52983 295.01242 195.75656 291.03194 195.75656 C  287.05145 195.75656 283.82472 192.52983 283.82472 188.54935 C  283.82472 184.56886 287.05145 181.34213 291.03194 181.34213 C  295.01242 181.34213 298.23915 184.56886 298.23915 188.54935 Z M  291.03194 188.54935  " />
 </g>
 </g>
 </g>
 </g>
 <path d=" M  317.04602 171.06465  " style="fill:none"/>
 <g>
 <g stroke="rgb(100.0%,0.0%,0.0%)">
 <g fill="rgb(100.0%,0.0%,0.0%)">
 <g fill="rgb(100.0%,0.0%,0.0%)">
 <path d=" M  324.25323 171.06465 C  324.25323 175.04514 321.0265 178.27187 317.04602 178.27187 C  313.06554 178.27187 309.8388 175.04514 309.8388 171.06465 C  309.8388 167.08417 313.06554 163.85744 317.04602 163.85744 C  321.0265 163.85744 324.25323 167.08417 324.25323 171.06465 Z M  317.04602 171.06465  " />
 </g>
 </g>
 </g>
 </g>
 <path d=" M  343.05753 186.77539  " style="fill:none"/>
 <g>
 <g stroke="rgb(100.0%,0.0%,0.0%)">
 <g fill="rgb(100.0%,0.0%,0.0%)">
 <g fill="rgb(100.0%,0.0%,0.0%)">
 <path d=" M  350.26474 186.77539 C  350.26474 190.75587 347.03801 193.9826 343.05753 193.9826 C  339.07704 193.9826 335.85031 190.75587 335.85031 186.77539 C  335.85031 182.7949 339.07704 179.56818 343.05753 179.56818 C  347.03801 179.56818 350.26474 182.7949 350.26474 186.77539 Z M  343.05753 186.77539  " />
 </g>
 </g>
 </g>
 </g>
 <path d=" M  369.07205 203.4999  " style="fill:none"/>
 <g>
 <g stroke="rgb(100.0%,0.0%,0.0%)">
 <g fill="rgb(100.0%,0.0%,0.0%)">
 <g fill="rgb(100.0%,0.0%,0.0%)">
 <path d=" M  376.27927 203.4999 C  376.27927 207.48038 373.05254 210.7071 369.07205 210.7071 C  365.09157 210.7071 361.86484 207.48038 361.86484 203.4999 C  361.86484 199.51941 365.09157 196.29268 369.07205 196.29268 C  373.05254 196.29268 376.27927 199.51941 376.27927 203.4999 Z M  369.07205 203.4999  " />
 </g>
 </g>
 </g>
 </g>
 <path d=" M  395.08615 194.4621  " style="fill:none"/>
 <g>
 <g stroke="rgb(100.0%,0.0%,0.0%)">
 <g fill="rgb(100.0%,0.0%,0.0%)">
 <g fill="rgb(100.0%,0.0%,0.0%)">
 <path d=" M  402.29337 194.4621 C  402.29337 198.44258 399.06664 201.66931 395.08615 201.66931 C  391.10567 201.66931 387.87894 198.44258 387.87894 194.4621 C  387.87894 190.48161 391.10567 187.25488 395.08615 187.25488 C  399.06664 187.25488 402.29337 190.48161 402.29337 194.4621 Z M  395.08615 194.4621  " />
 </g>
 </g>
 </g>
 </g>
 <path d=" M  421.10068 193.02591  " style="fill:none"/>
 <g>
 <g stroke="rgb(100.0%,0.0%,0.0%)">
 <g fill="rgb(100.0%,0.0%,0.0%)">
 <g fill="rgb(100.0%,0.0%,0.0%)">
 <path d=" M  428.30789 193.02591 C  428.30789 197.0064 425.08116 200.23312 421.10068 200.23312 C  417.1202 200.23312 413.89346 197.0064 413.89346 193.02591 C  413.89346 189.04543 417.1202 185.8187 421.10068 185.8187 C  425.08116 185.8187 428.30789 189.04543 428.30789 193.02591 Z M  421.10068 193.02591  " />
 </g>
 </g>
 </g>
 </g>
 <path d=" M  447.11478 196.40494  " style="fill:none"/>
 <g>
 <g stroke="rgb(100.0%,0.0%,0.0%)">
 <g fill="rgb(100.0%,0.0%,0.0%)">
 <g fill="rgb(100.0%,0.0%,0.0%)">
 <path d=" M  454.32199 196.40494 C  454.32199 200.38542 451.09526 203.61215 447.11478 203.61215 C  443.1343 203.61215 439.90756 200.38542 439.90756 196.40494 C  439.90756 192.42445 443.1343 189.19772 447.11478 189.19772 C  451.09526 189.19772 454.32199 192.42445 454.32199 196.40494 Z M  447.11478 196.40494  " />
 </g>
 </g>
 </g>
 </g>
 <path d=" M  473.12932 189.90086  " style="fill:none"/>
 <g>
 <g stroke="rgb(100.0%,0.0%,0.0%)">
 <g fill="rgb(100.0%,0.0%,0.0%)">
 <g fill="rgb(100.0%,0.0%,0.0%)">
 <path d=" M  480.33653 189.90086 C  480.33653 193.88135 477.1098 197.10808 473.12932 197.10808 C  469.14883 197.10808 465.9221 193.88135 465.9221 189.90086 C  465.9221 185.92038 469.14883 182.69365 473.12932 182.69365 C  477.1098 182.69365 480.33653 185.92038 480.33653 189.90086 Z M  473.12932 189.90086  " />
 </g>
 </g>
 </g>
 </g>
 <g>
 <g stroke="rgb(100.0%,100.0%,100.0%)">
 <g fill="rgb(100.0%,100.0%,100.0%)">
 <g fill="rgb(100.0%,100.0%,100.0%)">
 <path d=" M  341.43292 217.86476 M  341.43292 217.86476 L  341.43292 280.11165 L  512.14938 280.11165 L  512.14938 217.86476 Z M  512.14938 280.11165  " />
 </g>
 </g>
 </g>
 </g>
 <g>
 <g stroke="rgb(0.0%,0.0%,0.0%)">
 <g fill="rgb(0.0%,0.0%,0.0%)">
 <g stroke-width="0.9pt">
 <path d=" M  341.43292 217.86476 L  512.14938 217.86476  " style="fill:none"/>
 </g>
 </g>
 </g>
 </g>
 <g>
 <g stroke="rgb(0.0%,0.0%,0.0%)">
 <g fill="rgb(0.0%,0.0%,0.0%)">
 <g stroke-width="0.9pt">
 <path d=" M  512.14938 217.86476 L  512.14938 280.11165  " style="fill:none"/>
 </g>
 </g>
 </g>
 </g>
 <g>
 <g stroke="rgb(0.0%,0.0%,0.0%)">
 <g fill="rgb(0.0%,0.0%,0.0%)">
 <g stroke-width="0.9pt">
 <path d=" M  512.14938 280.11165 L  341.43292 280.11165  " style="fill:none"/>
 </g>
 </g>
 </g>
 </g>
 <g>
 <g stroke="rgb(0.0%,0.0%,0.0%)">
 <g fill="rgb(0.0%,0.0%,0.0%)">
 <g stroke-width="0.9pt">
 <path d=" M  341.43292 280.11165 L  341.43292 217.86476  " style="fill:none"/>
 </g>
 </g>
 </g>
 </g>
 <path d=" M  384.11203 257.5469  " style="fill:none"/>
 <g>
 <g stroke="rgb(0.0%,0.0%,0.0%)">
 <g fill="rgb(0.0%,0.0%,0.0%)">
 <g>
 <g stroke="rgb(0.0%,0.0%,0.0%)">
 <g fill="rgb(0.0%,0.0%,0.0%)">
 </g>
 </g>
 </g>
 <g>
 <g transform="matrix(1.55663,0.0,0.0,1.55663,390.10442,257.5469)">
 <g fill="rgb(0.0%,0.0%,0.0%)">
 <text style="stroke:none" transform="scale(1,-1) translate(16.5771,0)" text-anchor="middle"  font-size="10.95"> 
<tspan font-family="cmr" font-size="10">default</tspan></text> 
</g>
 </g>
 </g>
 </g>
 </g>
 </g>
 <g>
 <g stroke="rgb(100.0%,100.0%,100.0%)">
 <g fill="rgb(100.0%,100.0%,100.0%)">
 <path d=" M  347.83496 253.65688 L  377.70999 253.65688 L  377.70999 275.44318 L  347.83496 275.44318  " style="fill:none"/>
 </g>
 </g>
 </g>
 <g>
 <g stroke="rgb(100.0%,100.0%,100.0%)">
 <g fill="rgb(100.0%,100.0%,100.0%)">
 <g stroke-width="0.9pt">
 <path d=" M  347.83496 264.54982 L  377.70999 264.54982  " style="fill:none"/>
 </g>
 </g>
 </g>
 </g>
 <path d=" M  362.77248 264.54982  " style="fill:none"/>
 <g>
 <g stroke="rgb(0.0%,100.0%,0.0%)">
 <g fill="rgb(0.0%,100.0%,0.0%)">
 <g fill="rgb(0.0%,100.0%,0.0%)">
 <path d=" M  369.97969 264.54982 C  369.97969 268.5303 366.75296 271.75703 362.77248 271.75703 C  358.79199 271.75703 355.56526 268.5303 355.56526 264.54982 C  355.56526 260.56934 358.79199 257.3426 362.77248 257.3426 C  366.75296 257.3426 369.97969 260.56934 369.97969 264.54982 Z M  362.77248 264.54982  " />
 </g>
 </g>
 </g>
 </g>
 <path d=" M  384.11203 226.42368  " style="fill:none"/>
 <g>
 <g stroke="rgb(0.0%,0.0%,0.0%)">
 <g fill="rgb(0.0%,0.0%,0.0%)">
 <g>
 <g stroke="rgb(0.0%,0.0%,0.0%)">
 <g fill="rgb(0.0%,0.0%,0.0%)">
 </g>
 </g>
 </g>
 <g>
 <g transform="matrix(1.55663,0.0,0.0,1.55663,390.10442,226.42368)">
 <g fill="rgb(0.0%,0.0%,0.0%)">
 <text style="stroke:none" transform="scale(1,-1) translate(15.54292,0)" text-anchor="middle"  font-size="10.95"> 
<tspan font-family="cmr" font-size="10">seeded</tspan></text> 
</g>
 </g>
 </g>
 </g>
 </g>
 </g>
 <g>
 <g stroke="rgb(100.0%,100.0%,100.0%)">
 <g fill="rgb(100.0%,100.0%,100.0%)">
 <path d=" M  347.83496 222.53322 L  377.70999 222.53322 L  377.70999 244.31952 L  347.83496 244.31952  " style="fill:none"/>
 </g>
 </g>
 </g>
 <g>
 <g stroke="rgb(100.0%,100.0%,100.0%)">
 <g fill="rgb(100.0%,100.0%,100.0%)">
 <g stroke-width="0.9pt">
 <path d=" M  347.83496 233.42659 L  377.70999 233.42659  " style="fill:none"/>
 </g>
 </g>
 </g>
 </g>
 <path d=" M  362.77248 233.42659  " style="fill:none"/>
 <g>
 <g stroke="rgb(100.0%,0.0%,0.0%)">
 <g fill="rgb(100.0%,0.0%,0.0%)">
 <g fill="rgb(100.0%,0.0%,0.0%)">
 <path d=" M  369.97969 233.42659 C  369.97969 237.40707 366.75296 240.6338 362.77248 240.6338 C  358.79199 240.6338 355.56526 237.40707 355.56526 233.42659 C  355.56526 229.4461 358.79199 226.21938 362.77248 226.21938 C  366.75296 226.21938 369.97969 229.4461 369.97969 233.42659 Z M  362.77248 233.42659  " />
 </g>
 </g>
 </g>
 </g>
 <path d=" M  284.52744 301.12125  " style="fill:none"/>
 <g>
 <g stroke="rgb(0.0%,0.0%,0.0%)">
 <g fill="rgb(0.0%,0.0%,0.0%)">
 <g>
 <g stroke="rgb(0.0%,0.0%,0.0%)">
 <g fill="rgb(0.0%,0.0%,0.0%)">
 </g>
 </g>
 </g>
 <g>
 <g transform="matrix(1.13966,0.0,0.0,1.13966,209.5128,296.78816)">
 <g fill="rgb(0.0%,0.0%,0.0%)">
 <text style="stroke:none" transform="scale(1,-1) translate(65.82173,0)" text-anchor="middle"  font-size="10.95"> 
<tspan font-family="cmr" font-size="10">User run time for mersenne</tspan></text> 
</g>
 </g>
 </g>
 </g>
 </g>
 </g>
 </g>
 </g>
 </g>
 </g>
 </g>
                                                                                                                         </g> 
</svg> 
