<?xml version="1.0" encoding="iso-8859-1" standalone="no"?> 
<?xml-stylesheet href="gsocPreprint.css" type="text/css"?> 
<svg xmlns="http://www.w3.org/2000/svg" xmlns:xlink="http://www.w3.org/1999/xlink" width="569.45486pt" height="311.63617pt" viewBox="-0.2 -0.2 569.45486 311.63617 "> 
<g transform="translate(0, 311.43617 ) scale(1,-1) translate(0,0.2 )"> 
<g>
 <g stroke="rgb(0.0%,0.0%,0.0%)">
 <g fill="rgb(0.0%,0.0%,0.0%)">
 <g stroke-width="0.4pt">
 <g>
 <g>
 <g stroke="rgb(100.0%,100.0%,100.0%)">
 <g fill="rgb(100.0%,100.0%,100.0%)">
 <g fill="rgb(100.0%,100.0%,100.0%)">
 <path d=" M  0.0 0.0 M  0.0 0.0 L  0.0 311.23618 L  569.05487 311.23618 L  569.05487 0.0 Z M  569.05487 311.23618  " />
 </g>
 </g>
 </g>
 </g>
 <g>
 <g stroke="rgb(100.0%,100.0%,100.0%)">
 <g fill="rgb(100.0%,100.0%,100.0%)">
 <g fill="rgb(100.0%,100.0%,100.0%)">
 <path d=" M  56.90549 31.12366 M  56.90549 31.12366 L  56.90549 280.11165 L  512.14938 280.11165 L  512.14938 31.12366 Z M  512.14938 280.11165  " />
 </g>
 </g>
 </g>
 </g>
 <g>
 <g stroke="rgb(0.0%,0.0%,0.0%)">
 <g fill="rgb(0.0%,0.0%,0.0%)">
 <g stroke-width="0.9pt">
 <path d=" M  56.90549 31.12366 L  56.90549 280.11165 L  512.14938 280.11165 L  512.14938 31.12366 L  56.90549 31.12366  " style="fill:none"/>
 </g>
 </g>
 </g>
 </g>
 <g>
 <g stroke="rgb(100.0%,100.0%,100.0%)">
 <g fill="rgb(100.0%,100.0%,100.0%)">
 <g fill="rgb(100.0%,100.0%,100.0%)">
 <path d=" M  56.90549 31.12366 M  56.90549 31.12366 L  56.90549 280.11165 L  512.14938 280.11165 L  512.14938 31.12366 Z M  512.14938 280.11165  " />
 </g>
 </g>
 </g>
 </g>
 <g>
 <g stroke="rgb(0.0%,0.0%,0.0%)">
 <g fill="rgb(0.0%,0.0%,0.0%)">
 <g stroke-width="0.9pt">
 <path d=" M  56.90549 31.12366 L  56.90549 280.11165 L  512.14938 280.11165 L  512.14938 31.12366 L  56.90549 31.12366  " style="fill:none"/>
 </g>
 </g>
 </g>
 </g>
 <g>
 <g stroke="rgb(0.0%,100.0%,0.0%)">
 <g fill="rgb(0.0%,100.0%,0.0%)">
 <g stroke-width="0.9pt">
 <path d=" M  284.52744 83.58905 L  284.52744 118.9748  " style="fill:none"/>
 </g>
 </g>
 </g>
 </g>
 <g>
 <g stroke="rgb(0.0%,100.0%,0.0%)">
 <g fill="rgb(0.0%,100.0%,0.0%)">
 <g stroke-width="0.9pt">
 <path d=" M  284.52744 118.9748 L  284.52744 154.36055  " style="fill:none"/>
 </g>
 </g>
 </g>
 </g>
 <g>
 <g stroke="rgb(0.0%,100.0%,0.0%)">
 <g fill="rgb(0.0%,100.0%,0.0%)">
 <g stroke-width="0.9pt">
 <path d=" M  56.90549 118.9748 L  284.52744 118.9748  " style="fill:none"/>
 </g>
 </g>
 </g>
 </g>
 <g>
 <g stroke="rgb(0.0%,100.0%,0.0%)">
 <g fill="rgb(0.0%,100.0%,0.0%)">
 <g stroke-width="0.9pt">
 <path d=" M  284.52744 118.9748 L  512.14938 118.9748  " style="fill:none"/>
 </g>
 </g>
 </g>
 </g>
 <path d=" M  284.52744 118.9748  " style="fill:none"/>
 <g>
 <g stroke="rgb(0.0%,100.0%,0.0%)">
 <g fill="rgb(0.0%,100.0%,0.0%)">
 <g fill="rgb(0.0%,100.0%,0.0%)">
 <path d=" M  285.52744 118.9748 C  285.52744 119.52708 285.07973 119.9748 284.52744 119.9748 C  283.97514 119.9748 283.52744 119.52708 283.52744 118.9748 C  283.52744 118.4225 283.97514 117.9748 284.52744 117.9748 C  285.07973 117.9748 285.52744 118.4225 285.52744 118.9748 Z M  284.52744 118.9748  " />
 </g>
 </g>
 </g>
 </g>
 <g>
 <g stroke="rgb(0.0%,0.0%,0.0%)">
 <g fill="rgb(0.0%,0.0%,0.0%)">
 <g stroke-width="0.9pt">
 <path d=" M  56.90549 31.12366 L  512.14938 31.12366  " style="fill:none"/>
 </g>
 </g>
 </g>
 </g>
 <g>
 <g stroke="rgb(0.0%,0.0%,0.0%)">
 <g fill="rgb(0.0%,0.0%,0.0%)">
 <g stroke-width="0.9pt">
 <path d=" M  56.90549 38.59328 L  56.90549 31.12366  " style="fill:none"/>
 </g>
 </g>
 </g>
 </g>
 <g>
 <g stroke="rgb(0.0%,0.0%,0.0%)">
 <g fill="rgb(0.0%,0.0%,0.0%)">
 <g stroke-width="0.9pt">
 <path d=" M  70.29524 34.85825 L  70.29524 31.12366  " style="fill:none"/>
 </g>
 </g>
 </g>
 </g>
 <g>
 <g stroke="rgb(0.0%,0.0%,0.0%)">
 <g fill="rgb(0.0%,0.0%,0.0%)">
 <g stroke-width="0.9pt">
 <path d=" M  83.68456 34.85825 L  83.68456 31.12366  " style="fill:none"/>
 </g>
 </g>
 </g>
 </g>
 <g>
 <g stroke="rgb(0.0%,0.0%,0.0%)">
 <g fill="rgb(0.0%,0.0%,0.0%)">
 <g stroke-width="0.9pt">
 <path d=" M  97.07388 34.85825 L  97.07388 31.12366  " style="fill:none"/>
 </g>
 </g>
 </g>
 </g>
 <g>
 <g stroke="rgb(0.0%,0.0%,0.0%)">
 <g fill="rgb(0.0%,0.0%,0.0%)">
 <g stroke-width="0.9pt">
 <path d=" M  110.46364 38.59328 L  110.46364 31.12366  " style="fill:none"/>
 </g>
 </g>
 </g>
 </g>
 <g>
 <g stroke="rgb(0.0%,0.0%,0.0%)">
 <g fill="rgb(0.0%,0.0%,0.0%)">
 <g stroke-width="0.9pt">
 <path d=" M  123.85295 34.85825 L  123.85295 31.12366  " style="fill:none"/>
 </g>
 </g>
 </g>
 </g>
 <g>
 <g stroke="rgb(0.0%,0.0%,0.0%)">
 <g fill="rgb(0.0%,0.0%,0.0%)">
 <g stroke-width="0.9pt">
 <path d=" M  137.24272 34.85825 L  137.24272 31.12366  " style="fill:none"/>
 </g>
 </g>
 </g>
 </g>
 <g>
 <g stroke="rgb(0.0%,0.0%,0.0%)">
 <g fill="rgb(0.0%,0.0%,0.0%)">
 <g stroke-width="0.9pt">
 <path d=" M  150.63203 34.85825 L  150.63203 31.12366  " style="fill:none"/>
 </g>
 </g>
 </g>
 </g>
 <g>
 <g stroke="rgb(0.0%,0.0%,0.0%)">
 <g fill="rgb(0.0%,0.0%,0.0%)">
 <g stroke-width="0.9pt">
 <path d=" M  164.02179 38.59328 L  164.02179 31.12366  " style="fill:none"/>
 </g>
 </g>
 </g>
 </g>
 <g>
 <g stroke="rgb(0.0%,0.0%,0.0%)">
 <g fill="rgb(0.0%,0.0%,0.0%)">
 <g stroke-width="0.9pt">
 <path d=" M  177.41112 34.85825 L  177.41112 31.12366  " style="fill:none"/>
 </g>
 </g>
 </g>
 </g>
 <g>
 <g stroke="rgb(0.0%,0.0%,0.0%)">
 <g fill="rgb(0.0%,0.0%,0.0%)">
 <g stroke-width="0.9pt">
 <path d=" M  190.80087 34.85825 L  190.80087 31.12366  " style="fill:none"/>
 </g>
 </g>
 </g>
 </g>
 <g>
 <g stroke="rgb(0.0%,0.0%,0.0%)">
 <g fill="rgb(0.0%,0.0%,0.0%)">
 <g stroke-width="0.9pt">
 <path d=" M  204.19019 34.85825 L  204.19019 31.12366  " style="fill:none"/>
 </g>
 </g>
 </g>
 </g>
 <g>
 <g stroke="rgb(0.0%,0.0%,0.0%)">
 <g fill="rgb(0.0%,0.0%,0.0%)">
 <g stroke-width="0.9pt">
 <path d=" M  217.57996 38.59328 L  217.57996 31.12366  " style="fill:none"/>
 </g>
 </g>
 </g>
 </g>
 <g>
 <g stroke="rgb(0.0%,0.0%,0.0%)">
 <g fill="rgb(0.0%,0.0%,0.0%)">
 <g stroke-width="0.9pt">
 <path d=" M  230.96927 34.85825 L  230.96927 31.12366  " style="fill:none"/>
 </g>
 </g>
 </g>
 </g>
 <g>
 <g stroke="rgb(0.0%,0.0%,0.0%)">
 <g fill="rgb(0.0%,0.0%,0.0%)">
 <g stroke-width="0.9pt">
 <path d=" M  244.3586 34.85825 L  244.3586 31.12366  " style="fill:none"/>
 </g>
 </g>
 </g>
 </g>
 <g>
 <g stroke="rgb(0.0%,0.0%,0.0%)">
 <g fill="rgb(0.0%,0.0%,0.0%)">
 <g stroke-width="0.9pt">
 <path d=" M  257.74835 34.85825 L  257.74835 31.12366  " style="fill:none"/>
 </g>
 </g>
 </g>
 </g>
 <g>
 <g stroke="rgb(0.0%,0.0%,0.0%)">
 <g fill="rgb(0.0%,0.0%,0.0%)">
 <g stroke-width="0.9pt">
 <path d=" M  271.13766 38.59328 L  271.13766 31.12366  " style="fill:none"/>
 </g>
 </g>
 </g>
 </g>
 <g>
 <g stroke="rgb(0.0%,0.0%,0.0%)">
 <g fill="rgb(0.0%,0.0%,0.0%)">
 <g stroke-width="0.9pt">
 <path d=" M  284.52744 34.85825 L  284.52744 31.12366  " style="fill:none"/>
 </g>
 </g>
 </g>
 </g>
 <g>
 <g stroke="rgb(0.0%,0.0%,0.0%)">
 <g fill="rgb(0.0%,0.0%,0.0%)">
 <g stroke-width="0.9pt">
 <path d=" M  297.91719 34.85825 L  297.91719 31.12366  " style="fill:none"/>
 </g>
 </g>
 </g>
 </g>
 <g>
 <g stroke="rgb(0.0%,0.0%,0.0%)">
 <g fill="rgb(0.0%,0.0%,0.0%)">
 <g stroke-width="0.9pt">
 <path d=" M  311.30695 34.85825 L  311.30695 31.12366  " style="fill:none"/>
 </g>
 </g>
 </g>
 </g>
 <g>
 <g stroke="rgb(0.0%,0.0%,0.0%)">
 <g fill="rgb(0.0%,0.0%,0.0%)">
 <g stroke-width="0.9pt">
 <path d=" M  324.69713 38.59328 L  324.69713 31.12366  " style="fill:none"/>
 </g>
 </g>
 </g>
 </g>
 <g>
 <g stroke="rgb(0.0%,0.0%,0.0%)">
 <g fill="rgb(0.0%,0.0%,0.0%)">
 <g stroke-width="0.9pt">
 <path d=" M  338.08688 34.85825 L  338.08688 31.12366  " style="fill:none"/>
 </g>
 </g>
 </g>
 </g>
 <g>
 <g stroke="rgb(0.0%,0.0%,0.0%)">
 <g fill="rgb(0.0%,0.0%,0.0%)">
 <g stroke-width="0.9pt">
 <path d=" M  351.47404 34.85825 L  351.47404 31.12366  " style="fill:none"/>
 </g>
 </g>
 </g>
 </g>
 <g>
 <g stroke="rgb(0.0%,0.0%,0.0%)">
 <g fill="rgb(0.0%,0.0%,0.0%)">
 <g stroke-width="0.9pt">
 <path d=" M  364.8638 34.85825 L  364.8638 31.12366  " style="fill:none"/>
 </g>
 </g>
 </g>
 </g>
 <g>
 <g stroke="rgb(0.0%,0.0%,0.0%)">
 <g fill="rgb(0.0%,0.0%,0.0%)">
 <g stroke-width="0.9pt">
 <path d=" M  378.25356 38.59328 L  378.25356 31.12366  " style="fill:none"/>
 </g>
 </g>
 </g>
 </g>
 <g>
 <g stroke="rgb(0.0%,0.0%,0.0%)">
 <g fill="rgb(0.0%,0.0%,0.0%)">
 <g stroke-width="0.9pt">
 <path d=" M  391.64331 34.85825 L  391.64331 31.12366  " style="fill:none"/>
 </g>
 </g>
 </g>
 </g>
 <g>
 <g stroke="rgb(0.0%,0.0%,0.0%)">
 <g fill="rgb(0.0%,0.0%,0.0%)">
 <g stroke-width="0.9pt">
 <path d=" M  405.0335 34.85825 L  405.0335 31.12366  " style="fill:none"/>
 </g>
 </g>
 </g>
 </g>
 <g>
 <g stroke="rgb(0.0%,0.0%,0.0%)">
 <g fill="rgb(0.0%,0.0%,0.0%)">
 <g stroke-width="0.9pt">
 <path d=" M  418.42325 34.85825 L  418.42325 31.12366  " style="fill:none"/>
 </g>
 </g>
 </g>
 </g>
 <g>
 <g stroke="rgb(0.0%,0.0%,0.0%)">
 <g fill="rgb(0.0%,0.0%,0.0%)">
 <g stroke-width="0.9pt">
 <path d=" M  431.813 38.59328 L  431.813 31.12366  " style="fill:none"/>
 </g>
 </g>
 </g>
 </g>
 <g>
 <g stroke="rgb(0.0%,0.0%,0.0%)">
 <g fill="rgb(0.0%,0.0%,0.0%)">
 <g stroke-width="0.9pt">
 <path d=" M  445.20276 34.85825 L  445.20276 31.12366  " style="fill:none"/>
 </g>
 </g>
 </g>
 </g>
 <g>
 <g stroke="rgb(0.0%,0.0%,0.0%)">
 <g fill="rgb(0.0%,0.0%,0.0%)">
 <g stroke-width="0.9pt">
 <path d=" M  458.58992 34.85825 L  458.58992 31.12366  " style="fill:none"/>
 </g>
 </g>
 </g>
 </g>
 <g>
 <g stroke="rgb(0.0%,0.0%,0.0%)">
 <g fill="rgb(0.0%,0.0%,0.0%)">
 <g stroke-width="0.9pt">
 <path d=" M  471.97968 34.85825 L  471.97968 31.12366  " style="fill:none"/>
 </g>
 </g>
 </g>
 </g>
 <g>
 <g stroke="rgb(0.0%,0.0%,0.0%)">
 <g fill="rgb(0.0%,0.0%,0.0%)">
 <g stroke-width="0.9pt">
 <path d=" M  485.36986 38.59328 L  485.36986 31.12366  " style="fill:none"/>
 </g>
 </g>
 </g>
 </g>
 <g>
 <g stroke="rgb(0.0%,0.0%,0.0%)">
 <g fill="rgb(0.0%,0.0%,0.0%)">
 <g stroke-width="0.9pt">
 <path d=" M  485.36986 38.59328 L  485.36986 31.12366  " style="fill:none"/>
 </g>
 </g>
 </g>
 </g>
 <g>
 <g stroke="rgb(0.0%,0.0%,0.0%)">
 <g fill="rgb(0.0%,0.0%,0.0%)">
 <g stroke-width="0.9pt">
 <path d=" M  498.75961 34.85825 L  498.75961 31.12366  " style="fill:none"/>
 </g>
 </g>
 </g>
 </g>
 <g>
 <g stroke="rgb(0.0%,0.0%,0.0%)">
 <g fill="rgb(0.0%,0.0%,0.0%)">
 <g stroke-width="0.9pt">
 <path d=" M  512.14938 34.85825 L  512.14938 31.12366  " style="fill:none"/>
 </g>
 </g>
 </g>
 </g>
 <path d=" M  56.90549 20.85286  " style="fill:none"/>
 <g>
 <g stroke="rgb(0.0%,0.0%,0.0%)">
 <g fill="rgb(0.0%,0.0%,0.0%)">
 <g>
 <g stroke="rgb(0.0%,0.0%,0.0%)">
 <g fill="rgb(0.0%,0.0%,0.0%)">
 </g>
 </g>
 </g>
 <g>
 <g transform="matrix(0.86171,0.0,0.0,0.86171,54.54655,20.85286)">
 <g fill="rgb(0.0%,0.0%,0.0%)">
 <text style="stroke:none" transform="scale(1,-1) translate(2.7375,0)" text-anchor="middle"  font-size="10.95"> 
<tspan font-family="cmr" font-size="10">0</tspan></text> 
</g>
 </g>
 </g>
 </g>
 </g>
 </g>
 <path d=" M  110.46364 20.85286  " style="fill:none"/>
 <g>
 <g stroke="rgb(0.0%,0.0%,0.0%)">
 <g fill="rgb(0.0%,0.0%,0.0%)">
 <g>
 <g stroke="rgb(0.0%,0.0%,0.0%)">
 <g fill="rgb(0.0%,0.0%,0.0%)">
 </g>
 </g>
 </g>
 <g>
 <g transform="matrix(0.86171,0.0,0.0,0.86171,108.1047,20.85286)">
 <g fill="rgb(0.0%,0.0%,0.0%)">
 <text style="stroke:none" transform="scale(1,-1) translate(2.7375,0)" text-anchor="middle"  font-size="10.95"> 
<tspan font-family="cmr" font-size="10">2</tspan></text> 
</g>
 </g>
 </g>
 </g>
 </g>
 </g>
 <path d=" M  164.02179 20.85286  " style="fill:none"/>
 <g>
 <g stroke="rgb(0.0%,0.0%,0.0%)">
 <g fill="rgb(0.0%,0.0%,0.0%)">
 <g>
 <g stroke="rgb(0.0%,0.0%,0.0%)">
 <g fill="rgb(0.0%,0.0%,0.0%)">
 </g>
 </g>
 </g>
 <g>
 <g transform="matrix(0.86171,0.0,0.0,0.86171,161.66286,20.85286)">
 <g fill="rgb(0.0%,0.0%,0.0%)">
 <text style="stroke:none" transform="scale(1,-1) translate(2.7375,0)" text-anchor="middle"  font-size="10.95"> 
<tspan font-family="cmr" font-size="10">4</tspan></text> 
</g>
 </g>
 </g>
 </g>
 </g>
 </g>
 <path d=" M  217.57996 20.85286  " style="fill:none"/>
 <g>
 <g stroke="rgb(0.0%,0.0%,0.0%)">
 <g fill="rgb(0.0%,0.0%,0.0%)">
 <g>
 <g stroke="rgb(0.0%,0.0%,0.0%)">
 <g fill="rgb(0.0%,0.0%,0.0%)">
 </g>
 </g>
 </g>
 <g>
 <g transform="matrix(0.86171,0.0,0.0,0.86171,215.22102,20.85286)">
 <g fill="rgb(0.0%,0.0%,0.0%)">
 <text style="stroke:none" transform="scale(1,-1) translate(2.7375,0)" text-anchor="middle"  font-size="10.95"> 
<tspan font-family="cmr" font-size="10">6</tspan></text> 
</g>
 </g>
 </g>
 </g>
 </g>
 </g>
 <path d=" M  271.13766 20.85286  " style="fill:none"/>
 <g>
 <g stroke="rgb(0.0%,0.0%,0.0%)">
 <g fill="rgb(0.0%,0.0%,0.0%)">
 <g>
 <g stroke="rgb(0.0%,0.0%,0.0%)">
 <g fill="rgb(0.0%,0.0%,0.0%)">
 </g>
 </g>
 </g>
 <g>
 <g transform="matrix(0.86171,0.0,0.0,0.86171,268.77873,20.85286)">
 <g fill="rgb(0.0%,0.0%,0.0%)">
 <text style="stroke:none" transform="scale(1,-1) translate(2.7375,0)" text-anchor="middle"  font-size="10.95"> 
<tspan font-family="cmr" font-size="10">8</tspan></text> 
</g>
 </g>
 </g>
 </g>
 </g>
 </g>
 <path d=" M  324.69713 20.85286  " style="fill:none"/>
 <g>
 <g stroke="rgb(0.0%,0.0%,0.0%)">
 <g fill="rgb(0.0%,0.0%,0.0%)">
 <g>
 <g stroke="rgb(0.0%,0.0%,0.0%)">
 <g fill="rgb(0.0%,0.0%,0.0%)">
 </g>
 </g>
 </g>
 <g>
 <g transform="matrix(0.86171,0.0,0.0,0.86171,319.97926,20.85286)">
 <g fill="rgb(0.0%,0.0%,0.0%)">
 <text style="stroke:none" transform="scale(1,-1) translate(5.475,0)" text-anchor="middle"  font-size="10.95"> 
<tspan font-family="cmr" font-size="10">10</tspan></text> 
</g>
 </g>
 </g>
 </g>
 </g>
 </g>
 <path d=" M  378.25356 20.85286  " style="fill:none"/>
 <g>
 <g stroke="rgb(0.0%,0.0%,0.0%)">
 <g fill="rgb(0.0%,0.0%,0.0%)">
 <g>
 <g stroke="rgb(0.0%,0.0%,0.0%)">
 <g fill="rgb(0.0%,0.0%,0.0%)">
 </g>
 </g>
 </g>
 <g>
 <g transform="matrix(0.86171,0.0,0.0,0.86171,373.53569,20.85286)">
 <g fill="rgb(0.0%,0.0%,0.0%)">
 <text style="stroke:none" transform="scale(1,-1) translate(5.475,0)" text-anchor="middle"  font-size="10.95"> 
<tspan font-family="cmr" font-size="10">12</tspan></text> 
</g>
 </g>
 </g>
 </g>
 </g>
 </g>
 <path d=" M  431.813 20.85286  " style="fill:none"/>
 <g>
 <g stroke="rgb(0.0%,0.0%,0.0%)">
 <g fill="rgb(0.0%,0.0%,0.0%)">
 <g>
 <g stroke="rgb(0.0%,0.0%,0.0%)">
 <g fill="rgb(0.0%,0.0%,0.0%)">
 </g>
 </g>
 </g>
 <g>
 <g transform="matrix(0.86171,0.0,0.0,0.86171,427.09514,20.85286)">
 <g fill="rgb(0.0%,0.0%,0.0%)">
 <text style="stroke:none" transform="scale(1,-1) translate(5.475,0)" text-anchor="middle"  font-size="10.95"> 
<tspan font-family="cmr" font-size="10">14</tspan></text> 
</g>
 </g>
 </g>
 </g>
 </g>
 </g>
 <path d=" M  485.36986 20.85286  " style="fill:none"/>
 <g>
 <g stroke="rgb(0.0%,0.0%,0.0%)">
 <g fill="rgb(0.0%,0.0%,0.0%)">
 <g>
 <g stroke="rgb(0.0%,0.0%,0.0%)">
 <g fill="rgb(0.0%,0.0%,0.0%)">
 </g>
 </g>
 </g>
 <g>
 <g transform="matrix(0.86171,0.0,0.0,0.86171,480.652,20.85286)">
 <g fill="rgb(0.0%,0.0%,0.0%)">
 <text style="stroke:none" transform="scale(1,-1) translate(5.475,0)" text-anchor="middle"  font-size="10.95"> 
<tspan font-family="cmr" font-size="10">16</tspan></text> 
</g>
 </g>
 </g>
 </g>
 </g>
 </g>
 <g>
 <g stroke="rgb(0.0%,0.0%,0.0%)">
 <g fill="rgb(0.0%,0.0%,0.0%)">
 <g stroke-width="0.9pt">
 <path d=" M  56.90549 31.12366 L  56.90549 280.11165  " style="fill:none"/>
 </g>
 </g>
 </g>
 </g>
 <g>
 <g stroke="rgb(0.0%,0.0%,0.0%)">
 <g fill="rgb(0.0%,0.0%,0.0%)">
 <g stroke-width="0.9pt">
 <path d=" M  70.56267 57.61662 L  56.90549 57.61662  " style="fill:none"/>
 </g>
 </g>
 </g>
 </g>
 <g>
 <g stroke="rgb(0.0%,0.0%,0.0%)">
 <g fill="rgb(0.0%,0.0%,0.0%)">
 <g stroke-width="0.9pt">
 <path d=" M  63.7343 66.79161 L  56.90549 66.79161  " style="fill:none"/>
 </g>
 </g>
 </g>
 </g>
 <g>
 <g stroke="rgb(0.0%,0.0%,0.0%)">
 <g fill="rgb(0.0%,0.0%,0.0%)">
 <g stroke-width="0.9pt">
 <path d=" M  63.7343 75.9666 L  56.90549 75.9666  " style="fill:none"/>
 </g>
 </g>
 </g>
 </g>
 <g>
 <g stroke="rgb(0.0%,0.0%,0.0%)">
 <g fill="rgb(0.0%,0.0%,0.0%)">
 <g stroke-width="0.9pt">
 <path d=" M  63.7343 85.14159 L  56.90549 85.14159  " style="fill:none"/>
 </g>
 </g>
 </g>
 </g>
 <g>
 <g stroke="rgb(0.0%,0.0%,0.0%)">
 <g fill="rgb(0.0%,0.0%,0.0%)">
 <g stroke-width="0.9pt">
 <path d=" M  63.7343 94.317 L  56.90549 94.317  " style="fill:none"/>
 </g>
 </g>
 </g>
 </g>
 <g>
 <g stroke="rgb(0.0%,0.0%,0.0%)">
 <g fill="rgb(0.0%,0.0%,0.0%)">
 <g stroke-width="0.9pt">
 <path d=" M  70.56267 103.49155 L  56.90549 103.49155  " style="fill:none"/>
 </g>
 </g>
 </g>
 </g>
 <g>
 <g stroke="rgb(0.0%,0.0%,0.0%)">
 <g fill="rgb(0.0%,0.0%,0.0%)">
 <g stroke-width="0.9pt">
 <path d=" M  63.7343 112.66698 L  56.90549 112.66698  " style="fill:none"/>
 </g>
 </g>
 </g>
 </g>
 <g>
 <g stroke="rgb(0.0%,0.0%,0.0%)">
 <g fill="rgb(0.0%,0.0%,0.0%)">
 <g stroke-width="0.9pt">
 <path d=" M  63.7343 121.84195 L  56.90549 121.84195  " style="fill:none"/>
 </g>
 </g>
 </g>
 </g>
 <g>
 <g stroke="rgb(0.0%,0.0%,0.0%)">
 <g fill="rgb(0.0%,0.0%,0.0%)">
 <g stroke-width="0.9pt">
 <path d=" M  63.7343 131.01694 L  56.90549 131.01694  " style="fill:none"/>
 </g>
 </g>
 </g>
 </g>
 <g>
 <g stroke="rgb(0.0%,0.0%,0.0%)">
 <g fill="rgb(0.0%,0.0%,0.0%)">
 <g stroke-width="0.9pt">
 <path d=" M  63.7343 140.19193 L  56.90549 140.19193  " style="fill:none"/>
 </g>
 </g>
 </g>
 </g>
 <g>
 <g stroke="rgb(0.0%,0.0%,0.0%)">
 <g fill="rgb(0.0%,0.0%,0.0%)">
 <g stroke-width="0.9pt">
 <path d=" M  70.56267 149.36734 L  56.90549 149.36734  " style="fill:none"/>
 </g>
 </g>
 </g>
 </g>
 <g>
 <g stroke="rgb(0.0%,0.0%,0.0%)">
 <g fill="rgb(0.0%,0.0%,0.0%)">
 <g stroke-width="0.9pt">
 <path d=" M  63.7343 158.5419 L  56.90549 158.5419  " style="fill:none"/>
 </g>
 </g>
 </g>
 </g>
 <g>
 <g stroke="rgb(0.0%,0.0%,0.0%)">
 <g fill="rgb(0.0%,0.0%,0.0%)">
 <g stroke-width="0.9pt">
 <path d=" M  63.7343 167.71732 L  56.90549 167.71732  " style="fill:none"/>
 </g>
 </g>
 </g>
 </g>
 <g>
 <g stroke="rgb(0.0%,0.0%,0.0%)">
 <g fill="rgb(0.0%,0.0%,0.0%)">
 <g stroke-width="0.9pt">
 <path d=" M  63.7343 176.8923 L  56.90549 176.8923  " style="fill:none"/>
 </g>
 </g>
 </g>
 </g>
 <g>
 <g stroke="rgb(0.0%,0.0%,0.0%)">
 <g fill="rgb(0.0%,0.0%,0.0%)">
 <g stroke-width="0.9pt">
 <path d=" M  63.7343 186.06729 L  56.90549 186.06729  " style="fill:none"/>
 </g>
 </g>
 </g>
 </g>
 <g>
 <g stroke="rgb(0.0%,0.0%,0.0%)">
 <g fill="rgb(0.0%,0.0%,0.0%)">
 <g stroke-width="0.9pt">
 <path d=" M  70.56267 195.24226 L  56.90549 195.24226  " style="fill:none"/>
 </g>
 </g>
 </g>
 </g>
 <g>
 <g stroke="rgb(0.0%,0.0%,0.0%)">
 <g fill="rgb(0.0%,0.0%,0.0%)">
 <g stroke-width="0.9pt">
 <path d=" M  63.7343 204.4177 L  56.90549 204.4177  " style="fill:none"/>
 </g>
 </g>
 </g>
 </g>
 <g>
 <g stroke="rgb(0.0%,0.0%,0.0%)">
 <g fill="rgb(0.0%,0.0%,0.0%)">
 <g stroke-width="0.9pt">
 <path d=" M  63.7343 213.59268 L  56.90549 213.59268  " style="fill:none"/>
 </g>
 </g>
 </g>
 </g>
 <g>
 <g stroke="rgb(0.0%,0.0%,0.0%)">
 <g fill="rgb(0.0%,0.0%,0.0%)">
 <g stroke-width="0.9pt">
 <path d=" M  63.7343 222.76765 L  56.90549 222.76765  " style="fill:none"/>
 </g>
 </g>
 </g>
 </g>
 <g>
 <g stroke="rgb(0.0%,0.0%,0.0%)">
 <g fill="rgb(0.0%,0.0%,0.0%)">
 <g stroke-width="0.9pt">
 <path d=" M  63.7343 231.94264 L  56.90549 231.94264  " style="fill:none"/>
 </g>
 </g>
 </g>
 </g>
 <g>
 <g stroke="rgb(0.0%,0.0%,0.0%)">
 <g fill="rgb(0.0%,0.0%,0.0%)">
 <g stroke-width="0.9pt">
 <path d=" M  70.56267 241.11763 L  56.90549 241.11763  " style="fill:none"/>
 </g>
 </g>
 </g>
 </g>
 <g>
 <g stroke="rgb(0.0%,0.0%,0.0%)">
 <g fill="rgb(0.0%,0.0%,0.0%)">
 <g stroke-width="0.9pt">
 <path d=" M  70.56267 57.61662 L  56.90549 57.61662  " style="fill:none"/>
 </g>
 </g>
 </g>
 </g>
 <g>
 <g stroke="rgb(0.0%,0.0%,0.0%)">
 <g fill="rgb(0.0%,0.0%,0.0%)">
 <g stroke-width="0.9pt">
 <path d=" M  63.7343 48.44121 L  56.90549 48.44121  " style="fill:none"/>
 </g>
 </g>
 </g>
 </g>
 <g>
 <g stroke="rgb(0.0%,0.0%,0.0%)">
 <g fill="rgb(0.0%,0.0%,0.0%)">
 <g stroke-width="0.9pt">
 <path d=" M  63.7343 39.26665 L  56.90549 39.26665  " style="fill:none"/>
 </g>
 </g>
 </g>
 </g>
 <g>
 <g stroke="rgb(0.0%,0.0%,0.0%)">
 <g fill="rgb(0.0%,0.0%,0.0%)">
 <g stroke-width="0.9pt">
 <path d=" M  70.56267 241.11763 L  56.90549 241.11763  " style="fill:none"/>
 </g>
 </g>
 </g>
 </g>
 <g>
 <g stroke="rgb(0.0%,0.0%,0.0%)">
 <g fill="rgb(0.0%,0.0%,0.0%)">
 <g stroke-width="0.9pt">
 <path d=" M  63.7343 250.29262 L  56.90549 250.29262  " style="fill:none"/>
 </g>
 </g>
 </g>
 </g>
 <g>
 <g stroke="rgb(0.0%,0.0%,0.0%)">
 <g fill="rgb(0.0%,0.0%,0.0%)">
 <g stroke-width="0.9pt">
 <path d=" M  63.7343 259.46803 L  56.90549 259.46803  " style="fill:none"/>
 </g>
 </g>
 </g>
 </g>
 <g>
 <g stroke="rgb(0.0%,0.0%,0.0%)">
 <g fill="rgb(0.0%,0.0%,0.0%)">
 <g stroke-width="0.9pt">
 <path d=" M  63.7343 268.64302 L  56.90549 268.64302  " style="fill:none"/>
 </g>
 </g>
 </g>
 </g>
 <g>
 <g stroke="rgb(0.0%,0.0%,0.0%)">
 <g fill="rgb(0.0%,0.0%,0.0%)">
 <g stroke-width="0.9pt">
 <path d=" M  63.7343 277.81801 L  56.90549 277.81801  " style="fill:none"/>
 </g>
 </g>
 </g>
 </g>
 <path d=" M  54.06003 57.61662  " style="fill:none"/>
 <g>
 <g stroke="rgb(0.0%,0.0%,0.0%)">
 <g fill="rgb(0.0%,0.0%,0.0%)">
 <g>
 <g stroke="rgb(0.0%,0.0%,0.0%)">
 <g fill="rgb(0.0%,0.0%,0.0%)">
 </g>
 </g>
 </g>
 <g>
 <g transform="matrix(0.86171,0.0,0.0,0.86171,41.30705,54.57625)">
 <g fill="rgb(0.0%,0.0%,0.0%)">
 <text style="stroke:none" transform="scale(1,-1) translate(5.475,0)" text-anchor="middle"  font-size="10.95"> 
<tspan font-family="cmr" font-size="10">56</tspan></text> 
</g>
 </g>
 </g>
 </g>
 </g>
 </g>
 <path d=" M  54.06003 103.49155  " style="fill:none"/>
 <g>
 <g stroke="rgb(0.0%,0.0%,0.0%)">
 <g fill="rgb(0.0%,0.0%,0.0%)">
 <g>
 <g stroke="rgb(0.0%,0.0%,0.0%)">
 <g fill="rgb(0.0%,0.0%,0.0%)">
 </g>
 </g>
 </g>
 <g>
 <g transform="matrix(0.86171,0.0,0.0,0.86171,33.96817,100.45117)">
 <g fill="rgb(0.0%,0.0%,0.0%)">
 <text style="stroke:none" transform="scale(1,-1) translate(9.73334,0)" text-anchor="middle"  font-size="10.95"> 
<tspan font-family="cmr" font-size="10">56.5</tspan></text> 
</g>
 </g>
 </g>
 </g>
 </g>
 </g>
 <path d=" M  54.06003 149.36734  " style="fill:none"/>
 <g>
 <g stroke="rgb(0.0%,0.0%,0.0%)">
 <g fill="rgb(0.0%,0.0%,0.0%)">
 <g>
 <g stroke="rgb(0.0%,0.0%,0.0%)">
 <g fill="rgb(0.0%,0.0%,0.0%)">
 </g>
 </g>
 </g>
 <g>
 <g transform="matrix(0.86171,0.0,0.0,0.86171,41.30705,146.32697)">
 <g fill="rgb(0.0%,0.0%,0.0%)">
 <text style="stroke:none" transform="scale(1,-1) translate(5.475,0)" text-anchor="middle"  font-size="10.95"> 
<tspan font-family="cmr" font-size="10">57</tspan></text> 
</g>
 </g>
 </g>
 </g>
 </g>
 </g>
 <path d=" M  54.06003 195.24226  " style="fill:none"/>
 <g>
 <g stroke="rgb(0.0%,0.0%,0.0%)">
 <g fill="rgb(0.0%,0.0%,0.0%)">
 <g>
 <g stroke="rgb(0.0%,0.0%,0.0%)">
 <g fill="rgb(0.0%,0.0%,0.0%)">
 </g>
 </g>
 </g>
 <g>
 <g transform="matrix(0.86171,0.0,0.0,0.86171,33.96817,192.20189)">
 <g fill="rgb(0.0%,0.0%,0.0%)">
 <text style="stroke:none" transform="scale(1,-1) translate(9.73334,0)" text-anchor="middle"  font-size="10.95"> 
<tspan font-family="cmr" font-size="10">57.5</tspan></text> 
</g>
 </g>
 </g>
 </g>
 </g>
 </g>
 <path d=" M  54.06003 241.11763  " style="fill:none"/>
 <g>
 <g stroke="rgb(0.0%,0.0%,0.0%)">
 <g fill="rgb(0.0%,0.0%,0.0%)">
 <g>
 <g stroke="rgb(0.0%,0.0%,0.0%)">
 <g fill="rgb(0.0%,0.0%,0.0%)">
 </g>
 </g>
 </g>
 <g>
 <g transform="matrix(0.86171,0.0,0.0,0.86171,41.30705,238.07726)">
 <g fill="rgb(0.0%,0.0%,0.0%)">
 <text style="stroke:none" transform="scale(1,-1) translate(5.475,0)" text-anchor="middle"  font-size="10.95"> 
<tspan font-family="cmr" font-size="10">58</tspan></text> 
</g>
 </g>
 </g>
 </g>
 </g>
 </g>
 <g>
 <g stroke="rgb(100.0%,0.0%,0.0%)">
 <g fill="rgb(100.0%,0.0%,0.0%)">
 <g stroke-width="0.9pt">
 <path d=" M  284.52744 138.131 L  284.52744 167.54495  " style="fill:none"/>
 </g>
 </g>
 </g>
 </g>
 <g>
 <g stroke="rgb(100.0%,0.0%,0.0%)">
 <g fill="rgb(100.0%,0.0%,0.0%)">
 <g stroke-width="0.9pt">
 <path d=" M  284.52744 167.54495 L  284.52744 196.95935  " style="fill:none"/>
 </g>
 </g>
 </g>
 </g>
 <g>
 <g stroke="rgb(100.0%,0.0%,0.0%)">
 <g fill="rgb(100.0%,0.0%,0.0%)">
 <g stroke-width="0.9pt">
 <path d=" M  56.90549 167.54495 L  284.52744 167.54495  " style="fill:none"/>
 </g>
 </g>
 </g>
 </g>
 <g>
 <g stroke="rgb(100.0%,0.0%,0.0%)">
 <g fill="rgb(100.0%,0.0%,0.0%)">
 <g stroke-width="0.9pt">
 <path d=" M  284.52744 167.54495 L  512.14938 167.54495  " style="fill:none"/>
 </g>
 </g>
 </g>
 </g>
 <path d=" M  284.52744 167.54495  " style="fill:none"/>
 <g>
 <g stroke="rgb(100.0%,0.0%,0.0%)">
 <g fill="rgb(100.0%,0.0%,0.0%)">
 <g fill="rgb(100.0%,0.0%,0.0%)">
 <path d=" M  285.52744 167.54495 C  285.52744 168.09724 285.07973 168.54495 284.52744 168.54495 C  283.97514 168.54495 283.52744 168.09724 283.52744 167.54495 C  283.52744 166.99266 283.97514 166.54495 284.52744 166.54495 C  285.07973 166.54495 285.52744 166.99266 285.52744 167.54495 Z M  284.52744 167.54495  " />
 </g>
 </g>
 </g>
 </g>
 <path d=" M  83.68456 178.72748  " style="fill:none"/>
 <g>
 <g stroke="rgb(0.0%,100.0%,0.0%)">
 <g fill="rgb(0.0%,100.0%,0.0%)">
 <g fill="rgb(0.0%,100.0%,0.0%)">
 <path d=" M  90.89177 178.72748 C  90.89177 182.70796 87.66504 185.9347 83.68456 185.9347 C  79.70407 185.9347 76.47734 182.70796 76.47734 178.72748 C  76.47734 174.747 79.70407 171.52026 83.68456 171.52026 C  87.66504 171.52026 90.89177 174.747 90.89177 178.72748 Z M  83.68456 178.72748  " />
 </g>
 </g>
 </g>
 </g>
 <path d=" M  110.46364 148.44954  " style="fill:none"/>
 <g>
 <g stroke="rgb(0.0%,100.0%,0.0%)">
 <g fill="rgb(0.0%,100.0%,0.0%)">
 <g fill="rgb(0.0%,100.0%,0.0%)">
 <path d=" M  117.67085 148.44954 C  117.67085 152.43002 114.44412 155.65675 110.46364 155.65675 C  106.48315 155.65675 103.25642 152.43002 103.25642 148.44954 C  103.25642 144.46906 106.48315 141.24232 110.46364 141.24232 C  114.44412 141.24232 117.67085 144.46906 117.67085 148.44954 Z M  110.46364 148.44954  " />
 </g>
 </g>
 </g>
 </g>
 <path d=" M  137.24272 67.70898  " style="fill:none"/>
 <g>
 <g stroke="rgb(0.0%,100.0%,0.0%)">
 <g fill="rgb(0.0%,100.0%,0.0%)">
 <g fill="rgb(0.0%,100.0%,0.0%)">
 <path d=" M  144.44994 67.70898 C  144.44994 71.68947 141.2232 74.9162 137.24272 74.9162 C  133.26224 74.9162 130.0355 71.68947 130.0355 67.70898 C  130.0355 63.7285 133.26224 60.50177 137.24272 60.50177 C  141.2232 60.50177 144.44994 63.7285 144.44994 67.70898 Z M  137.24272 67.70898  " />
 </g>
 </g>
 </g>
 </g>
 <path d=" M  164.02179 151.20209  " style="fill:none"/>
 <g>
 <g stroke="rgb(0.0%,100.0%,0.0%)">
 <g fill="rgb(0.0%,100.0%,0.0%)">
 <g fill="rgb(0.0%,100.0%,0.0%)">
 <path d=" M  171.229 151.20209 C  171.229 155.18257 168.00227 158.4093 164.02179 158.4093 C  160.0413 158.4093 156.81458 155.18257 156.81458 151.20209 C  156.81458 147.2216 160.0413 143.99487 164.02179 143.99487 C  168.00227 143.99487 171.229 147.2216 171.229 151.20209 Z M  164.02179 151.20209  " />
 </g>
 </g>
 </g>
 </g>
 <path d=" M  190.80087 130.09958  " style="fill:none"/>
 <g>
 <g stroke="rgb(0.0%,100.0%,0.0%)">
 <g fill="rgb(0.0%,100.0%,0.0%)">
 <g fill="rgb(0.0%,100.0%,0.0%)">
 <path d=" M  198.00809 130.09958 C  198.00809 134.08006 194.78136 137.3068 190.80087 137.3068 C  186.82039 137.3068 183.59366 134.08006 183.59366 130.09958 C  183.59366 126.1191 186.82039 122.89236 190.80087 122.89236 C  194.78136 122.89236 198.00809 126.1191 198.00809 130.09958 Z M  190.80087 130.09958  " />
 </g>
 </g>
 </g>
 </g>
 <path d=" M  217.57996 169.55205  " style="fill:none"/>
 <g>
 <g stroke="rgb(0.0%,100.0%,0.0%)">
 <g fill="rgb(0.0%,100.0%,0.0%)">
 <g fill="rgb(0.0%,100.0%,0.0%)">
 <path d=" M  224.78717 169.55205 C  224.78717 173.53253 221.56044 176.75926 217.57996 176.75926 C  213.59947 176.75926 210.37274 173.53253 210.37274 169.55205 C  210.37274 165.57156 213.59947 162.34483 217.57996 162.34483 C  221.56044 162.34483 224.78717 165.57156 224.78717 169.55205 Z M  217.57996 169.55205  " />
 </g>
 </g>
 </g>
 </g>
 <path d=" M  244.3586 50.27638  " style="fill:none"/>
 <g>
 <g stroke="rgb(0.0%,100.0%,0.0%)">
 <g fill="rgb(0.0%,100.0%,0.0%)">
 <g fill="rgb(0.0%,100.0%,0.0%)">
 <path d=" M  251.56581 50.27638 C  251.56581 54.25687 248.33908 57.4836 244.3586 57.4836 C  240.37811 57.4836 237.15138 54.25687 237.15138 50.27638 C  237.15138 46.2959 240.37811 43.06917 244.3586 43.06917 C  248.33908 43.06917 251.56581 46.2959 251.56581 50.27638 Z M  244.3586 50.27638  " />
 </g>
 </g>
 </g>
 </g>
 <path d=" M  271.13766 122.75932  " style="fill:none"/>
 <g>
 <g stroke="rgb(0.0%,100.0%,0.0%)">
 <g fill="rgb(0.0%,100.0%,0.0%)">
 <g fill="rgb(0.0%,100.0%,0.0%)">
 <path d=" M  278.34488 122.75932 C  278.34488 126.7398 275.11815 129.96654 271.13766 129.96654 C  267.15718 129.96654 263.93045 126.7398 263.93045 122.75932 C  263.93045 118.77884 267.15718 115.55211 271.13766 115.55211 C  275.11815 115.55211 278.34488 118.77884 278.34488 122.75932 Z M  271.13766 122.75932  " />
 </g>
 </g>
 </g>
 </g>
 <path d=" M  297.91719 126.42966  " style="fill:none"/>
 <g>
 <g stroke="rgb(0.0%,100.0%,0.0%)">
 <g fill="rgb(0.0%,100.0%,0.0%)">
 <g fill="rgb(0.0%,100.0%,0.0%)">
 <path d=" M  305.1244 126.42966 C  305.1244 130.41014 301.89767 133.63687 297.91719 133.63687 C  293.9367 133.63687 290.70998 130.41014 290.70998 126.42966 C  290.70998 122.44917 293.9367 119.22244 297.91719 119.22244 C  301.89767 119.22244 305.1244 122.44917 305.1244 126.42966 Z M  297.91719 126.42966  " />
 </g>
 </g>
 </g>
 </g>
 <path d=" M  324.69713 121.84195  " style="fill:none"/>
 <g>
 <g stroke="rgb(0.0%,100.0%,0.0%)">
 <g fill="rgb(0.0%,100.0%,0.0%)">
 <g fill="rgb(0.0%,100.0%,0.0%)">
 <path d=" M  331.90434 121.84195 C  331.90434 125.82243 328.67761 129.04916 324.69713 129.04916 C  320.71664 129.04916 317.48991 125.82243 317.48991 121.84195 C  317.48991 117.86147 320.71664 114.63474 324.69713 114.63474 C  328.67761 114.63474 331.90434 117.86147 331.90434 121.84195 Z M  324.69713 121.84195  " />
 </g>
 </g>
 </g>
 </g>
 <path d=" M  351.47404 77.80176  " style="fill:none"/>
 <g>
 <g stroke="rgb(0.0%,100.0%,0.0%)">
 <g fill="rgb(0.0%,100.0%,0.0%)">
 <g fill="rgb(0.0%,100.0%,0.0%)">
 <path d=" M  358.68126 77.80176 C  358.68126 81.78224 355.45453 85.00897 351.47404 85.00897 C  347.49356 85.00897 344.26683 81.78224 344.26683 77.80176 C  344.26683 73.82127 347.49356 70.59454 351.47404 70.59454 C  355.45453 70.59454 358.68126 73.82127 358.68126 77.80176 Z M  351.47404 77.80176  " />
 </g>
 </g>
 </g>
 </g>
 <path d=" M  378.25356 115.41951  " style="fill:none"/>
 <g>
 <g stroke="rgb(0.0%,100.0%,0.0%)">
 <g fill="rgb(0.0%,100.0%,0.0%)">
 <g fill="rgb(0.0%,100.0%,0.0%)">
 <path d=" M  385.46077 115.41951 C  385.46077 119.4 382.23404 122.62672 378.25356 122.62672 C  374.27307 122.62672 371.04634 119.4 371.04634 115.41951 C  371.04634 111.43903 374.27307 108.2123 378.25356 108.2123 C  382.23404 108.2123 385.46077 111.43903 385.46077 115.41951 Z M  378.25356 115.41951  " />
 </g>
 </g>
 </g>
 </g>
 <path d=" M  405.0335 104.40935  " style="fill:none"/>
 <g>
 <g stroke="rgb(0.0%,100.0%,0.0%)">
 <g fill="rgb(0.0%,100.0%,0.0%)">
 <g fill="rgb(0.0%,100.0%,0.0%)">
 <path d=" M  412.2407 104.40935 C  412.2407 108.38983 409.01398 111.61656 405.0335 111.61656 C  401.05301 111.61656 397.82628 108.38983 397.82628 104.40935 C  397.82628 100.42886 401.05301 97.20213 405.0335 97.20213 C  409.01398 97.20213 412.2407 100.42886 412.2407 104.40935 Z M  405.0335 104.40935  " />
 </g>
 </g>
 </g>
 </g>
 <path d=" M  431.813 86.05939  " style="fill:none"/>
 <g>
 <g stroke="rgb(0.0%,100.0%,0.0%)">
 <g fill="rgb(0.0%,100.0%,0.0%)">
 <g fill="rgb(0.0%,100.0%,0.0%)">
 <path d=" M  439.02022 86.05939 C  439.02022 90.03987 435.79349 93.2666 431.813 93.2666 C  427.83252 93.2666 424.60579 90.03987 424.60579 86.05939 C  424.60579 82.0789 427.83252 78.85217 431.813 78.85217 C  435.79349 78.85217 439.02022 82.0789 439.02022 86.05939 Z M  431.813 86.05939  " />
 </g>
 </g>
 </g>
 </g>
 <path d=" M  458.58992 132.85211  " style="fill:none"/>
 <g>
 <g stroke="rgb(0.0%,100.0%,0.0%)">
 <g fill="rgb(0.0%,100.0%,0.0%)">
 <g fill="rgb(0.0%,100.0%,0.0%)">
 <path d=" M  465.79713 132.85211 C  465.79713 136.8326 462.5704 140.05933 458.58992 140.05933 C  454.60944 140.05933 451.3827 136.8326 451.3827 132.85211 C  451.3827 128.87163 454.60944 125.6449 458.58992 125.6449 C  462.5704 125.6449 465.79713 128.87163 465.79713 132.85211 Z M  458.58992 132.85211  " />
 </g>
 </g>
 </g>
 </g>
 <path d=" M  485.36986 120.00679  " style="fill:none"/>
 <g>
 <g stroke="rgb(0.0%,100.0%,0.0%)">
 <g fill="rgb(0.0%,100.0%,0.0%)">
 <g fill="rgb(0.0%,100.0%,0.0%)">
 <path d=" M  492.57707 120.00679 C  492.57707 123.98727 489.35034 127.214 485.36986 127.214 C  481.38937 127.214 478.16264 123.98727 478.16264 120.00679 C  478.16264 116.0263 481.38937 112.79958 485.36986 112.79958 C  489.35034 112.79958 492.57707 116.0263 492.57707 120.00679 Z M  485.36986 120.00679  " />
 </g>
 </g>
 </g>
 </g>
 <path d=" M  83.68456 142.94446  " style="fill:none"/>
 <g>
 <g stroke="rgb(100.0%,0.0%,0.0%)">
 <g fill="rgb(100.0%,0.0%,0.0%)">
 <g fill="rgb(100.0%,0.0%,0.0%)">
 <path d=" M  90.89177 142.94446 C  90.89177 146.92494 87.66504 150.15167 83.68456 150.15167 C  79.70407 150.15167 76.47734 146.92494 76.47734 142.94446 C  76.47734 138.96397 79.70407 135.73724 83.68456 135.73724 C  87.66504 135.73724 90.89177 138.96397 90.89177 142.94446 Z M  83.68456 142.94446  " />
 </g>
 </g>
 </g>
 </g>
 <path d=" M  110.46364 182.39738  " style="fill:none"/>
 <g>
 <g stroke="rgb(100.0%,0.0%,0.0%)">
 <g fill="rgb(100.0%,0.0%,0.0%)">
 <g fill="rgb(100.0%,0.0%,0.0%)">
 <path d=" M  117.67085 182.39738 C  117.67085 186.37787 114.44412 189.6046 110.46364 189.6046 C  106.48315 189.6046 103.25642 186.37787 103.25642 182.39738 C  103.25642 178.4169 106.48315 175.19017 110.46364 175.19017 C  114.44412 175.19017 117.67085 178.4169 117.67085 182.39738 Z M  110.46364 182.39738  " />
 </g>
 </g>
 </g>
 </g>
 <path d=" M  137.24272 172.3046  " style="fill:none"/>
 <g>
 <g stroke="rgb(100.0%,0.0%,0.0%)">
 <g fill="rgb(100.0%,0.0%,0.0%)">
 <g fill="rgb(100.0%,0.0%,0.0%)">
 <path d=" M  144.44994 172.3046 C  144.44994 176.28508 141.2232 179.51181 137.24272 179.51181 C  133.26224 179.51181 130.0355 176.28508 130.0355 172.3046 C  130.0355 168.32411 133.26224 165.09738 137.24272 165.09738 C  141.2232 165.09738 144.44994 168.32411 144.44994 172.3046 Z M  137.24272 172.3046  " />
 </g>
 </g>
 </g>
 </g>
 <path d=" M  164.02179 199.82999  " style="fill:none"/>
 <g>
 <g stroke="rgb(100.0%,0.0%,0.0%)">
 <g fill="rgb(100.0%,0.0%,0.0%)">
 <g fill="rgb(100.0%,0.0%,0.0%)">
 <path d=" M  171.229 199.82999 C  171.229 203.81047 168.00227 207.0372 164.02179 207.0372 C  160.0413 207.0372 156.81458 203.81047 156.81458 199.82999 C  156.81458 195.8495 160.0413 192.62277 164.02179 192.62277 C  168.00227 192.62277 171.229 195.8495 171.229 199.82999 Z M  164.02179 199.82999  " />
 </g>
 </g>
 </g>
 </g>
 <path d=" M  190.80087 175.05713  " style="fill:none"/>
 <g>
 <g stroke="rgb(100.0%,0.0%,0.0%)">
 <g fill="rgb(100.0%,0.0%,0.0%)">
 <g fill="rgb(100.0%,0.0%,0.0%)">
 <path d=" M  198.00809 175.05713 C  198.00809 179.03761 194.78136 182.26434 190.80087 182.26434 C  186.82039 182.26434 183.59366 179.03761 183.59366 175.05713 C  183.59366 171.07664 186.82039 167.84991 190.80087 167.84991 C  194.78136 167.84991 198.00809 171.07664 198.00809 175.05713 Z M  190.80087 175.05713  " />
 </g>
 </g>
 </g>
 </g>
 <path d=" M  217.57996 156.70715  " style="fill:none"/>
 <g>
 <g stroke="rgb(100.0%,0.0%,0.0%)">
 <g fill="rgb(100.0%,0.0%,0.0%)">
 <g fill="rgb(100.0%,0.0%,0.0%)">
 <path d=" M  224.78717 156.70715 C  224.78717 160.68764 221.56044 163.91437 217.57996 163.91437 C  213.59947 163.91437 210.37274 160.68764 210.37274 156.70715 C  210.37274 152.72667 213.59947 149.49994 217.57996 149.49994 C  221.56044 149.49994 224.78717 152.72667 224.78717 156.70715 Z M  217.57996 156.70715  " />
 </g>
 </g>
 </g>
 </g>
 <path d=" M  244.3586 186.06729  " style="fill:none"/>
 <g>
 <g stroke="rgb(100.0%,0.0%,0.0%)">
 <g fill="rgb(100.0%,0.0%,0.0%)">
 <g fill="rgb(100.0%,0.0%,0.0%)">
 <path d=" M  251.56581 186.06729 C  251.56581 190.04778 248.33908 193.2745 244.3586 193.2745 C  240.37811 193.2745 237.15138 190.04778 237.15138 186.06729 C  237.15138 182.0868 240.37811 178.86008 244.3586 178.86008 C  248.33908 178.86008 251.56581 182.0868 251.56581 186.06729 Z M  244.3586 186.06729  " />
 </g>
 </g>
 </g>
 </g>
 <path d=" M  271.13766 139.27455  " style="fill:none"/>
 <g>
 <g stroke="rgb(100.0%,0.0%,0.0%)">
 <g fill="rgb(100.0%,0.0%,0.0%)">
 <g fill="rgb(100.0%,0.0%,0.0%)">
 <path d=" M  278.34488 139.27455 C  278.34488 143.25504 275.11815 146.48177 271.13766 146.48177 C  267.15718 146.48177 263.93045 143.25504 263.93045 139.27455 C  263.93045 135.29407 267.15718 132.06734 271.13766 132.06734 C  275.11815 132.06734 278.34488 135.29407 278.34488 139.27455 Z M  271.13766 139.27455  " />
 </g>
 </g>
 </g>
 </g>
 <path d=" M  297.91719 183.31474  " style="fill:none"/>
 <g>
 <g stroke="rgb(100.0%,0.0%,0.0%)">
 <g fill="rgb(100.0%,0.0%,0.0%)">
 <g fill="rgb(100.0%,0.0%,0.0%)">
 <path d=" M  305.1244 183.31474 C  305.1244 187.29523 301.89767 190.52196 297.91719 190.52196 C  293.9367 190.52196 290.70998 187.29523 290.70998 183.31474 C  290.70998 179.33426 293.9367 176.10753 297.91719 176.10753 C  301.89767 176.10753 305.1244 179.33426 305.1244 183.31474 Z M  297.91719 183.31474  " />
 </g>
 </g>
 </g>
 </g>
 <path d=" M  324.69713 146.6148  " style="fill:none"/>
 <g>
 <g stroke="rgb(100.0%,0.0%,0.0%)">
 <g fill="rgb(100.0%,0.0%,0.0%)">
 <g fill="rgb(100.0%,0.0%,0.0%)">
 <path d=" M  331.90434 146.6148 C  331.90434 150.59529 328.67761 153.82202 324.69713 153.82202 C  320.71664 153.82202 317.48991 150.59529 317.48991 146.6148 C  317.48991 142.63432 320.71664 139.4076 324.69713 139.4076 C  328.67761 139.4076 331.90434 142.63432 331.90434 146.6148 Z M  324.69713 146.6148  " />
 </g>
 </g>
 </g>
 </g>
 <path d=" M  351.47404 185.14992  " style="fill:none"/>
 <g>
 <g stroke="rgb(100.0%,0.0%,0.0%)">
 <g fill="rgb(100.0%,0.0%,0.0%)">
 <g fill="rgb(100.0%,0.0%,0.0%)">
 <path d=" M  358.68126 185.14992 C  358.68126 189.1304 355.45453 192.35713 351.47404 192.35713 C  347.49356 192.35713 344.26683 189.1304 344.26683 185.14992 C  344.26683 181.16943 347.49356 177.9427 351.47404 177.9427 C  355.45453 177.9427 358.68126 181.16943 358.68126 185.14992 Z M  351.47404 185.14992  " />
 </g>
 </g>
 </g>
 </g>
 <path d=" M  378.25356 197.07744  " style="fill:none"/>
 <g>
 <g stroke="rgb(100.0%,0.0%,0.0%)">
 <g fill="rgb(100.0%,0.0%,0.0%)">
 <g fill="rgb(100.0%,0.0%,0.0%)">
 <path d=" M  385.46077 197.07744 C  385.46077 201.05792 382.23404 204.28465 378.25356 204.28465 C  374.27307 204.28465 371.04634 201.05792 371.04634 197.07744 C  371.04634 193.09695 374.27307 189.87022 378.25356 189.87022 C  382.23404 189.87022 385.46077 193.09695 385.46077 197.07744 Z M  378.25356 197.07744  " />
 </g>
 </g>
 </g>
 </g>
 <path d=" M  405.0335 86.97675  " style="fill:none"/>
 <g>
 <g stroke="rgb(100.0%,0.0%,0.0%)">
 <g fill="rgb(100.0%,0.0%,0.0%)">
 <g fill="rgb(100.0%,0.0%,0.0%)">
 <path d=" M  412.2407 86.97675 C  412.2407 90.95723 409.01398 94.18396 405.0335 94.18396 C  401.05301 94.18396 397.82628 90.95723 397.82628 86.97675 C  397.82628 82.99626 401.05301 79.76953 405.0335 79.76953 C  409.01398 79.76953 412.2407 82.99626 412.2407 86.97675 Z M  405.0335 86.97675  " />
 </g>
 </g>
 </g>
 </g>
 <path d=" M  431.813 166.79951  " style="fill:none"/>
 <g>
 <g stroke="rgb(100.0%,0.0%,0.0%)">
 <g fill="rgb(100.0%,0.0%,0.0%)">
 <g fill="rgb(100.0%,0.0%,0.0%)">
 <path d=" M  439.02022 166.79951 C  439.02022 170.78 435.79349 174.00673 431.813 174.00673 C  427.83252 174.00673 424.60579 170.78 424.60579 166.79951 C  424.60579 162.81903 427.83252 159.5923 431.813 159.5923 C  435.79349 159.5923 439.02022 162.81903 439.02022 166.79951 Z M  431.813 166.79951  " />
 </g>
 </g>
 </g>
 </g>
 <path d=" M  458.58992 156.70715  " style="fill:none"/>
 <g>
 <g stroke="rgb(100.0%,0.0%,0.0%)">
 <g fill="rgb(100.0%,0.0%,0.0%)">
 <g fill="rgb(100.0%,0.0%,0.0%)">
 <path d=" M  465.79713 156.70715 C  465.79713 160.68764 462.5704 163.91437 458.58992 163.91437 C  454.60944 163.91437 451.3827 160.68764 451.3827 156.70715 C  451.3827 152.72667 454.60944 149.49994 458.58992 149.49994 C  462.5704 149.49994 465.79713 152.72667 465.79713 156.70715 Z M  458.58992 156.70715  " />
 </g>
 </g>
 </g>
 </g>
 <path d=" M  485.36986 203.4999  " style="fill:none"/>
 <g>
 <g stroke="rgb(100.0%,0.0%,0.0%)">
 <g fill="rgb(100.0%,0.0%,0.0%)">
 <g fill="rgb(100.0%,0.0%,0.0%)">
 <path d=" M  492.57707 203.4999 C  492.57707 207.48038 489.35034 210.7071 485.36986 210.7071 C  481.38937 210.7071 478.16264 207.48038 478.16264 203.4999 C  478.16264 199.51941 481.38937 196.29268 485.36986 196.29268 C  489.35034 196.29268 492.57707 199.51941 492.57707 203.4999 Z M  485.36986 203.4999  " />
 </g>
 </g>
 </g>
 </g>
 <g>
 <g stroke="rgb(100.0%,100.0%,100.0%)">
 <g fill="rgb(100.0%,100.0%,100.0%)">
 <g fill="rgb(100.0%,100.0%,100.0%)">
 <path d=" M  341.43292 217.86476 M  341.43292 217.86476 L  341.43292 280.11165 L  512.14938 280.11165 L  512.14938 217.86476 Z M  512.14938 280.11165  " />
 </g>
 </g>
 </g>
 </g>
 <g>
 <g stroke="rgb(0.0%,0.0%,0.0%)">
 <g fill="rgb(0.0%,0.0%,0.0%)">
 <g stroke-width="0.9pt">
 <path d=" M  341.43292 217.86476 L  512.14938 217.86476  " style="fill:none"/>
 </g>
 </g>
 </g>
 </g>
 <g>
 <g stroke="rgb(0.0%,0.0%,0.0%)">
 <g fill="rgb(0.0%,0.0%,0.0%)">
 <g stroke-width="0.9pt">
 <path d=" M  512.14938 217.86476 L  512.14938 280.11165  " style="fill:none"/>
 </g>
 </g>
 </g>
 </g>
 <g>
 <g stroke="rgb(0.0%,0.0%,0.0%)">
 <g fill="rgb(0.0%,0.0%,0.0%)">
 <g stroke-width="0.9pt">
 <path d=" M  512.14938 280.11165 L  341.43292 280.11165  " style="fill:none"/>
 </g>
 </g>
 </g>
 </g>
 <g>
 <g stroke="rgb(0.0%,0.0%,0.0%)">
 <g fill="rgb(0.0%,0.0%,0.0%)">
 <g stroke-width="0.9pt">
 <path d=" M  341.43292 280.11165 L  341.43292 217.86476  " style="fill:none"/>
 </g>
 </g>
 </g>
 </g>
 <path d=" M  384.11203 257.5469  " style="fill:none"/>
 <g>
 <g stroke="rgb(0.0%,0.0%,0.0%)">
 <g fill="rgb(0.0%,0.0%,0.0%)">
 <g>
 <g stroke="rgb(0.0%,0.0%,0.0%)">
 <g fill="rgb(0.0%,0.0%,0.0%)">
 </g>
 </g>
 </g>
 <g>
 <g transform="matrix(1.55663,0.0,0.0,1.55663,390.10442,257.5469)">
 <g fill="rgb(0.0%,0.0%,0.0%)">
 <text style="stroke:none" transform="scale(1,-1) translate(16.5771,0)" text-anchor="middle"  font-size="10.95"> 
<tspan font-family="cmr" font-size="10">default</tspan></text> 
</g>
 </g>
 </g>
 </g>
 </g>
 </g>
 <g>
 <g stroke="rgb(100.0%,100.0%,100.0%)">
 <g fill="rgb(100.0%,100.0%,100.0%)">
 <path d=" M  347.83496 253.65688 L  377.70999 253.65688 L  377.70999 275.44318 L  347.83496 275.44318  " style="fill:none"/>
 </g>
 </g>
 </g>
 <g>
 <g stroke="rgb(100.0%,100.0%,100.0%)">
 <g fill="rgb(100.0%,100.0%,100.0%)">
 <g stroke-width="0.9pt">
 <path d=" M  347.83496 264.54982 L  377.70999 264.54982  " style="fill:none"/>
 </g>
 </g>
 </g>
 </g>
 <path d=" M  362.77248 264.54982  " style="fill:none"/>
 <g>
 <g stroke="rgb(0.0%,100.0%,0.0%)">
 <g fill="rgb(0.0%,100.0%,0.0%)">
 <g fill="rgb(0.0%,100.0%,0.0%)">
 <path d=" M  369.97969 264.54982 C  369.97969 268.5303 366.75296 271.75703 362.77248 271.75703 C  358.79199 271.75703 355.56526 268.5303 355.56526 264.54982 C  355.56526 260.56934 358.79199 257.3426 362.77248 257.3426 C  366.75296 257.3426 369.97969 260.56934 369.97969 264.54982 Z M  362.77248 264.54982  " />
 </g>
 </g>
 </g>
 </g>
 <path d=" M  384.11203 226.42368  " style="fill:none"/>
 <g>
 <g stroke="rgb(0.0%,0.0%,0.0%)">
 <g fill="rgb(0.0%,0.0%,0.0%)">
 <g>
 <g stroke="rgb(0.0%,0.0%,0.0%)">
 <g fill="rgb(0.0%,0.0%,0.0%)">
 </g>
 </g>
 </g>
 <g>
 <g transform="matrix(1.55663,0.0,0.0,1.55663,390.10442,226.42368)">
 <g fill="rgb(0.0%,0.0%,0.0%)">
 <text style="stroke:none" transform="scale(1,-1) translate(15.54292,0)" text-anchor="middle"  font-size="10.95"> 
<tspan font-family="cmr" font-size="10">seeded</tspan></text> 
</g>
 </g>
 </g>
 </g>
 </g>
 </g>
 <g>
 <g stroke="rgb(100.0%,100.0%,100.0%)">
 <g fill="rgb(100.0%,100.0%,100.0%)">
 <path d=" M  347.83496 222.53322 L  377.70999 222.53322 L  377.70999 244.31952 L  347.83496 244.31952  " style="fill:none"/>
 </g>
 </g>
 </g>
 <g>
 <g stroke="rgb(100.0%,100.0%,100.0%)">
 <g fill="rgb(100.0%,100.0%,100.0%)">
 <g stroke-width="0.9pt">
 <path d=" M  347.83496 233.42659 L  377.70999 233.42659  " style="fill:none"/>
 </g>
 </g>
 </g>
 </g>
 <path d=" M  362.77248 233.42659  " style="fill:none"/>
 <g>
 <g stroke="rgb(100.0%,0.0%,0.0%)">
 <g fill="rgb(100.0%,0.0%,0.0%)">
 <g fill="rgb(100.0%,0.0%,0.0%)">
 <path d=" M  369.97969 233.42659 C  369.97969 237.40707 366.75296 240.6338 362.77248 240.6338 C  358.79199 240.6338 355.56526 237.40707 355.56526 233.42659 C  355.56526 229.4461 358.79199 226.21938 362.77248 226.21938 C  366.75296 226.21938 369.97969 229.4461 369.97969 233.42659 Z M  362.77248 233.42659  " />
 </g>
 </g>
 </g>
 </g>
 <path d=" M  284.52744 300.49216  " style="fill:none"/>
 <g>
 <g stroke="rgb(0.0%,0.0%,0.0%)">
 <g fill="rgb(0.0%,0.0%,0.0%)">
 <g>
 <g stroke="rgb(0.0%,0.0%,0.0%)">
 <g fill="rgb(0.0%,0.0%,0.0%)">
 </g>
 </g>
 </g>
 <g>
 <g transform="matrix(1.22305,0.0,0.0,1.22305,208.1347,297.14406)">
 <g fill="rgb(0.0%,0.0%,0.0%)">
 <text style="stroke:none" transform="scale(1,-1) translate(62.4607,0)" text-anchor="middle"  font-size="10.95"> 
<tspan font-family="cmr" font-size="10">User run time for threefry</tspan></text> 
</g>
 </g>
 </g>
 </g>
 </g>
 </g>
 </g>
 </g>
 </g>
 </g>
 </g>
                                                                                                                           </g> 
</svg> 
