<?xml version="1.0" encoding="iso-8859-1" standalone="no"?> 
<?xml-stylesheet href="gsocPreprint.css" type="text/css"?> 
<svg xmlns="http://www.w3.org/2000/svg" xmlns:xlink="http://www.w3.org/1999/xlink" width="569.45486pt" height="311.63617pt" viewBox="-0.2 -0.2 569.45486 311.63617 "> 
<g transform="translate(0, 311.43617 ) scale(1,-1) translate(0,0.2 )"> 
<g>
 <g stroke="rgb(0.0%,0.0%,0.0%)">
 <g fill="rgb(0.0%,0.0%,0.0%)">
 <g stroke-width="0.4pt">
 <g>
 <g>
 <g stroke="rgb(100.0%,100.0%,100.0%)">
 <g fill="rgb(100.0%,100.0%,100.0%)">
 <g fill="rgb(100.0%,100.0%,100.0%)">
 <path d=" M  0.0 0.0 M  0.0 0.0 L  0.0 311.23618 L  569.05487 311.23618 L  569.05487 0.0 Z M  569.05487 311.23618  " />
 </g>
 </g>
 </g>
 </g>
 <g>
 <g stroke="rgb(100.0%,100.0%,100.0%)">
 <g fill="rgb(100.0%,100.0%,100.0%)">
 <g fill="rgb(100.0%,100.0%,100.0%)">
 <path d=" M  56.90549 31.12366 M  56.90549 31.12366 L  56.90549 280.11165 L  512.14938 280.11165 L  512.14938 31.12366 Z M  512.14938 280.11165  " />
 </g>
 </g>
 </g>
 </g>
 <g>
 <g stroke="rgb(0.0%,0.0%,0.0%)">
 <g fill="rgb(0.0%,0.0%,0.0%)">
 <g stroke-width="0.9pt">
 <path d=" M  56.90549 31.12366 L  56.90549 280.11165 L  512.14938 280.11165 L  512.14938 31.12366 L  56.90549 31.12366  " style="fill:none"/>
 </g>
 </g>
 </g>
 </g>
 <g>
 <g stroke="rgb(100.0%,100.0%,100.0%)">
 <g fill="rgb(100.0%,100.0%,100.0%)">
 <g fill="rgb(100.0%,100.0%,100.0%)">
 <path d=" M  56.90549 31.12366 M  56.90549 31.12366 L  56.90549 280.11165 L  512.14938 280.11165 L  512.14938 31.12366 Z M  512.14938 280.11165  " />
 </g>
 </g>
 </g>
 </g>
 <g>
 <g stroke="rgb(0.0%,0.0%,0.0%)">
 <g fill="rgb(0.0%,0.0%,0.0%)">
 <g stroke-width="0.9pt">
 <path d=" M  56.90549 31.12366 L  56.90549 280.11165 L  512.14938 280.11165 L  512.14938 31.12366 L  56.90549 31.12366  " style="fill:none"/>
 </g>
 </g>
 </g>
 </g>
 <g>
 <g stroke="rgb(0.0%,0.0%,0.0%)">
 <g fill="rgb(0.0%,0.0%,0.0%)">
 <g stroke-width="0.9pt">
 <path d=" M  56.90549 31.12366 L  512.14938 31.12366  " style="fill:none"/>
 </g>
 </g>
 </g>
 </g>
 <g>
 <g stroke="rgb(0.0%,0.0%,0.0%)">
 <g fill="rgb(0.0%,0.0%,0.0%)">
 <g stroke-width="0.9pt">
 <path d=" M  56.90549 38.59328 L  56.90549 31.12366  " style="fill:none"/>
 </g>
 </g>
 </g>
 </g>
 <g>
 <g stroke="rgb(0.0%,0.0%,0.0%)">
 <g fill="rgb(0.0%,0.0%,0.0%)">
 <g stroke-width="0.9pt">
 <path d=" M  69.87541 34.85825 L  69.87541 31.12366  " style="fill:none"/>
 </g>
 </g>
 </g>
 </g>
 <g>
 <g stroke="rgb(0.0%,0.0%,0.0%)">
 <g fill="rgb(0.0%,0.0%,0.0%)">
 <g stroke-width="0.9pt">
 <path d=" M  82.84534 34.85825 L  82.84534 31.12366  " style="fill:none"/>
 </g>
 </g>
 </g>
 </g>
 <g>
 <g stroke="rgb(0.0%,0.0%,0.0%)">
 <g fill="rgb(0.0%,0.0%,0.0%)">
 <g stroke-width="0.9pt">
 <path d=" M  95.81526 34.85825 L  95.81526 31.12366  " style="fill:none"/>
 </g>
 </g>
 </g>
 </g>
 <g>
 <g stroke="rgb(0.0%,0.0%,0.0%)">
 <g fill="rgb(0.0%,0.0%,0.0%)">
 <g stroke-width="0.9pt">
 <path d=" M  108.7852 34.85825 L  108.7852 31.12366  " style="fill:none"/>
 </g>
 </g>
 </g>
 </g>
 <g>
 <g stroke="rgb(0.0%,0.0%,0.0%)">
 <g fill="rgb(0.0%,0.0%,0.0%)">
 <g stroke-width="0.9pt">
 <path d=" M  121.75513 38.59328 L  121.75513 31.12366  " style="fill:none"/>
 </g>
 </g>
 </g>
 </g>
 <g>
 <g stroke="rgb(0.0%,0.0%,0.0%)">
 <g fill="rgb(0.0%,0.0%,0.0%)">
 <g stroke-width="0.9pt">
 <path d=" M  134.72505 34.85825 L  134.72505 31.12366  " style="fill:none"/>
 </g>
 </g>
 </g>
 </g>
 <g>
 <g stroke="rgb(0.0%,0.0%,0.0%)">
 <g fill="rgb(0.0%,0.0%,0.0%)">
 <g stroke-width="0.9pt">
 <path d=" M  147.69498 34.85825 L  147.69498 31.12366  " style="fill:none"/>
 </g>
 </g>
 </g>
 </g>
 <g>
 <g stroke="rgb(0.0%,0.0%,0.0%)">
 <g fill="rgb(0.0%,0.0%,0.0%)">
 <g stroke-width="0.9pt">
 <path d=" M  160.66447 34.85825 L  160.66447 31.12366  " style="fill:none"/>
 </g>
 </g>
 </g>
 </g>
 <g>
 <g stroke="rgb(0.0%,0.0%,0.0%)">
 <g fill="rgb(0.0%,0.0%,0.0%)">
 <g stroke-width="0.9pt">
 <path d=" M  173.6344 34.85825 L  173.6344 31.12366  " style="fill:none"/>
 </g>
 </g>
 </g>
 </g>
 <g>
 <g stroke="rgb(0.0%,0.0%,0.0%)">
 <g fill="rgb(0.0%,0.0%,0.0%)">
 <g stroke-width="0.9pt">
 <path d=" M  186.60434 38.59328 L  186.60434 31.12366  " style="fill:none"/>
 </g>
 </g>
 </g>
 </g>
 <g>
 <g stroke="rgb(0.0%,0.0%,0.0%)">
 <g fill="rgb(0.0%,0.0%,0.0%)">
 <g stroke-width="0.9pt">
 <path d=" M  199.57469 34.85825 L  199.57469 31.12366  " style="fill:none"/>
 </g>
 </g>
 </g>
 </g>
 <g>
 <g stroke="rgb(0.0%,0.0%,0.0%)">
 <g fill="rgb(0.0%,0.0%,0.0%)">
 <g stroke-width="0.9pt">
 <path d=" M  212.54463 34.85825 L  212.54463 31.12366  " style="fill:none"/>
 </g>
 </g>
 </g>
 </g>
 <g>
 <g stroke="rgb(0.0%,0.0%,0.0%)">
 <g fill="rgb(0.0%,0.0%,0.0%)">
 <g stroke-width="0.9pt">
 <path d=" M  225.51456 34.85825 L  225.51456 31.12366  " style="fill:none"/>
 </g>
 </g>
 </g>
 </g>
 <g>
 <g stroke="rgb(0.0%,0.0%,0.0%)">
 <g fill="rgb(0.0%,0.0%,0.0%)">
 <g stroke-width="0.9pt">
 <path d=" M  238.48448 34.85825 L  238.48448 31.12366  " style="fill:none"/>
 </g>
 </g>
 </g>
 </g>
 <g>
 <g stroke="rgb(0.0%,0.0%,0.0%)">
 <g fill="rgb(0.0%,0.0%,0.0%)">
 <g stroke-width="0.9pt">
 <path d=" M  251.4544 38.59328 L  251.4544 31.12366  " style="fill:none"/>
 </g>
 </g>
 </g>
 </g>
 <g>
 <g stroke="rgb(0.0%,0.0%,0.0%)">
 <g fill="rgb(0.0%,0.0%,0.0%)">
 <g stroke-width="0.9pt">
 <path d=" M  264.42435 34.85825 L  264.42435 31.12366  " style="fill:none"/>
 </g>
 </g>
 </g>
 </g>
 <g>
 <g stroke="rgb(0.0%,0.0%,0.0%)">
 <g fill="rgb(0.0%,0.0%,0.0%)">
 <g stroke-width="0.9pt">
 <path d=" M  277.39383 34.85825 L  277.39383 31.12366  " style="fill:none"/>
 </g>
 </g>
 </g>
 </g>
 <g>
 <g stroke="rgb(0.0%,0.0%,0.0%)">
 <g fill="rgb(0.0%,0.0%,0.0%)">
 <g stroke-width="0.9pt">
 <path d=" M  290.3629 34.85825 L  290.3629 31.12366  " style="fill:none"/>
 </g>
 </g>
 </g>
 </g>
 <g>
 <g stroke="rgb(0.0%,0.0%,0.0%)">
 <g fill="rgb(0.0%,0.0%,0.0%)">
 <g stroke-width="0.9pt">
 <path d=" M  303.33456 34.85825 L  303.33456 31.12366  " style="fill:none"/>
 </g>
 </g>
 </g>
 </g>
 <g>
 <g stroke="rgb(0.0%,0.0%,0.0%)">
 <g fill="rgb(0.0%,0.0%,0.0%)">
 <g stroke-width="0.9pt">
 <path d=" M  316.30362 38.59328 L  316.30362 31.12366  " style="fill:none"/>
 </g>
 </g>
 </g>
 </g>
 <g>
 <g stroke="rgb(0.0%,0.0%,0.0%)">
 <g fill="rgb(0.0%,0.0%,0.0%)">
 <g stroke-width="0.9pt">
 <path d=" M  329.27225 34.85825 L  329.27225 31.12366  " style="fill:none"/>
 </g>
 </g>
 </g>
 </g>
 <g>
 <g stroke="rgb(0.0%,0.0%,0.0%)">
 <g fill="rgb(0.0%,0.0%,0.0%)">
 <g stroke-width="0.9pt">
 <path d=" M  342.24391 34.85825 L  342.24391 31.12366  " style="fill:none"/>
 </g>
 </g>
 </g>
 </g>
 <g>
 <g stroke="rgb(0.0%,0.0%,0.0%)">
 <g fill="rgb(0.0%,0.0%,0.0%)">
 <g stroke-width="0.9pt">
 <path d=" M  355.21254 34.85825 L  355.21254 31.12366  " style="fill:none"/>
 </g>
 </g>
 </g>
 </g>
 <g>
 <g stroke="rgb(0.0%,0.0%,0.0%)">
 <g fill="rgb(0.0%,0.0%,0.0%)">
 <g stroke-width="0.9pt">
 <path d=" M  368.1842 34.85825 L  368.1842 31.12366  " style="fill:none"/>
 </g>
 </g>
 </g>
 </g>
 <g>
 <g stroke="rgb(0.0%,0.0%,0.0%)">
 <g fill="rgb(0.0%,0.0%,0.0%)">
 <g stroke-width="0.9pt">
 <path d=" M  381.15283 38.59328 L  381.15283 31.12366  " style="fill:none"/>
 </g>
 </g>
 </g>
 </g>
 <g>
 <g stroke="rgb(0.0%,0.0%,0.0%)">
 <g fill="rgb(0.0%,0.0%,0.0%)">
 <g stroke-width="0.9pt">
 <path d=" M  394.1245 34.85825 L  394.1245 31.12366  " style="fill:none"/>
 </g>
 </g>
 </g>
 </g>
 <g>
 <g stroke="rgb(0.0%,0.0%,0.0%)">
 <g fill="rgb(0.0%,0.0%,0.0%)">
 <g stroke-width="0.9pt">
 <path d=" M  407.09312 34.85825 L  407.09312 31.12366  " style="fill:none"/>
 </g>
 </g>
 </g>
 </g>
 <g>
 <g stroke="rgb(0.0%,0.0%,0.0%)">
 <g fill="rgb(0.0%,0.0%,0.0%)">
 <g stroke-width="0.9pt">
 <path d=" M  420.06218 34.85825 L  420.06218 31.12366  " style="fill:none"/>
 </g>
 </g>
 </g>
 </g>
 <g>
 <g stroke="rgb(0.0%,0.0%,0.0%)">
 <g fill="rgb(0.0%,0.0%,0.0%)">
 <g stroke-width="0.9pt">
 <path d=" M  433.03384 34.85825 L  433.03384 31.12366  " style="fill:none"/>
 </g>
 </g>
 </g>
 </g>
 <g>
 <g stroke="rgb(0.0%,0.0%,0.0%)">
 <g fill="rgb(0.0%,0.0%,0.0%)">
 <g stroke-width="0.9pt">
 <path d=" M  446.00247 38.59328 L  446.00247 31.12366  " style="fill:none"/>
 </g>
 </g>
 </g>
 </g>
 <g>
 <g stroke="rgb(0.0%,0.0%,0.0%)">
 <g fill="rgb(0.0%,0.0%,0.0%)">
 <g stroke-width="0.9pt">
 <path d=" M  458.97414 34.85825 L  458.97414 31.12366  " style="fill:none"/>
 </g>
 </g>
 </g>
 </g>
 <g>
 <g stroke="rgb(0.0%,0.0%,0.0%)">
 <g fill="rgb(0.0%,0.0%,0.0%)">
 <g stroke-width="0.9pt">
 <path d=" M  471.94276 34.85825 L  471.94276 31.12366  " style="fill:none"/>
 </g>
 </g>
 </g>
 </g>
 <g>
 <g stroke="rgb(0.0%,0.0%,0.0%)">
 <g fill="rgb(0.0%,0.0%,0.0%)">
 <g stroke-width="0.9pt">
 <path d=" M  484.91139 34.85825 L  484.91139 31.12366  " style="fill:none"/>
 </g>
 </g>
 </g>
 </g>
 <g>
 <g stroke="rgb(0.0%,0.0%,0.0%)">
 <g fill="rgb(0.0%,0.0%,0.0%)">
 <g stroke-width="0.9pt">
 <path d=" M  497.88306 34.85825 L  497.88306 31.12366  " style="fill:none"/>
 </g>
 </g>
 </g>
 </g>
 <g>
 <g stroke="rgb(0.0%,0.0%,0.0%)">
 <g fill="rgb(0.0%,0.0%,0.0%)">
 <g stroke-width="0.9pt">
 <path d=" M  510.85213 38.59328 L  510.85213 31.12366  " style="fill:none"/>
 </g>
 </g>
 </g>
 </g>
 <g>
 <g stroke="rgb(0.0%,0.0%,0.0%)">
 <g fill="rgb(0.0%,0.0%,0.0%)">
 <g stroke-width="0.9pt">
 <path d=" M  510.85213 38.59328 L  510.85213 31.12366  " style="fill:none"/>
 </g>
 </g>
 </g>
 </g>
 <path d=" M  56.90549 20.85286  " style="fill:none"/>
 <g>
 <g stroke="rgb(0.0%,0.0%,0.0%)">
 <g fill="rgb(0.0%,0.0%,0.0%)">
 <g>
 <g stroke="rgb(0.0%,0.0%,0.0%)">
 <g fill="rgb(0.0%,0.0%,0.0%)">
 </g>
 </g>
 </g>
 <g>
 <g transform="matrix(0.86171,0.0,0.0,0.86171,54.54655,20.85286)">
 <g fill="rgb(0.0%,0.0%,0.0%)">
 <text style="stroke:none" transform="scale(1,-1) translate(2.7375,0)" text-anchor="middle"  font-size="10.95"> 
<tspan font-family="cmr" font-size="10">0</tspan></text> 
</g>
 </g>
 </g>
 </g>
 </g>
 </g>
 <path d=" M  121.75513 20.85286  " style="fill:none"/>
 <g>
 <g stroke="rgb(0.0%,0.0%,0.0%)">
 <g fill="rgb(0.0%,0.0%,0.0%)">
 <g>
 <g stroke="rgb(0.0%,0.0%,0.0%)">
 <g fill="rgb(0.0%,0.0%,0.0%)">
 </g>
 </g>
 </g>
 <g>
 <g transform="matrix(0.86171,0.0,0.0,0.86171,119.3962,20.85286)">
 <g fill="rgb(0.0%,0.0%,0.0%)">
 <text style="stroke:none" transform="scale(1,-1) translate(2.7375,0)" text-anchor="middle"  font-size="10.95"> 
<tspan font-family="cmr" font-size="10">5</tspan></text> 
</g>
 </g>
 </g>
 </g>
 </g>
 </g>
 <path d=" M  186.60434 20.85286  " style="fill:none"/>
 <g>
 <g stroke="rgb(0.0%,0.0%,0.0%)">
 <g fill="rgb(0.0%,0.0%,0.0%)">
 <g>
 <g stroke="rgb(0.0%,0.0%,0.0%)">
 <g fill="rgb(0.0%,0.0%,0.0%)">
 </g>
 </g>
 </g>
 <g>
 <g transform="matrix(0.86171,0.0,0.0,0.86171,181.88647,20.85286)">
 <g fill="rgb(0.0%,0.0%,0.0%)">
 <text style="stroke:none" transform="scale(1,-1) translate(5.475,0)" text-anchor="middle"  font-size="10.95"> 
<tspan font-family="cmr" font-size="10">10</tspan></text> 
</g>
 </g>
 </g>
 </g>
 </g>
 </g>
 <path d=" M  251.4544 20.85286  " style="fill:none"/>
 <g>
 <g stroke="rgb(0.0%,0.0%,0.0%)">
 <g fill="rgb(0.0%,0.0%,0.0%)">
 <g>
 <g stroke="rgb(0.0%,0.0%,0.0%)">
 <g fill="rgb(0.0%,0.0%,0.0%)">
 </g>
 </g>
 </g>
 <g>
 <g transform="matrix(0.86171,0.0,0.0,0.86171,246.73654,20.85286)">
 <g fill="rgb(0.0%,0.0%,0.0%)">
 <text style="stroke:none" transform="scale(1,-1) translate(5.475,0)" text-anchor="middle"  font-size="10.95"> 
<tspan font-family="cmr" font-size="10">15</tspan></text> 
</g>
 </g>
 </g>
 </g>
 </g>
 </g>
 <path d=" M  316.30362 20.85286  " style="fill:none"/>
 <g>
 <g stroke="rgb(0.0%,0.0%,0.0%)">
 <g fill="rgb(0.0%,0.0%,0.0%)">
 <g>
 <g stroke="rgb(0.0%,0.0%,0.0%)">
 <g fill="rgb(0.0%,0.0%,0.0%)">
 </g>
 </g>
 </g>
 <g>
 <g transform="matrix(0.86171,0.0,0.0,0.86171,311.58575,20.85286)">
 <g fill="rgb(0.0%,0.0%,0.0%)">
 <text style="stroke:none" transform="scale(1,-1) translate(5.475,0)" text-anchor="middle"  font-size="10.95"> 
<tspan font-family="cmr" font-size="10">20</tspan></text> 
</g>
 </g>
 </g>
 </g>
 </g>
 </g>
 <path d=" M  381.15283 20.85286  " style="fill:none"/>
 <g>
 <g stroke="rgb(0.0%,0.0%,0.0%)">
 <g fill="rgb(0.0%,0.0%,0.0%)">
 <g>
 <g stroke="rgb(0.0%,0.0%,0.0%)">
 <g fill="rgb(0.0%,0.0%,0.0%)">
 </g>
 </g>
 </g>
 <g>
 <g transform="matrix(0.86171,0.0,0.0,0.86171,376.43497,20.85286)">
 <g fill="rgb(0.0%,0.0%,0.0%)">
 <text style="stroke:none" transform="scale(1,-1) translate(5.475,0)" text-anchor="middle"  font-size="10.95"> 
<tspan font-family="cmr" font-size="10">25</tspan></text> 
</g>
 </g>
 </g>
 </g>
 </g>
 </g>
 <path d=" M  446.00247 20.85286  " style="fill:none"/>
 <g>
 <g stroke="rgb(0.0%,0.0%,0.0%)">
 <g fill="rgb(0.0%,0.0%,0.0%)">
 <g>
 <g stroke="rgb(0.0%,0.0%,0.0%)">
 <g fill="rgb(0.0%,0.0%,0.0%)">
 </g>
 </g>
 </g>
 <g>
 <g transform="matrix(0.86171,0.0,0.0,0.86171,441.2846,20.85286)">
 <g fill="rgb(0.0%,0.0%,0.0%)">
 <text style="stroke:none" transform="scale(1,-1) translate(5.475,0)" text-anchor="middle"  font-size="10.95"> 
<tspan font-family="cmr" font-size="10">30</tspan></text> 
</g>
 </g>
 </g>
 </g>
 </g>
 </g>
 <path d=" M  510.85213 20.85286  " style="fill:none"/>
 <g>
 <g stroke="rgb(0.0%,0.0%,0.0%)">
 <g fill="rgb(0.0%,0.0%,0.0%)">
 <g>
 <g stroke="rgb(0.0%,0.0%,0.0%)">
 <g fill="rgb(0.0%,0.0%,0.0%)">
 </g>
 </g>
 </g>
 <g>
 <g transform="matrix(0.86171,0.0,0.0,0.86171,506.13426,20.85286)">
 <g fill="rgb(0.0%,0.0%,0.0%)">
 <text style="stroke:none" transform="scale(1,-1) translate(5.475,0)" text-anchor="middle"  font-size="10.95"> 
<tspan font-family="cmr" font-size="10">35</tspan></text> 
</g>
 </g>
 </g>
 </g>
 </g>
 </g>
 <g>
 <g stroke="rgb(0.0%,0.0%,0.0%)">
 <g fill="rgb(0.0%,0.0%,0.0%)">
 <g stroke-width="0.9pt">
 <path d=" M  56.90549 31.12366 L  56.90549 280.11165  " style="fill:none"/>
 </g>
 </g>
 </g>
 </g>
 <g>
 <g stroke="rgb(0.0%,0.0%,0.0%)">
 <g fill="rgb(0.0%,0.0%,0.0%)">
 <g stroke-width="0.9pt">
 <path d=" M  70.56267 56.76569 L  56.90549 56.76569  " style="fill:none"/>
 </g>
 </g>
 </g>
 </g>
 <g>
 <g stroke="rgb(0.0%,0.0%,0.0%)">
 <g fill="rgb(0.0%,0.0%,0.0%)">
 <g stroke-width="0.9pt">
 <path d=" M  63.7343 65.13835 L  56.90549 65.13835  " style="fill:none"/>
 </g>
 </g>
 </g>
 </g>
 <g>
 <g stroke="rgb(0.0%,0.0%,0.0%)">
 <g fill="rgb(0.0%,0.0%,0.0%)">
 <g stroke-width="0.9pt">
 <path d=" M  63.7343 73.51102 L  56.90549 73.51102  " style="fill:none"/>
 </g>
 </g>
 </g>
 </g>
 <g>
 <g stroke="rgb(0.0%,0.0%,0.0%)">
 <g fill="rgb(0.0%,0.0%,0.0%)">
 <g stroke-width="0.9pt">
 <path d=" M  63.7343 81.88412 L  56.90549 81.88412  " style="fill:none"/>
 </g>
 </g>
 </g>
 </g>
 <g>
 <g stroke="rgb(0.0%,0.0%,0.0%)">
 <g fill="rgb(0.0%,0.0%,0.0%)">
 <g stroke-width="0.9pt">
 <path d=" M  63.7343 90.25679 L  56.90549 90.25679  " style="fill:none"/>
 </g>
 </g>
 </g>
 </g>
 <g>
 <g stroke="rgb(0.0%,0.0%,0.0%)">
 <g fill="rgb(0.0%,0.0%,0.0%)">
 <g stroke-width="0.9pt">
 <path d=" M  70.56267 98.62988 L  56.90549 98.62988  " style="fill:none"/>
 </g>
 </g>
 </g>
 </g>
 <g>
 <g stroke="rgb(0.0%,0.0%,0.0%)">
 <g fill="rgb(0.0%,0.0%,0.0%)">
 <g stroke-width="0.9pt">
 <path d=" M  63.7343 107.00299 L  56.90549 107.00299  " style="fill:none"/>
 </g>
 </g>
 </g>
 </g>
 <g>
 <g stroke="rgb(0.0%,0.0%,0.0%)">
 <g fill="rgb(0.0%,0.0%,0.0%)">
 <g stroke-width="0.9pt">
 <path d=" M  63.7343 115.37566 L  56.90549 115.37566  " style="fill:none"/>
 </g>
 </g>
 </g>
 </g>
 <g>
 <g stroke="rgb(0.0%,0.0%,0.0%)">
 <g fill="rgb(0.0%,0.0%,0.0%)">
 <g stroke-width="0.9pt">
 <path d=" M  63.7343 123.74832 L  56.90549 123.74832  " style="fill:none"/>
 </g>
 </g>
 </g>
 </g>
 <g>
 <g stroke="rgb(0.0%,0.0%,0.0%)">
 <g fill="rgb(0.0%,0.0%,0.0%)">
 <g stroke-width="0.9pt">
 <path d=" M  63.7343 132.121 L  56.90549 132.121  " style="fill:none"/>
 </g>
 </g>
 </g>
 </g>
 <g>
 <g stroke="rgb(0.0%,0.0%,0.0%)">
 <g fill="rgb(0.0%,0.0%,0.0%)">
 <g stroke-width="0.9pt">
 <path d=" M  70.56267 140.4941 L  56.90549 140.4941  " style="fill:none"/>
 </g>
 </g>
 </g>
 </g>
 <g>
 <g stroke="rgb(0.0%,0.0%,0.0%)">
 <g fill="rgb(0.0%,0.0%,0.0%)">
 <g stroke-width="0.9pt">
 <path d=" M  63.7343 148.8672 L  56.90549 148.8672  " style="fill:none"/>
 </g>
 </g>
 </g>
 </g>
 <g>
 <g stroke="rgb(0.0%,0.0%,0.0%)">
 <g fill="rgb(0.0%,0.0%,0.0%)">
 <g stroke-width="0.9pt">
 <path d=" M  63.7343 157.23987 L  56.90549 157.23987  " style="fill:none"/>
 </g>
 </g>
 </g>
 </g>
 <g>
 <g stroke="rgb(0.0%,0.0%,0.0%)">
 <g fill="rgb(0.0%,0.0%,0.0%)">
 <g stroke-width="0.9pt">
 <path d=" M  63.7343 165.61253 L  56.90549 165.61253  " style="fill:none"/>
 </g>
 </g>
 </g>
 </g>
 <g>
 <g stroke="rgb(0.0%,0.0%,0.0%)">
 <g fill="rgb(0.0%,0.0%,0.0%)">
 <g stroke-width="0.9pt">
 <path d=" M  63.7343 173.98564 L  56.90549 173.98564  " style="fill:none"/>
 </g>
 </g>
 </g>
 </g>
 <g>
 <g stroke="rgb(0.0%,0.0%,0.0%)">
 <g fill="rgb(0.0%,0.0%,0.0%)">
 <g stroke-width="0.9pt">
 <path d=" M  70.56267 182.3583 L  56.90549 182.3583  " style="fill:none"/>
 </g>
 </g>
 </g>
 </g>
 <g>
 <g stroke="rgb(0.0%,0.0%,0.0%)">
 <g fill="rgb(0.0%,0.0%,0.0%)">
 <g stroke-width="0.9pt">
 <path d=" M  63.7343 190.7314 L  56.90549 190.7314  " style="fill:none"/>
 </g>
 </g>
 </g>
 </g>
 <g>
 <g stroke="rgb(0.0%,0.0%,0.0%)">
 <g fill="rgb(0.0%,0.0%,0.0%)">
 <g stroke-width="0.9pt">
 <path d=" M  63.7343 199.1045 L  56.90549 199.1045  " style="fill:none"/>
 </g>
 </g>
 </g>
 </g>
 <g>
 <g stroke="rgb(0.0%,0.0%,0.0%)">
 <g fill="rgb(0.0%,0.0%,0.0%)">
 <g stroke-width="0.9pt">
 <path d=" M  63.7343 207.47717 L  56.90549 207.47717  " style="fill:none"/>
 </g>
 </g>
 </g>
 </g>
 <g>
 <g stroke="rgb(0.0%,0.0%,0.0%)">
 <g fill="rgb(0.0%,0.0%,0.0%)">
 <g stroke-width="0.9pt">
 <path d=" M  63.7343 215.84984 L  56.90549 215.84984  " style="fill:none"/>
 </g>
 </g>
 </g>
 </g>
 <g>
 <g stroke="rgb(0.0%,0.0%,0.0%)">
 <g fill="rgb(0.0%,0.0%,0.0%)">
 <g stroke-width="0.9pt">
 <path d=" M  70.56267 224.22252 L  56.90549 224.22252  " style="fill:none"/>
 </g>
 </g>
 </g>
 </g>
 <g>
 <g stroke="rgb(0.0%,0.0%,0.0%)">
 <g fill="rgb(0.0%,0.0%,0.0%)">
 <g stroke-width="0.9pt">
 <path d=" M  63.7343 232.59561 L  56.90549 232.59561  " style="fill:none"/>
 </g>
 </g>
 </g>
 </g>
 <g>
 <g stroke="rgb(0.0%,0.0%,0.0%)">
 <g fill="rgb(0.0%,0.0%,0.0%)">
 <g stroke-width="0.9pt">
 <path d=" M  63.7343 240.96872 L  56.90549 240.96872  " style="fill:none"/>
 </g>
 </g>
 </g>
 </g>
 <g>
 <g stroke="rgb(0.0%,0.0%,0.0%)">
 <g fill="rgb(0.0%,0.0%,0.0%)">
 <g stroke-width="0.9pt">
 <path d=" M  63.7343 249.34138 L  56.90549 249.34138  " style="fill:none"/>
 </g>
 </g>
 </g>
 </g>
 <g>
 <g stroke="rgb(0.0%,0.0%,0.0%)">
 <g fill="rgb(0.0%,0.0%,0.0%)">
 <g stroke-width="0.9pt">
 <path d=" M  63.7343 257.7145 L  56.90549 257.7145  " style="fill:none"/>
 </g>
 </g>
 </g>
 </g>
 <g>
 <g stroke="rgb(0.0%,0.0%,0.0%)">
 <g fill="rgb(0.0%,0.0%,0.0%)">
 <g stroke-width="0.9pt">
 <path d=" M  70.56267 266.08716 L  56.90549 266.08716  " style="fill:none"/>
 </g>
 </g>
 </g>
 </g>
 <g>
 <g stroke="rgb(0.0%,0.0%,0.0%)">
 <g fill="rgb(0.0%,0.0%,0.0%)">
 <g stroke-width="0.9pt">
 <path d=" M  70.56267 56.76569 L  56.90549 56.76569  " style="fill:none"/>
 </g>
 </g>
 </g>
 </g>
 <g>
 <g stroke="rgb(0.0%,0.0%,0.0%)">
 <g fill="rgb(0.0%,0.0%,0.0%)">
 <g stroke-width="0.9pt">
 <path d=" M  63.7343 48.39258 L  56.90549 48.39258  " style="fill:none"/>
 </g>
 </g>
 </g>
 </g>
 <g>
 <g stroke="rgb(0.0%,0.0%,0.0%)">
 <g fill="rgb(0.0%,0.0%,0.0%)">
 <g stroke-width="0.9pt">
 <path d=" M  63.7343 40.01947 L  56.90549 40.01947  " style="fill:none"/>
 </g>
 </g>
 </g>
 </g>
 <g>
 <g stroke="rgb(0.0%,0.0%,0.0%)">
 <g fill="rgb(0.0%,0.0%,0.0%)">
 <g stroke-width="0.9pt">
 <path d=" M  63.7343 31.6468 L  56.90549 31.6468  " style="fill:none"/>
 </g>
 </g>
 </g>
 </g>
 <g>
 <g stroke="rgb(0.0%,0.0%,0.0%)">
 <g fill="rgb(0.0%,0.0%,0.0%)">
 <g stroke-width="0.9pt">
 <path d=" M  70.56267 266.08716 L  56.90549 266.08716  " style="fill:none"/>
 </g>
 </g>
 </g>
 </g>
 <g>
 <g stroke="rgb(0.0%,0.0%,0.0%)">
 <g fill="rgb(0.0%,0.0%,0.0%)">
 <g stroke-width="0.9pt">
 <path d=" M  63.7343 274.45982 L  56.90549 274.45982  " style="fill:none"/>
 </g>
 </g>
 </g>
 </g>
 <path d=" M  54.06003 56.76569  " style="fill:none"/>
 <g>
 <g stroke="rgb(0.0%,0.0%,0.0%)">
 <g fill="rgb(0.0%,0.0%,0.0%)">
 <g>
 <g stroke="rgb(0.0%,0.0%,0.0%)">
 <g fill="rgb(0.0%,0.0%,0.0%)">
 </g>
 </g>
 </g>
 <g>
 <g transform="matrix(0.86171,0.0,0.0,0.86171,36.58919,53.72531)">
 <g fill="rgb(0.0%,0.0%,0.0%)">
 <text style="stroke:none" transform="scale(1,-1) translate(8.21251,0)" text-anchor="middle"  font-size="10.95"> 
<tspan font-family="cmr" font-size="10">140</tspan></text> 
</g>
 </g>
 </g>
 </g>
 </g>
 </g>
 <path d=" M  54.06003 98.62988  " style="fill:none"/>
 <g>
 <g stroke="rgb(0.0%,0.0%,0.0%)">
 <g fill="rgb(0.0%,0.0%,0.0%)">
 <g>
 <g stroke="rgb(0.0%,0.0%,0.0%)">
 <g fill="rgb(0.0%,0.0%,0.0%)">
 </g>
 </g>
 </g>
 <g>
 <g transform="matrix(0.86171,0.0,0.0,0.86171,36.58919,95.58951)">
 <g fill="rgb(0.0%,0.0%,0.0%)">
 <text style="stroke:none" transform="scale(1,-1) translate(8.21251,0)" text-anchor="middle"  font-size="10.95"> 
<tspan font-family="cmr" font-size="10">150</tspan></text> 
</g>
 </g>
 </g>
 </g>
 </g>
 </g>
 <path d=" M  54.06003 140.4941  " style="fill:none"/>
 <g>
 <g stroke="rgb(0.0%,0.0%,0.0%)">
 <g fill="rgb(0.0%,0.0%,0.0%)">
 <g>
 <g stroke="rgb(0.0%,0.0%,0.0%)">
 <g fill="rgb(0.0%,0.0%,0.0%)">
 </g>
 </g>
 </g>
 <g>
 <g transform="matrix(0.86171,0.0,0.0,0.86171,36.58919,137.45372)">
 <g fill="rgb(0.0%,0.0%,0.0%)">
 <text style="stroke:none" transform="scale(1,-1) translate(8.21251,0)" text-anchor="middle"  font-size="10.95"> 
<tspan font-family="cmr" font-size="10">160</tspan></text> 
</g>
 </g>
 </g>
 </g>
 </g>
 </g>
 <path d=" M  54.06003 182.3583  " style="fill:none"/>
 <g>
 <g stroke="rgb(0.0%,0.0%,0.0%)">
 <g fill="rgb(0.0%,0.0%,0.0%)">
 <g>
 <g stroke="rgb(0.0%,0.0%,0.0%)">
 <g fill="rgb(0.0%,0.0%,0.0%)">
 </g>
 </g>
 </g>
 <g>
 <g transform="matrix(0.86171,0.0,0.0,0.86171,36.58919,179.31793)">
 <g fill="rgb(0.0%,0.0%,0.0%)">
 <text style="stroke:none" transform="scale(1,-1) translate(8.21251,0)" text-anchor="middle"  font-size="10.95"> 
<tspan font-family="cmr" font-size="10">170</tspan></text> 
</g>
 </g>
 </g>
 </g>
 </g>
 </g>
 <path d=" M  54.06003 224.22252  " style="fill:none"/>
 <g>
 <g stroke="rgb(0.0%,0.0%,0.0%)">
 <g fill="rgb(0.0%,0.0%,0.0%)">
 <g>
 <g stroke="rgb(0.0%,0.0%,0.0%)">
 <g fill="rgb(0.0%,0.0%,0.0%)">
 </g>
 </g>
 </g>
 <g>
 <g transform="matrix(0.86171,0.0,0.0,0.86171,36.58919,221.18214)">
 <g fill="rgb(0.0%,0.0%,0.0%)">
 <text style="stroke:none" transform="scale(1,-1) translate(8.21251,0)" text-anchor="middle"  font-size="10.95"> 
<tspan font-family="cmr" font-size="10">180</tspan></text> 
</g>
 </g>
 </g>
 </g>
 </g>
 </g>
 <path d=" M  54.06003 266.08716  " style="fill:none"/>
 <g>
 <g stroke="rgb(0.0%,0.0%,0.0%)">
 <g fill="rgb(0.0%,0.0%,0.0%)">
 <g>
 <g stroke="rgb(0.0%,0.0%,0.0%)">
 <g fill="rgb(0.0%,0.0%,0.0%)">
 </g>
 </g>
 </g>
 <g>
 <g transform="matrix(0.86171,0.0,0.0,0.86171,36.58919,263.04678)">
 <g fill="rgb(0.0%,0.0%,0.0%)">
 <text style="stroke:none" transform="scale(1,-1) translate(8.21251,0)" text-anchor="middle"  font-size="10.95"> 
<tspan font-family="cmr" font-size="10">190</tspan></text> 
</g>
 </g>
 </g>
 </g>
 </g>
 </g>
 <path d=" M  69.87541 50.27638  " style="fill:none"/>
 <g>
 <g stroke="rgb(0.0%,100.0%,0.0%)">
 <g fill="rgb(0.0%,100.0%,0.0%)">
 <g fill="rgb(0.0%,100.0%,0.0%)">
 <path d=" M  77.08263 50.27638 C  77.08263 54.25687 73.8559 57.4836 69.87541 57.4836 C  65.89493 57.4836 62.6682 54.25687 62.6682 50.27638 C  62.6682 46.2959 65.89493 43.06917 69.87541 43.06917 C  73.8559 43.06917 77.08263 46.2959 77.08263 50.27638 Z M  69.87541 50.27638  " />
 </g>
 </g>
 </g>
 </g>
 <path d=" M  82.84534 113.7428  " style="fill:none"/>
 <g>
 <g stroke="rgb(0.0%,100.0%,0.0%)">
 <g fill="rgb(0.0%,100.0%,0.0%)">
 <g fill="rgb(0.0%,100.0%,0.0%)">
 <path d=" M  90.05255 113.7428 C  90.05255 117.72328 86.82582 120.95001 82.84534 120.95001 C  78.86485 120.95001 75.63812 117.72328 75.63812 113.7428 C  75.63812 109.76231 78.86485 106.53558 82.84534 106.53558 C  86.82582 106.53558 90.05255 109.76231 90.05255 113.7428 Z M  82.84534 113.7428  " />
 </g>
 </g>
 </g>
 </g>
 <path d=" M  95.81526 148.1973  " style="fill:none"/>
 <g>
 <g stroke="rgb(0.0%,100.0%,0.0%)">
 <g fill="rgb(0.0%,100.0%,0.0%)">
 <g fill="rgb(0.0%,100.0%,0.0%)">
 <path d=" M  103.02248 148.1973 C  103.02248 152.17778 99.79575 155.40451 95.81526 155.40451 C  91.83478 155.40451 88.60805 152.17778 88.60805 148.1973 C  88.60805 144.21681 91.83478 140.99008 95.81526 140.99008 C  99.79575 140.99008 103.02248 144.21681 103.02248 148.1973 Z M  95.81526 148.1973  " />
 </g>
 </g>
 </g>
 </g>
 <path d=" M  108.7852 160.92366  " style="fill:none"/>
 <g>
 <g stroke="rgb(0.0%,100.0%,0.0%)">
 <g fill="rgb(0.0%,100.0%,0.0%)">
 <g fill="rgb(0.0%,100.0%,0.0%)">
 <path d=" M  115.99242 160.92366 C  115.99242 164.90414 112.76569 168.13087 108.7852 168.13087 C  104.80472 168.13087 101.57799 164.90414 101.57799 160.92366 C  101.57799 156.94318 104.80472 153.71645 108.7852 153.71645 C  112.76569 153.71645 115.99242 156.94318 115.99242 160.92366 Z M  108.7852 160.92366  " />
 </g>
 </g>
 </g>
 </g>
 <path d=" M  121.75513 165.65465  " style="fill:none"/>
 <g>
 <g stroke="rgb(0.0%,100.0%,0.0%)">
 <g fill="rgb(0.0%,100.0%,0.0%)">
 <g fill="rgb(0.0%,100.0%,0.0%)">
 <path d=" M  128.96234 165.65465 C  128.96234 169.63513 125.73561 172.86186 121.75513 172.86186 C  117.77464 172.86186 114.54791 169.63513 114.54791 165.65465 C  114.54791 161.67416 117.77464 158.44743 121.75513 158.44743 C  125.73561 158.44743 128.96234 161.67416 128.96234 165.65465 Z M  121.75513 165.65465  " />
 </g>
 </g>
 </g>
 </g>
 <path d=" M  134.72505 169.71529  " style="fill:none"/>
 <g>
 <g stroke="rgb(0.0%,100.0%,0.0%)">
 <g fill="rgb(0.0%,100.0%,0.0%)">
 <g fill="rgb(0.0%,100.0%,0.0%)">
 <path d=" M  141.93227 169.71529 C  141.93227 173.69577 138.70554 176.9225 134.72505 176.9225 C  130.74457 176.9225 127.51784 173.69577 127.51784 169.71529 C  127.51784 165.7348 130.74457 162.50807 134.72505 162.50807 C  138.70554 162.50807 141.93227 165.7348 141.93227 169.71529 Z M  134.72505 169.71529  " />
 </g>
 </g>
 </g>
 </g>
 <path d=" M  147.69498 166.99445  " style="fill:none"/>
 <g>
 <g stroke="rgb(0.0%,100.0%,0.0%)">
 <g fill="rgb(0.0%,100.0%,0.0%)">
 <g fill="rgb(0.0%,100.0%,0.0%)">
 <path d=" M  154.90219 166.99445 C  154.90219 170.97493 151.67546 174.20166 147.69498 174.20166 C  143.7145 174.20166 140.48776 170.97493 140.48776 166.99445 C  140.48776 163.01396 143.7145 159.78723 147.69498 159.78723 C  151.67546 159.78723 154.90219 163.01396 154.90219 166.99445 Z M  147.69498 166.99445  " />
 </g>
 </g>
 </g>
 </g>
 <path d=" M  160.66447 172.68794  " style="fill:none"/>
 <g>
 <g stroke="rgb(0.0%,100.0%,0.0%)">
 <g fill="rgb(0.0%,100.0%,0.0%)">
 <g fill="rgb(0.0%,100.0%,0.0%)">
 <path d=" M  167.87169 172.68794 C  167.87169 176.66843 164.64496 179.89516 160.66447 179.89516 C  156.68399 179.89516 153.45726 176.66843 153.45726 172.68794 C  153.45726 168.70746 156.68399 165.48073 160.66447 165.48073 C  164.64496 165.48073 167.87169 168.70746 167.87169 172.68794 Z M  160.66447 172.68794  " />
 </g>
 </g>
 </g>
 </g>
 <path d=" M  173.6344 164.85928  " style="fill:none"/>
 <g>
 <g stroke="rgb(0.0%,100.0%,0.0%)">
 <g fill="rgb(0.0%,100.0%,0.0%)">
 <g fill="rgb(0.0%,100.0%,0.0%)">
 <path d=" M  180.84161 164.85928 C  180.84161 168.83977 177.61488 172.0665 173.6344 172.0665 C  169.65392 172.0665 166.42719 168.83977 166.42719 164.85928 C  166.42719 160.8788 169.65392 157.65207 173.6344 157.65207 C  177.61488 157.65207 180.84161 160.8788 180.84161 164.85928 Z M  173.6344 164.85928  " />
 </g>
 </g>
 </g>
 </g>
 <path d=" M  186.60434 171.26436  " style="fill:none"/>
 <g>
 <g stroke="rgb(0.0%,100.0%,0.0%)">
 <g fill="rgb(0.0%,100.0%,0.0%)">
 <g fill="rgb(0.0%,100.0%,0.0%)">
 <path d=" M  193.81155 171.26436 C  193.81155 175.24484 190.58482 178.47157 186.60434 178.47157 C  182.62386 178.47157 179.39713 175.24484 179.39713 171.26436 C  179.39713 167.28387 182.62386 164.05714 186.60434 164.05714 C  190.58482 164.05714 193.81155 167.28387 193.81155 171.26436 Z M  186.60434 171.26436  " />
 </g>
 </g>
 </g>
 </g>
 <path d=" M  199.57469 165.69632  " style="fill:none"/>
 <g>
 <g stroke="rgb(0.0%,100.0%,0.0%)">
 <g fill="rgb(0.0%,100.0%,0.0%)">
 <g fill="rgb(0.0%,100.0%,0.0%)">
 <path d=" M  206.7819 165.69632 C  206.7819 169.6768 203.55518 172.90353 199.57469 172.90353 C  195.59421 172.90353 192.36748 169.6768 192.36748 165.69632 C  192.36748 161.71584 195.59421 158.4891 199.57469 158.4891 C  203.55518 158.4891 206.7819 161.71584 206.7819 165.69632 Z M  199.57469 165.69632  " />
 </g>
 </g>
 </g>
 </g>
 <path d=" M  212.54463 165.8639  " style="fill:none"/>
 <g>
 <g stroke="rgb(0.0%,100.0%,0.0%)">
 <g fill="rgb(0.0%,100.0%,0.0%)">
 <g fill="rgb(0.0%,100.0%,0.0%)">
 <path d=" M  219.75185 165.8639 C  219.75185 169.84439 216.52512 173.07112 212.54463 173.07112 C  208.56415 173.07112 205.33742 169.84439 205.33742 165.8639 C  205.33742 161.88342 208.56415 158.6567 212.54463 158.6567 C  216.52512 158.6567 219.75185 161.88342 219.75185 165.8639 Z M  212.54463 165.8639  " />
 </g>
 </g>
 </g>
 </g>
 <path d=" M  225.51456 170.84583  " style="fill:none"/>
 <g>
 <g stroke="rgb(0.0%,100.0%,0.0%)">
 <g fill="rgb(0.0%,100.0%,0.0%)">
 <g fill="rgb(0.0%,100.0%,0.0%)">
 <path d=" M  232.72177 170.84583 C  232.72177 174.82631 229.49504 178.05304 225.51456 178.05304 C  221.53407 178.05304 218.30734 174.82631 218.30734 170.84583 C  218.30734 166.86534 221.53407 163.63861 225.51456 163.63861 C  229.49504 163.63861 232.72177 166.86534 232.72177 170.84583 Z M  225.51456 170.84583  " />
 </g>
 </g>
 </g>
 </g>
 <path d=" M  238.48448 170.46898  " style="fill:none"/>
 <g>
 <g stroke="rgb(0.0%,100.0%,0.0%)">
 <g fill="rgb(0.0%,100.0%,0.0%)">
 <g fill="rgb(0.0%,100.0%,0.0%)">
 <path d=" M  245.6917 170.46898 C  245.6917 174.44946 242.46497 177.6762 238.48448 177.6762 C  234.504 177.6762 231.27727 174.44946 231.27727 170.46898 C  231.27727 166.4885 234.504 163.26176 238.48448 163.26176 C  242.46497 163.26176 245.6917 166.4885 245.6917 170.46898 Z M  238.48448 170.46898  " />
 </g>
 </g>
 </g>
 </g>
 <path d=" M  251.4544 179.84673  " style="fill:none"/>
 <g>
 <g stroke="rgb(0.0%,100.0%,0.0%)">
 <g fill="rgb(0.0%,100.0%,0.0%)">
 <g fill="rgb(0.0%,100.0%,0.0%)">
 <path d=" M  258.66162 179.84673 C  258.66162 183.82721 255.43489 187.05394 251.4544 187.05394 C  247.47392 187.05394 244.2472 183.82721 244.2472 179.84673 C  244.2472 175.86624 247.47392 172.63951 251.4544 172.63951 C  255.43489 172.63951 258.66162 175.86624 258.66162 179.84673 Z M  251.4544 179.84673  " />
 </g>
 </g>
 </g>
 </g>
 <path d=" M  264.42435 168.5014  " style="fill:none"/>
 <g>
 <g stroke="rgb(0.0%,100.0%,0.0%)">
 <g fill="rgb(0.0%,100.0%,0.0%)">
 <g fill="rgb(0.0%,100.0%,0.0%)">
 <path d=" M  271.63156 168.5014 C  271.63156 172.48189 268.40483 175.70862 264.42435 175.70862 C  260.44386 175.70862 257.21713 172.48189 257.21713 168.5014 C  257.21713 164.52092 260.44386 161.29419 264.42435 161.29419 C  268.40483 161.29419 271.63156 164.52092 271.63156 168.5014 Z M  264.42435 168.5014  " />
 </g>
 </g>
 </g>
 </g>
 <path d=" M  277.39383 60.28189  " style="fill:none"/>
 <g>
 <g stroke="rgb(0.0%,100.0%,0.0%)">
 <g fill="rgb(0.0%,100.0%,0.0%)">
 <g fill="rgb(0.0%,100.0%,0.0%)">
 <path d=" M  284.60104 60.28189 C  284.60104 64.26237 281.37431 67.4891 277.39383 67.4891 C  273.41335 67.4891 270.18661 64.26237 270.18661 60.28189 C  270.18661 56.3014 273.41335 53.07468 277.39383 53.07468 C  281.37431 53.07468 284.60104 56.3014 284.60104 60.28189 Z M  277.39383 60.28189  " />
 </g>
 </g>
 </g>
 </g>
 <path d=" M  290.3629 57.64485  " style="fill:none"/>
 <g>
 <g stroke="rgb(0.0%,100.0%,0.0%)">
 <g fill="rgb(0.0%,100.0%,0.0%)">
 <g fill="rgb(0.0%,100.0%,0.0%)">
 <path d=" M  297.57011 57.64485 C  297.57011 61.62534 294.34338 64.85207 290.3629 64.85207 C  286.38242 64.85207 283.15569 61.62534 283.15569 57.64485 C  283.15569 53.66437 286.38242 50.43764 290.3629 50.43764 C  294.34338 50.43764 297.57011 53.66437 297.57011 57.64485 Z M  290.3629 57.64485  " />
 </g>
 </g>
 </g>
 </g>
 <path d=" M  303.33456 69.78511  " style="fill:none"/>
 <g>
 <g stroke="rgb(0.0%,100.0%,0.0%)">
 <g fill="rgb(0.0%,100.0%,0.0%)">
 <g fill="rgb(0.0%,100.0%,0.0%)">
 <path d=" M  310.54178 69.78511 C  310.54178 73.7656 307.31505 76.99232 303.33456 76.99232 C  299.35408 76.99232 296.12735 73.7656 296.12735 69.78511 C  296.12735 65.80463 299.35408 62.5779 303.33456 62.5779 C  307.31505 62.5779 310.54178 65.80463 310.54178 69.78511 Z M  303.33456 69.78511  " />
 </g>
 </g>
 </g>
 </g>
 <path d=" M  316.30362 128.01868  " style="fill:none"/>
 <g>
 <g stroke="rgb(0.0%,100.0%,0.0%)">
 <g fill="rgb(0.0%,100.0%,0.0%)">
 <g fill="rgb(0.0%,100.0%,0.0%)">
 <path d=" M  323.51083 128.01868 C  323.51083 131.99916 320.2841 135.22589 316.30362 135.22589 C  312.32314 135.22589 309.0964 131.99916 309.0964 128.01868 C  309.0964 124.0382 312.32314 120.81146 316.30362 120.81146 C  320.2841 120.81146 323.51083 124.0382 323.51083 128.01868 Z M  316.30362 128.01868  " />
 </g>
 </g>
 </g>
 </g>
 <path d=" M  329.27225 145.72739  " style="fill:none"/>
 <g>
 <g stroke="rgb(0.0%,100.0%,0.0%)">
 <g fill="rgb(0.0%,100.0%,0.0%)">
 <g fill="rgb(0.0%,100.0%,0.0%)">
 <path d=" M  336.47946 145.72739 C  336.47946 149.70787 333.25273 152.9346 329.27225 152.9346 C  325.29176 152.9346 322.06503 149.70787 322.06503 145.72739 C  322.06503 141.7469 325.29176 138.52017 329.27225 138.52017 C  333.25273 138.52017 336.47946 141.7469 336.47946 145.72739 Z M  329.27225 145.72739  " />
 </g>
 </g>
 </g>
 </g>
 <path d=" M  342.24391 167.32918  " style="fill:none"/>
 <g>
 <g stroke="rgb(0.0%,100.0%,0.0%)">
 <g fill="rgb(0.0%,100.0%,0.0%)">
 <g fill="rgb(0.0%,100.0%,0.0%)">
 <path d=" M  349.45113 167.32918 C  349.45113 171.30966 346.2244 174.53639 342.24391 174.53639 C  338.26343 174.53639 335.0367 171.30966 335.0367 167.32918 C  335.0367 163.3487 338.26343 160.12196 342.24391 160.12196 C  346.2244 160.12196 349.45113 163.3487 349.45113 167.32918 Z M  342.24391 167.32918  " />
 </g>
 </g>
 </g>
 </g>
 <path d=" M  355.21254 173.98564  " style="fill:none"/>
 <g>
 <g stroke="rgb(0.0%,100.0%,0.0%)">
 <g fill="rgb(0.0%,100.0%,0.0%)">
 <g fill="rgb(0.0%,100.0%,0.0%)">
 <path d=" M  362.41975 173.98564 C  362.41975 177.96613 359.19302 181.19286 355.21254 181.19286 C  351.23206 181.19286 348.00533 177.96613 348.00533 173.98564 C  348.00533 170.00516 351.23206 166.77843 355.21254 166.77843 C  359.19302 166.77843 362.41975 170.00516 362.41975 173.98564 Z M  355.21254 173.98564  " />
 </g>
 </g>
 </g>
 </g>
 <path d=" M  368.1842 184.03284  " style="fill:none"/>
 <g>
 <g stroke="rgb(0.0%,100.0%,0.0%)">
 <g fill="rgb(0.0%,100.0%,0.0%)">
 <g fill="rgb(0.0%,100.0%,0.0%)">
 <path d=" M  375.39142 184.03284 C  375.39142 188.01332 372.16469 191.24005 368.1842 191.24005 C  364.20372 191.24005 360.97699 188.01332 360.97699 184.03284 C  360.97699 180.05235 364.20372 176.82562 368.1842 176.82562 C  372.16469 176.82562 375.39142 180.05235 375.39142 184.03284 Z M  368.1842 184.03284  " />
 </g>
 </g>
 </g>
 </g>
 <path d=" M  381.15283 188.05225  " style="fill:none"/>
 <g>
 <g stroke="rgb(0.0%,100.0%,0.0%)">
 <g fill="rgb(0.0%,100.0%,0.0%)">
 <g fill="rgb(0.0%,100.0%,0.0%)">
 <path d=" M  388.36005 188.05225 C  388.36005 192.03273 385.13332 195.25946 381.15283 195.25946 C  377.17235 195.25946 373.94562 192.03273 373.94562 188.05225 C  373.94562 184.07176 377.17235 180.84503 381.15283 180.84503 C  385.13332 180.84503 388.36005 184.07176 388.36005 188.05225 Z M  381.15283 188.05225  " />
 </g>
 </g>
 </g>
 </g>
 <path d=" M  394.1245 191.61057  " style="fill:none"/>
 <g>
 <g stroke="rgb(0.0%,100.0%,0.0%)">
 <g fill="rgb(0.0%,100.0%,0.0%)">
 <g fill="rgb(0.0%,100.0%,0.0%)">
 <path d=" M  401.33171 191.61057 C  401.33171 195.59105 398.10498 198.81778 394.1245 198.81778 C  390.14401 198.81778 386.91728 195.59105 386.91728 191.61057 C  386.91728 187.63008 390.14401 184.40335 394.1245 184.40335 C  398.10498 184.40335 401.33171 187.63008 401.33171 191.61057 Z M  394.1245 191.61057  " />
 </g>
 </g>
 </g>
 </g>
 <path d=" M  407.09312 183.99117  " style="fill:none"/>
 <g>
 <g stroke="rgb(0.0%,100.0%,0.0%)">
 <g fill="rgb(0.0%,100.0%,0.0%)">
 <g fill="rgb(0.0%,100.0%,0.0%)">
 <path d=" M  414.30034 183.99117 C  414.30034 187.97165 411.07361 191.19838 407.09312 191.19838 C  403.11264 191.19838 399.88591 187.97165 399.88591 183.99117 C  399.88591 180.01068 403.11264 176.78395 407.09312 176.78395 C  411.07361 176.78395 414.30034 180.01068 414.30034 183.99117 Z M  407.09312 183.99117  " />
 </g>
 </g>
 </g>
 </g>
 <path d=" M  420.06218 185.83328  " style="fill:none"/>
 <g>
 <g stroke="rgb(0.0%,100.0%,0.0%)">
 <g fill="rgb(0.0%,100.0%,0.0%)">
 <g fill="rgb(0.0%,100.0%,0.0%)">
 <path d=" M  427.2694 185.83328 C  427.2694 189.81377 424.04266 193.0405 420.06218 193.0405 C  416.0817 193.0405 412.85497 189.81377 412.85497 185.83328 C  412.85497 181.8528 416.0817 178.62607 420.06218 178.62607 C  424.04266 178.62607 427.2694 181.8528 427.2694 185.83328 Z M  420.06218 185.83328  " />
 </g>
 </g>
 </g>
 </g>
 <path d=" M  433.03384 188.59624  " style="fill:none"/>
 <g>
 <g stroke="rgb(0.0%,100.0%,0.0%)">
 <g fill="rgb(0.0%,100.0%,0.0%)">
 <g fill="rgb(0.0%,100.0%,0.0%)">
 <path d=" M  440.24106 188.59624 C  440.24106 192.57672 437.01433 195.80345 433.03384 195.80345 C  429.05336 195.80345 425.82663 192.57672 425.82663 188.59624 C  425.82663 184.61575 429.05336 181.38902 433.03384 181.38902 C  437.01433 181.38902 440.24106 184.61575 440.24106 188.59624 Z M  433.03384 188.59624  " />
 </g>
 </g>
 </g>
 </g>
 <path d=" M  446.00247 194.33185  " style="fill:none"/>
 <g>
 <g stroke="rgb(0.0%,100.0%,0.0%)">
 <g fill="rgb(0.0%,100.0%,0.0%)">
 <g fill="rgb(0.0%,100.0%,0.0%)">
 <path d=" M  453.20969 194.33185 C  453.20969 198.31233 449.98296 201.53906 446.00247 201.53906 C  442.02199 201.53906 438.79526 198.31233 438.79526 194.33185 C  438.79526 190.35136 442.02199 187.12463 446.00247 187.12463 C  449.98296 187.12463 453.20969 190.35136 453.20969 194.33185 Z M  446.00247 194.33185  " />
 </g>
 </g>
 </g>
 </g>
 <path d=" M  458.97414 203.4999  " style="fill:none"/>
 <g>
 <g stroke="rgb(0.0%,100.0%,0.0%)">
 <g fill="rgb(0.0%,100.0%,0.0%)">
 <g fill="rgb(0.0%,100.0%,0.0%)">
 <path d=" M  466.18135 203.4999 C  466.18135 207.48038 462.95462 210.7071 458.97414 210.7071 C  454.99365 210.7071 451.76692 207.48038 451.76692 203.4999 C  451.76692 199.51941 454.99365 196.29268 458.97414 196.29268 C  462.95462 196.29268 466.18135 199.51941 466.18135 203.4999 Z M  458.97414 203.4999  " />
 </g>
 </g>
 </g>
 </g>
 <path d=" M  471.94276 201.78323  " style="fill:none"/>
 <g>
 <g stroke="rgb(0.0%,100.0%,0.0%)">
 <g fill="rgb(0.0%,100.0%,0.0%)">
 <g fill="rgb(0.0%,100.0%,0.0%)">
 <path d=" M  479.14998 201.78323 C  479.14998 205.76372 475.92325 208.99045 471.94276 208.99045 C  467.96228 208.99045 464.73555 205.76372 464.73555 201.78323 C  464.73555 197.80275 467.96228 194.57602 471.94276 194.57602 C  475.92325 194.57602 479.14998 197.80275 479.14998 201.78323 Z M  471.94276 201.78323  " />
 </g>
 </g>
 </g>
 </g>
 <path d=" M  69.87541 172.98058  " style="fill:none"/>
 <g>
 <g stroke="rgb(100.0%,0.0%,0.0%)">
 <g fill="rgb(100.0%,0.0%,0.0%)">
 <g fill="rgb(100.0%,0.0%,0.0%)">
 <path d=" M  77.08263 172.98058 C  77.08263 176.96106 73.8559 180.18779 69.87541 180.18779 C  65.89493 180.18779 62.6682 176.96106 62.6682 172.98058 C  62.6682 169.00009 65.89493 165.77336 69.87541 165.77336 C  73.8559 165.77336 77.08263 169.00009 77.08263 172.98058 Z M  69.87541 172.98058  " />
 </g>
 </g>
 </g>
 </g>
 <path d=" M  82.84534 177.04166  " style="fill:none"/>
 <g>
 <g stroke="rgb(100.0%,0.0%,0.0%)">
 <g fill="rgb(100.0%,0.0%,0.0%)">
 <g fill="rgb(100.0%,0.0%,0.0%)">
 <path d=" M  90.05255 177.04166 C  90.05255 181.02214 86.82582 184.24887 82.84534 184.24887 C  78.86485 184.24887 75.63812 181.02214 75.63812 177.04166 C  75.63812 173.06117 78.86485 169.83444 82.84534 169.83444 C  86.82582 169.83444 90.05255 173.06117 90.05255 177.04166 Z M  82.84534 177.04166  " />
 </g>
 </g>
 </g>
 </g>
 <path d=" M  95.81526 173.81805  " style="fill:none"/>
 <g>
 <g stroke="rgb(100.0%,0.0%,0.0%)">
 <g fill="rgb(100.0%,0.0%,0.0%)">
 <g fill="rgb(100.0%,0.0%,0.0%)">
 <path d=" M  103.02248 173.81805 C  103.02248 177.79854 99.79575 181.02527 95.81526 181.02527 C  91.83478 181.02527 88.60805 177.79854 88.60805 173.81805 C  88.60805 169.83757 91.83478 166.61084 95.81526 166.61084 C  99.79575 166.61084 103.02248 169.83757 103.02248 173.81805 Z M  95.81526 173.81805  " />
 </g>
 </g>
 </g>
 </g>
 <path d=" M  108.7852 177.96292  " style="fill:none"/>
 <g>
 <g stroke="rgb(100.0%,0.0%,0.0%)">
 <g fill="rgb(100.0%,0.0%,0.0%)">
 <g fill="rgb(100.0%,0.0%,0.0%)">
 <path d=" M  115.99242 177.96292 C  115.99242 181.9434 112.76569 185.17014 108.7852 185.17014 C  104.80472 185.17014 101.57799 181.9434 101.57799 177.96292 C  101.57799 173.98244 104.80472 170.7557 108.7852 170.7557 C  112.76569 170.7557 115.99242 173.98244 115.99242 177.96292 Z M  108.7852 177.96292  " />
 </g>
 </g>
 </g>
 </g>
 <path d=" M  121.75513 179.00923  " style="fill:none"/>
 <g>
 <g stroke="rgb(100.0%,0.0%,0.0%)">
 <g fill="rgb(100.0%,0.0%,0.0%)">
 <g fill="rgb(100.0%,0.0%,0.0%)">
 <path d=" M  128.96234 179.00923 C  128.96234 182.98972 125.73561 186.21645 121.75513 186.21645 C  117.77464 186.21645 114.54791 182.98972 114.54791 179.00923 C  114.54791 175.02875 117.77464 171.80202 121.75513 171.80202 C  125.73561 171.80202 128.96234 175.02875 128.96234 179.00923 Z M  121.75513 179.00923  " />
 </g>
 </g>
 </g>
 </g>
 <path d=" M  134.72505 172.72963  " style="fill:none"/>
 <g>
 <g stroke="rgb(100.0%,0.0%,0.0%)">
 <g fill="rgb(100.0%,0.0%,0.0%)">
 <g fill="rgb(100.0%,0.0%,0.0%)">
 <path d=" M  141.93227 172.72963 C  141.93227 176.71011 138.70554 179.93684 134.72505 179.93684 C  130.74457 179.93684 127.51784 176.71011 127.51784 172.72963 C  127.51784 168.74915 130.74457 165.52242 134.72505 165.52242 C  138.70554 165.52242 141.93227 168.74915 141.93227 172.72963 Z M  134.72505 172.72963  " />
 </g>
 </g>
 </g>
 </g>
 <path d=" M  147.69498 176.16249  " style="fill:none"/>
 <g>
 <g stroke="rgb(100.0%,0.0%,0.0%)">
 <g fill="rgb(100.0%,0.0%,0.0%)">
 <g fill="rgb(100.0%,0.0%,0.0%)">
 <path d=" M  154.90219 176.16249 C  154.90219 180.14297 151.67546 183.3697 147.69498 183.3697 C  143.7145 183.3697 140.48776 180.14297 140.48776 176.16249 C  140.48776 172.182 143.7145 168.95528 147.69498 168.95528 C  151.67546 168.95528 154.90219 172.182 154.90219 176.16249 Z M  147.69498 176.16249  " />
 </g>
 </g>
 </g>
 </g>
 <path d=" M  160.66447 178.0884  " style="fill:none"/>
 <g>
 <g stroke="rgb(100.0%,0.0%,0.0%)">
 <g fill="rgb(100.0%,0.0%,0.0%)">
 <g fill="rgb(100.0%,0.0%,0.0%)">
 <path d=" M  167.87169 178.0884 C  167.87169 182.06888 164.64496 185.29561 160.66447 185.29561 C  156.68399 185.29561 153.45726 182.06888 153.45726 178.0884 C  153.45726 174.10791 156.68399 170.88118 160.66447 170.88118 C  164.64496 170.88118 167.87169 174.10791 167.87169 178.0884 Z M  160.66447 178.0884  " />
 </g>
 </g>
 </g>
 </g>
 <path d=" M  173.6344 183.86569  " style="fill:none"/>
 <g>
 <g stroke="rgb(100.0%,0.0%,0.0%)">
 <g fill="rgb(100.0%,0.0%,0.0%)">
 <g fill="rgb(100.0%,0.0%,0.0%)">
 <path d=" M  180.84161 183.86569 C  180.84161 187.84618 177.61488 191.0729 173.6344 191.0729 C  169.65392 191.0729 166.42719 187.84618 166.42719 183.86569 C  166.42719 179.88521 169.65392 176.65848 173.6344 176.65848 C  177.61488 176.65848 180.84161 179.88521 180.84161 183.86569 Z M  173.6344 183.86569  " />
 </g>
 </g>
 </g>
 </g>
 <path d=" M  186.60434 179.93051  " style="fill:none"/>
 <g>
 <g stroke="rgb(100.0%,0.0%,0.0%)">
 <g fill="rgb(100.0%,0.0%,0.0%)">
 <g fill="rgb(100.0%,0.0%,0.0%)">
 <path d=" M  193.81155 179.93051 C  193.81155 183.911 190.58482 187.13773 186.60434 187.13773 C  182.62386 187.13773 179.39713 183.911 179.39713 179.93051 C  179.39713 175.95003 182.62386 172.7233 186.60434 172.7233 C  190.58482 172.7233 193.81155 175.95003 193.81155 179.93051 Z M  186.60434 179.93051  " />
 </g>
 </g>
 </g>
 </g>
 <path d=" M  199.57469 178.92545  " style="fill:none"/>
 <g>
 <g stroke="rgb(100.0%,0.0%,0.0%)">
 <g fill="rgb(100.0%,0.0%,0.0%)">
 <g fill="rgb(100.0%,0.0%,0.0%)">
 <path d=" M  206.7819 178.92545 C  206.7819 182.90593 203.55518 186.13266 199.57469 186.13266 C  195.59421 186.13266 192.36748 182.90593 192.36748 178.92545 C  192.36748 174.94496 195.59421 171.71823 199.57469 171.71823 C  203.55518 171.71823 206.7819 174.94496 206.7819 178.92545 Z M  199.57469 178.92545  " />
 </g>
 </g>
 </g>
 </g>
 <path d=" M  212.54463 174.44585  " style="fill:none"/>
 <g>
 <g stroke="rgb(100.0%,0.0%,0.0%)">
 <g fill="rgb(100.0%,0.0%,0.0%)">
 <g fill="rgb(100.0%,0.0%,0.0%)">
 <path d=" M  219.75185 174.44585 C  219.75185 178.42633 216.52512 181.65306 212.54463 181.65306 C  208.56415 181.65306 205.33742 178.42633 205.33742 174.44585 C  205.33742 170.46536 208.56415 167.23863 212.54463 167.23863 C  216.52512 167.23863 219.75185 170.46536 219.75185 174.44585 Z M  212.54463 174.44585  " />
 </g>
 </g>
 </g>
 </g>
 <path d=" M  225.51456 175.03238  " style="fill:none"/>
 <g>
 <g stroke="rgb(100.0%,0.0%,0.0%)">
 <g fill="rgb(100.0%,0.0%,0.0%)">
 <g fill="rgb(100.0%,0.0%,0.0%)">
 <path d=" M  232.72177 175.03238 C  232.72177 179.01286 229.49504 182.2396 225.51456 182.2396 C  221.53407 182.2396 218.30734 179.01286 218.30734 175.03238 C  218.30734 171.0519 221.53407 167.82516 225.51456 167.82516 C  229.49504 167.82516 232.72177 171.0519 232.72177 175.03238 Z M  225.51456 175.03238  " />
 </g>
 </g>
 </g>
 </g>
 <path d=" M  238.48448 177.50229  " style="fill:none"/>
 <g>
 <g stroke="rgb(100.0%,0.0%,0.0%)">
 <g fill="rgb(100.0%,0.0%,0.0%)">
 <g fill="rgb(100.0%,0.0%,0.0%)">
 <path d=" M  245.6917 177.50229 C  245.6917 181.48277 242.46497 184.7095 238.48448 184.7095 C  234.504 184.7095 231.27727 181.48277 231.27727 177.50229 C  231.27727 173.5218 234.504 170.29507 238.48448 170.29507 C  242.46497 170.29507 245.6917 173.5218 245.6917 177.50229 Z M  238.48448 177.50229  " />
 </g>
 </g>
 </g>
 </g>
 <path d=" M  251.4544 174.53006  " style="fill:none"/>
 <g>
 <g stroke="rgb(100.0%,0.0%,0.0%)">
 <g fill="rgb(100.0%,0.0%,0.0%)">
 <g fill="rgb(100.0%,0.0%,0.0%)">
 <path d=" M  258.66162 174.53006 C  258.66162 178.51054 255.43489 181.73727 251.4544 181.73727 C  247.47392 181.73727 244.2472 178.51054 244.2472 174.53006 C  244.2472 170.54958 247.47392 167.32285 251.4544 167.32285 C  255.43489 167.32285 258.66162 170.54958 258.66162 174.53006 Z M  251.4544 174.53006  " />
 </g>
 </g>
 </g>
 </g>
 <path d=" M  264.42435 180.97726  " style="fill:none"/>
 <g>
 <g stroke="rgb(100.0%,0.0%,0.0%)">
 <g fill="rgb(100.0%,0.0%,0.0%)">
 <g fill="rgb(100.0%,0.0%,0.0%)">
 <path d=" M  271.63156 180.97726 C  271.63156 184.95775 268.40483 188.18448 264.42435 188.18448 C  260.44386 188.18448 257.21713 184.95775 257.21713 180.97726 C  257.21713 176.99678 260.44386 173.77005 264.42435 173.77005 C  268.40483 173.77005 271.63156 176.99678 271.63156 180.97726 Z M  264.42435 180.97726  " />
 </g>
 </g>
 </g>
 </g>
 <g>
 <g stroke="rgb(100.0%,100.0%,100.0%)">
 <g fill="rgb(100.0%,100.0%,100.0%)">
 <g fill="rgb(100.0%,100.0%,100.0%)">
 <path d=" M  341.43292 217.86476 M  341.43292 217.86476 L  341.43292 280.11165 L  512.14938 280.11165 L  512.14938 217.86476 Z M  512.14938 280.11165  " />
 </g>
 </g>
 </g>
 </g>
 <g>
 <g stroke="rgb(0.0%,0.0%,0.0%)">
 <g fill="rgb(0.0%,0.0%,0.0%)">
 <g stroke-width="0.9pt">
 <path d=" M  341.43292 217.86476 L  512.14938 217.86476  " style="fill:none"/>
 </g>
 </g>
 </g>
 </g>
 <g>
 <g stroke="rgb(0.0%,0.0%,0.0%)">
 <g fill="rgb(0.0%,0.0%,0.0%)">
 <g stroke-width="0.9pt">
 <path d=" M  512.14938 217.86476 L  512.14938 280.11165  " style="fill:none"/>
 </g>
 </g>
 </g>
 </g>
 <g>
 <g stroke="rgb(0.0%,0.0%,0.0%)">
 <g fill="rgb(0.0%,0.0%,0.0%)">
 <g stroke-width="0.9pt">
 <path d=" M  512.14938 280.11165 L  341.43292 280.11165  " style="fill:none"/>
 </g>
 </g>
 </g>
 </g>
 <g>
 <g stroke="rgb(0.0%,0.0%,0.0%)">
 <g fill="rgb(0.0%,0.0%,0.0%)">
 <g stroke-width="0.9pt">
 <path d=" M  341.43292 280.11165 L  341.43292 217.86476  " style="fill:none"/>
 </g>
 </g>
 </g>
 </g>
 <path d=" M  384.11203 257.5469  " style="fill:none"/>
 <g>
 <g stroke="rgb(0.0%,0.0%,0.0%)">
 <g fill="rgb(0.0%,0.0%,0.0%)">
 <g>
 <g stroke="rgb(0.0%,0.0%,0.0%)">
 <g fill="rgb(0.0%,0.0%,0.0%)">
 </g>
 </g>
 </g>
 <g>
 <g transform="matrix(1.55663,0.0,0.0,1.55663,390.10442,257.5469)">
 <g fill="rgb(0.0%,0.0%,0.0%)">
 <text style="stroke:none" transform="scale(1,-1) translate(16.5771,0)" text-anchor="middle"  font-size="10.95"> 
<tspan font-family="cmr" font-size="10">default</tspan></text> 
</g>
 </g>
 </g>
 </g>
 </g>
 </g>
 <g>
 <g stroke="rgb(100.0%,100.0%,100.0%)">
 <g fill="rgb(100.0%,100.0%,100.0%)">
 <path d=" M  347.83496 253.65688 L  377.70999 253.65688 L  377.70999 275.44318 L  347.83496 275.44318  " style="fill:none"/>
 </g>
 </g>
 </g>
 <g>
 <g stroke="rgb(100.0%,100.0%,100.0%)">
 <g fill="rgb(100.0%,100.0%,100.0%)">
 <g stroke-width="0.9pt">
 <path d=" M  347.83496 264.54982 L  377.70999 264.54982  " style="fill:none"/>
 </g>
 </g>
 </g>
 </g>
 <path d=" M  362.77248 264.54982  " style="fill:none"/>
 <g>
 <g stroke="rgb(0.0%,100.0%,0.0%)">
 <g fill="rgb(0.0%,100.0%,0.0%)">
 <g fill="rgb(0.0%,100.0%,0.0%)">
 <path d=" M  369.97969 264.54982 C  369.97969 268.5303 366.75296 271.75703 362.77248 271.75703 C  358.79199 271.75703 355.56526 268.5303 355.56526 264.54982 C  355.56526 260.56934 358.79199 257.3426 362.77248 257.3426 C  366.75296 257.3426 369.97969 260.56934 369.97969 264.54982 Z M  362.77248 264.54982  " />
 </g>
 </g>
 </g>
 </g>
 <path d=" M  384.11203 226.42368  " style="fill:none"/>
 <g>
 <g stroke="rgb(0.0%,0.0%,0.0%)">
 <g fill="rgb(0.0%,0.0%,0.0%)">
 <g>
 <g stroke="rgb(0.0%,0.0%,0.0%)">
 <g fill="rgb(0.0%,0.0%,0.0%)">
 </g>
 </g>
 </g>
 <g>
 <g transform="matrix(1.55663,0.0,0.0,1.55663,390.10442,226.42368)">
 <g fill="rgb(0.0%,0.0%,0.0%)">
 <text style="stroke:none" transform="scale(1,-1) translate(15.54292,0)" text-anchor="middle"  font-size="10.95"> 
<tspan font-family="cmr" font-size="10">seeded</tspan></text> 
</g>
 </g>
 </g>
 </g>
 </g>
 </g>
 <g>
 <g stroke="rgb(100.0%,100.0%,100.0%)">
 <g fill="rgb(100.0%,100.0%,100.0%)">
 <path d=" M  347.83496 222.53322 L  377.70999 222.53322 L  377.70999 244.31952 L  347.83496 244.31952  " style="fill:none"/>
 </g>
 </g>
 </g>
 <g>
 <g stroke="rgb(100.0%,100.0%,100.0%)">
 <g fill="rgb(100.0%,100.0%,100.0%)">
 <g stroke-width="0.9pt">
 <path d=" M  347.83496 233.42615 L  377.70999 233.42615  " style="fill:none"/>
 </g>
 </g>
 </g>
 </g>
 <path d=" M  362.77248 233.42615  " style="fill:none"/>
 <g>
 <g stroke="rgb(100.0%,0.0%,0.0%)">
 <g fill="rgb(100.0%,0.0%,0.0%)">
 <g fill="rgb(100.0%,0.0%,0.0%)">
 <path d=" M  369.97969 233.42615 C  369.97969 237.40663 366.75296 240.63336 362.77248 240.63336 C  358.79199 240.63336 355.56526 237.40663 355.56526 233.42615 C  355.56526 229.44566 358.79199 226.21893 362.77248 226.21893 C  366.75296 226.21893 369.97969 229.44566 369.97969 233.42615 Z M  362.77248 233.42615  " />
 </g>
 </g>
 </g>
 </g>
 <path d=" M  284.52744 301.12125  " style="fill:none"/>
 <g>
 <g stroke="rgb(0.0%,0.0%,0.0%)">
 <g fill="rgb(0.0%,0.0%,0.0%)">
 <g>
 <g stroke="rgb(0.0%,0.0%,0.0%)">
 <g fill="rgb(0.0%,0.0%,0.0%)">
 </g>
 </g>
 </g>
 <g>
 <g transform="matrix(1.13966,0.0,0.0,1.13966,213.03127,296.78816)">
 <g fill="rgb(0.0%,0.0%,0.0%)">
 <text style="stroke:none" transform="scale(1,-1) translate(62.73445,0)" text-anchor="middle"  font-size="10.95"> 
<tspan font-family="cmr" font-size="10">User run time for mixmax</tspan></text> 
</g>
 </g>
 </g>
 </g>
 </g>
 </g>
 </g>
 </g>
 </g>
 </g>
 </g>
                                                                                                                           </g> 
</svg> 
